<svg width="36" height="36" viewBox="0 0 36 36" fill="none" xmlns="http://www.w3.org/2000/svg">
<g clip-path="url(#clip0_732_18070)">
<path d="M18 36C27.9411 36 36 27.9411 36 18C36 8.05887 27.9411 0 18 0C8.05887 0 0 8.05887 0 18C0 27.9411 8.05887 36 18 36Z" fill="#3E3D53"/>
<path d="M25.7247 15.8074C22.4195 15.8074 19.1142 15.8074 15.8092 15.8074C16.6514 14.9652 17.4936 14.123 18.3357 13.2806C20.2784 11.3379 17.2519 8.33389 15.3044 10.2817C13.2514 12.3347 11.1988 14.3877 9.1458 16.4406C8.32183 17.2646 8.34403 18.6377 9.16199 19.4557C11.215 21.5083 13.2676 23.5613 15.3206 25.614C17.2633 27.5567 20.2673 24.5302 18.3194 22.5827C17.4824 21.7456 16.6454 20.9086 15.8083 20.0718C19.1037 20.0718 22.3989 20.0718 25.694 20.0718C28.4471 20.0718 28.4715 15.8074 25.7247 15.8074Z" fill="white"/>
</g>
<defs>
<clipPath id="clip0_732_18070">
<rect width="36" height="36" fill="white"/>
</clipPath>
</defs>
</svg>
