<svg width="24" height="24" viewBox="0 0 24 24" fill="none" xmlns="http://www.w3.org/2000/svg">
<g clip-path="url(#clip0_734_19577)">
<path d="M0.599609 3H23.3995V21H0.599609V3Z" fill="#90CAF9"/>
<path d="M4.20007 2.40039H0.600073C0.268726 2.40039 0 2.66912 0 3.00046V6.60046C0 6.93181 0.268726 7.20054 0.600073 7.20054C0.931421 7.20054 1.19993 6.93181 1.19993 6.60046V3.60054H4.20007C4.53142 3.60054 4.79993 3.33181 4.79993 3.00046C4.79993 2.66912 4.53142 2.40039 4.20007 2.40039Z" fill="#1976D2"/>
<path d="M4.20007 20.4008H1.19993V17.4009C1.19993 17.0695 0.931421 16.8008 0.600073 16.8008C0.268726 16.8008 0 17.0695 0 17.4009V21.0009C0 21.3322 0.268726 21.6009 0.600073 21.6009H4.20007C4.53142 21.6009 4.79993 21.3322 4.79993 21.0009C4.79993 20.6695 4.53142 20.4008 4.20007 20.4008Z" fill="#1976D2"/>
<path d="M23.4003 2.40039H19.8003C19.4689 2.40039 19.2002 2.66912 19.2002 3.00046C19.2002 3.33181 19.4689 3.60054 19.8003 3.60054H22.8002V6.60046C22.8002 6.93181 23.0689 7.20054 23.4003 7.20054C23.7316 7.20054 24.0003 6.93181 24.0003 6.60046V3.00046C24.0003 2.66912 23.7316 2.40039 23.4003 2.40039Z" fill="#1976D2"/>
<path d="M23.4003 16.8008C23.0689 16.8008 22.8002 17.0695 22.8002 17.4009V20.4008H19.8003C19.4689 20.4008 19.2002 20.6695 19.2002 21.0009C19.2002 21.3322 19.4689 21.6009 19.8003 21.6009H23.4003C23.7316 21.6009 24.0003 21.3322 24.0003 21.0009V17.4009C24.0003 17.0695 23.7316 16.8008 23.4003 16.8008Z" fill="#1976D2"/>
<path d="M4.19968 6C3.86833 6 3.59961 6.26873 3.59961 6.60007V17.4001C3.59961 17.7314 3.86833 18.0001 4.19968 18.0001C4.53103 18.0001 4.79954 17.7314 4.79954 17.4001V6.60007C4.79954 6.26873 4.53103 6 4.19968 6Z" fill="#1976D2"/>
<path d="M6.59985 6H7.8C8.13135 6 8.39985 6.26873 8.39985 6.60007V17.4001C8.39985 17.7314 8.13135 18.0001 7.8 18.0001H6.59985C6.26851 18.0001 6 17.7314 6 17.4001V6.60007C6 6.26873 6.26851 6 6.59985 6Z" fill="#1976D2"/>
<path d="M10.1995 6C9.86812 6 9.59961 6.26873 9.59961 6.60007V17.4001C9.59961 17.7314 9.86812 18.0001 10.1995 18.0001C10.5308 18.0001 10.7995 17.7314 10.7995 17.4001V6.60007C10.7995 6.26873 10.5308 6 10.1995 6Z" fill="#1976D2"/>
<path d="M12.6001 6H13.8C14.1313 6 14.4001 6.26873 14.4001 6.60007V17.4001C14.4001 17.7314 14.1313 18.0001 13.8 18.0001H12.6001C12.2687 18.0001 12 17.7314 12 17.4001V6.60007C12 6.26873 12.2687 6 12.6001 6Z" fill="#1976D2"/>
<path d="M16.1997 6C15.8683 6 15.5996 6.26873 15.5996 6.60007V17.4001C15.5996 17.7314 15.8683 18.0001 16.1997 18.0001C16.531 18.0001 16.7998 17.7314 16.7998 17.4001V6.60007C16.7998 6.26873 16.531 6 16.1997 6Z" fill="#1976D2"/>
<path d="M18.6001 6H19.8C20.1313 6 20.4001 6.26873 20.4001 6.60007V17.4001C20.4001 17.7314 20.1313 18.0001 19.8 18.0001H18.6001C18.2687 18.0001 18 17.7314 18 17.4001V6.60007C18 6.26873 18.2687 6 18.6001 6Z" fill="#1976D2"/>
</g>
<defs>
<clipPath id="clip0_734_19577">
<rect width="24" height="24" fill="white"/>
</clipPath>
</defs>
</svg>
