<svg width="36" height="36" viewBox="0 0 36 36" fill="none" xmlns="http://www.w3.org/2000/svg">
<g clip-path="url(#clip0_734_19976)">
<path d="M31.5601 9.93644H20.5034C19.8948 9.93644 19.4014 9.44298 19.4014 8.83443C19.4014 8.22587 19.8948 7.73242 20.5034 7.73242H31.5601C32.1687 7.73242 32.6621 8.22587 32.6621 8.83443C32.6621 9.44298 32.1688 9.93644 31.5601 9.93644Z" fill="#4D577E"/>
<path d="M15.4966 9.93644H4.4399C3.83127 9.93644 3.33789 9.44298 3.33789 8.83443C3.33789 8.22587 3.83134 7.73242 4.4399 7.73242H15.4966C16.1052 7.73242 16.5986 8.22587 16.5986 8.83443C16.5986 9.44298 16.1052 9.93644 15.4966 9.93644Z" fill="#57658C"/>
<path d="M20.5034 12.4394H15.4965C14.8879 12.4394 14.3945 11.946 14.3945 11.3374V6.33052C14.3945 5.7219 14.888 5.22852 15.4965 5.22852H20.5034C21.112 5.22852 21.6054 5.72197 21.6054 6.33052V11.3373C21.6054 11.946 21.112 12.4394 20.5034 12.4394Z" fill="#FFCF7C"/>
<path d="M33.229 11.6045C31.701 11.6045 30.458 10.3614 30.458 8.83352C30.458 7.30562 31.701 6.0625 33.229 6.0625C34.7569 6.0625 35.9999 7.30562 35.9999 8.83352C35.9999 10.3615 34.7568 11.6045 33.229 11.6045Z" fill="#FF8C00"/>
<path d="M2.77095 11.6045C1.24305 11.6045 0 10.3615 0 8.83352C0 7.30555 1.24305 6.0625 2.77095 6.0625C4.29884 6.0625 5.54189 7.30555 5.54189 8.83345C5.54189 10.3613 4.29891 11.6045 2.77095 11.6045Z" fill="#FF8C00"/>
<path d="M25.6994 30.6917L18.0002 27.6453L10.3009 30.6917C9.36563 31.0617 8.45889 30.0793 8.90896 29.1757L17.0137 12.9037C17.2001 12.5295 17.5821 12.293 18.0002 12.293C18.4181 12.293 18.8002 12.5295 18.9866 12.9037L27.0913 29.1757C27.5442 30.0846 26.6281 31.0594 25.6994 30.6917Z" fill="#197891"/>
<path d="M27.0914 29.1757L18.9867 12.9037C18.8003 12.5295 18.4183 12.293 18.0002 12.293H18V27.6454L18.0002 27.6454L25.6995 30.6918C26.6281 31.0594 27.5442 30.0846 27.0914 29.1757Z" fill="#197891"/>
<path d="M20.5032 5.22852H18V12.4394H20.5032C21.1118 12.4394 21.6052 11.946 21.6052 11.3374V6.33059C21.6052 5.72197 21.1118 5.22852 20.5032 5.22852Z" fill="#FFCF7C"/>
<path d="M33.2285 6.0625V11.6045C34.7565 11.6045 35.9995 10.3614 35.9995 8.83352C35.9995 7.30562 34.7564 6.0625 33.2285 6.0625Z" fill="#FF8C00"/>
<path d="M2.77051 6.0625V11.6045C4.29847 11.6045 5.54145 10.3614 5.54145 8.83352C5.54152 7.30562 4.29847 6.0625 2.77051 6.0625Z" fill="#FF8C00"/>
</g>
<defs>
<clipPath id="clip0_734_19976">
<rect width="36" height="36" fill="white"/>
</clipPath>
</defs>
</svg>
