<svg width="24" height="24" viewBox="0 0 24 24" fill="none" xmlns="http://www.w3.org/2000/svg">
<g clip-path="url(#clip0_734_20654)">
<path d="M12 24C18.6274 24 24 18.6274 24 12C24 5.37258 18.6274 0 12 0C5.37258 0 0 5.37258 0 12C0 18.6274 5.37258 24 12 24Z" fill="#13A6AB"/>
<path d="M16.1791 11.1348L16.1725 11.1282L12.865 7.81836C12.865 7.81836 8.83377 11.8496 6.89127 13.8324C6.6494 14.079 6.46612 14.4221 6.35737 14.754C6.03862 15.7285 5.77471 16.7227 5.48127 17.7071C5.40252 17.971 5.41846 18.2035 5.62518 18.4004C5.82018 18.5879 6.03955 18.5945 6.29268 18.5185C7.23018 18.2373 8.17377 17.9696 9.11549 17.7001C9.59975 17.5597 10.0387 17.2948 10.3886 16.9318C12.2392 15.0699 16.1791 11.1348 16.1791 11.1348Z" fill="white"/>
<path d="M18.1096 7.02317L16.9785 5.89208C16.6885 5.60225 16.2952 5.43945 15.8852 5.43945C15.4751 5.43945 15.0819 5.60225 14.7918 5.89208L13.5098 7.1727L16.828 10.4919L18.1101 9.20989C18.3998 8.91977 18.5626 8.52647 18.5625 8.11643C18.5624 7.70639 18.3995 7.31317 18.1096 7.02317Z" fill="white"/>
</g>
<defs>
<clipPath id="clip0_734_20654">
<rect width="24" height="24" fill="white"/>
</clipPath>
</defs>
</svg>
