<svg width="24" height="24" viewBox="0 0 24 24" fill="none" xmlns="http://www.w3.org/2000/svg">
<g clip-path="url(#clip0_734_20647)">
<path d="M12 24C18.6274 24 24 18.6274 24 12C24 5.37258 18.6274 0 12 0C5.37258 0 0 5.37258 0 12C0 18.6274 5.37258 24 12 24Z" fill="#EC791B"/>
<path d="M11.9996 17.4996C7.29961 17.4996 3.69961 12.6996 3.49961 12.4996C3.29961 12.1996 3.29961 11.8996 3.49961 11.5996C3.69961 11.3996 7.29961 6.59961 11.9996 6.59961C16.6996 6.59961 20.2996 11.3996 20.4996 11.5996C20.6996 11.8996 20.6996 12.1996 20.4996 12.4996C20.2996 12.6996 16.6996 17.4996 11.9996 17.4996ZM5.19961 11.9996C6.19961 13.0996 8.89961 15.8996 11.9996 15.8996C15.0996 15.8996 17.8996 13.0996 18.7996 11.9996C17.8996 10.8996 15.0996 8.09961 11.9996 8.09961C8.89961 8.09961 6.09961 10.8996 5.19961 11.9996Z" fill="white"/>
<path d="M11.9992 14.7992C10.4992 14.7992 9.19922 13.4992 9.19922 11.9992C9.19922 10.4992 10.4992 9.19922 11.9992 9.19922C13.4992 9.19922 14.7992 10.4992 14.7992 11.9992C14.7992 13.4992 13.4992 14.7992 11.9992 14.7992ZM11.9992 10.7992C11.3992 10.7992 10.7992 11.3992 10.7992 11.9992C10.7992 12.5992 11.3992 13.1992 11.9992 13.1992C12.5992 13.1992 13.1992 12.5992 13.1992 11.9992C13.1992 11.3992 12.5992 10.7992 11.9992 10.7992Z" fill="white"/>
</g>
<defs>
<clipPath id="clip0_734_20647">
<rect width="24" height="24" fill="white"/>
</clipPath>
</defs>
</svg>
