<svg width="24" height="24" viewBox="0 0 24 24" fill="none" xmlns="http://www.w3.org/2000/svg">
<g clip-path="url(#clip0_732_17030)">
<path d="M9.14197 22.5496C7.97852 22.5496 7.03223 21.6031 7.03223 20.4398C7.03223 19.2764 7.97852 18.3301 9.14197 18.3301C10.3052 18.3301 11.2515 19.2764 11.2515 20.4398C11.2515 21.6031 10.3052 22.5496 9.14197 22.5496Z" fill="#697C86"/>
<path d="M9.14179 21.1428C8.75378 21.1428 8.43848 20.8276 8.43848 20.4396C8.43848 20.0516 8.75378 19.7363 9.14179 19.7363C9.52979 19.7363 9.84491 20.0516 9.84491 20.4396C9.84491 20.8276 9.52979 21.1428 9.14179 21.1428Z" fill="#465A61"/>
<path d="M19.0814 22.5496C17.9182 22.5496 16.9717 21.6031 16.9717 20.4398C16.9717 19.2764 17.9182 18.3301 19.0814 18.3301C20.2447 18.3301 21.1912 19.2764 21.1912 20.4398C21.1912 21.6031 20.2447 22.5496 19.0814 22.5496Z" fill="#596C76"/>
<path d="M19.0812 21.1428C18.6932 21.1428 18.3779 20.8276 18.3779 20.4396C18.3779 20.0516 18.6932 19.7363 19.0812 19.7363C19.4692 19.7363 19.7844 20.0516 19.7844 20.4396C19.7844 20.8276 19.4692 21.1428 19.0812 21.1428Z" fill="#3B4A51"/>
<path d="M21.3032 17.6275C21.3032 18.0214 20.9937 18.3308 20.6 18.3308H7.1449C5.97742 18.3308 5.03516 17.3884 5.03516 16.2211C5.03516 15.1523 5.82269 14.2661 6.86347 14.1395C6.94788 14.1113 7.04639 14.1113 7.1449 14.1113C7.31354 14.1113 7.48236 14.1818 7.59497 14.2943L7.17291 15.5179C7.159 15.5179 7.159 15.5179 7.1449 15.5179C6.75104 15.5179 6.44159 15.8272 6.44159 16.2211C6.44159 16.6149 6.75104 16.9244 7.1449 16.9244H20.6C20.9937 16.9244 21.3032 17.2336 21.3032 17.6275Z" fill="#465A61"/>
<path d="M4.667 4.26764C4.71167 4.32385 5.469 4.6659 6.23145 5.0008C6.2342 4.94019 6.24189 4.88013 6.22815 4.81824L5.60944 2.00519C5.53858 1.68237 5.25293 1.45312 4.92261 1.45312H0.703309C0.314575 1.45312 0 1.7677 0 2.15643C0 2.54498 0.314575 2.85956 0.703309 2.85956H4.35736L4.667 4.26764Z" fill="#465A61"/>
<path d="M21.3037 17.627C21.3037 18.0208 20.9943 18.3303 20.6006 18.3303H13.9854V16.9238H20.6006C20.9943 16.9238 21.3037 17.2331 21.3037 17.627Z" fill="#3B4A51"/>
<path d="M23.8626 4.54706C23.722 4.36414 23.525 4.26562 23.2999 4.26562H4.66895L6.8631 14.139L7.17255 15.5175H20.4871C20.7965 15.5175 21.0778 15.3063 21.1622 15.011L23.9751 5.16577C24.0314 4.95483 23.9892 4.7157 23.8626 4.54706Z" fill="#FDBF00"/>
<path d="M23.976 5.16577L21.1631 15.011C21.0787 15.3063 20.7974 15.5175 20.488 15.5175H13.9854V4.26562H23.3008C23.5259 4.26562 23.7229 4.36414 23.8635 4.54706C23.9901 4.7157 24.0324 4.95483 23.976 5.16577Z" fill="#FF9F00"/>
</g>
<defs>
<clipPath id="clip0_732_17030">
<rect width="24" height="24" fill="white"/>
</clipPath>
</defs>
</svg>
