<svg width="24" height="24" viewBox="0 0 24 24" fill="none" xmlns="http://www.w3.org/2000/svg">
<g clip-path="url(#clip0_734_19797)">
<path d="M21.375 21.75H23.625V23.625H21.375V21.75Z" fill="#B4D3E0"/>
<path d="M22.5 21.75H23.625V23.625H22.5V21.75Z" fill="#77848C"/>
<path d="M23.625 19.5V21.75H21.375H18.375C17.5462 21.75 16.875 21.0788 16.875 20.25V19.5H19.875H21.375C21.7875 19.5 22.125 19.1625 22.125 18.75V13.5H23.625V19.5Z" fill="#A0A0A0"/>
<path d="M20.25 18V19.125C20.25 19.3313 20.0813 19.5 19.875 19.5H16.875H16.125C15.9187 19.5 15.75 19.3313 15.75 19.125V18C15.75 17.7937 15.9187 17.625 16.125 17.625H18H19.875C20.0813 17.625 20.25 17.7937 20.25 18Z" fill="#B4D3E0"/>
<path d="M20.25 18V19.125C20.25 19.3313 20.0813 19.5 19.875 19.5H16.125C15.9187 19.5 15.75 19.3313 15.75 19.125V18.75H18.375C18.5813 18.75 18.75 18.5813 18.75 18.375V17.625H19.875C20.0813 17.625 20.25 17.7937 20.25 18Z" fill="#77848C"/>
<path d="M17.9998 16.5008C18.206 16.5008 18.3748 16.332 18.3748 16.1258C18.3748 15.9195 18.206 15.7508 17.9998 15.7508C17.7935 15.7508 17.6248 15.9195 17.6248 16.1258C17.6248 16.332 17.7935 16.5008 17.9998 16.5008ZM19.451 15.7508C19.6573 16.5533 19.1735 17.3708 18.3748 17.577C18.251 17.6108 18.1235 17.6258 17.9998 17.6258C17.3323 17.6258 16.721 17.1758 16.5485 16.5008C16.3423 15.6983 16.826 14.8808 17.6248 14.6745C18.4273 14.4683 19.2448 14.952 19.451 15.7508Z" fill="#77848C"/>
<path d="M19.7959 12.5655C20.0022 13.368 19.5184 14.1855 18.7159 14.3918L17.6247 14.673L16.5372 14.9505C15.7347 15.1568 14.9172 14.673 14.7109 13.8705L14.5234 13.1468L19.6084 11.8418L19.7959 12.5655Z" fill="#B1B1B1"/>
<path d="M18.7163 14.3918L17.6251 14.673L16.5376 14.9505C16.3538 14.9993 16.1663 15.0105 15.9863 14.988L16.8413 14.7668C17.6438 14.5605 18.1276 13.743 17.9213 12.9405L17.7601 12.318L19.6088 11.8418L19.7963 12.5655C20.0026 13.368 19.5188 14.1855 18.7163 14.3918Z" fill="#787878"/>
<path d="M10.1699 0.712891L10.5412 2.16789L7.63867 2.91414L7.26367 1.45914L10.1699 0.712891Z" fill="#77848C"/>
<path d="M10.5413 2.16789L7.63876 2.91414C7.53714 2.52077 7.77414 2.11952 8.16751 2.01789L8.67976 1.88589C8.87964 1.83452 9.00039 1.63089 8.94976 1.43102L8.85376 1.05039L10.17 0.712891L10.5413 2.16789Z" fill="#596369"/>
<path d="M4.01969 6.75016C4.37969 7.40641 4.76969 8.33641 5.08844 9.57016C5.53094 11.2952 5.55719 12.5702 5.47094 13.3239C5.03219 12.7052 4.43969 11.5764 3.99719 9.84766C3.66344 8.55016 3.56594 7.50766 3.57344 6.75016L3.55469 6.67141L3.97094 6.56641L4.01969 6.75016Z" fill="#1DE9B6"/>
<path d="M6.1573 15.2697C6.1048 15.2997 6.04855 15.3222 5.98855 15.3372C4.88605 15.6222 3.3448 13.3309 2.54605 10.2222C2.26105 9.11219 2.1073 8.04719 2.08105 7.12469L2.11105 6.89219C2.3473 6.92969 2.5948 6.91844 2.8423 6.85469L3.5548 6.67094L3.57355 6.74969C3.56605 7.50719 3.66355 8.54969 3.9973 9.84719C4.4398 11.5759 5.0323 12.7047 5.47105 13.3234C5.5573 12.5697 5.53105 11.2947 5.08855 9.56969C4.7698 8.33594 4.3798 7.40594 4.0198 6.74969L3.97105 6.56594L5.46355 6.17969L5.5123 6.37469C5.9098 7.17344 6.2698 8.13719 6.5398 9.19469C7.2973 12.1384 7.11355 14.7597 6.1573 15.2697Z" fill="#A0A0A0"/>
<path d="M10.5376 8.16766C11.3326 11.2727 11.0889 14.0177 9.99387 14.3102C9.99012 14.3139 9.99012 14.3139 9.98637 14.3139L6.17262 15.2927L6.15762 15.2702C7.11387 14.7602 7.29762 12.1389 6.54012 9.19516C6.27012 8.13766 5.91012 7.17391 5.51262 6.37516L5.46387 6.18016L9.43887 5.16016L9.46137 5.25016C9.87762 6.06766 10.2526 7.06891 10.5376 8.16766Z" fill="#686868"/>
<path d="M5.84839 7.12028C7.26702 7.05053 8.68152 6.89941 10.0968 6.74678C9.90177 6.20341 9.68839 5.69753 9.46039 5.25016L9.43789 5.16016L5.46289 6.18016L5.51202 6.37478C5.62827 6.60841 5.74002 6.86003 5.84839 7.12028Z" fill="#4F565A"/>
<path d="M6.47852 8.97752C6.49839 9.05102 6.52127 9.12114 6.54002 9.19577C6.59739 9.41852 6.64727 9.63864 6.69414 9.85689C8.04414 9.59589 9.41439 9.44927 10.7745 9.24677C10.7344 9.03002 10.6875 8.80989 10.6373 8.58789C9.25089 8.73677 7.86639 8.88714 6.47852 8.97752Z" fill="#586267"/>
<path d="M6.97248 11.7314C7.11348 13.5322 6.8236 14.9144 6.15723 15.2696L6.17223 15.2921L9.98598 14.3133C9.98973 14.3133 9.98973 14.3133 9.99348 14.3096C10.7172 14.1164 11.0664 12.8486 10.9921 11.1172C9.65035 11.3099 8.30035 11.4614 6.97248 11.7314Z" fill="#4F565A"/>
<path d="M19.6085 11.8427L14.5235 13.1477L9.99348 14.3102C11.0885 14.0177 11.3322 11.2727 10.5372 8.16773C10.2522 7.06898 9.87723 6.06773 9.46098 5.25023L9.43848 5.16023L10.4697 4.89398C10.6235 4.85273 10.781 4.83398 10.9347 4.83398C11.771 4.83398 12.536 5.39648 12.7535 6.24398C13.0085 7.24898 14.0322 7.85273 15.0335 7.59398L21.9372 5.82023V5.82398L22.496 8.00273C22.9085 9.60773 21.941 11.2427 20.336 11.6552L19.6085 11.8427Z" fill="#DEE2E8"/>
<path d="M21.6335 10.9465C21.6747 10.5977 21.6522 10.2377 21.5585 9.87773L21.3725 9.15173C21.1666 8.34923 20.3495 7.86548 19.547 8.07136L14.096 9.46898C13.0947 9.72773 12.071 9.12398 11.816 8.11898C11.606 7.30148 10.886 6.75023 10.0872 6.71273C9.89598 6.18023 9.68598 5.68898 9.46098 5.25023L9.43848 5.16023L10.4697 4.89398C10.6235 4.85273 10.781 4.83398 10.9347 4.83398C11.771 4.83398 12.536 5.39648 12.7535 6.24398C13.0085 7.24898 14.0322 7.85273 15.0335 7.59398L21.9372 5.82023V5.82398L22.496 8.00273C22.781 9.10523 22.4135 10.2227 21.6335 10.9465Z" fill="#A2ADB3"/>
<path d="M23.1075 4.35741L23.3887 5.44866L21.9375 5.81991L15.0338 7.59366C14.0325 7.85241 13.0087 7.24866 12.7537 6.24366C12.5362 5.39616 11.7712 4.83366 10.935 4.83366C10.7812 4.83366 10.6238 4.85241 10.47 4.89366L9.43875 5.15991L5.46375 6.17991L3.97125 6.56616L3.555 6.67116L2.8425 6.85491C2.595 6.91866 2.3475 6.92991 2.11125 6.89241C1.38 6.79116 0.75375 6.25866 0.55875 5.50491L0.375 4.77741L7.63875 2.91366L10.5413 2.16741L16.7175 0.581158C19.5263 -0.142592 22.3875 1.55241 23.1075 4.35741Z" fill="#B6EBFF"/>
<path d="M23.3885 5.44828L21.9373 5.81953L15.0335 7.59328C14.0735 7.84078 13.0948 7.29703 12.791 6.37078L19.3123 4.69453L19.6719 4.60266C20.2745 4.44853 20.6375 3.83466 20.4823 3.23203C20.1898 2.09578 19.5485 1.14328 18.6973 0.457031C20.7598 0.723281 22.5598 2.21953 23.1073 4.35703L23.3885 5.44828Z" fill="#33CCFF"/>
<path d="M7.49995 7.75C7.01732 7.75 7.01657 8.5 7.49995 8.5C7.98257 8.5 7.98332 7.75 7.49995 7.75Z" fill="white"/>
<path d="M8.06198 8.6875C7.82086 8.6875 7.82011 9.0625 8.06198 9.0625C8.30311 9.0625 8.30386 8.6875 8.06198 8.6875Z" fill="white"/>
<path d="M18 16.5C18.2071 16.5 18.375 16.3321 18.375 16.125C18.375 15.9179 18.2071 15.75 18 15.75C17.7929 15.75 17.625 15.9179 17.625 16.125C17.625 16.3321 17.7929 16.5 18 16.5Z" fill="#3E3D53"/>
</g>
<defs>
<clipPath id="clip0_734_19797">
<rect width="24" height="24" fill="white"/>
</clipPath>
</defs>
</svg>
