<svg width="30" height="30" viewBox="0 0 30 30" fill="none" xmlns="http://www.w3.org/2000/svg">
<g clip-path="url(#clip0_734_20434)">
<path fill-rule="evenodd" clip-rule="evenodd" d="M1.92969 3.79688H28.0698V27.8019H25.5683V8.07158H4.43111V27.8019H1.92969V3.79688Z" fill="#64B5F6"/>
<path fill-rule="evenodd" clip-rule="evenodd" d="M27.2354 3.79688H28.07V27.8019H27.2354V3.79688ZM4.43135 8.07158V27.8018H3.59668V8.07158H4.43135Z" fill="#42A5F5"/>
<path fill-rule="evenodd" clip-rule="evenodd" d="M4.14062 8.96951H25.8592C25.9881 8.96951 26.0935 8.86404 26.0935 8.73514V7.41016C26.0935 7.28119 25.9881 7.17578 25.8592 7.17578H4.14062C4.01172 7.17578 3.90625 7.28125 3.90625 7.41016V8.73514C3.90625 8.8641 4.01172 8.96951 4.14062 8.96951Z" fill="#8D9CA8"/>
<path fill-rule="evenodd" clip-rule="evenodd" d="M26.0935 7.99609V7.41016C26.0935 7.28119 25.9881 7.17578 25.8592 7.17578H4.14062C4.01172 7.17578 3.90625 7.28125 3.90625 7.41016V7.99609C3.90625 7.86713 4.01172 7.76172 4.14062 7.76172H25.8592C25.9881 7.76172 26.0935 7.86713 26.0935 7.99609Z" fill="#7A8C98"/>
<path fill-rule="evenodd" clip-rule="evenodd" d="M2.51443 0.796875H27.4856L29.4727 4.96975H0.527344L2.51443 0.796875Z" fill="#8D9CA8"/>
<path fill-rule="evenodd" clip-rule="evenodd" d="M26.6054 0.796875H27.4856L29.4727 4.96975H0.527344L0.860332 4.27049H28.2595L26.6054 0.796875Z" fill="#7A8C98"/>
<path fill-rule="evenodd" clip-rule="evenodd" d="M18.9123 29.2037H27.4981C28.0358 29.2037 28.4758 28.7637 28.4758 28.226V12.0637C28.4758 11.5259 28.0358 11.0859 27.4981 11.0859H18.9123C18.3746 11.0859 17.9346 11.5259 17.9346 12.0637V28.226C17.9346 28.7637 18.3746 29.2037 18.9123 29.2037Z" fill="#B4D2D7"/>
<path fill-rule="evenodd" clip-rule="evenodd" d="M18.9127 29.2036H27.4984C28.0362 29.2036 28.4762 28.7636 28.4762 28.2258V12.0636C28.4762 11.5773 28.1164 11.171 27.6499 11.0977C27.6694 11.1745 27.6799 11.2547 27.6799 11.3374V27.4996C27.6799 28.0374 27.2399 28.4774 26.7021 28.4774H18.1164C18.0649 28.4774 18.0143 28.4733 17.9648 28.4655C18.0725 28.8884 18.4575 29.2036 18.9127 29.2036Z" fill="#9BB9C3"/>
<path fill-rule="evenodd" clip-rule="evenodd" d="M24.7275 21.9486C25.6231 22.4724 26.2247 23.4441 26.2247 24.5564C26.2247 26.2238 24.873 27.5755 23.2056 27.5755C21.5382 27.5755 20.1865 26.2238 20.1865 24.5564C20.1865 23.4441 20.7882 22.4724 21.6837 21.9486V14.2368C21.6837 13.3996 22.3686 12.7148 23.2056 12.7148C24.0427 12.7148 24.7275 13.3998 24.7275 14.2368V21.9486Z" fill="#E6F8FF"/>
<path fill-rule="evenodd" clip-rule="evenodd" d="M23.5495 27.5559C23.4366 27.5687 23.3219 27.5755 23.2056 27.5755C21.5382 27.5755 20.1865 26.2238 20.1865 24.5564C20.1865 23.4441 20.7882 22.4724 21.6837 21.9486V14.2368C21.6837 13.3996 22.3686 12.7148 23.2056 12.7148C23.3238 12.7148 23.4389 12.7285 23.5495 12.7543C22.8766 12.9112 22.3715 13.5179 22.3715 14.2368V21.9486C21.4759 22.4724 20.8743 23.4441 20.8743 24.5564C20.8743 26.1075 22.0441 27.3852 23.5495 27.5559Z" fill="#D0F1FF"/>
<path fill-rule="evenodd" clip-rule="evenodd" d="M22.7363 21.1992C22.7363 20.9404 22.9462 20.7305 23.2051 20.7305C23.4639 20.7305 23.6738 20.9404 23.6738 21.1992V24.5576C23.6738 24.8164 23.4639 25.0263 23.2051 25.0263C22.9462 25.0263 22.7363 24.8164 22.7363 24.5576V21.1992Z" fill="#64B5F6"/>
<path d="M24.0716 25.4259C24.5527 24.9447 24.5527 24.1646 24.0716 23.6835C23.5904 23.2024 22.8103 23.2024 22.3292 23.6835C21.8481 24.1646 21.8481 24.9447 22.3292 25.4259C22.8103 25.907 23.5904 25.907 24.0716 25.4259Z" fill="#64B5F6"/>
<path fill-rule="evenodd" clip-rule="evenodd" d="M23.2049 23.3242C23.6294 23.3242 24.0038 23.5389 24.2254 23.8656C24.0236 23.7214 23.7765 23.6365 23.5096 23.6365C22.829 23.6365 22.2773 24.1882 22.2773 24.8687C22.2773 25.1247 22.3555 25.3625 22.489 25.5595C22.1764 25.336 21.9727 24.9701 21.9727 24.5564C21.9727 23.8759 22.5244 23.3242 23.2049 23.3242Z" fill="#42A5F5"/>
<path fill-rule="evenodd" clip-rule="evenodd" d="M7.34375 14.9405C7.08488 14.9405 6.875 14.7306 6.875 14.4717C6.875 14.2129 7.08488 14.003 7.34375 14.003H7.71342L7.59061 13.9112C7.3833 13.7565 7.34064 13.4629 7.49539 13.2556C7.65008 13.0483 7.94363 13.0056 8.15088 13.1604L9.27781 14.003H10.1591L9.71885 13.2405L8.4265 12.6863C8.18885 12.5851 8.07822 12.3105 8.1793 12.0728C8.28037 11.8352 8.55506 11.7246 8.79271 11.8256L8.93785 11.8879L8.75193 11.5659C8.6225 11.3425 8.69873 11.0563 8.92221 10.9269C9.14568 10.7975 9.4318 10.8737 9.56123 11.0972L9.74721 11.4193L9.76555 11.2651C9.7959 11.0082 10.0287 10.8246 10.2856 10.8549C10.5424 10.8853 10.7261 11.118 10.6957 11.3749L10.5293 12.7739L10.9701 13.5373L11.41 12.7754L11.2435 11.3749C11.2131 11.118 11.3967 10.8852 11.6536 10.8548C11.9105 10.8245 12.1433 11.0081 12.1736 11.265L12.1921 11.4207L12.3779 11.0989C12.5064 10.8754 12.7917 10.7984 13.0152 10.9267C13.2386 11.0552 13.3157 11.3405 13.1873 11.5639L13 11.8884L13.1465 11.8255C13.3842 11.7244 13.6588 11.8351 13.7599 12.0727C13.8611 12.3104 13.7504 12.585 13.5127 12.6861L12.219 13.2411L11.7792 14.003H12.6615L13.7885 13.1604C13.9958 13.0057 14.2893 13.0483 14.444 13.2556C14.5987 13.4629 14.5561 13.7564 14.3488 13.9112L14.226 14.003H14.5957C14.8545 14.003 15.0644 14.2129 15.0644 14.4717C15.0644 14.7306 14.8545 14.9405 14.5957 14.9405H14.226L14.3488 15.0323C14.5561 15.187 14.5988 15.4805 14.444 15.6878C14.2893 15.8951 13.9958 15.9378 13.7885 15.783L12.6615 14.9405H11.7803L12.2204 15.7029L13.5128 16.2572C13.7504 16.3583 13.8611 16.6329 13.76 16.8706C13.6589 17.1083 13.3842 17.2189 13.1466 17.1178L13.0014 17.0555L13.1874 17.3775C13.3168 17.601 13.2406 17.8871 13.0171 18.0165C12.7936 18.146 12.5075 18.0697 12.3781 17.8462L12.1921 17.5242L12.1738 17.6783C12.1434 17.9352 11.9106 18.1188 11.6537 18.0885C11.3969 18.0581 11.2132 17.8253 11.2436 17.5685L11.41 16.1695L10.9692 15.406L10.5293 16.1679L10.6958 17.5685C10.7262 17.8253 10.5426 18.0581 10.2857 18.0885C10.0288 18.1188 9.79602 17.9352 9.76566 17.6783L9.74715 17.5226L9.56135 17.8444C9.43291 18.0679 9.14762 18.145 8.92414 18.0166C8.70066 17.8881 8.62361 17.6029 8.75199 17.3794L8.93932 17.0549L8.79277 17.1178C8.55512 17.2189 8.28049 17.1083 8.17936 16.8706C8.07822 16.6329 8.18891 16.3583 8.42656 16.2572L9.72025 15.7023L10.1601 14.9405H9.27787L8.15094 15.783C7.94363 15.9378 7.65014 15.8951 7.49545 15.6878C7.3407 15.4805 7.38336 15.187 7.59066 15.0323L7.71348 14.9405H7.34375Z" fill="#64B5F6"/>
<path fill-rule="evenodd" clip-rule="evenodd" d="M6.97387 20.0469H14.9649C15.2342 20.0469 15.4544 20.2671 15.4544 20.5364V27.3139C15.4544 27.5831 15.2342 27.8034 14.9649 27.8034H6.97387C6.70463 27.8034 6.48438 27.5831 6.48438 27.3139V20.5364C6.48432 20.2672 6.70463 20.0469 6.97387 20.0469Z" fill="#DA8C36"/>
<path fill-rule="evenodd" clip-rule="evenodd" d="M14.8548 20.0469H14.965C15.2342 20.0469 15.4545 20.2671 15.4545 20.5364V27.3139C15.4545 27.5831 15.2342 27.8034 14.965 27.8034H6.97387C6.70463 27.8034 6.48438 27.5831 6.48438 27.3139V27.1587H14.3653C14.6345 27.1587 14.8548 26.9384 14.8548 26.6692V20.0469Z" fill="#C97629"/>
<path fill-rule="evenodd" clip-rule="evenodd" d="M8.14672 25.1172H9.91361C10.0201 25.1172 10.1072 25.2043 10.1072 25.3107V26.1423C10.1072 26.2488 10.0201 26.3359 9.91361 26.3359H8.14672C8.0402 26.3359 7.95312 26.2488 7.95312 26.1423V25.3107C7.95312 25.2043 8.0402 25.1172 8.14672 25.1172Z" fill="#EFF4F7"/>
<path fill-rule="evenodd" clip-rule="evenodd" d="M8.14672 25.1172H9.91361C10.0201 25.1172 10.1072 25.2043 10.1072 25.3107V25.4173H8.44684C8.34031 25.4173 8.25324 25.5044 8.25324 25.6109V26.3359H8.14672C8.0402 26.3359 7.95312 26.2488 7.95312 26.1423V25.3107C7.95312 25.2043 8.0402 25.1172 8.14672 25.1172Z" fill="#E2E3E3"/>
<path fill-rule="evenodd" clip-rule="evenodd" d="M9.51953 20.0469H12.4202V21.9678C12.4202 22.1507 12.2081 22.2511 12.0667 22.1351L11.107 21.3483C11.0264 21.2823 10.9132 21.2823 10.8327 21.3483L9.87303 22.1351C9.73158 22.2511 9.51953 22.1507 9.51953 21.9678V20.0469Z" fill="#FFDA2D"/>
<path fill-rule="evenodd" clip-rule="evenodd" d="M12.1091 20.0469H12.4202V21.9678C12.4202 22.1507 12.2081 22.2511 12.0667 22.1351L11.7559 21.8804C11.8974 21.9959 12.1091 21.8956 12.1091 21.7128V20.0469H12.1091ZM11.1065 21.348C11.0259 21.2823 10.9131 21.2824 10.8327 21.3484L9.87303 22.1352C9.73158 22.2511 9.51953 22.1507 9.51953 21.9679V21.9077C9.53418 21.9004 9.54842 21.8913 9.56201 21.8802L10.5217 21.0934C10.6022 21.0273 10.7154 21.0273 10.796 21.0934L11.1065 21.348Z" fill="#FFC700"/>
</g>
<defs>
<clipPath id="clip0_734_20434">
<rect width="30" height="30" fill="white"/>
</clipPath>
</defs>
</svg>
