<svg width="36" height="36" viewBox="0 0 36 36" fill="none" xmlns="http://www.w3.org/2000/svg">
<g clip-path="url(#clip0_734_19989)">
<path d="M30.6563 19.125C30.2112 19.125 29.7762 19.257 29.4062 19.5042C29.0362 19.7514 28.7478 20.1028 28.5775 20.514C28.4072 20.9251 28.3627 21.3775 28.4495 21.814C28.5363 22.2504 28.7506 22.6513 29.0653 22.966C29.3799 23.2807 29.7808 23.495 30.2173 23.5818C30.6538 23.6686 31.1062 23.624 31.5173 23.4537C31.9284 23.2834 32.2798 22.995 32.5271 22.625C32.7743 22.255 32.9063 21.82 32.9063 21.375C32.9055 20.7785 32.6682 20.2067 32.2464 19.7849C31.8246 19.3631 31.2527 19.1258 30.6563 19.125ZM30.6563 22.5C30.4337 22.5 30.2162 22.434 30.0312 22.3104C29.8462 22.1868 29.702 22.0111 29.6169 21.8055C29.5317 21.6 29.5095 21.3738 29.5529 21.1555C29.5963 20.9373 29.7034 20.7368 29.8608 20.5795C30.0181 20.4222 30.2185 20.315 30.4368 20.2716C30.655 20.2282 30.8812 20.2505 31.0868 20.3356C31.2923 20.4208 31.468 20.565 31.5917 20.75C31.7153 20.935 31.7813 21.1525 31.7813 21.375C31.7813 21.5227 31.7522 21.6691 31.6957 21.8056C31.6392 21.9421 31.5563 22.0661 31.4518 22.1706C31.3474 22.2751 31.2233 22.3579 31.0868 22.4144C30.9503 22.471 30.804 22.5 30.6563 22.5Z" fill="#2D4356"/>
<path d="M30.6562 22.5C31.2776 22.5 31.7812 21.9963 31.7812 21.375C31.7812 20.7537 31.2776 20.25 30.6562 20.25C30.0349 20.25 29.5312 20.7537 29.5312 21.375C29.5312 21.9963 30.0349 22.5 30.6562 22.5Z" fill="#9387A2"/>
<path d="M8.71875 0C8.05124 0 7.39872 0.19794 6.8437 0.56879C6.28869 0.93964 5.8561 1.46674 5.60066 2.08344C5.34521 2.70014 5.27838 3.37874 5.4086 4.03343C5.53883 4.68812 5.86026 5.28948 6.33227 5.76149C6.80427 6.23349 7.40564 6.55492 8.06032 6.68515C8.71501 6.81538 9.39361 6.74854 10.0103 6.49309C10.627 6.23765 11.1541 5.80507 11.525 5.25005C11.8958 4.69503 12.0938 4.04251 12.0938 3.375C12.093 2.48011 11.7372 1.62208 11.1045 0.989298C10.4717 0.356516 9.61364 0.000709101 8.71875 0ZM8.71875 5.625C8.27374 5.625 7.83873 5.49304 7.46872 5.24581C7.09871 4.99857 6.81032 4.64717 6.64002 4.23604C6.46973 3.8249 6.42517 3.3725 6.51198 2.93605C6.5988 2.49959 6.81309 2.09868 7.12776 1.78401C7.44243 1.46934 7.84334 1.25505 8.2798 1.16823C8.71626 1.08142 9.16865 1.12597 9.57979 1.29627C9.99092 1.46657 10.3423 1.75496 10.5896 2.12497C10.8368 2.49498 10.9688 2.92999 10.9688 3.375C10.968 3.97149 10.7307 4.54333 10.3089 4.96511C9.88708 5.3869 9.31524 5.62421 8.71875 5.625Z" fill="#2D4356"/>
<path d="M10.9688 3.375C10.9688 3.82001 10.8368 4.25502 10.5896 4.62503C10.3423 4.99504 9.99092 5.28343 9.57979 5.45373C9.16865 5.62403 8.71626 5.66858 8.2798 5.58177C7.84334 5.49495 7.44243 5.28066 7.12776 4.96599C6.81309 4.65132 6.5988 4.25041 6.51198 3.81395C6.42517 3.3775 6.46972 2.9251 6.64002 2.51396C6.81032 2.10283 7.09871 1.75143 7.46872 1.50419C7.83873 1.25696 8.27374 1.125 8.71875 1.125C9.31524 1.12579 9.88708 1.3631 10.3089 1.78489C10.7307 2.20667 10.968 2.77851 10.9688 3.375Z" fill="#81D9E3"/>
<path d="M26.4375 29.25C25.77 29.25 25.1175 29.4479 24.5625 29.8188C24.0074 30.1896 23.5749 30.7167 23.3194 31.3334C23.064 31.9501 22.9971 32.6287 23.1274 33.2834C23.2576 33.9381 23.579 34.5395 24.051 35.0115C24.523 35.4835 25.1244 35.8049 25.7791 35.9352C26.4338 36.0654 27.1124 35.9985 27.7291 35.7431C28.3458 35.4876 28.8729 35.0551 29.2437 34.5C29.6146 33.945 29.8125 33.2925 29.8125 32.625C29.8118 31.7301 29.456 30.8721 28.8232 30.2393C28.1904 29.6065 27.3324 29.2507 26.4375 29.25ZM26.4375 34.875C25.9925 34.875 25.5575 34.743 25.1875 34.4958C24.8175 34.2486 24.5291 33.8972 24.3588 33.486C24.1885 33.0749 24.1439 32.6225 24.2307 32.186C24.3176 31.7496 24.5318 31.3487 24.8465 31.034C25.1612 30.7193 25.5621 30.505 25.9985 30.4182C26.435 30.3314 26.8874 30.376 27.2985 30.5463C27.7097 30.7166 28.0611 31.005 28.3083 31.375C28.5555 31.745 28.6875 32.18 28.6875 32.625C28.6867 33.2215 28.4494 33.7933 28.0276 34.2151C27.6058 34.6369 27.034 34.8742 26.4375 34.875Z" fill="#2D4356"/>
<path d="M28.6875 32.625C28.6875 33.07 28.5555 33.505 28.3083 33.875C28.0611 34.245 27.7097 34.5334 27.2985 34.7037C26.8874 34.874 26.435 34.9186 25.9985 34.8318C25.5621 34.745 25.1612 34.5307 24.8465 34.216C24.5318 33.9013 24.3176 33.5004 24.2307 33.064C24.1439 32.6275 24.1885 32.1751 24.3588 31.764C24.5291 31.3528 24.8175 31.0014 25.1875 30.7542C25.5575 30.507 25.9925 30.375 26.4375 30.375C27.034 30.3758 27.6058 30.6131 28.0276 31.0349C28.4494 31.4567 28.6867 32.0285 28.6875 32.625Z" fill="#81D9E3"/>
<path d="M20.25 3.9375C19.805 3.9375 19.37 4.06946 19 4.31669C18.63 4.56393 18.3416 4.91533 18.1713 5.32646C18.001 5.7376 17.9564 6.19 18.0432 6.62645C18.1301 7.06291 18.3443 7.46382 18.659 7.77849C18.9737 8.09316 19.3746 8.30745 19.811 8.39427C20.2475 8.48108 20.6999 8.43653 21.111 8.26623C21.5222 8.09593 21.8736 7.80754 22.1208 7.43753C22.368 7.06752 22.5 6.63251 22.5 6.1875C22.4992 5.59101 22.2619 5.01917 21.8401 4.59738C21.4183 4.1756 20.8465 3.93829 20.25 3.9375ZM20.25 7.3125C20.0275 7.3125 19.81 7.24652 19.625 7.1229C19.44 6.99929 19.2958 6.82359 19.2106 6.61802C19.1255 6.41245 19.1032 6.18625 19.1466 5.96802C19.19 5.74979 19.2972 5.54934 19.4545 5.39201C19.6118 5.23467 19.8123 5.12752 20.0305 5.08412C20.2488 5.04071 20.475 5.06299 20.6805 5.14814C20.8861 5.23328 21.0618 5.37748 21.1854 5.56248C21.309 5.74749 21.375 5.965 21.375 6.1875C21.375 6.33525 21.346 6.48156 21.2894 6.61807C21.2329 6.75458 21.1501 6.87861 21.0456 6.98309C20.9411 7.08756 20.8171 7.17042 20.6806 7.22695C20.5441 7.28347 20.3977 7.31254 20.25 7.3125Z" fill="#2D4356"/>
<path d="M20.25 7.3125C20.8713 7.3125 21.375 6.80882 21.375 6.1875C21.375 5.56618 20.8713 5.0625 20.25 5.0625C19.6287 5.0625 19.125 5.56618 19.125 6.1875C19.125 6.80882 19.6287 7.3125 20.25 7.3125Z" fill="#FFDB80"/>
<path d="M15.1875 28.6875C14.7425 28.6875 14.3075 28.8195 13.9375 29.0667C13.5675 29.3139 13.2791 29.6653 13.1088 30.0765C12.9385 30.4876 12.8939 30.94 12.9807 31.3765C13.0676 31.8129 13.2818 32.2138 13.5965 32.5285C13.9112 32.8432 14.3121 33.0575 14.7485 33.1443C15.185 33.2311 15.6374 33.1865 16.0485 33.0162C16.4597 32.8459 16.8111 32.5575 17.0583 32.1875C17.3055 31.8175 17.4375 31.3825 17.4375 30.9375C17.4367 30.341 17.1994 29.7692 16.7776 29.3474C16.3558 28.9256 15.784 28.6883 15.1875 28.6875ZM15.1875 32.0625C14.965 32.0625 14.7475 31.9965 14.5625 31.8729C14.3775 31.7493 14.2333 31.5736 14.1481 31.368C14.063 31.1625 14.0407 30.9363 14.0841 30.718C14.1275 30.4998 14.2347 30.2993 14.392 30.142C14.5493 29.9847 14.7498 29.8775 14.968 29.8341C15.1863 29.7907 15.4125 29.813 15.618 29.8981C15.8236 29.9833 15.9993 30.1275 16.1229 30.3125C16.2465 30.4975 16.3125 30.715 16.3125 30.9375C16.3125 31.0852 16.2835 31.2316 16.2269 31.3681C16.1704 31.5046 16.0876 31.6286 15.9831 31.7331C15.8786 31.8376 15.7546 31.9204 15.6181 31.9769C15.4816 32.0335 15.3352 32.0625 15.1875 32.0625Z" fill="#2D4356"/>
<path d="M15.1875 32.0625C15.8088 32.0625 16.3125 31.5588 16.3125 30.9375C16.3125 30.3162 15.8088 29.8125 15.1875 29.8125C14.5662 29.8125 14.0625 30.3162 14.0625 30.9375C14.0625 31.5588 14.5662 32.0625 15.1875 32.0625Z" fill="#FFDB80"/>
<path d="M22.7812 13.5H13.2188C12.7713 13.5004 12.3423 13.6783 12.0259 13.9946C11.7095 14.311 11.5316 14.7401 11.5312 15.1875V20.8125C11.5316 21.2599 11.7095 21.689 12.0259 22.0054C12.3423 22.3217 12.7713 22.4996 13.2188 22.5H22.7812C23.2287 22.4996 23.6577 22.3217 23.9741 22.0054C24.2905 21.689 24.4684 21.2599 24.4688 20.8125V15.1875C24.4684 14.7401 24.2905 14.311 23.9741 13.9946C23.6577 13.6783 23.2287 13.5004 22.7812 13.5ZM23.3438 20.8125C23.3433 20.9615 23.2839 21.1044 23.1785 21.2098C23.0731 21.3152 22.9303 21.3746 22.7812 21.375H13.2188C13.0697 21.3746 12.9269 21.3152 12.8215 21.2098C12.7161 21.1044 12.6567 20.9615 12.6562 20.8125V15.1875C12.6567 15.0384 12.7161 14.8956 12.8215 14.7902C12.9269 14.6848 13.0697 14.6254 13.2188 14.625H22.7812C22.9303 14.6254 23.0731 14.6848 23.1785 14.7902C23.2839 14.8956 23.3433 15.0384 23.3438 15.1875V20.8125Z" fill="#2D4356"/>
<path d="M22.7812 14.625H13.2188C12.9081 14.625 12.6562 14.8768 12.6562 15.1875V20.8125C12.6562 21.1232 12.9081 21.375 13.2188 21.375H22.7812C23.0919 21.375 23.3438 21.1232 23.3438 20.8125V15.1875C23.3438 14.8768 23.0919 14.625 22.7812 14.625Z" fill="#E1EBF4"/>
<path d="M32.625 5.625C31.9575 5.625 31.305 5.82294 30.75 6.19379C30.1949 6.56464 29.7624 7.09174 29.5069 7.70844C29.2515 8.32514 29.1846 9.00374 29.3149 9.65843C29.4451 10.3131 29.7665 10.9145 30.2385 11.3865C30.7105 11.8585 31.3119 12.1799 31.9666 12.3102C32.6213 12.4404 33.2999 12.3735 33.9166 12.1181C34.5333 11.8626 35.0604 11.4301 35.4312 10.875C35.8021 10.32 36 9.66751 36 9C35.9993 8.10511 35.6435 7.24708 35.0107 6.6143C34.3779 5.98152 33.5199 5.62571 32.625 5.625ZM32.625 11.25C32.18 11.25 31.745 11.118 31.375 10.8708C31.005 10.6236 30.7166 10.2722 30.5463 9.86104C30.376 9.4499 30.3314 8.9975 30.4182 8.56105C30.5051 8.12459 30.7193 7.72368 31.034 7.40901C31.3487 7.09434 31.7496 6.88005 32.186 6.79323C32.6225 6.70642 33.0749 6.75097 33.486 6.92127C33.8972 7.09157 34.2486 7.37996 34.4958 7.74997C34.743 8.11998 34.875 8.55499 34.875 9C34.8742 9.59649 34.6369 10.1683 34.2151 10.5901C33.7933 11.0119 33.2215 11.2492 32.625 11.25Z" fill="#2D4356"/>
<path d="M34.875 9C34.875 9.44501 34.743 9.88002 34.4958 10.25C34.2486 10.62 33.8972 10.9084 33.486 11.0787C33.0749 11.249 32.6225 11.2936 32.186 11.2068C31.7496 11.12 31.3487 10.9057 31.034 10.591C30.7193 10.2763 30.5051 9.87541 30.4182 9.43895C30.3314 9.0025 30.376 8.5501 30.5463 8.13896C30.7166 7.72783 31.005 7.37643 31.375 7.12919C31.745 6.88196 32.18 6.75 32.625 6.75C33.2215 6.75079 33.7933 6.9881 34.2151 7.40989C34.6369 7.83167 34.8742 8.40351 34.875 9Z" fill="#FC785E"/>
<path d="M3.375 23.3438C2.70749 23.3438 2.05497 23.5417 1.49995 23.9125C0.944936 24.2834 0.512354 24.8105 0.256908 25.4272C0.00146234 26.0439 -0.0653739 26.7225 0.0648512 27.3772C0.195076 28.0319 0.516514 28.6332 0.988516 29.1052C1.46052 29.5772 2.06189 29.8987 2.71657 30.0289C3.37126 30.1591 4.04986 30.0923 4.66656 29.8368C5.28326 29.5814 5.81036 29.1488 6.18121 28.5938C6.55206 28.0388 6.75 27.3863 6.75 26.7188C6.74929 25.8239 6.39349 24.9658 5.7607 24.333C5.12792 23.7003 4.26989 23.3445 3.375 23.3438ZM3.375 28.9688C2.92999 28.9688 2.49498 28.8368 2.12497 28.5896C1.75496 28.3423 1.46657 27.9909 1.29627 27.5798C1.12598 27.1687 1.08142 26.7163 1.16823 26.2798C1.25505 25.8433 1.46934 25.4424 1.78401 25.1278C2.09868 24.8131 2.49959 24.5988 2.93605 24.512C3.37251 24.4252 3.82491 24.4697 4.23604 24.64C4.64717 24.8103 4.99857 25.0987 5.24581 25.4687C5.49304 25.8387 5.625 26.2737 5.625 26.7188C5.62421 27.3152 5.3869 27.8871 4.96512 28.3089C4.54333 28.7306 3.9715 28.968 3.375 28.9688Z" fill="#2D4356"/>
<path d="M5.625 26.7188C5.625 27.1638 5.49304 27.5988 5.24581 27.9688C4.99857 28.3388 4.64717 28.6272 4.23604 28.7975C3.8249 28.9678 3.37251 29.0123 2.93605 28.9255C2.49959 28.8387 2.09868 28.6244 1.78401 28.3097C1.46934 27.9951 1.25505 27.5942 1.16823 27.1577C1.08142 26.7212 1.12597 26.2688 1.29627 25.8577C1.46657 25.4466 1.75496 25.0952 2.12497 24.8479C2.49498 24.6007 2.92999 24.4688 3.375 24.4688C3.97149 24.4695 4.54333 24.7069 4.96512 25.1286C5.3869 25.5504 5.62421 26.1223 5.625 26.7188Z" fill="#FC785E"/>
<path d="M5.34375 13.7812C4.89874 13.7812 4.46373 13.9132 4.09372 14.1604C3.72371 14.4077 3.43532 14.7591 3.26502 15.1702C3.09472 15.5813 3.05017 16.0337 3.13698 16.4702C3.2238 16.9067 3.43809 17.3076 3.75276 17.6222C4.06743 17.9369 4.46834 18.1512 4.9048 18.238C5.34126 18.3248 5.79366 18.2803 6.20479 18.11C6.61592 17.9397 6.96732 17.6513 7.21456 17.2813C7.46179 16.9113 7.59375 16.4763 7.59375 16.0312C7.59296 15.4348 7.35565 14.8629 6.93387 14.4411C6.51208 14.0193 5.94025 13.782 5.34375 13.7812ZM5.34375 17.1562C5.12125 17.1562 4.90374 17.0903 4.71873 16.9667C4.53373 16.843 4.38953 16.6673 4.30439 16.4618C4.21924 16.2562 4.19696 16.03 4.24037 15.8118C4.28378 15.5935 4.39092 15.3931 4.54826 15.2358C4.70559 15.0784 4.90605 14.9713 5.12427 14.9279C5.3425 14.8845 5.5687 14.9067 5.77427 14.9919C5.97984 15.077 6.15554 15.2212 6.27915 15.4062C6.40277 15.5912 6.46875 15.8087 6.46875 16.0312C6.46879 16.179 6.43972 16.3253 6.3832 16.4618C6.32668 16.5983 6.24381 16.7224 6.13934 16.8268C6.03486 16.9313 5.91083 17.0142 5.77432 17.0707C5.63781 17.1272 5.4915 17.1563 5.34375 17.1562Z" fill="#2D4356"/>
<path d="M5.34375 17.1562C5.96507 17.1562 6.46875 16.6526 6.46875 16.0312C6.46875 15.4099 5.96507 14.9062 5.34375 14.9062C4.72243 14.9062 4.21875 15.4099 4.21875 16.0312C4.21875 16.6526 4.72243 17.1562 5.34375 17.1562Z" fill="#9387A2"/>
<path d="M25.3431 14.0335L29.0441 11.7141C28.8148 11.4152 28.624 11.0887 28.4761 10.7422L24.6816 13.1201C24.9613 13.377 25.1863 13.6876 25.3431 14.0335Z" fill="#2D4356"/>
<path d="M10.6358 21.9238L7.07031 24.1582C7.28523 24.4689 7.46006 24.8055 7.59065 25.16L11.2816 22.847C11.0064 22.5858 10.7868 22.2718 10.6358 21.9238Z" fill="#2D4356"/>
<path d="M10.5771 7.46824L13.5966 12.3748H14.9175L11.5354 6.87891C11.2418 7.11461 10.9199 7.3126 10.5771 7.46824Z" fill="#2D4356"/>
<path d="M24.8018 28.4372L21.8404 23.625H20.5195L23.813 28.9768C24.1186 28.7561 24.4508 28.5748 24.8018 28.4372Z" fill="#2D4356"/>
<path d="M15.2969 27.5681C15.6743 27.5799 16.0471 27.6554 16.3994 27.7914L17.254 23.625H16.1057L15.2969 27.5681Z" fill="#2D4356"/>
<path d="M18.4141 12.3754H19.5624L20.1404 9.55733C19.763 9.54554 19.3902 9.47003 19.038 9.33398L18.4141 12.3754Z" fill="#2D4356"/>
<path d="M25.5938 20.7519L27.2951 21.1009C27.3252 20.724 27.419 20.3549 27.5724 20.0094L25.5938 19.6035V20.7519Z" fill="#2D4356"/>
<path d="M10.4066 16.4879L8.71358 16.1406C8.7018 16.5181 8.62629 16.8909 8.49023 17.2432L10.4066 17.6363V16.4879Z" fill="#2D4356"/>
<path opacity="0.3" d="M10.9688 3.375C10.9688 3.469 10.9632 3.56293 10.9519 3.65625C10.8832 3.11247 10.6184 2.61244 10.2073 2.24997C9.79613 1.8875 9.26686 1.68751 8.71875 1.68751C8.17064 1.68751 7.64137 1.8875 7.23023 2.24997C6.81909 2.61244 6.55433 3.11247 6.48563 3.65625C6.47432 3.56293 6.46868 3.469 6.46875 3.375C6.46875 2.77826 6.7058 2.20597 7.12776 1.78401C7.54972 1.36205 8.12201 1.125 8.71875 1.125C9.31549 1.125 9.88778 1.36205 10.3097 1.78401C10.7317 2.20597 10.9688 2.77826 10.9688 3.375Z" fill="#E8FBFC"/>
<path opacity="0.25" d="M10.9688 3.375C10.9688 3.97174 10.7317 4.54403 10.3097 4.96599C9.88778 5.38795 9.31549 5.625 8.71875 5.625C8.12201 5.625 7.54972 5.38795 7.12776 4.96599C6.7058 4.54403 6.46875 3.97174 6.46875 3.375C6.46868 3.281 6.47432 3.18707 6.48563 3.09375C6.55433 3.63753 6.81909 4.13756 7.23023 4.50003C7.64137 4.8625 8.17064 5.06249 8.71875 5.06249C9.26686 5.06249 9.79613 4.8625 10.2073 4.50003C10.6184 4.13756 10.8832 3.63753 10.9519 3.09375C10.9632 3.18707 10.9688 3.281 10.9688 3.375Z" fill="#0F423C"/>
<path opacity="0.25" d="M28.6875 32.625C28.6875 33.2217 28.4504 33.794 28.0285 34.216C27.6065 34.6379 27.0342 34.875 26.4375 34.875C25.8408 34.875 25.2685 34.6379 24.8465 34.216C24.4246 33.794 24.1875 33.2217 24.1875 32.625C24.1874 32.531 24.1931 32.4371 24.2044 32.3438C24.2731 32.8875 24.5378 33.3876 24.949 33.75C25.3601 34.1125 25.8894 34.3125 26.4375 34.3125C26.9856 34.3125 27.5149 34.1125 27.926 33.75C28.3372 33.3876 28.6019 32.8875 28.6706 32.3438C28.6819 32.4371 28.6876 32.531 28.6875 32.625Z" fill="#0F423C"/>
<path opacity="0.3" d="M28.6875 32.625C28.6876 32.719 28.6819 32.8129 28.6706 32.9062C28.6019 32.3625 28.3372 31.8624 27.926 31.5C27.5149 31.1375 26.9856 30.9375 26.4375 30.9375C25.8894 30.9375 25.3601 31.1375 24.949 31.5C24.5378 31.8624 24.2731 32.3625 24.2044 32.9062C24.1931 32.8129 24.1874 32.719 24.1875 32.625C24.1875 32.0283 24.4246 31.456 24.8465 31.034C25.2685 30.6121 25.8408 30.375 26.4375 30.375C27.0342 30.375 27.6065 30.6121 28.0285 31.034C28.4504 31.456 28.6875 32.0283 28.6875 32.625Z" fill="#E8FBFC"/>
<path opacity="0.45" d="M21.375 6.1875C21.375 6.48587 21.2565 6.77202 21.0455 6.98299C20.8346 7.19397 20.5484 7.3125 20.25 7.3125C19.9517 7.3125 19.6655 7.19397 19.4545 6.98299C19.2436 6.77202 19.125 6.48587 19.125 6.1875C19.1242 6.09251 19.1365 5.99786 19.1616 5.90625C19.2237 6.14769 19.3644 6.36162 19.5615 6.51437C19.7585 6.66711 20.0007 6.75001 20.25 6.75001C20.4994 6.75001 20.7416 6.66711 20.9386 6.51437C21.1357 6.36162 21.2763 6.14769 21.3385 5.90625C21.3636 5.99786 21.3759 6.09251 21.375 6.1875Z" fill="#AD9359"/>
<path opacity="0.45" d="M16.3125 30.9375C16.3125 31.2359 16.194 31.522 15.983 31.733C15.7721 31.944 15.4859 32.0625 15.1875 32.0625C14.8892 32.0625 14.603 31.944 14.392 31.733C14.1811 31.522 14.0625 31.2359 14.0625 30.9375C14.0617 30.8425 14.074 30.7479 14.0991 30.6562C14.1613 30.8977 14.3019 31.1116 14.499 31.2644C14.696 31.4171 14.9382 31.5 15.1875 31.5C15.4369 31.5 15.6791 31.4171 15.8761 31.2644C16.0732 31.1116 16.2138 30.8977 16.276 30.6562C16.3011 30.7479 16.3134 30.8425 16.3125 30.9375Z" fill="#AD9359"/>
<path opacity="0.5" d="M23.3438 20.25V20.8125C23.3433 20.9615 23.2839 21.1044 23.1785 21.2098C23.0731 21.3152 22.9303 21.3746 22.7812 21.375H13.2188C13.0697 21.3746 12.9269 21.3152 12.8215 21.2098C12.7161 21.1044 12.6567 20.9615 12.6562 20.8125V20.25C12.6567 20.399 12.7161 20.5419 12.8215 20.6473C12.9269 20.7527 13.0697 20.8121 13.2188 20.8125H22.7812C22.9303 20.8121 23.0731 20.7527 23.1785 20.6473C23.2839 20.5419 23.3433 20.399 23.3438 20.25Z" fill="#9FA5AA"/>
<path opacity="0.5" d="M23.3438 15.1875V15.75C23.3433 15.6009 23.2839 15.4581 23.1785 15.3527C23.0731 15.2473 22.9303 15.1879 22.7812 15.1875H13.2188C13.0697 15.1879 12.9269 15.2473 12.8215 15.3527C12.7161 15.4581 12.6567 15.6009 12.6562 15.75V15.1875C12.6567 15.0384 12.7161 14.8956 12.8215 14.7902C12.9269 14.6848 13.0697 14.6254 13.2188 14.625H22.7812C22.9303 14.6254 23.0731 14.6848 23.1785 14.7902C23.2839 14.8956 23.3433 15.0384 23.3438 15.1875Z" fill="white"/>
<path opacity="0.3" d="M34.875 9C34.8751 9.094 34.8694 9.18793 34.8581 9.28125C34.7894 8.73747 34.5247 8.23744 34.1135 7.87497C33.7024 7.5125 33.1731 7.31251 32.625 7.31251C32.0769 7.31251 31.5476 7.5125 31.1365 7.87497C30.7253 8.23744 30.4606 8.73747 30.3919 9.28125C30.3806 9.18793 30.3749 9.094 30.375 9C30.375 8.40326 30.6121 7.83097 31.034 7.40901C31.456 6.98705 32.0283 6.75 32.625 6.75C33.2217 6.75 33.794 6.98705 34.216 7.40901C34.6379 7.83097 34.875 8.40326 34.875 9Z" fill="#F9DBD7"/>
<path opacity="0.5" d="M34.875 9C34.875 9.59674 34.6379 10.169 34.216 10.591C33.794 11.0129 33.2217 11.25 32.625 11.25C32.0283 11.25 31.456 11.0129 31.034 10.591C30.6121 10.169 30.375 9.59674 30.375 9C30.3749 8.906 30.3806 8.81207 30.3919 8.71875C30.4606 9.26253 30.7253 9.76256 31.1365 10.125C31.5476 10.4875 32.0769 10.6875 32.625 10.6875C33.1731 10.6875 33.7024 10.4875 34.1135 10.125C34.5247 9.76256 34.7894 9.26253 34.8581 8.71875C34.8694 8.81207 34.8751 8.906 34.875 9Z" fill="#A54B3F"/>
<path opacity="0.5" d="M5.625 26.7188C5.625 27.3155 5.38795 27.8878 4.96599 28.3097C4.54403 28.7317 3.97174 28.9688 3.375 28.9688C2.77826 28.9688 2.20597 28.7317 1.78401 28.3097C1.36205 27.8878 1.125 27.3155 1.125 26.7188C1.12493 26.6247 1.13057 26.5308 1.14188 26.4375C1.21058 26.9813 1.47534 27.4813 1.88648 27.8438C2.29762 28.2062 2.82689 28.4062 3.375 28.4062C3.92311 28.4062 4.45238 28.2062 4.86352 27.8438C5.27466 27.4813 5.53942 26.9813 5.60813 26.4375C5.61943 26.5308 5.62507 26.6247 5.625 26.7188Z" fill="#A54B3F"/>
<path opacity="0.3" d="M5.625 26.7188C5.62507 26.8128 5.61943 26.9067 5.60813 27C5.53942 26.4562 5.27466 25.9562 4.86352 25.5937C4.45238 25.2313 3.92311 25.0313 3.375 25.0313C2.82689 25.0313 2.29762 25.2313 1.88648 25.5937C1.47534 25.9562 1.21058 26.4562 1.14188 27C1.13057 26.9067 1.12493 26.8128 1.125 26.7188C1.125 26.122 1.36205 25.5497 1.78401 25.1278C2.20597 24.7058 2.77826 24.4688 3.375 24.4688C3.97174 24.4688 4.54403 24.7058 4.96599 25.1278C5.38795 25.5497 5.625 26.122 5.625 26.7188Z" fill="#F9DBD7"/>
<path opacity="0.5" d="M6.46879 16.0312C6.46879 16.3296 6.35027 16.6158 6.13929 16.8267C5.92831 17.0377 5.64216 17.1562 5.34379 17.1562C5.04542 17.1562 4.75928 17.0377 4.5483 16.8267C4.33732 16.6158 4.21879 16.3296 4.21879 16.0312C4.21793 15.9363 4.23023 15.8416 4.25535 15.75C4.3175 15.9914 4.45816 16.2054 4.6552 16.3581C4.85224 16.5109 5.09448 16.5938 5.34379 16.5938C5.5931 16.5938 5.83534 16.5109 6.03238 16.3581C6.22942 16.2054 6.37008 15.9914 6.43223 15.75C6.45735 15.8416 6.46966 15.9363 6.46879 16.0312Z" fill="#5F5968"/>
<path opacity="0.5" d="M31.7813 21.375C31.7813 21.6734 31.6628 21.9595 31.4518 22.1705C31.2408 22.3815 30.9547 22.5 30.6563 22.5C30.3579 22.5 30.0718 22.3815 29.8608 22.1705C29.6498 21.9595 29.5313 21.6734 29.5313 21.375C29.5304 21.28 29.5427 21.1854 29.5679 21.0938C29.63 21.3352 29.7707 21.5491 29.9677 21.7019C30.1647 21.8546 30.407 21.9375 30.6563 21.9375C30.9056 21.9375 31.1478 21.8546 31.3449 21.7019C31.5419 21.5491 31.6826 21.3352 31.7447 21.0938C31.7699 21.1854 31.7822 21.28 31.7813 21.375Z" fill="#5F5968"/>
</g>
<defs>
<clipPath id="clip0_734_19989">
<rect width="36" height="36" fill="white"/>
</clipPath>
</defs>
</svg>
