<svg width="30" height="30" viewBox="0 0 30 30" fill="none" xmlns="http://www.w3.org/2000/svg">
<path d="M20.4495 11.679L20.125 11.4904L20.8662 11.0625L21.1906 11.2511L20.4495 11.679Z" fill="#5B5E71"/>
<path d="M20.0116 2.85015C19.9522 2.81561 19.87 2.82064 19.7798 2.87272C19.5975 2.97793 19.4525 3.22912 19.4531 3.43853L19.4713 11.8679L19.7958 12.0565L19.7776 3.62709C19.777 3.41768 19.922 3.16651 20.1043 3.06128C20.1945 3.0092 20.2766 3.00417 20.3361 3.03872L20.0116 2.85015Z" fill="#5B5E71"/>
<path d="M2.69458 21.9289L2.37012 21.7403L19.4709 11.8672L19.7954 12.0557L2.69458 21.9289Z" fill="#5B5E71"/>
<path d="M1.47876 22.6301L1.1543 22.4416L1.71612 22.1172L2.04059 22.3058L1.47876 22.6301Z" fill="#5B5E71"/>
<path d="M1.48089 23.3798L1.15642 23.1912L1.1543 22.4414L1.47876 22.63L1.48089 23.3798Z" fill="#525566"/>
<path d="M20.1036 3.06022C20.2829 2.95672 20.4304 3.03905 20.431 3.24845L20.4491 11.6778L21.1903 11.2499L21.1924 11.9997L1.48064 23.3803L1.47852 22.6305L2.04034 22.3061L2.0222 13.8768C2.0216 13.6674 2.16809 13.4153 2.34885 13.311C2.52962 13.2066 2.67559 13.2898 2.67618 13.4992L2.69433 21.9286L19.7951 12.0554L19.777 3.62603C19.7764 3.41663 19.9214 3.16544 20.1036 3.06022Z" fill="#474B59"/>
<path d="M2.25693 13.1C2.1977 13.0656 2.11568 13.0707 2.02489 13.1231C1.84416 13.2275 1.69766 13.4795 1.69824 13.6889L1.71639 22.1183L2.04085 22.3068L2.0227 13.8775C2.02214 13.6681 2.16862 13.416 2.34938 13.3117C2.44013 13.2593 2.52215 13.2541 2.58139 13.2886L2.25693 13.1Z" fill="#5B5E71"/>
<path d="M28.1233 6.48288C27.93 6.3701 27.6653 6.38621 27.3706 6.55424L27.1681 6.67164L26.6985 6.94325L24.9284 7.96527L24.4588 8.23459L22.6887 9.2566L22.2168 9.53052L20.449 10.5525L19.9772 10.8241L18.207 11.8462L17.7398 12.1155L15.9673 13.1398L15.4978 13.4114L13.7277 14.4334L13.2558 14.705L11.4879 15.7248L11.0161 15.9987L9.56825 16.8342C9.47157 16.8895 9.37488 16.9608 9.28513 17.0414C9.17004 17.145 9.06183 17.2647 8.96284 17.4005C8.9122 17.4696 8.86387 17.5432 8.82016 17.6215C8.62217 17.9667 8.51399 18.3327 8.51399 18.6573C8.5163 18.9911 8.63369 19.2259 8.82246 19.3363L1.52332 15.0918C1.33228 14.9813 1.21488 14.7488 1.21488 14.415C1.21258 14.0905 1.32306 13.7245 1.52101 13.3792C1.56016 13.3101 1.60388 13.2434 1.6499 13.1789C1.74432 13.0431 1.85249 12.9211 1.96528 12.8152C2.06194 12.7278 2.16324 12.6518 2.26681 12.592L3.69166 11.7702L4.16354 11.4963L5.93134 10.4766L6.40093 10.205L8.17333 9.18065L8.64291 8.91134L10.413 7.88702L10.8826 7.61769L12.6527 6.59569L13.1246 6.32177L14.8924 5.30205L15.3643 5.02813L17.1344 4.00613L17.6039 3.73681L19.374 2.71248L19.8436 2.44087L20.0692 2.31197C20.3639 2.14394 20.6286 2.12782 20.8219 2.23831L28.1233 6.48288Z" fill="#5B5E71"/>
<path d="M27.3711 6.55473C27.9546 6.21788 28.4294 6.49011 28.4313 7.15886C28.4332 7.8276 27.9615 8.64628 27.378 8.98313L9.57476 19.2619C8.99131 19.5987 8.51655 19.3265 8.51465 18.6577C8.51374 18.3335 8.62309 17.9659 8.82085 17.6217C9.02007 17.2766 9.2857 16.9964 9.56788 16.8335L27.3711 6.55473Z" fill="#474B59"/>
<path d="M27.3721 6.92836C27.7763 6.69502 28.1036 6.88324 28.1049 7.34596C28.1062 7.80867 27.781 8.37363 27.3769 8.60696L9.57362 18.8857C9.16947 19.119 8.84213 18.9308 8.84082 18.4681C8.84016 18.235 8.92188 17.9798 9.05373 17.7514C9.18555 17.5231 9.36606 17.3242 9.56886 17.2071L27.3721 6.92836Z" fill="#F1C40F"/>
<path d="M9.64783 17.3923C9.9701 17.2063 10.2339 17.3566 10.235 17.727C10.236 18.0996 9.97391 18.5513 9.65164 18.7374C9.32735 18.9246 9.06551 18.7754 9.06446 18.4028C9.06341 18.0324 9.32355 17.5796 9.64783 17.3923Z" fill="#C6A51A"/>
<path d="M27.4142 7.13886C27.7066 6.97001 27.946 7.10645 27.947 7.44252C27.948 7.78066 27.7101 8.1906 27.4176 8.35944C27.1233 8.52935 26.8857 8.39394 26.8848 8.0558C26.8838 7.71973 27.1199 7.30876 27.4142 7.13886Z" fill="#C6A51A"/>
<path d="M28.1038 16.1282L27.7793 15.9396L28.5205 15.5117L28.8449 15.7003L28.1038 16.1282Z" fill="#5B5E71"/>
<path d="M27.6659 7.29937C27.6064 7.26483 27.5243 7.26986 27.4341 7.32194C27.2518 7.42715 27.1068 7.67834 27.1074 7.88775L27.1256 16.3171L27.4501 16.5057L27.4319 8.07631C27.4313 7.8669 27.5763 7.61573 27.7586 7.5105C27.8488 7.45842 27.9309 7.45339 27.9904 7.48794L27.6659 7.29937Z" fill="#5B5E71"/>
<path d="M10.3489 26.3781L10.0244 26.1895L27.1252 16.3164L27.4497 16.505L10.3489 26.3781Z" fill="#5B5E71"/>
<path d="M9.13306 27.0793L8.80859 26.8908L9.37042 26.5664L9.69489 26.755L9.13306 27.0793Z" fill="#5B5E71"/>
<path d="M9.13518 27.829L8.81072 27.6404L8.80859 26.8906L9.13306 27.0792L9.13518 27.829Z" fill="#525566"/>
<path d="M27.7579 7.50944C27.9372 7.40594 28.0847 7.48826 28.0853 7.69767L28.1034 16.1271L28.8446 15.6992L28.8467 16.4489L9.13494 27.8295L9.13281 27.0797L9.69464 26.7554L9.67649 18.326C9.6759 18.1166 9.8224 17.8645 10.0031 17.7602C10.1839 17.6558 10.3299 17.739 10.3305 17.9484L10.3486 26.3778L27.4494 16.5046L27.4313 8.07525C27.4307 7.86585 27.5757 7.61467 27.7579 7.50944Z" fill="#474B59"/>
<path d="M9.91123 17.5492C9.852 17.5148 9.76997 17.5199 9.67919 17.5723C9.49846 17.6767 9.35195 17.9287 9.35254 18.1381L9.37069 26.5675L9.69515 26.7561L9.677 18.3267C9.67644 18.1173 9.82291 17.8652 10.0037 17.7609C10.0944 17.7085 10.1764 17.7034 10.2357 17.7378L9.91123 17.5492Z" fill="#5B5E71"/>
<path d="M23.0852 11.6377L26.3183 9.74609L26.3132 11.5491L23.0801 13.4408L23.0852 11.6377Z" fill="#C4C6C6"/>
<path d="M22.3477 10.2979L25.5808 8.40625L26.3176 9.74701L23.0844 11.6387L22.3477 10.2979Z" fill="#D4D6D6"/>
<path d="M22.1318 10.1729L25.365 8.28125L25.5813 8.40615L22.3482 10.2978L22.1318 10.1729Z" fill="#ECF0F1"/>
<path d="M22.3481 10.2968L23.0848 11.6375L23.0797 13.4406L22.124 12.8888L22.1317 10.1719L22.3481 10.2968Z" fill="#E0E2E2"/>
<path d="M23.1807 10.7547C23.1253 10.5482 23.2122 10.3029 23.3739 10.2096C23.4295 10.1775 23.4866 10.1672 23.54 10.1757L23.3877 10.1513C23.3344 10.1428 23.2772 10.1531 23.2216 10.1852C23.0599 10.2785 22.973 10.5238 23.0284 10.7303C23.0652 10.8672 23.1543 10.9533 23.2569 10.9698L23.4092 10.9942C23.3066 10.9778 23.2175 10.8916 23.1807 10.7547Z" fill="#2ECC71"/>
<path d="M23.3739 10.2086C23.5371 10.1144 23.7132 10.2079 23.7686 10.4143C23.8246 10.6227 23.7386 10.8653 23.5755 10.9595C23.4138 11.0528 23.2367 10.9621 23.1808 10.7537C23.1254 10.5473 23.2123 10.302 23.3739 10.2086Z" fill="#30B265"/>
<path d="M24.168 10.1844C24.1126 9.97792 24.1995 9.73262 24.3611 9.63929C24.4168 9.60717 24.4739 9.59686 24.5272 9.60542L24.375 9.581C24.3217 9.57245 24.2645 9.58276 24.2089 9.61487C24.0472 9.7082 23.9603 9.9535 24.0157 10.16C24.0525 10.2969 24.1416 10.383 24.2442 10.3995L24.3965 10.4239C24.2939 10.4075 24.2048 10.3213 24.168 10.1844Z" fill="#3498DB"/>
<path d="M24.3612 9.6383C24.5244 9.54412 24.7005 9.63754 24.7559 9.84402C24.8119 10.0524 24.7259 10.295 24.5628 10.3891C24.4011 10.4825 24.224 10.3918 24.1681 10.1834C24.1127 9.97693 24.1996 9.73164 24.3612 9.6383Z" fill="#328EB7"/>
<path d="M25.1563 9.61424C25.1009 9.40776 25.1878 9.16246 25.3495 9.06911C25.4053 9.03687 25.4629 9.02651 25.5166 9.03515L25.3644 9.01071C25.3106 9.0021 25.253 9.01246 25.1972 9.0447C25.0355 9.13805 24.9486 9.38334 25.004 9.58983C25.0408 9.72675 25.1299 9.81286 25.2325 9.82933L25.3848 9.85374C25.2821 9.83728 25.193 9.75117 25.1563 9.61424Z" fill="#E74C3C"/>
<path d="M25.3495 9.06813C25.5126 8.97396 25.6903 9.06653 25.7457 9.27301C25.8016 9.48136 25.7142 9.7248 25.5511 9.81897C25.3894 9.91231 25.2123 9.82161 25.1564 9.61325C25.1009 9.40677 25.1879 9.16148 25.3495 9.06813Z" fill="#CC4444"/>
<path d="M9.28562 17.0426C9.17053 17.1462 9.06232 17.2659 8.96333 17.4017L1.65039 13.1801C1.7448 13.0443 1.85298 12.9223 1.96577 12.8164L9.28562 17.0426Z" fill="#525566"/>
<path d="M11.4887 15.7246L11.0168 15.9985L3.69238 11.77L4.16427 11.4961L11.4887 15.7246Z" fill="#525566"/>
<path d="M13.728 14.4355L13.2561 14.7071L5.93164 10.4786L6.40123 10.207L13.728 14.4355Z" fill="#525566"/>
<path d="M18.2071 11.8457L17.7398 12.115L10.4131 7.88651L10.8827 7.61719L18.2071 11.8457Z" fill="#525566"/>
<path d="M20.4497 10.555L19.9778 10.8266L12.6533 6.59814L13.1252 6.32422L20.4497 10.555Z" fill="#525566"/>
<path d="M22.6889 9.25583L22.217 9.52975L14.8926 5.30126L15.3645 5.02734L22.6889 9.25583Z" fill="#525566"/>
<path d="M27.169 6.67219L26.6995 6.9438L19.375 2.71302L19.8446 2.44141L27.169 6.67219Z" fill="#525566"/>
<path d="M24.9288 7.96675L24.4592 8.23608L17.1348 4.00761L17.6043 3.73828L24.9288 7.96675Z" fill="#525566"/>
<path d="M15.9678 13.1386L15.4983 13.4102L8.17383 9.17946L8.64341 8.91016L15.9678 13.1386Z" fill="#525566"/>
<path d="M17.3398 4.36719L17.3497 7.46679L20.8169 9.48175L20.8071 6.38214L17.3398 4.36719Z" fill="#D6B218"/>
<path d="M20.8066 6.38088L20.8164 9.48048L23.6412 7.84961L23.6314 4.75L20.8066 6.38088Z" fill="#E5BD13"/>
<path d="M17.3389 4.36914L20.8068 6.38406L22.0408 5.66964L22.398 5.46759L22.4052 5.464L23.632 4.7532L20.164 2.73828L18.93 3.44909L18.9264 3.4527L18.5728 3.65475L17.3389 4.36914Z" fill="#F1C40F"/>
<path d="M18.5732 3.65488L22.0412 5.66978L22.3984 5.46772L22.4056 5.46413L18.9304 3.44922L18.9268 3.45283L18.5732 3.65488Z" fill="#E74C3C"/>
<path d="M22.041 5.67106L22.0443 6.18296L22.2441 5.92715L22.4054 5.97675L22.4021 5.46484L22.041 5.67106Z" fill="#D8463F"/>
<path d="M20.1822 8.11719L20.085 8.30219L20.1452 8.33695L20.278 8.41309L20.1822 8.11719Z" fill="#3E3D53"/>
<path d="M20.1446 8.33594L20.1436 8.7019L20.2162 8.74385L20.2173 8.37789L20.1446 8.33594Z" fill="#3E3D53"/>
<path d="M19.7834 8.52734L19.7832 8.60568L20.2848 8.89529L20.285 8.81695L19.7834 8.52734Z" fill="#3E3D53"/>
<path d="M19.2507 7.57812L19.25 7.83888C19.2498 7.92122 19.2973 8.01685 19.3605 8.06534L19.3598 8.30036C19.3155 8.27993 19.2821 8.28184 19.2821 8.30643L19.4776 8.41934C19.4777 8.39475 19.4444 8.35435 19.4002 8.32363L19.4008 8.08862C19.4297 8.10013 19.4546 8.09734 19.4741 8.0851C19.4971 8.06801 19.5121 8.03603 19.5123 7.99028L19.513 7.72953L19.2507 7.57812Z" fill="#3E3D53"/>
<path d="M19.8546 8.16797L19.8535 8.53393L19.9262 8.57588L19.9272 8.20992L19.8546 8.16797Z" fill="#3E3D53"/>
<path d="M19.8907 7.94922L19.7939 8.1345L19.8542 8.16927L19.9865 8.24512L19.8907 7.94922Z" fill="#3E3D53"/>
<path d="M21.2432 8.21135V8.97406L22.3906 8.30656V7.54297L21.2432 8.21135Z" fill="#ECF0F1"/>
<path d="M21.2432 8.57324V8.60894L22.3906 7.94649V7.91016L21.2432 8.57324Z" fill="#A4A9B3"/>
<path d="M21.2432 8.7069V8.74495L22.3906 8.0825V8.04297L21.2432 8.7069Z" fill="#3E3D53"/>
<path d="M21.2432 8.83739V8.8771L22.3906 8.21549V8.17578L21.2432 8.83739Z" fill="#A4A9B3"/>
<path d="M21.2432 8.43505V8.47435L22.3906 7.81127V7.77344L21.2432 8.43505Z" fill="#A4A9B3"/>
<path d="M21.2432 8.29917V8.33679L22.3906 7.67432V7.63672L21.2432 8.29917Z" fill="#A4A9B3"/>
<path d="M11.04 8.00391L11.0499 11.1035L14.5171 13.1185L14.5073 10.0189L11.04 8.00391Z" fill="#D6B218"/>
<path d="M14.5068 10.0176L14.5166 13.1172L17.3414 11.4863L17.3316 8.38672L14.5068 10.0176Z" fill="#E5BD13"/>
<path d="M11.0391 8.00586L14.507 10.0208L15.741 9.30636L16.0982 9.10431L16.1054 9.10072L17.3321 8.38992L13.8642 6.375L12.6302 7.0858L12.6266 7.08942L12.273 7.29147L11.0391 8.00586Z" fill="#F1C40F"/>
<path d="M12.2734 7.2916L15.7414 9.3065L16.0986 9.10444L16.1058 9.10085L12.6306 7.08594L12.627 7.08955L12.2734 7.2916Z" fill="#E74C3C"/>
<path d="M15.7412 9.30778L15.7445 9.81968L15.9443 9.56387L16.1056 9.61347L16.1023 9.10156L15.7412 9.30778Z" fill="#D8463F"/>
<path d="M13.8824 11.7539L13.7852 11.9389L13.8454 11.9737L13.9782 12.0498L13.8824 11.7539Z" fill="#3E3D53"/>
<path d="M13.8448 11.9727L13.8438 12.3386L13.9164 12.3806L13.9174 12.0146L13.8448 11.9727Z" fill="#3E3D53"/>
<path d="M13.4836 12.1641L13.4834 12.2424L13.985 12.532L13.9852 12.4537L13.4836 12.1641Z" fill="#3E3D53"/>
<path d="M12.9509 11.2148L12.9502 11.4756C12.95 11.5579 12.9975 11.6536 13.0607 11.7021L13.06 11.9371C13.0157 11.9167 12.9823 11.9186 12.9823 11.9431L13.1778 12.0561C13.1779 12.0315 13.1446 11.9911 13.1004 11.9603L13.101 11.7253C13.1299 11.7368 13.1548 11.7341 13.1743 11.7218C13.1973 11.7047 13.2123 11.6727 13.2124 11.627L13.2132 11.3663L12.9509 11.2148Z" fill="#3E3D53"/>
<path d="M13.5547 11.8047L13.5537 12.1707L13.6264 12.2126L13.6274 11.8466L13.5547 11.8047Z" fill="#3E3D53"/>
<path d="M13.5909 11.5859L13.4941 11.7712L13.5544 11.806L13.6867 11.8818L13.5909 11.5859Z" fill="#3E3D53"/>
<path d="M4.74023 11.6406L4.75005 14.7402L8.21732 16.7552L8.20751 13.6556L4.74023 11.6406Z" fill="#D6B218"/>
<path d="M8.20703 13.6543L8.21684 16.7539L11.0416 15.123L11.0318 12.0234L8.20703 13.6543Z" fill="#E5BD13"/>
<path d="M4.73926 11.6426L8.20721 13.6575L9.44116 12.9431L9.79838 12.741L9.80558 12.7374L11.0323 12.0266L7.56437 10.0117L6.33041 10.7225L6.3268 10.7261L5.97322 10.9282L4.73926 11.6426Z" fill="#F1C40F"/>
<path d="M5.97363 10.9283L9.44158 12.9432L9.7988 12.7412L9.806 12.7376L6.33083 10.7227L6.32722 10.7263L5.97363 10.9283Z" fill="#E74C3C"/>
<path d="M9.44141 12.9445L9.44473 13.4564L9.64452 13.2006L9.80583 13.2502L9.8025 12.7383L9.44141 12.9445Z" fill="#D8463F"/>
<path d="M7.58257 15.3906L7.48535 15.5756L7.54557 15.6104L7.67844 15.6865L7.58257 15.3906Z" fill="#3E3D53"/>
<path d="M7.54498 15.6094L7.54395 15.9753L7.6166 16.0173L7.61764 15.6513L7.54498 15.6094Z" fill="#3E3D53"/>
<path d="M7.18382 15.8008L7.18359 15.8791L7.68521 16.1687L7.68543 16.0904L7.18382 15.8008Z" fill="#3E3D53"/>
<path d="M6.65113 14.8516L6.65039 15.1123C6.65015 15.1947 6.69774 15.2903 6.76091 15.3388L6.76024 15.5738C6.71594 15.5534 6.68254 15.5553 6.68247 15.5799L6.87804 15.6928C6.87811 15.6682 6.84483 15.6278 6.80055 15.5971L6.80122 15.362C6.83009 15.3736 6.85503 15.3708 6.8745 15.3585C6.89748 15.3414 6.91252 15.3095 6.91265 15.2637L6.91339 15.003L6.65113 14.8516Z" fill="#3E3D53"/>
<path d="M7.25495 15.4414L7.25391 15.8074L7.32656 15.8493L7.3276 15.4834L7.25495 15.4414Z" fill="#3E3D53"/>
<path d="M7.29106 15.2227L7.19434 15.4079L7.25455 15.4427L7.38692 15.5186L7.29106 15.2227Z" fill="#3E3D53"/>
<path d="M14.9434 11.8481V12.6108L16.0908 11.9433V11.1797L14.9434 11.8481Z" fill="#ECF0F1"/>
<path d="M14.9434 12.21V12.2457L16.0908 11.5832V11.5469L14.9434 12.21Z" fill="#A4A9B3"/>
<path d="M14.9434 12.3436V12.3817L16.0908 11.7192V11.6797L14.9434 12.3436Z" fill="#3E3D53"/>
<path d="M14.9434 12.4741V12.5138L16.0908 11.8522V11.8125L14.9434 12.4741Z" fill="#A4A9B3"/>
<path d="M14.9434 12.0718V12.1111L16.0908 11.448V11.4102L14.9434 12.0718Z" fill="#A4A9B3"/>
<path d="M14.9434 11.9359V11.9735L16.0908 11.311V11.2734L14.9434 11.9359Z" fill="#A4A9B3"/>
<path d="M8.64355 15.4848V16.2475L9.79103 15.58V14.8164L8.64355 15.4848Z" fill="#ECF0F1"/>
<path d="M8.64355 15.8467V15.8824L9.79103 15.2199V15.1836L8.64355 15.8467Z" fill="#A4A9B3"/>
<path d="M8.64355 15.9803V16.0184L9.79103 15.3559V15.3164L8.64355 15.9803Z" fill="#3E3D53"/>
<path d="M8.64355 16.1108V16.1505L9.79103 15.4889V15.4492L8.64355 16.1108Z" fill="#A4A9B3"/>
<path d="M8.64355 15.7085V15.7478L9.79103 15.0847V15.0469L8.64355 15.7085Z" fill="#A4A9B3"/>
<path d="M8.64355 15.5726V15.6102L9.79103 14.9478V14.9102L8.64355 15.5726Z" fill="#A4A9B3"/>
</svg>
