<svg width="24" height="24" viewBox="0 0 24 24" fill="none" xmlns="http://www.w3.org/2000/svg">
<g clip-path="url(#clip0_734_19940)">
<path fill-rule="evenodd" clip-rule="evenodd" d="M12 24C18.6092 24 24 18.6092 24 12C24 5.39077 18.6092 0 12 0C5.39077 0 0 5.39077 0 12C0 18.6092 5.39077 24 12 24Z" fill="#F34235"/>
<path d="M17.1709 8.03503H6.82908C6.77067 8.03503 6.71498 8.05908 6.67481 8.10136C6.63436 8.14397 6.61336 8.20087 6.61641 8.25928L7.15983 18.7447C7.18387 19.2112 7.56848 19.5766 8.03583 19.5766H15.9641C16.4315 19.5766 16.8161 19.2112 16.8401 18.7447L17.3835 8.25928C17.3866 8.20087 17.3656 8.14397 17.3251 8.10136C17.285 8.05908 17.2293 8.03503 17.1709 8.03503ZM8.62402 10.1489C8.62008 10.0062 8.67211 9.87014 8.77069 9.76608C8.86927 9.66201 9.00225 9.60239 9.14494 9.59812C9.44189 9.59203 9.68836 9.82509 9.69689 10.1197L9.89438 17.4802C9.89864 17.6226 9.84661 17.7589 9.7477 17.8633C9.64913 17.967 9.51586 18.0267 9.37284 18.0309H9.35705C9.2198 18.0309 9.08986 17.9789 8.98917 17.8834C8.88544 17.7848 8.82577 17.6518 8.82183 17.5094L8.62402 10.1489ZM11.4636 17.4865V10.1251C11.4636 9.82903 11.7043 9.58833 12 9.58833C12.2957 9.58833 12.5364 9.82903 12.5364 10.1251V17.4865C12.5364 17.7829 12.2957 18.0239 12 18.0239C11.7043 18.0239 11.4636 17.7829 11.4636 17.4865ZM15.1782 17.5087C15.1742 17.6518 15.1146 17.7847 15.0108 17.8833C14.9101 17.9789 14.7802 18.0309 14.643 18.0309H14.6262C14.4835 18.0266 14.3505 17.967 14.2523 17.8629C14.1533 17.7586 14.1013 17.6226 14.1056 17.4795L14.3031 10.1203C14.3116 9.82542 14.5562 9.59081 14.8514 9.59812H14.855C14.9977 9.60239 15.1307 9.66201 15.2293 9.76608C15.3278 9.87014 15.3799 10.0062 15.3759 10.1489L15.1782 17.5087ZM18.2344 6.39464V6.95939H5.76562V6.39464C5.76562 6.08306 6.01908 5.82961 6.33066 5.82961H10.432C10.5406 5.82961 10.632 5.74777 10.6438 5.63972C10.7196 4.94658 11.3026 4.42383 12 4.42383C12.6974 4.42383 13.2804 4.94658 13.3562 5.63972C13.368 5.74772 13.4593 5.82961 13.568 5.82961H17.6693C17.9809 5.82961 18.2344 6.08306 18.2344 6.39464Z" fill="white"/>
</g>
<defs>
<clipPath id="clip0_734_19940">
<rect width="24" height="24" fill="white"/>
</clipPath>
</defs>
</svg>
