<svg width="24" height="24" viewBox="0 0 24 24" fill="none" xmlns="http://www.w3.org/2000/svg">
<path d="M19.6814 19.8356L15.9445 13.7419C15.8166 13.5334 15.5895 13.4062 15.3448 13.4062H8.65609C8.41145 13.4062 8.18434 13.5334 8.05647 13.7419L4.31955 19.8356C4.18647 20.0526 4.18108 20.3246 4.30548 20.5466C4.42984 20.7687 4.66459 20.9062 4.91917 20.9062H19.0817C19.3363 20.9062 19.5711 20.7687 19.6954 20.5466C19.8198 20.3246 19.8145 20.0526 19.6814 19.8356Z" fill="#A4B0BE"/>
<path d="M19.6809 19.8356L15.944 13.7419C15.8161 13.5334 15.589 13.4062 15.3444 13.4062H12V20.9062H19.0813C19.3359 20.9062 19.5706 20.7687 19.695 20.5466C19.8194 20.3246 19.814 20.0526 19.6809 19.8356Z" fill="#747D8B"/>
<path d="M20.9093 20.9062H3.09105C2.7026 20.9062 2.3877 20.5914 2.3877 20.2031C2.3877 19.8148 2.7026 19.5 3.09105 19.5H20.9093C21.2978 19.5 21.6127 19.8148 21.6127 20.2031C21.6127 20.5914 21.2977 20.9062 20.9093 20.9062Z" fill="#747D8B"/>
<path d="M21.9276 14.6034C21.7953 14.737 21.6148 14.8125 21.4268 14.8125H2.57319C2.38518 14.8125 2.20461 14.737 2.07243 14.6034C-0.690809 11.8045 -0.690809 6.10172 2.07243 3.30281C2.20466 3.16922 2.38518 3.09375 2.57319 3.09375H21.4268C21.6148 3.09375 21.7954 3.16922 21.9276 3.30281C24.6908 6.10172 24.6908 11.8045 21.9276 14.6034Z" fill="#DFE4EA"/>
<path d="M21.9276 3.30281C21.7953 3.16922 21.6148 3.09375 21.4268 3.09375H12V14.8125H21.4268C21.6148 14.8125 21.7954 14.737 21.9276 14.6034C24.6908 11.8045 24.6908 6.10172 21.9276 3.30281Z" fill="#CED6DF"/>
<path d="M6.38325 14.8125H4.68773C2.8259 11.6196 2.79121 6.35198 4.68773 3.09375H6.38189C4.09481 5.97131 4.14304 11.993 6.38325 14.8125Z" fill="#FD7F56"/>
<path d="M11.9999 6.14062C10.4486 6.14062 9.18652 7.40231 9.18652 8.95312C9.18652 10.5039 10.4486 11.7656 11.9999 11.7656C13.5512 11.7656 14.8133 10.5039 14.8133 8.95312C14.8133 7.40231 13.5512 6.14062 11.9999 6.14062Z" fill="#FAD557"/>
<path d="M20.9091 19.5H12V20.9062H20.9091C21.2976 20.9062 21.6125 20.5914 21.6125 20.2031C21.6125 19.8148 21.2976 19.5 20.9091 19.5Z" fill="#2F3542"/>
<path d="M19.3133 14.8125H17.6191C19.87 11.9821 19.8824 5.93255 17.6224 3.09375H19.3133C21.1762 6.29498 21.2028 11.5625 19.3133 14.8125Z" fill="#FC644D"/>
<path d="M12 6.14062V11.7656C13.5513 11.7656 14.8134 10.5039 14.8134 8.95312C14.8134 7.40231 13.5513 6.14062 12 6.14062Z" fill="#FCB12B"/>
</svg>
