<svg width="16" height="16" viewBox="0 0 16 16" fill="none" xmlns="http://www.w3.org/2000/svg">
<g clip-path="url(#clip0_734_20711)">
<path d="M7.99992 7.75439V12.1852L4.30762 10.2159V5.78516L7.99992 7.75439Z" fill="#FFDE76"/>
<path d="M11.6923 5.78516V10.2159L8 12.1852V7.75439L11.6923 5.78516Z" fill="#FFCC66"/>
<path d="M11.6922 5.78368L7.99992 7.75291C6.96319 7.20215 5.34417 6.33445 4.30762 5.78368L7.99992 3.81445C9.03617 4.36695 10.6556 5.23242 11.6922 5.78368Z" fill="#FFBA55"/>
<path d="M6.39953 6.8996V7.5199C6.39744 7.84153 5.90929 7.84163 5.90723 7.5199V6.63867L6.39953 6.8996Z" fill="#F8834B"/>
<path d="M10.1066 4.94077L6.39953 6.90016L5.90723 6.63923L9.5823 4.66016L10.1066 4.94077Z" fill="#F16F39"/>
<path d="M8.00036 0.123047L6.52344 1.59997H7.2619V2.58459H8.73882V1.59997H9.47728L8.00036 0.123047Z" fill="#9DCC6B"/>
<path d="M0.123047 8.00036L1.59997 9.47728V8.73882H2.83074V7.2619H1.59997V6.52344L0.123047 8.00036Z" fill="#9DCC6B"/>
<path d="M8.00036 15.8776L9.47728 14.4007H8.73882V13.1699H7.2619V14.4007H6.52344L8.00036 15.8776Z" fill="#9DCC6B"/>
<path d="M15.8766 8.00036L14.3997 6.52344V7.2619H13.1689V8.73882H14.3997V9.47728L15.8766 8.00036Z" fill="#9DCC6B"/>
<path d="M3.93887 2.8302L4.43118 2.33789H2.34117L2.33887 2.3402V4.4302L2.83117 3.93789L3.69271 4.79943L4.80041 3.69174L3.93887 2.8302Z" fill="#9DCC6B"/>
<path d="M12.0617 2.8302L11.5694 2.33789H13.6594L13.6617 2.3402V4.4302L13.1694 3.93789L12.3079 4.79943L11.2002 3.69174L12.0617 2.8302Z" fill="#9DCC6B"/>
<path d="M12.0617 13.1684L11.5694 13.6608H13.6594L13.6617 13.6584V11.5684L13.1694 12.0608L12.3079 11.1992L11.2002 12.3069L12.0617 13.1684Z" fill="#9DCC6B"/>
<path d="M3.93887 13.1684L4.43118 13.6608H2.34117L2.33887 13.6584V11.5684L2.83117 12.0608L3.69271 11.1992L4.80041 12.3069L3.93887 13.1684Z" fill="#9DCC6B"/>
<path d="M6.27661 10.2153L5.29199 9.72296V8.49219L6.27661 8.9845V10.2153Z" fill="#EDEBF2"/>
<path d="M8.98503 10.4616C8.74309 10.4707 8.64349 10.1173 8.86269 10.0018L10.5858 9.01719C10.8654 8.85888 11.1091 9.28337 10.83 9.4446L9.10691 10.4292C9.06983 10.4505 9.0278 10.4617 8.98503 10.4616Z" fill="#FFA92C"/>
<path d="M11.6923 5.78516V10.2159L8 12.1852V7.75439L11.6923 5.78516Z" fill="#FFBE3D"/>
<path d="M11.6923 5.78368L8 7.75291V3.81445C9.03625 4.36695 10.6556 5.23242 11.6923 5.78368Z" fill="#FFA92C"/>
<path d="M10.1071 4.94077L8 6.05339V5.51185L9.58277 4.66016L10.1071 4.94077Z" fill="#EE5313"/>
<path d="M9.47692 1.59997H8.73846V2.58459H8V0.123047L9.47692 1.59997Z" fill="#84B749"/>
<path d="M9.47692 14.4007L8 15.8776V13.1699H8.73846V14.4007H9.47692Z" fill="#84B749"/>
<path d="M15.8766 8.00036L14.3997 6.52344V7.2619H13.1689V8.73882H14.3997V9.47728L15.8766 8.00036Z" fill="#84B749"/>
<path d="M12.0617 2.8302L11.5694 2.33789H13.6594L13.6617 2.3402V4.4302L13.1694 3.93789L12.3079 4.79943L11.2002 3.69174L12.0617 2.8302Z" fill="#84B749"/>
<path d="M12.0617 13.1684L11.5694 13.6608H13.6594L13.6617 13.6584V11.5684L13.1694 12.0608L12.3079 11.1992L11.2002 12.3069L12.0617 13.1684Z" fill="#84B749"/>
<path d="M8.98503 10.4616C8.74309 10.4707 8.64349 10.1173 8.86269 10.0018L10.5858 9.01719C10.8654 8.85888 11.1091 9.28337 10.83 9.4446L9.10691 10.4292C9.06983 10.4505 9.0278 10.4617 8.98503 10.4616Z" fill="#FF9803"/>
</g>
<defs>
<clipPath id="clip0_734_20711">
<rect width="16" height="16" fill="white"/>
</clipPath>
</defs>
</svg>
