<svg width="20" height="20" viewBox="0 0 20 20" fill="none" xmlns="http://www.w3.org/2000/svg">
<path d="M8.33333 15.8333C8.33333 16.163 8.23559 16.4852 8.05245 16.7593C7.86931 17.0334 7.60902 17.247 7.30447 17.3731C6.99993 17.4993 6.66482 17.5323 6.34152 17.468C6.01822 17.4037 5.72124 17.2449 5.48816 17.0118C5.25507 16.7788 5.09633 16.4818 5.03203 16.1585C4.96772 15.8352 5.00072 15.5001 5.12687 15.1955C5.25301 14.891 5.46664 14.6307 5.74072 14.4476C6.0148 14.2644 6.33703 14.1667 6.66667 14.1667C7.1087 14.1667 7.53262 14.3423 7.84518 14.6548C8.15774 14.9674 8.33333 15.3913 8.33333 15.8333ZM6.66667 8.33333C6.33703 8.33333 6.0148 8.43108 5.74072 8.61422C5.46664 8.79735 5.25301 9.05765 5.12687 9.3622C5.00072 9.66674 4.96772 10.0018 5.03203 10.3252C5.09633 10.6485 5.25507 10.9454 5.48816 11.1785C5.72124 11.4116 6.01822 11.5703 6.34152 11.6346C6.66482 11.699 6.99993 11.6659 7.30447 11.5398C7.60902 11.4137 7.86931 11.2 8.05245 10.926C8.23559 10.6519 8.33333 10.3296 8.33333 10C8.33333 9.55797 8.15774 9.13405 7.84518 8.82149C7.53262 8.50893 7.1087 8.33333 6.66667 8.33333ZM6.66667 2.5C6.33703 2.5 6.0148 2.59775 5.74072 2.78088C5.46664 2.96402 5.25301 3.22432 5.12687 3.52886C5.00072 3.8334 4.96772 4.16852 5.03203 4.49182C5.09633 4.81512 5.25507 5.11209 5.48816 5.34518C5.72124 5.57827 6.01822 5.737 6.34152 5.80131C6.66482 5.86562 6.99993 5.83261 7.30447 5.70647C7.60902 5.58032 7.86931 5.3667 8.05245 5.09262C8.23559 4.81854 8.33333 4.4963 8.33333 4.16667C8.33333 3.72464 8.15774 3.30072 7.84518 2.98816C7.53262 2.67559 7.1087 2.5 6.66667 2.5ZM13.3333 14.1667C13.0037 14.1667 12.6815 14.2644 12.4074 14.4476C12.1333 14.6307 11.9197 14.891 11.7935 15.1955C11.6674 15.5001 11.6344 15.8352 11.6987 16.1585C11.763 16.4818 11.9217 16.7788 12.1548 17.0118C12.3879 17.2449 12.6849 17.4037 13.0082 17.468C13.3315 17.5323 13.6666 17.4993 13.9711 17.3731C14.2757 17.247 14.536 17.0334 14.7191 16.7593C14.9023 16.4852 15 16.163 15 15.8333C15 15.3913 14.8244 14.9674 14.5118 14.6548C14.1993 14.3423 13.7754 14.1667 13.3333 14.1667ZM13.3333 8.33333C13.0037 8.33333 12.6815 8.43108 12.4074 8.61422C12.1333 8.79735 11.9197 9.05765 11.7935 9.3622C11.6674 9.66674 11.6344 10.0018 11.6987 10.3252C11.763 10.6485 11.9217 10.9454 12.1548 11.1785C12.3879 11.4116 12.6849 11.5703 13.0082 11.6346C13.3315 11.699 13.6666 11.6659 13.9711 11.5398C14.2757 11.4137 14.536 11.2 14.7191 10.926C14.9023 10.6519 15 10.3296 15 10C15 9.55797 14.8244 9.13405 14.5118 8.82149C14.1993 8.50893 13.7754 8.33333 13.3333 8.33333ZM13.3333 2.5C13.0037 2.5 12.6815 2.59775 12.4074 2.78088C12.1333 2.96402 11.9197 3.22432 11.7935 3.52886C11.6674 3.8334 11.6344 4.16852 11.6987 4.49182C11.763 4.81512 11.9217 5.11209 12.1548 5.34518C12.3879 5.57827 12.6849 5.737 13.0082 5.80131C13.3315 5.86562 13.6666 5.83261 13.9711 5.70647C14.2757 5.58032 14.536 5.3667 14.7191 5.09262C14.9023 4.81854 15 4.4963 15 4.16667C15 3.72464 14.8244 3.30072 14.5118 2.98816C14.1993 2.67559 13.7754 2.5 13.3333 2.5Z" fill="#4E4E4E"/>
</svg>
