<svg width="24" height="24" viewBox="0 0 24 24" fill="none" xmlns="http://www.w3.org/2000/svg">
<g clip-path="url(#clip0_734_19932)">
<path d="M17 24H3C1.346 24 0 22.654 0 21V7C0 5.346 1.346 4 3 4H11C11.553 4 12 4.448 12 5C12 5.552 11.553 6 11 6H3C2.448 6 2 6.449 2 7V21C2 21.551 2.448 22 3 22H17C17.552 22 18 21.551 18 21V13C18 12.448 18.447 12 19 12C19.553 12 20 12.448 20 13V21C20 22.654 18.654 24 17 24Z" fill="#607D8B"/>
<path d="M17.2883 3.17773L9.37631 11.0897C9.30631 11.1597 9.25931 11.2487 9.23931 11.3447L8.53231 14.8807C8.49931 15.0447 8.55031 15.2147 8.66931 15.3327C8.76431 15.4277 8.89231 15.4787 9.02331 15.4787L9.12131 15.4687L12.6563 14.7617C12.7543 14.7427 12.8423 14.6947 12.9123 14.6247L20.8243 6.71273L17.2883 3.17773Z" fill="#42A5F5"/>
<path d="M23.2676 0.73125C22.2926 -0.24375 20.7066 -0.24375 19.7326 0.73125L18.3486 2.11525L21.8836 5.65025L23.2676 4.26625C23.7396 3.79525 23.9996 3.16725 23.9996 2.49925C23.9996 1.83125 23.7396 1.20325 23.2676 0.73125Z" fill="#42A5F5"/>
<path d="M18.9999 12C18.4469 12 17.9999 12.448 17.9999 13V21C17.9999 21.551 17.5519 22 16.9999 22H2.99988C2.72388 22 2.47388 21.888 2.29288 21.707L0.879883 23.12C1.42288 23.664 2.17288 24 2.99988 24H16.9999C18.6539 24 19.9999 22.654 19.9999 21V13C19.9999 12.447 19.5529 12 18.9999 12Z" fill="#546D79"/>
<path d="M19.0559 4.94531L8.66895 15.3323C8.76395 15.4273 8.89195 15.4783 9.02295 15.4783L9.12095 15.4683L12.6559 14.7613C12.7539 14.7423 12.8419 14.6943 12.9119 14.6243L20.8239 6.71231L19.0559 4.94531Z" fill="#3990D5"/>
<path d="M23.2682 0.732422L20.1172 3.88342L21.8852 5.65142L23.2692 4.26742C23.7402 3.79642 24.0002 3.16842 24.0002 2.50042C24.0002 1.83242 23.7402 1.20442 23.2682 0.732422Z" fill="#3990D5"/>
</g>
<defs>
<clipPath id="clip0_734_19932">
<rect width="24" height="24" fill="white"/>
</clipPath>
</defs>
</svg>
