<svg width="20" height="20" viewBox="0 0 20 20" fill="none" xmlns="http://www.w3.org/2000/svg">
<path d="M13.4213 4.79223H11.6663C11.3901 4.79248 11.1253 4.9023 10.93 5.0976C10.7347 5.2929 10.6248 5.55771 10.6246 5.8339V14.1672C10.624 14.7748 10.3823 15.3574 9.9527 15.787C9.52306 16.2166 8.94052 16.4583 8.33292 16.4589H6.57784C6.42572 17.0481 6.06395 17.5615 5.56034 17.903C5.05672 18.2445 4.44585 18.3906 3.84222 18.314C3.23858 18.2373 2.68363 17.9431 2.28139 17.4865C1.87915 17.03 1.65723 16.4424 1.65723 15.8339C1.65723 15.2254 1.87915 14.6378 2.28139 14.1813C2.68363 13.7247 3.23858 13.4305 3.84222 13.3538C4.44585 13.2772 5.05672 13.4233 5.56034 13.7648C6.06395 14.1063 6.42572 14.6197 6.57784 15.2089H8.33292C8.60912 15.2087 8.87393 15.0988 9.06923 14.9035C9.26452 14.7082 9.37435 14.4434 9.37459 14.1672V5.8339C9.37521 5.2263 9.61685 4.64377 10.0465 4.21413C10.4761 3.78449 11.0587 3.54285 11.6663 3.54223H13.4213C13.5735 2.95307 13.9352 2.43962 14.4388 2.09811C14.9425 1.7566 15.5533 1.61049 16.157 1.68716C16.7606 1.76383 17.3155 2.05802 17.7178 2.51459C18.12 2.97116 18.342 3.55875 18.342 4.16723C18.342 4.77572 18.12 5.36331 17.7178 5.81988C17.3155 6.27645 16.7606 6.57064 16.157 6.64731C15.5533 6.72398 14.9425 6.57787 14.4388 6.23636C13.9352 5.89485 13.5735 5.3814 13.4213 4.79223ZM16.4579 13.4223V11.6672C16.4573 11.0596 16.2157 10.4771 15.786 10.0475C15.3564 9.61783 14.7739 9.37619 14.1663 9.37557H12.0829V10.6256H14.1663C14.4425 10.6258 14.7073 10.7356 14.9026 10.9309C15.0979 11.1262 15.2077 11.391 15.2079 11.6672V13.4223C14.6188 13.5744 14.1053 13.9362 13.7638 14.4398C13.4223 14.9434 13.2762 15.5543 13.3529 16.1579C13.4295 16.7616 13.7237 17.3165 14.1803 17.7188C14.6368 18.121 15.2244 18.3429 15.8329 18.3429C16.4414 18.3429 17.029 18.121 17.4856 17.7188C17.9421 17.3165 18.2363 16.7616 18.313 16.1579C18.3897 15.5543 18.2436 14.9434 17.9021 14.4398C17.5605 13.9362 17.0471 13.5744 16.4579 13.4223ZM3.54126 6.57882V8.3339C3.54188 8.9415 3.78352 9.52403 4.21315 9.95367C4.64279 10.3833 5.22533 10.625 5.83292 10.6256H7.91626V9.37557H5.83292C5.55673 9.37533 5.29192 9.2655 5.09662 9.0702C4.90133 8.87491 4.7915 8.61009 4.79126 8.3339V6.57882C5.38042 6.4267 5.89388 6.06492 6.23538 5.56131C6.57689 5.0577 6.723 4.44683 6.64633 3.84319C6.56966 3.23956 6.27547 2.68461 5.8189 2.28237C5.36234 1.88012 4.77474 1.6582 4.16626 1.6582C3.55777 1.6582 2.97018 1.88012 2.51361 2.28237C2.05705 2.68461 1.76286 3.23956 1.68618 3.84319C1.60951 4.44683 1.75562 5.0577 2.09713 5.56131C2.43864 6.06492 2.9521 6.4267 3.54126 6.57882Z" fill="#FF8C00"/>
</svg>
