<svg width="30" height="30" viewBox="0 0 30 30" fill="none" xmlns="http://www.w3.org/2000/svg">
<g clip-path="url(#clip0_734_20031)">
<path d="M29.1206 26.3282H16.7455L22.4936 20.5801L18.5824 13.1533L11.3315 9.41797L5.10893 15.623C3.40379 17.3282 3.40379 20.1055 5.10893 21.8282L11.103 27.8223C11.2613 27.9981 11.4897 28.086 11.7182 28.086C12.1793 28.086 29.6612 28.086 29.1206 28.086C29.6064 28.086 29.9995 27.6929 29.9995 27.2071C29.9995 26.7213 29.6064 26.3282 29.1206 26.3282Z" fill="#F3F5F9"/>
<path d="M2.75326 26.3281H0.878906C0.393105 26.3281 0 25.935 0 25.4492C0 24.9634 0.393105 24.5703 0.878906 24.5703H2.75326C3.23906 24.5703 3.63217 24.9634 3.63217 25.4492C3.63217 25.935 3.23906 26.3281 2.75326 26.3281Z" fill="#E1E6F0"/>
<path d="M1.87433 23.1767L0.631499 21.9339C0.288198 21.5906 0.288198 21.0344 0.631499 20.6911C0.9748 20.3478 1.53103 20.3478 1.87433 20.6911L3.11716 21.934C3.46046 22.2773 3.46046 22.8335 3.11716 23.1768C2.7738 23.5201 2.21763 23.5201 1.87433 23.1767Z" fill="#E1E6F0"/>
<path d="M29.1206 26.327H16.7455L22.4936 20.5788L18.634 13.25L7.58301 24.301L11.103 27.821C11.2613 27.9969 11.4897 28.0848 11.7182 28.0848C12.1793 28.0848 29.6612 28.0848 29.1206 28.0848C29.6064 28.0848 29.9995 27.6917 29.9995 27.2059C29.9995 26.7201 29.6064 26.327 29.1206 26.327Z" fill="#E1E6F0"/>
<path d="M28.6982 14.3573L22.4931 20.5799L11.3311 9.41781L17.5361 3.19503C19.2412 1.49001 22.0186 1.49001 23.7412 3.17745L28.6982 8.15212C30.414 9.83236 30.4528 12.6756 28.6982 14.3573Z" fill="#73D3E6"/>
<path d="M16.9126 14.9981L22.4937 20.5792L28.6988 14.3566C30.4533 12.675 30.4146 9.83166 28.6988 8.15143L26.2203 5.66406L16.8994 14.9849L16.9126 14.9981Z" fill="#5CB8E6"/>
</g>
<defs>
<clipPath id="clip0_734_20031">
<rect width="30" height="30" fill="white"/>
</clipPath>
</defs>
</svg>
