<svg width="24" height="24" viewBox="0 0 24 24" fill="none" xmlns="http://www.w3.org/2000/svg">
<g clip-path="url(#clip0_734_19561)">
<path d="M24 4.31062V19.6894C24 22.0664 22.0664 24 19.6894 24H4.31062C1.93359 24 0 22.0664 0 19.6894V4.31062C0 1.93359 1.93359 0 4.31062 0H19.6894C22.0664 0 24 1.93359 24 4.31062Z" fill="#17C3FF"/>
<path d="M24 4.31062V19.6894C24 22.0664 22.0664 24 19.6894 24H12V0H19.6894C22.0664 0 24 1.93359 24 4.31062Z" fill="#17C3FF"/>
<path d="M20.2828 18.7302H3.71807C2.78432 18.7302 2.78385 17.3184 3.71807 17.3184H20.2828C21.2165 17.3184 21.217 18.7302 20.2828 18.7302Z" fill="#3E3D53"/>
<path d="M20.2823 18.7302H12V17.3184H20.2823C21.2161 17.3184 21.2166 18.7302 20.2823 18.7302Z" fill="#3E3D53"/>
<path d="M20.2113 12.636H3.6466C2.71285 12.636 2.71285 11.2246 3.6466 11.2246H20.2113C21.1455 11.2246 21.1455 12.636 20.2113 12.636Z" fill="#3E3D53"/>
<path d="M20.2116 12.636H12V11.2246H20.2116C21.1458 11.2246 21.1458 12.636 20.2116 12.636Z" fill="#3E3D53"/>
<path d="M20.2113 6.61109H3.6466C2.71285 6.61109 2.71285 5.19922 3.6466 5.19922H20.2113C21.1455 5.19922 21.1455 6.61109 20.2113 6.61109Z" fill="#3E3D53"/>
<path d="M20.2116 6.61109H12V5.19922H20.2116C21.1458 5.19922 21.1458 6.61109 20.2116 6.61109Z" fill="#3E3D53"/>
<path d="M16.5174 14.2126C17.7389 14.2126 18.7292 13.2223 18.7292 12.0008C18.7292 10.7793 17.7389 9.78906 16.5174 9.78906C15.2959 9.78906 14.3057 10.7793 14.3057 12.0008C14.3057 13.2223 15.2959 14.2126 16.5174 14.2126Z" fill="#58B354"/>
<path d="M18.7293 12.0009C18.7293 13.2206 17.7373 14.2126 16.5176 14.2126V9.78906C17.7373 9.78911 18.7293 10.7811 18.7293 12.0009Z" fill="#00A963"/>
<path d="M10.494 20.236C11.7155 20.236 12.7057 19.2458 12.7057 18.0243C12.7057 16.8027 11.7155 15.8125 10.494 15.8125C9.27246 15.8125 8.28223 16.8027 8.28223 18.0243C8.28223 19.2458 9.27246 20.236 10.494 20.236Z" fill="#FFEC00"/>
<path d="M12.7059 18.0243C12.7059 19.2441 11.7139 20.236 10.4941 20.236V15.8125C11.7139 15.8125 12.7059 16.8045 12.7059 18.0243Z" fill="#FFD92E"/>
<path d="M7.48226 8.18913C8.70377 8.18913 9.69401 7.19889 9.69401 5.97738C9.69401 4.75586 8.70377 3.76562 7.48226 3.76562C6.26074 3.76562 5.27051 4.75586 5.27051 5.97738C5.27051 7.19889 6.26074 8.18913 7.48226 8.18913Z" fill="#FF2828"/>
<path d="M9.69398 5.97644C9.69398 7.18066 8.72738 8.16231 7.5293 8.18725V3.76562C8.72738 3.79056 9.69398 4.77222 9.69398 5.97644Z" fill="#CC0000"/>
</g>
<defs>
<clipPath id="clip0_734_19561">
<rect width="24" height="24" fill="white"/>
</clipPath>
</defs>
</svg>
