<svg width="80" height="65" viewBox="0 0 80 65" fill="none" xmlns="http://www.w3.org/2000/svg">
<path d="M7.24121 39.6639L38.5701 29.2556V19.041L7.24121 32.1259V39.6639Z" fill="#3E3D53"/>
<path d="M7.24121 52.4468L38.5701 47.3219V36.6504L7.24121 44.3587V52.4468Z" fill="#3E3D53"/>
<path d="M7.24121 64.9985H38.5701V54.4043L7.24121 57.1089V64.9985Z" fill="#3E3D53"/>
<path d="M40.0003 0L0.431641 23.0581V65H4.37865V28.7635L40.0003 11.2015L75.622 28.7635V65H79.569V23.0581L40.0003 0Z" fill="#009CDF"/>
<path d="M41.4307 65.0009H72.7596V32.1259L41.4307 19.041V65.0009Z" fill="#009CDF"/>
<path d="M46.0215 34.7578L62.3843 38.7075L64.077 47.171L58.4347 52.8134L49.9711 51.1207L46.0215 34.7578ZM46.0215 34.7578L54.5821 43.3184M57.3062 53.9418L65.2055 46.0425L68.5909 49.428L60.6916 57.3273L57.3062 53.9418ZM58.4347 44.9141C58.4347 46.1605 57.4242 47.171 56.1777 47.171C54.9313 47.171 53.9208 46.1605 53.9208 44.9141C53.9208 43.6676 54.9313 42.6571 56.1777 42.6571C57.4242 42.6571 58.4347 43.6676 58.4347 44.9141Z" stroke="white" stroke-width="1.5" stroke-linecap="round" stroke-linejoin="round"/>
</svg>
