<svg width="59" height="48" viewBox="0 0 59 48" fill="none" xmlns="http://www.w3.org/2000/svg">
<path d="M5.02832 29.2898L28.1635 21.6036V14.0605L5.02832 23.7232V29.2898Z" fill="#3E3D53"/>
<path d="M5.02832 38.7295L28.1635 34.9449V27.0645L5.02832 32.7567V38.7295Z" fill="#3E3D53"/>
<path d="M5.02832 47.9992H28.1635V40.1758L5.02832 42.173V47.9992Z" fill="#3E3D53"/>
<path d="M29.2199 0L0 17.0275V48H2.91471V21.2407L29.2199 8.27186L55.5252 21.2407V48H58.4399V17.0275L29.2199 0Z" fill="#009CDF"/>
<path d="M30.2764 48.0002H53.4116V23.7232L30.2764 14.0605V48.0002Z" fill="#009CDF"/>
<g clip-path="url(#clip0_732_17044)">
<path d="M33.667 25.666L45.7503 28.5827L47.0003 34.8327L42.8337 38.9993L36.5837 37.7493L33.667 25.666ZM33.667 25.666L39.9887 31.9877M42.0003 39.8327L47.8337 33.9993L50.3337 36.4993L44.5003 42.3327L42.0003 39.8327ZM42.8337 33.166C42.8337 34.0865 42.0875 34.8327 41.167 34.8327C40.2465 34.8327 39.5003 34.0865 39.5003 33.166C39.5003 32.2455 40.2465 31.4993 41.167 31.4993C42.0875 31.4993 42.8337 32.2455 42.8337 33.166Z" stroke="white" stroke-width="1.5" stroke-linecap="round" stroke-linejoin="round"/>
</g>
<defs>
<clipPath id="clip0_732_17044">
<rect width="20" height="20" fill="white" transform="translate(32 24)"/>
</clipPath>
</defs>
</svg>
