<svg width="24" height="24" viewBox="0 0 24 24" fill="none" xmlns="http://www.w3.org/2000/svg">
<path d="M19.8002 18.6931C19.8002 21.0931 17.8618 23.0777 15.4156 23.0777C12.9695 23.0777 11.0771 21.1392 11.0771 18.6931C11.0771 16.8931 12.1387 15.37 13.7079 14.6777V2.67767C13.7079 1.70844 14.4925 0.923828 15.4618 0.923828C15.9233 0.923828 16.3848 1.10844 16.7079 1.43152C17.031 1.7546 17.2156 2.16998 17.2156 2.67767V14.6777C18.7387 15.37 19.8002 16.8931 19.8002 18.6931Z" fill="#E9F0F4"/>
<path d="M16.9388 15.3245L16.5234 15.1399V6.9707H14.4003V15.1399L13.9849 15.3245C12.6465 15.9245 11.7695 17.263 11.7695 18.6938C11.7695 20.7245 13.4311 22.3861 15.4618 22.3861C17.4926 22.3861 19.1541 20.7245 19.1541 18.6938C19.108 17.2169 18.2772 15.9245 16.9388 15.3245Z" fill="#5EC0FD"/>
<path d="M17.6777 13.3848H19.247V13.8463H17.6777V13.3848Z" fill="#163866"/>
<path d="M17.6777 12.0469H19.8008V12.5084H17.6777V12.0469Z" fill="#163866"/>
<path d="M17.6777 10.7539H19.247V11.2154H17.6777V10.7539Z" fill="#163866"/>
<path d="M17.6777 9.41602H19.8008V9.87755H17.6777V9.41602Z" fill="#163866"/>
<path d="M17.6777 8.07812H19.247V8.53966H17.6777V8.07812Z" fill="#163866"/>
<path d="M17.6777 6.78516H19.8008V7.24669H17.6777V6.78516Z" fill="#163866"/>
<path d="M17.6777 5.44727H19.247V5.9088H17.6777V5.44727Z" fill="#163866"/>
<path d="M17.6777 4.10938H19.8008V4.57091H17.6777V4.10938Z" fill="#163866"/>
<path d="M17.6777 2.81641H19.247V3.27794H17.6777V2.81641Z" fill="#163866"/>
<path d="M12.5543 11.586C12.5543 13.8937 10.662 15.786 8.3543 15.786C6.0466 15.786 4.1543 13.8937 4.1543 11.586C4.1543 9.786 6.69276 6.186 7.80045 4.61677C8.07737 4.24754 8.58507 4.24754 8.86199 4.61677C10.062 6.13984 12.5543 9.786 12.5543 11.586Z" fill="#5EC0FD"/>
<path d="M6.69268 10.6152C6.55422 10.4767 6.46191 10.2921 6.46191 10.1075C6.46191 10.0613 6.46191 9.96902 6.46191 9.87671C6.46191 9.7844 6.46191 9.6921 6.46191 9.59979C6.46191 9.36902 6.55422 9.1844 6.69268 9.04594C6.83114 8.90748 7.01576 8.86133 7.29268 8.86133C7.56961 8.86133 7.75422 8.90748 7.89268 9.04594C8.03115 9.1844 8.12345 9.36902 8.12345 9.59979V9.87671V10.1075C8.12345 10.3383 8.03115 10.5229 7.89268 10.6152C7.75422 10.7536 7.56961 10.7998 7.29268 10.7998C7.01576 10.8459 6.83114 10.7536 6.69268 10.6152ZM6.73884 12.7383C6.73884 12.7383 6.69268 12.6921 6.69268 12.6459V12.5998L9.41576 8.99979L9.50807 8.90748C9.55422 8.90748 9.55422 8.86133 9.60038 8.86133H9.8773C9.92345 8.86133 9.92345 8.86133 9.96961 8.90748C9.96961 8.90748 10.0158 8.95364 10.0158 8.99979V9.04594L7.29268 12.6459C7.24653 12.6921 7.24653 12.6921 7.20038 12.7383C7.15422 12.7383 7.15422 12.7844 7.10807 12.7844H6.83114C6.78499 12.7383 6.73884 12.7383 6.73884 12.7383ZM7.4773 10.3383C7.52345 10.2921 7.56961 10.1998 7.56961 10.1075C7.56961 9.96902 7.56961 9.92287 7.56961 9.87671C7.56961 9.83056 7.56961 9.73825 7.56961 9.64594C7.56961 9.55364 7.52345 9.46133 7.4773 9.41517C7.43115 9.36902 7.33884 9.32287 7.24653 9.32287C7.15422 9.32287 7.06191 9.36902 7.01576 9.41517C6.96961 9.46133 6.92345 9.55364 6.92345 9.64594V9.87671V10.1075C6.92345 10.1998 6.96961 10.2921 7.01576 10.3383C7.06191 10.3844 7.15422 10.4306 7.24653 10.4306C7.38499 10.4306 7.43115 10.3844 7.4773 10.3383ZM8.90807 12.5998C8.76961 12.4613 8.6773 12.2767 8.6773 12.0459C8.6773 11.9998 8.6773 11.9075 8.6773 11.8152C8.6773 11.7229 8.6773 11.6306 8.6773 11.5383C8.6773 11.3075 8.76961 11.1229 8.90807 10.9844C9.04653 10.8459 9.23115 10.7998 9.50807 10.7998C9.78499 10.7998 9.96961 10.8459 10.1081 10.9844C10.2465 11.1229 10.3388 11.3075 10.3388 11.5383V11.8152V12.0459C10.3388 12.2767 10.2465 12.4613 10.1081 12.5998C9.96961 12.7383 9.78499 12.7844 9.50807 12.7844C9.23115 12.7844 9.04653 12.7383 8.90807 12.5998ZM9.73884 12.2767C9.78499 12.2306 9.83114 12.1383 9.83114 12.0459C9.83114 11.9075 9.83114 11.8613 9.83114 11.8152C9.83114 11.769 9.83114 11.7229 9.83114 11.5844C9.83114 11.4921 9.78499 11.3998 9.73884 11.3536C9.69268 11.3075 9.60038 11.2613 9.50807 11.2613C9.41576 11.2613 9.32345 11.3075 9.2773 11.3536C9.23115 11.3998 9.18499 11.4921 9.18499 11.5844V11.8152V12.0459C9.18499 12.1383 9.23115 12.2306 9.2773 12.2767C9.32345 12.3229 9.41576 12.369 9.50807 12.369C9.60038 12.369 9.64653 12.3229 9.73884 12.2767Z" fill="white"/>
</svg>
