<svg width="24" height="24" viewBox="0 0 24 24" fill="none" xmlns="http://www.w3.org/2000/svg">
<g clip-path="url(#clip0_734_19885)">
<path d="M23.6004 12.0009C23.5999 14.0005 23.0826 15.9661 22.0987 17.7069C21.1148 19.4478 19.6977 20.9048 17.9848 21.9367C16.272 22.9686 14.3216 23.5403 12.3227 23.5964C10.3238 23.6525 8.3444 23.1911 6.57639 22.2569C5.44367 22.8704 4.22855 23.3176 2.96839 23.5849C2.85088 23.6111 2.72845 23.6046 2.61432 23.5663C2.5002 23.5279 2.39873 23.4591 2.32089 23.3673C2.24305 23.2754 2.1918 23.1641 2.17267 23.0452C2.15355 22.9263 2.16728 22.8045 2.21239 22.6929C2.6285 21.6409 2.92113 20.5443 3.08439 19.4249C1.89281 17.9932 1.06353 16.2955 0.666692 14.4756C0.269856 12.6556 0.317133 10.7669 0.804525 8.96908C1.29192 7.17126 2.20509 5.51726 3.46681 4.14695C4.72853 2.77664 6.30169 1.73033 8.05325 1.0965C9.80481 0.462674 11.6832 0.259977 13.5297 0.505551C15.3761 0.751124 17.1363 1.43775 18.6613 2.50735C20.1863 3.57695 21.4313 4.99807 22.291 6.65052C23.1507 8.30298 23.5998 10.1382 23.6004 12.0009Z" fill="#3E3D53"/>
<path d="M14.0862 17.7612L14.5262 17.908C14.6059 17.9346 14.6752 17.9855 14.7243 18.0536C14.7734 18.1218 14.7998 18.2036 14.7998 18.2876V18.7992C14.7998 18.9053 14.7577 19.007 14.6826 19.0821C14.6076 19.1571 14.5059 19.1992 14.3998 19.1992H9.6002C9.49411 19.1992 9.39237 19.1571 9.31735 19.0821C9.24234 19.007 9.2002 18.9053 9.2002 18.7992V18.2876C9.20018 18.2036 9.22659 18.1218 9.2757 18.0536C9.32481 17.9855 9.39411 17.9346 9.4738 17.908L9.9078 17.7632C10.0513 17.7154 10.1761 17.6236 10.2645 17.5008C10.3529 17.378 10.4004 17.2305 10.4002 17.0792V11.3192C10.4002 11.1681 10.3527 11.0207 10.2643 10.8981C10.1759 10.7755 10.0512 10.6838 9.9078 10.636L9.4738 10.4912C9.39398 10.4646 9.32458 10.4136 9.27546 10.3453C9.22635 10.277 9.20001 10.1949 9.2002 10.1108V9.59922C9.2002 9.49313 9.24234 9.39139 9.31735 9.31638C9.39237 9.24136 9.49411 9.19922 9.6002 9.19922H13.2002C13.3063 9.19922 13.408 9.24136 13.483 9.31638C13.5581 9.39139 13.6002 9.49313 13.6002 9.59922V17.0872C13.6002 17.2364 13.6471 17.3817 13.7344 17.5027C13.8216 17.6237 13.9447 17.7141 14.0862 17.7612Z" fill="white"/>
<path d="M12.0004 7.2C12.884 7.2 13.6004 6.48366 13.6004 5.6C13.6004 4.71634 12.884 4 12.0004 4C11.1167 4 10.4004 4.71634 10.4004 5.6C10.4004 6.48366 11.1167 7.2 12.0004 7.2Z" fill="white"/>
</g>
<defs>
<clipPath id="clip0_734_19885">
<rect width="24" height="24" fill="white"/>
</clipPath>
</defs>
</svg>
