<svg width="80" height="65" viewBox="0 0 80 65" fill="none" xmlns="http://www.w3.org/2000/svg">
<path d="M6.80957 39.664L38.1385 29.2556V19.041L6.80957 32.1259V39.664Z" fill="#3E3D53"/>
<path d="M6.80957 52.4468L38.1385 47.3219V36.6504L6.80957 44.3587V52.4468Z" fill="#3E3D53"/>
<path d="M6.80957 64.9985H38.1385V54.4043L6.80957 57.1089V64.9985Z" fill="#3E3D53"/>
<path d="M39.5687 0L0 23.0581V65H3.94701V28.7635L39.5687 11.2015L75.1904 28.7635V65H79.1374V23.0581L39.5687 0Z" fill="#009CDF"/>
<path d="M40.999 65.0009H72.328V32.1259L40.999 19.041V65.0009Z" fill="#009CDF"/>
<path d="M45.5898 34.7578L61.9527 38.7075L63.6454 47.171L58.003 52.8134L49.5395 51.1207L45.5898 34.7578ZM45.5898 34.7578L54.1504 43.3184M56.8746 53.9418L64.7739 46.0425L68.1593 49.428L60.26 57.3273L56.8746 53.9418ZM58.003 44.9141C58.003 46.1605 56.9926 47.171 55.7461 47.171C54.4996 47.171 53.4891 46.1605 53.4891 44.9141C53.4891 43.6676 54.4996 42.6571 55.7461 42.6571C56.9926 42.6571 58.003 43.6676 58.003 44.9141Z" stroke="white" stroke-width="1.5" stroke-linecap="round" stroke-linejoin="round"/>
</svg>
