<svg width="24" height="24" viewBox="0 0 24 24" fill="none" xmlns="http://www.w3.org/2000/svg">
<g clip-path="url(#clip0_732_17022)">
<path d="M16.2188 0.703125V20.4844C16.2188 20.8781 15.9095 21.1875 15.5156 21.1875H9.89063C9.49677 21.1875 9.1875 20.8781 9.1875 20.4844L0.75 0.703125C0.75 0.309265 1.05927 0 1.45313 0H15.5156C15.9095 0 16.2188 0.309265 16.2188 0.703125Z" fill="#07485E"/>
<path d="M16.2188 0.703125V20.4844C16.2188 20.8781 15.9095 21.1875 15.5156 21.1875H9.89063C9.49677 21.1875 9.1875 20.8781 9.1875 20.4844L7.07812 15.5625V0H15.5156C15.9095 0 16.2188 0.309265 16.2188 0.703125Z" fill="#03232E"/>
<path d="M10.1999 4.28944L1.76239 0.0706901C1.55164 -0.0278206 1.2843 -0.0278206 1.08746 0.0988884C0.876526 0.23933 0.75 0.464367 0.75 0.703503V20.4848C0.75 20.794 0.946838 21.0614 1.22809 21.1456L7.07813 23.1004L9.66559 23.9581C9.87268 24.041 10.138 23.9942 10.2984 23.8739C10.4813 23.7332 10.5938 23.5223 10.5938 23.2973V4.92225C10.5938 4.6551 10.439 4.41597 10.1999 4.28944Z" fill="#FF8859"/>
<path d="M10.5938 4.9223V23.2973C10.5938 23.5223 10.4811 23.7333 10.2984 23.8739C10.1395 23.9931 9.8747 24.042 9.66559 23.9581L7.07812 23.1005V2.72852L10.1999 4.28949C10.439 4.41602 10.5938 4.65515 10.5938 4.9223Z" fill="#FF3939"/>
<path d="M17.9965 15.4788C17.7678 15.3566 17.625 15.1184 17.625 14.8588V14.1557H12.7031C12.3144 14.1557 12 13.8411 12 13.4525V10.64C12 10.2513 12.3144 9.93691 12.7031 9.93691H17.625V9.23378C17.625 8.97414 17.7678 8.73592 17.9965 8.6136C18.2245 8.4922 18.5026 8.50594 18.7181 8.64876L22.9369 11.4613C23.1326 11.5916 23.25 11.8114 23.25 12.0463C23.25 12.281 23.1326 12.5007 22.9369 12.6311L18.7181 15.4436C18.5001 15.5892 18.2219 15.5998 17.9965 15.4788Z" fill="#FF3939"/>
<path d="M7.78125 10.6406V13.4531C7.78125 13.8468 7.47199 14.1563 7.07813 14.1563C6.68427 14.1563 6.375 13.8468 6.375 13.4531V10.6406C6.375 10.2468 6.68427 9.9375 7.07813 9.9375C7.47199 9.9375 7.78125 10.2468 7.78125 10.6406Z" fill="#FFF5F5"/>
<path d="M7.78125 10.6406V13.4531C7.78125 13.8468 7.47198 14.1563 7.07812 14.1563V9.9375C7.47198 9.9375 7.78125 10.2468 7.78125 10.6406Z" fill="#EFE2DD"/>
</g>
<defs>
<clipPath id="clip0_732_17022">
<rect width="24" height="24" fill="white"/>
</clipPath>
</defs>
</svg>
