<svg width="30" height="30" viewBox="0 0 30 30" fill="none" xmlns="http://www.w3.org/2000/svg">
<path fill-rule="evenodd" clip-rule="evenodd" d="M26.5658 12.7987C26.7498 12.7414 26.9452 12.7106 27.1474 12.7106C28.2313 12.7106 29.1181 13.5974 29.1181 14.6813C29.1181 15.5838 28.5032 16.3496 27.6717 16.5807V19.0664C27.6717 19.6403 27.2036 20.1083 26.6298 20.1083H3.37111C2.79728 20.1083 2.32922 19.6403 2.32922 19.0664V16.5806C1.49775 16.3496 0.882812 15.5838 0.882812 14.6813C0.882812 13.5974 1.76964 12.7106 2.85358 12.7106C3.05575 12.7106 3.25111 12.7414 3.43511 12.7987V9.01839C3.43511 8.44456 3.90311 7.97656 4.47699 7.97656H13.9586C14.5325 7.97656 15.0005 8.44468 15.0005 9.01839C15.0005 8.44456 15.4684 7.97656 16.0423 7.97656H25.524C26.0978 7.97656 26.5658 8.44468 26.5658 9.01839V12.7987ZM4.82428 16.6987C4.82428 17.0813 5.13634 17.3933 5.51887 17.3933H24.482C24.8646 17.3933 25.1766 17.0813 25.1766 16.6987V15.6928H4.82428V16.6987Z" fill="#A4D4FF"/>
<path fill-rule="evenodd" clip-rule="evenodd" d="M4.02323 20.4826H3.37076C2.57017 20.4826 1.91711 19.8296 1.91711 19.029V16.8336C1.06853 16.4682 0.470703 15.6224 0.470703 14.6438C0.470703 13.3335 1.54282 12.2613 2.85323 12.2613C2.91029 12.2613 2.96688 12.2633 3.023 12.2673V8.98093C3.023 8.18028 3.67594 7.52734 4.47664 7.52734H13.9583C14.3661 7.52734 14.7356 7.69681 15.0001 7.96893C15.2645 7.69681 15.6341 7.52734 16.0419 7.52734H25.5236C26.3242 7.52734 26.9772 8.18046 26.9772 8.98093V12.2673C27.0333 12.2633 27.0899 12.2613 27.1471 12.2613C28.4574 12.2613 29.5295 13.3335 29.5295 14.6438C29.5295 15.6224 28.9317 16.4683 28.0831 16.8336V19.029C28.0831 19.8296 27.4301 20.4826 26.6295 20.4826H26.2562V21.3991C26.2562 21.6846 26.1428 21.9584 25.9409 22.1603C25.739 22.3622 25.4652 22.4756 25.1797 22.4756H24.999C24.7135 22.4756 24.4396 22.3622 24.2378 22.1603C24.0359 21.9584 23.9225 21.6846 23.9225 21.3991V20.4826H6.35694V21.3991C6.35694 21.6846 6.24353 21.9584 6.04164 22.1603C5.83976 22.3622 5.56594 22.4756 5.28047 22.4756H5.09976C4.81423 22.4756 4.54041 22.3622 4.33859 22.1603C4.1367 21.9584 4.02323 21.6846 4.02323 21.3991V20.4826ZM3.84653 12.4796C4.66459 12.8579 5.2357 13.6874 5.2357 14.6438V15.2435H14.5883V8.98093C14.5883 8.63393 14.3053 8.35087 13.9583 8.35087H4.47664C4.12953 8.35087 3.84653 8.63387 3.84653 8.98093V12.4796ZM5.2357 16.067V16.6613C5.2357 16.817 5.36276 16.9441 5.51853 16.9441H24.4817C24.6375 16.9441 24.7645 16.817 24.7645 16.6613V16.067H5.2357ZM24.7645 15.2435V14.6438C24.7645 13.6874 25.3356 12.8579 26.1537 12.4796V8.98093C26.1537 8.63393 25.8706 8.35087 25.5236 8.35087H16.0419C15.6949 8.35087 15.4119 8.63387 15.4119 8.98093V15.2435H24.7645ZM25.4327 20.4826H24.746V21.3991C24.746 21.4662 24.7726 21.5305 24.8201 21.578C24.8675 21.6254 24.9319 21.652 24.999 21.652H25.1797C25.2468 21.652 25.3111 21.6254 25.3586 21.578C25.4061 21.5305 25.4327 21.4662 25.4327 21.3991V20.4826ZM5.53341 20.4826H4.84676V21.3991C4.84676 21.4662 4.87341 21.5305 4.92088 21.578C4.96829 21.6254 5.03264 21.652 5.09976 21.652H5.28047C5.34753 21.652 5.41188 21.6254 5.45935 21.578C5.50676 21.5305 5.53341 21.4662 5.53341 21.3991V20.4826ZM18.1548 12.2245H17.9764C17.7492 12.2245 17.5646 12.0399 17.5646 11.8127C17.5646 11.5855 17.7492 11.4009 17.9764 11.4009H18.1548V11.2213C18.1548 10.994 18.3393 10.8095 18.5666 10.8095C18.7938 10.8095 18.9783 10.994 18.9783 11.2213V11.4009H19.1567C19.3839 11.4009 19.5685 11.5855 19.5685 11.8127C19.5685 12.0399 19.3839 12.2245 19.1567 12.2245H18.9783V12.4041C18.9783 12.6314 18.7938 12.8159 18.5666 12.8159C18.3393 12.8159 18.1548 12.6314 18.1548 12.4041V12.2245ZM22.5872 12.2245H22.4088C22.1816 12.2245 21.9971 12.0399 21.9971 11.8127C21.9971 11.5855 22.1816 11.4009 22.4088 11.4009H22.5872V11.2213C22.5872 10.994 22.7717 10.8095 22.999 10.8095C23.2262 10.8095 23.4108 10.994 23.4108 11.2213V11.4009H23.5891C23.8164 11.4009 24.0009 11.5855 24.0009 11.8127C24.0009 12.0399 23.8164 12.2245 23.5891 12.2245H23.4108V12.4041C23.4108 12.6314 23.2262 12.8159 22.999 12.8159C22.7717 12.8159 22.5872 12.6314 22.5872 12.4041V12.2245ZM11.0219 12.2245H10.8435C10.6162 12.2245 10.4317 12.0399 10.4317 11.8127C10.4317 11.5855 10.6162 11.4009 10.8435 11.4009H11.0219V11.2213C11.0219 10.994 11.2063 10.8095 11.4336 10.8095C11.6609 10.8095 11.8454 10.994 11.8454 11.2213V11.4009H12.0238C12.2511 11.4009 12.4355 11.5855 12.4355 11.8127C12.4355 12.0399 12.2511 12.2245 12.0238 12.2245H11.8454V12.4041C11.8454 12.6314 11.6609 12.8159 11.4336 12.8159C11.2063 12.8159 11.0219 12.6314 11.0219 12.4041V12.2245ZM6.58947 12.2245H6.41106C6.18382 12.2245 5.99929 12.0399 5.99929 11.8127C5.99929 11.5855 6.18382 11.4009 6.41106 11.4009H6.58947V11.2213C6.58947 10.994 6.77394 10.8095 7.00123 10.8095C7.22847 10.8095 7.413 10.994 7.413 11.2213V11.4009H7.59135C7.81864 11.4009 8.00311 11.5855 8.00311 11.8127C8.00311 12.0399 7.81864 12.2245 7.59135 12.2245H7.413V12.4041C7.413 12.6314 7.22847 12.8159 7.00123 12.8159C6.77394 12.8159 6.58947 12.6314 6.58947 12.4041V12.2245ZM27.6008 16.1349C28.2386 15.939 28.706 15.3435 28.706 14.6438C28.706 13.7864 28.0045 13.0849 27.1471 13.0849C26.2896 13.0849 25.5881 13.7864 25.5881 14.6438V16.6613C25.5881 17.2706 25.091 17.7676 24.4817 17.7676H5.51853C4.90917 17.7676 4.41217 17.2706 4.41217 16.6613V14.6438C4.41217 13.7864 3.7107 13.0849 2.85323 13.0849C1.99576 13.0849 1.29423 13.7864 1.29423 14.6438C1.29423 15.3436 1.76176 15.9392 2.39964 16.1349C2.77759 16.154 3.02611 16.0916 3.181 15.9535C3.32311 15.8269 3.36976 15.6464 3.3907 15.4756C3.41747 15.2571 3.37411 15.0771 3.26882 14.9438C3.09359 14.7216 2.77923 14.631 2.44229 14.644C2.21523 14.6528 2.02376 14.4755 2.015 14.2485C2.00623 14.0213 2.18347 13.8299 2.41059 13.8211C3.03317 13.7971 3.59141 14.0232 3.91529 14.4336C4.14276 14.7218 4.26594 15.1035 4.20811 15.5758C4.16388 15.9364 4.02906 16.3008 3.72894 16.5683C3.51106 16.7625 3.19794 16.9149 2.74064 16.9524V19.029C2.74064 19.376 3.0237 19.6591 3.37076 19.6591H26.6295C26.9765 19.6591 27.2596 19.376 27.2596 19.029V16.9524C26.8023 16.9149 26.4892 16.7625 26.2713 16.5683C25.9712 16.3008 25.8363 15.9364 25.7921 15.5758C25.7342 15.1035 25.8575 14.7218 26.0849 14.4336C26.4088 14.0232 26.967 13.7971 27.5896 13.8211C27.8167 13.8299 27.994 14.0213 27.9852 14.2485C27.9765 14.4755 27.785 14.6528 27.5579 14.644C27.2209 14.631 26.9066 14.7216 26.7313 14.9438C26.6261 15.0771 26.5828 15.2571 26.6095 15.4756C26.6304 15.6464 26.6771 15.8269 26.8192 15.9535C26.9741 16.0916 27.2227 16.1541 27.6008 16.1349Z" fill="#1F4571"/>
</svg>
