<svg width="24" height="24" viewBox="0 0 24 24" fill="none" xmlns="http://www.w3.org/2000/svg">
<path d="M15.4404 20.0996C15.4404 21.219 14.8436 22.0757 13.8744 22.6356C12.9055 23.1953 11.7117 23.1953 10.7446 22.6356C9.77517 22.0757 9.17871 21.219 9.17871 20.0996" fill="#D73D24"/>
<path d="M12.3084 0.554688C13.1624 0.554688 13.8502 1.08119 13.8502 1.89085C13.8502 2.40046 13.868 2.78071 14.1882 2.87811C16.9115 3.70043 18.6578 5.62793 18.6578 8.13108V12.3383C18.6578 14.2658 19.4463 14.656 20.4387 15.3933C21.8759 16.4592 21.5478 18.6789 19.8986 18.6774H4.71871C3.06955 18.6789 2.74146 16.4592 4.17864 15.3933C5.16983 14.656 5.95958 14.2658 5.95958 12.3383V8.13108C5.95958 5.62793 7.70584 3.70043 10.4291 2.87811C10.7485 2.78071 10.7672 2.40046 10.7672 1.89085C10.7675 1.08119 11.4556 0.554688 12.3084 0.554688Z" fill="#009CDF"/>
</svg>
