<svg width="30" height="30" viewBox="0 0 30 30" fill="none" xmlns="http://www.w3.org/2000/svg">
<path d="M28.6971 13.1822V10.1055H20.9151C20.7484 10.1055 20.6133 10.2406 20.6133 10.4073V13.1822H28.6971Z" fill="#FED402"/>
<path d="M28.4673 10.0463H22.057L21.9158 10.1049H20.9151C20.7484 10.1049 20.6133 10.24 20.6133 10.4067V11.614H28.6971V10.1049L28.5005 10.043C28.4895 10.0444 28.4787 10.0463 28.4673 10.0463Z" fill="#FE6C55"/>
<path d="M12.5254 9.61328H14.3362V11.4909H12.5254V9.61328Z" fill="#918291"/>
<path d="M16.7502 13.1824V12.339C16.7502 11.839 16.3448 11.4336 15.8447 11.4336H11.0158C10.5158 11.4336 10.1104 11.8389 10.1104 12.339V13.1824H16.7502Z" fill="#A79BA7"/>
<path d="M12.0313 13.1237V12.339C12.0313 11.839 12.4367 11.4336 12.9368 11.4336H11.0158C10.5158 11.4336 10.1104 11.8389 10.1104 12.339V13.1237H12.0313Z" fill="#918291"/>
<path d="M18.8721 9.23135H7.98926C7.82748 9.23135 7.69629 9.10016 7.69629 8.93838V2.51562C7.69629 2.35385 7.82748 2.22266 7.98926 2.22266H18.8721C19.0339 2.22266 19.1651 2.35385 19.1651 2.51562V8.93838C19.1651 9.10021 19.0339 9.23135 18.8721 9.23135Z" fill="#EAF6FF"/>
<path d="M10.1108 8.92953V2.52447C10.1108 2.35777 10.2459 2.22266 10.4126 2.22266H7.9981C7.83141 2.22266 7.69629 2.35777 7.69629 2.52447V8.92959C7.69629 9.09629 7.83141 9.23141 7.9981 9.23141H10.4126C10.2459 9.23135 10.1108 9.09623 10.1108 8.92953Z" fill="#D8ECFE"/>
<path d="M18.8633 9.67275H7.99811C7.58936 9.67275 7.25684 9.34023 7.25684 8.93148V2.52643C7.25684 2.11768 7.58936 1.78516 7.99811 1.78516H18.8721C19.276 1.78516 19.6045 2.11369 19.6045 2.51758V8.93148C19.6046 9.34023 19.272 9.67275 18.8633 9.67275ZM8.13574 8.79385H18.7256V2.66406H8.13574V8.79385Z" fill="#A79BA7"/>
<path d="M2.26168 11.4634V11.0239H1.47869C1.22176 11.0239 1.0127 10.8149 1.0127 10.5579V9.95428C1.0127 9.69734 1.2217 9.48828 1.47869 9.48828H2.26162V8.60938H1.47869C0.737129 8.60938 0.133789 9.21272 0.133789 9.95428V10.5579C0.133789 11.2995 0.73707 11.9028 1.47869 11.9028H2.3126C2.27967 11.7615 2.26168 11.6145 2.26168 11.4634Z" fill="#EAF6FF"/>
<path d="M3.1882 13.1819H5.20184C5.79111 12.8359 6.18697 12.1961 6.18697 11.4634V8.90234C6.18697 8.74057 6.05578 8.60938 5.894 8.60938H2.20312V11.4634C2.20312 12.1961 2.59898 12.8359 3.1882 13.1819Z" fill="#EAF6FF"/>
<path d="M3.0941 13.1233H4.60541C4.06752 12.7667 3.71215 12.1571 3.71215 11.4634V8.60938H2.20312V11.4634C2.20312 12.1563 2.55721 12.7665 3.0941 13.1233Z" fill="#D8ECFE"/>
<path d="M20.6133 11.6133H23.6361V13.1224H20.6133V11.6133Z" fill="#FAC600"/>
<path d="M23.9379 10.1055H20.9151C20.7484 10.1055 20.6133 10.2406 20.6133 10.4073V11.6146H23.6361V10.4073C23.6361 10.2406 23.7712 10.1055 23.9379 10.1055Z" fill="#FD544D"/>
<path d="M29.698 10.1067H21.916V8.89947C21.916 8.73277 22.0511 8.59766 22.2178 8.59766H29.698C29.8647 8.59766 29.9998 8.73277 29.9998 8.89947V9.80492C29.9998 9.97162 29.8647 10.1067 29.698 10.1067Z" fill="#00C27A"/>
<path d="M24.7229 8.59766H22.2178C22.0511 8.59766 21.916 8.73277 21.916 8.89947V10.1067H24.4211V8.89947C24.4211 8.73277 24.5562 8.59766 24.7229 8.59766Z" fill="#09A755"/>
<path d="M2.71777 14.6562H16.839V20.61H2.71777V14.6562Z" fill="#FFBD86"/>
<path d="M2.77637 14.7148H4.27707V20.61H2.77637V14.7148Z" fill="#F6A96C"/>
<path d="M16.7803 14.6562V18.0421L16.9528 18.1007H27.1051L27.2816 18.0421V14.6562H16.7803Z" fill="#EA9B58"/>
<path d="M16.7803 14.7148H18.6213V18.0421H16.7803V14.7148Z" fill="#D88A55"/>
<path d="M22.7862 16.8086H21.2168C20.9741 16.8086 20.7773 16.6118 20.7773 16.3691C20.7773 16.1264 20.9741 15.9297 21.2168 15.9297H22.7862C23.0289 15.9297 23.2257 16.1264 23.2257 16.3691C23.2257 16.6118 23.0289 16.8086 22.7862 16.8086Z" fill="#D88A55"/>
<path d="M16.7803 18.043V21.3702L16.9105 21.4288H27.1513L27.2816 21.3702V18.043H16.7803Z" fill="#F6A96C"/>
<path d="M16.7803 18.043H18.6213V21.3702H16.7803V18.043Z" fill="#EA9B58"/>
<path d="M22.7862 20.1367H21.2168C20.9741 20.1367 20.7773 19.94 20.7773 19.6973C20.7773 19.4546 20.9741 19.2578 21.2168 19.2578H22.7862C23.0289 19.2578 23.2257 19.4546 23.2257 19.6973C23.2257 19.94 23.0289 20.1367 22.7862 20.1367Z" fill="#D88A55"/>
<path d="M27.2816 21.3711H16.7803V25.5312C16.7803 25.6979 16.9154 25.833 17.0821 25.833H27.2816V21.3711Z" fill="#EA9B58"/>
<path d="M18.6213 25.5312V21.3711H16.7803V25.5312C16.7803 25.6979 16.9154 25.833 17.0821 25.833H18.9232C18.7565 25.833 18.6213 25.6979 18.6213 25.5312Z" fill="#D88A55"/>
<path d="M22.7862 23.4648H21.2168C20.9741 23.4648 20.7773 23.2681 20.7773 23.0254C20.7773 22.7827 20.9741 22.5859 21.2168 22.5859H22.7862C23.0289 22.5859 23.2257 22.7827 23.2257 23.0254C23.2257 23.2681 23.0289 23.4648 22.7862 23.4648Z" fill="#D88A55"/>
<path d="M0.96582 14.6562V27.9138C0.96582 28.0805 1.10094 28.2156 1.26764 28.2156H2.4749C2.6416 28.2156 2.77672 28.0805 2.77672 27.9138V14.6562H0.96582Z" fill="#A79BA7"/>
<path d="M1.75783 27.9138V14.6562H0.96582V27.9138C0.96582 28.0805 1.10094 28.2156 1.26764 28.2156H2.05965C1.89295 28.2156 1.75783 28.0805 1.75783 27.9138Z" fill="#918291"/>
<path d="M27.2236 14.6562V27.9138C27.2236 28.0805 27.3588 28.2156 27.5254 28.2156H28.7327C28.8994 28.2156 29.0345 28.0805 29.0345 27.9138V14.6562H27.2236Z" fill="#A79BA7"/>
<path d="M28.0156 27.9138V14.6562H27.2236V27.9138C27.2236 28.0805 27.3588 28.2156 27.5254 28.2156H28.3175C28.1508 28.2156 28.0156 28.0805 28.0156 27.9138Z" fill="#918291"/>
<path d="M29.6982 13.125H0.301816C0.135117 13.125 0 13.2601 0 13.4268V14.4129C0 14.5796 0.135117 14.7148 0.301816 14.7148H29.6982C29.8649 14.7148 30 14.5796 30 14.4129V13.4268C30 13.2601 29.8649 13.125 29.6982 13.125Z" fill="#F6A96C"/>
<path d="M4.10156 14.4129V13.4268C4.10156 13.2601 4.23668 13.125 4.40338 13.125H0.301816C0.135117 13.125 0 13.2601 0 13.4268V14.4129C0 14.5796 0.135117 14.7148 0.301816 14.7148H4.40338C4.23668 14.7148 4.10156 14.5796 4.10156 14.4129Z" fill="#EA9B58"/>
<path d="M17.1737 4.55078H12.6465C12.4038 4.55078 12.207 4.35402 12.207 4.11133C12.207 3.86863 12.4038 3.67188 12.6465 3.67188H17.1737C17.4164 3.67188 17.6131 3.86863 17.6131 4.11133C17.6131 4.35402 17.4164 4.55078 17.1737 4.55078Z" fill="#0593FC"/>
<path d="M11.2579 4.55078H9.68848C9.44578 4.55078 9.24902 4.35402 9.24902 4.11133C9.24902 3.86863 9.44578 3.67188 9.68848 3.67188H11.2579C11.5006 3.67188 11.6974 3.86863 11.6974 4.11133C11.6974 4.35402 11.5006 4.55078 11.2579 4.55078Z" fill="#0593FC"/>
<path d="M17.1733 6.12109H15.7246C15.4819 6.12109 15.2852 5.92434 15.2852 5.68164C15.2852 5.43895 15.4819 5.24219 15.7246 5.24219H17.1733C17.416 5.24219 17.6127 5.43895 17.6127 5.68164C17.6127 5.92434 17.416 6.12109 17.1733 6.12109Z" fill="#0593FC"/>
<path d="M14.1553 6.12109H9.68848C9.44578 6.12109 9.24902 5.92434 9.24902 5.68164C9.24902 5.43895 9.44578 5.24219 9.68848 5.24219H14.1553C14.3979 5.24219 14.5947 5.43895 14.5947 5.68164C14.5947 5.92434 14.3979 6.12109 14.1553 6.12109Z" fill="#0593FC"/>
<path d="M12.3444 7.69141H9.68848C9.44578 7.69141 9.24902 7.49465 9.24902 7.25195C9.24902 7.00926 9.44578 6.8125 9.68848 6.8125H12.3444C12.5871 6.8125 12.7839 7.00926 12.7839 7.25195C12.7839 7.49465 12.5871 7.69141 12.3444 7.69141Z" fill="#0593FC"/>
</svg>
