<svg width="748" height="500" viewBox="0 0 748 500" fill="none" xmlns="http://www.w3.org/2000/svg">
<g clip-path="url(#clip0_732_18100)">
<path d="M604.143 236.634L606.237 219.854C606.981 213.891 610.063 208.467 614.806 204.776C619.548 201.086 625.563 199.43 631.526 200.174C637.49 200.918 642.913 204.001 646.604 208.744C650.294 213.486 651.95 219.501 651.206 225.464L649.112 242.244C649.012 243.044 648.597 243.772 647.961 244.268C647.324 244.764 646.516 244.986 645.715 244.887L606.787 240.031C605.986 239.93 605.258 239.516 604.762 238.879C604.267 238.242 604.044 237.434 604.143 236.634Z" fill="#3E3D53"/>
<path d="M622.79 241.638C631.965 241.638 639.403 234.2 639.403 225.025C639.403 215.85 631.965 208.412 622.79 208.412C613.616 208.412 606.178 215.85 606.178 225.025C606.178 234.2 613.616 241.638 622.79 241.638Z" fill="#FFB8B8"/>
<path d="M600.75 220.533C601.344 215.818 603.783 211.531 607.534 208.613C611.284 205.694 616.039 204.383 620.755 204.966L624.111 205.384C628.826 205.978 633.113 208.418 636.032 212.168C638.95 215.919 640.262 220.673 639.679 225.39L639.637 225.725L632.544 224.841L630.971 217.765L629.642 224.478L625.977 224.021L625.182 220.451L624.512 223.838L600.708 220.869L600.75 220.533Z" fill="#3E3D53"/>
<path d="M541.539 284.287C542.046 285.284 542.766 286.157 543.648 286.846C544.53 287.534 545.552 288.021 546.643 288.272C547.733 288.522 548.865 288.531 549.959 288.297C551.053 288.063 552.082 287.592 552.974 286.917L568.063 295.756L575.671 287.896L554.187 275.713C552.954 274.289 551.242 273.368 549.374 273.122C547.507 272.877 545.614 273.325 544.055 274.382C542.496 275.439 541.378 277.031 540.915 278.856C540.451 280.682 540.673 282.614 541.539 284.287Z" fill="#FFB8B8"/>
<path d="M590.992 300.17C579.862 300.17 560.277 295.188 559.192 294.91L558.85 294.822L561.932 279.215L591.847 285.124L608.098 262.239L626.756 260.342L626.236 261.027C625.993 261.346 601.942 293.008 598.199 298.319C597.254 299.659 594.556 300.17 590.992 300.17Z" fill="#3E3D53"/>
<path d="M593.976 358.745L593.531 358.532C593.436 358.487 583.98 353.887 579.082 344.908C574.207 335.971 597.026 298.062 598.622 295.431L598.646 283.392L606.854 261.229L617.323 255.312L608.335 276.284L593.976 358.745Z" fill="#3E3D53"/>
<path d="M583.488 488.143L573.483 488.142L568.723 449.551L583.489 449.552L583.488 488.143Z" fill="#FFB8B8"/>
<path d="M586.039 497.839L553.778 497.838V497.43C553.779 494.099 555.102 490.906 557.456 488.551C559.811 486.196 563.005 484.873 566.335 484.873H566.336L586.04 484.874L586.039 497.839Z" fill="#3E3D53"/>
<path d="M690.955 479.374L681.448 482.489L664.907 447.299L678.94 442.701L690.955 479.374Z" fill="#FFB8B8"/>
<path d="M696.401 487.795L665.743 497.84L665.616 497.452C664.579 494.287 664.842 490.84 666.347 487.869C667.851 484.899 670.474 482.647 673.639 481.61L673.64 481.609L692.364 475.475L696.401 487.795Z" fill="#3E3D53"/>
<path d="M671.584 473.064L643.062 425.448L618.985 374.575L597.318 419.512L588.711 477.714L558.526 478.133L558.645 477.661L604.837 294.119L641.015 299.524L639.368 323.404L640.349 324.798C648.521 336.408 656.971 348.411 652.124 361.351L665.863 402.145L696.275 470.071L671.584 473.064Z" fill="#3E3D53"/>
<path d="M606.49 333.9C601.248 333.9 595.267 327.915 598.37 317.696L598.169 317.55L605.621 284.623C599.118 275.322 607.693 267.646 608.496 266.96L612.589 259.592L630.649 248.139L639.787 324.062L639.652 324.191C633.052 330.506 610.887 333.9 606.49 333.9Z" fill="#009CDF"/>
<path d="M643.476 351.031C642.759 351.042 642.042 350.966 641.343 350.805C640.641 350.629 639.504 349.735 637.746 344.014C630.761 321.27 622.514 252.838 628.506 246.141L628.643 245.988L638.481 247.627C639.299 247.024 643.59 244.028 647.55 244.549C648.365 244.651 649.151 244.92 649.858 245.338C650.566 245.756 651.18 246.315 651.663 246.98L651.73 247.069L654.865 291.657L666.347 344.129L666.071 344.254C665.403 344.558 651.066 351.031 643.476 351.031Z" fill="#3E3D53"/>
<path d="M636.86 333.603C637.978 333.566 639.074 333.284 640.071 332.777C641.069 332.27 641.943 331.551 642.632 330.669C643.321 329.788 643.809 328.767 644.061 327.676C644.313 326.586 644.322 325.454 644.089 324.36L658.491 314.441L654.598 304.219L634.456 318.512C632.644 319.026 631.083 320.186 630.069 321.774C629.055 323.361 628.659 325.265 628.955 327.125C629.251 328.985 630.22 330.672 631.677 331.866C633.133 333.06 634.978 333.678 636.86 333.603Z" fill="#FFB8B8"/>
<path d="M653.738 322.389L640.91 312.982L658.942 288.393L645.104 263.973L651.296 246.27L651.696 247.032C651.882 247.387 670.362 282.592 673.586 288.233C676.94 294.102 654.903 320.975 653.963 322.116L653.738 322.389Z" fill="#3E3D53"/>
<path d="M746.813 500H461.748C461.55 500 461.359 499.921 461.219 499.781C461.079 499.641 461 499.451 461 499.252C461 499.054 461.079 498.863 461.219 498.723C461.359 498.583 461.55 498.504 461.748 498.504H746.813C747.012 498.504 747.202 498.583 747.342 498.723C747.483 498.863 747.562 499.054 747.562 499.252C747.562 499.451 747.483 499.641 747.342 499.781C747.202 499.921 747.012 500 746.813 500Z" fill="#CCCCCC"/>
<path d="M550.571 0.3125H0.235352V352.772H550.571V0.3125Z" fill="#E6E6E6"/>
<path d="M534.834 44.5195H15.9717V178.88H534.834V44.5195Z" fill="white"/>
<path d="M254.762 63.9277H145.034V70.2265H254.762V63.9277Z" fill="#E6E6E6"/>
<path d="M314.478 86.9023H145.034V93.2011H314.478V86.9023Z" fill="#3E3D53"/>
<path d="M283.127 108.551H145.034V114.85H283.127V108.551Z" fill="#E6E6E6"/>
<path d="M225.65 130.115H145.034V136.414H225.65V130.115Z" fill="#E6E6E6"/>
<path d="M266.705 151.68H145.034V157.978H266.705V151.68Z" fill="#E6E6E6"/>
<path d="M108.458 61.6875H95.0215V75.1235H108.458V61.6875Z" fill="#E6E6E6"/>
<path d="M108.458 83.334H95.0215V96.77H108.458V83.334Z" fill="#3E3D53"/>
<path d="M108.458 104.98H95.0215V118.417H108.458V104.98Z" fill="#E6E6E6"/>
<path d="M108.458 126.629H95.0215V140.065H108.458V126.629Z" fill="#E6E6E6"/>
<path d="M108.458 148.275H95.0215V161.711H108.458V148.275Z" fill="#E6E6E6"/>
<path d="M462.274 92.291H417.487V137.078H462.274V92.291Z" fill="#E6E6E6"/>
<path d="M534.834 197.541H15.9717V331.901H534.834V197.541Z" fill="white"/>
<path d="M114.142 255.545H116.784V267.026C116.784 268.247 116.497 269.33 115.923 270.273C115.349 271.21 114.543 271.949 113.503 272.489C112.463 273.023 111.244 273.29 109.847 273.29C108.455 273.29 107.239 273.023 106.199 272.489C105.159 271.949 104.352 271.21 103.778 270.273C103.205 269.33 102.918 268.247 102.918 267.026V255.545H105.551V266.812C105.551 267.602 105.724 268.304 106.071 268.918C106.423 269.531 106.92 270.014 107.562 270.366C108.205 270.713 108.966 270.886 109.847 270.886C110.733 270.886 111.497 270.713 112.139 270.366C112.787 270.014 113.281 269.531 113.622 268.918C113.969 268.304 114.142 267.602 114.142 266.812V255.545ZM120.408 277.909V259.909H122.897V262.031H123.11C123.258 261.759 123.471 261.443 123.749 261.085C124.028 260.727 124.414 260.415 124.908 260.148C125.403 259.875 126.056 259.739 126.869 259.739C127.925 259.739 128.869 260.006 129.698 260.54C130.528 261.074 131.178 261.844 131.65 262.849C132.127 263.855 132.366 265.065 132.366 266.48C132.366 267.895 132.13 269.108 131.658 270.119C131.187 271.125 130.539 271.901 129.715 272.446C128.891 272.986 127.951 273.256 126.894 273.256C126.099 273.256 125.448 273.122 124.942 272.855C124.442 272.588 124.05 272.276 123.766 271.918C123.482 271.56 123.263 271.241 123.11 270.963H122.957V277.909H120.408ZM122.906 266.455C122.906 267.375 123.039 268.182 123.306 268.875C123.573 269.568 123.96 270.111 124.465 270.503C124.971 270.889 125.59 271.082 126.323 271.082C127.085 271.082 127.721 270.881 128.232 270.477C128.744 270.068 129.13 269.514 129.391 268.815C129.658 268.116 129.792 267.33 129.792 266.455C129.792 265.591 129.661 264.815 129.4 264.128C129.144 263.44 128.758 262.898 128.241 262.5C127.729 262.102 127.09 261.903 126.323 261.903C125.585 261.903 124.96 262.094 124.448 262.474C123.942 262.855 123.559 263.386 123.298 264.068C123.036 264.75 122.906 265.545 122.906 266.455ZM137.769 255.545V273H135.221V255.545H137.769ZM146.712 273.264C145.484 273.264 144.413 272.983 143.499 272.42C142.584 271.858 141.874 271.071 141.368 270.06C140.862 269.048 140.609 267.866 140.609 266.514C140.609 265.156 140.862 263.969 141.368 262.952C141.874 261.935 142.584 261.145 143.499 260.582C144.413 260.02 145.484 259.739 146.712 259.739C147.939 259.739 149.01 260.02 149.925 260.582C150.839 261.145 151.55 261.935 152.055 262.952C152.561 263.969 152.814 265.156 152.814 266.514C152.814 267.866 152.561 269.048 152.055 270.06C151.55 271.071 150.839 271.858 149.925 272.42C149.01 272.983 147.939 273.264 146.712 273.264ZM146.72 271.125C147.516 271.125 148.175 270.915 148.697 270.494C149.22 270.074 149.607 269.514 149.857 268.815C150.112 268.116 150.24 267.347 150.24 266.506C150.24 265.67 150.112 264.903 149.857 264.205C149.607 263.5 149.22 262.935 148.697 262.509C148.175 262.082 147.516 261.869 146.72 261.869C145.919 261.869 145.254 262.082 144.726 262.509C144.203 262.935 143.814 263.5 143.558 264.205C143.308 264.903 143.183 265.67 143.183 266.506C143.183 267.347 143.308 268.116 143.558 268.815C143.814 269.514 144.203 270.074 144.726 270.494C145.254 270.915 145.919 271.125 146.72 271.125ZM159.468 273.29C158.638 273.29 157.888 273.136 157.218 272.83C156.548 272.517 156.016 272.065 155.624 271.474C155.238 270.884 155.045 270.159 155.045 269.301C155.045 268.562 155.187 267.955 155.471 267.477C155.755 267 156.138 266.622 156.621 266.344C157.104 266.065 157.644 265.855 158.241 265.713C158.837 265.571 159.445 265.463 160.065 265.389C160.849 265.298 161.485 265.224 161.974 265.168C162.462 265.105 162.817 265.006 163.039 264.869C163.261 264.733 163.371 264.511 163.371 264.205V264.145C163.371 263.401 163.161 262.824 162.741 262.415C162.326 262.006 161.707 261.801 160.883 261.801C160.025 261.801 159.349 261.991 158.854 262.372C158.366 262.747 158.028 263.165 157.84 263.625L155.445 263.08C155.729 262.284 156.144 261.642 156.69 261.153C157.241 260.659 157.874 260.301 158.59 260.08C159.306 259.852 160.059 259.739 160.849 259.739C161.371 259.739 161.925 259.801 162.511 259.926C163.102 260.045 163.653 260.267 164.164 260.591C164.681 260.915 165.104 261.378 165.434 261.98C165.763 262.577 165.928 263.352 165.928 264.307V273H163.44V271.21H163.337C163.173 271.54 162.925 271.864 162.596 272.182C162.266 272.5 161.843 272.764 161.326 272.974C160.809 273.185 160.19 273.29 159.468 273.29ZM160.022 271.244C160.727 271.244 161.329 271.105 161.829 270.827C162.335 270.548 162.718 270.185 162.979 269.736C163.246 269.281 163.38 268.795 163.38 268.278V266.591C163.289 266.682 163.113 266.767 162.852 266.847C162.596 266.92 162.303 266.986 161.974 267.043C161.644 267.094 161.323 267.142 161.011 267.188C160.698 267.227 160.437 267.261 160.227 267.29C159.732 267.352 159.281 267.457 158.871 267.605C158.468 267.753 158.144 267.966 157.9 268.244C157.661 268.517 157.542 268.881 157.542 269.335C157.542 269.966 157.775 270.443 158.241 270.767C158.707 271.085 159.3 271.244 160.022 271.244ZM174.223 273.256C173.166 273.256 172.223 272.986 171.393 272.446C170.57 271.901 169.922 271.125 169.45 270.119C168.984 269.108 168.751 267.895 168.751 266.48C168.751 265.065 168.987 263.855 169.459 262.849C169.936 261.844 170.589 261.074 171.419 260.54C172.249 260.006 173.189 259.739 174.24 259.739C175.053 259.739 175.706 259.875 176.2 260.148C176.7 260.415 177.087 260.727 177.359 261.085C177.638 261.443 177.854 261.759 178.007 262.031H178.161V255.545H180.709V273H178.22V270.963H178.007C177.854 271.241 177.632 271.56 177.342 271.918C177.058 272.276 176.666 272.588 176.166 272.855C175.666 273.122 175.018 273.256 174.223 273.256ZM174.786 271.082C175.518 271.082 176.138 270.889 176.643 270.503C177.155 270.111 177.541 269.568 177.803 268.875C178.07 268.182 178.203 267.375 178.203 266.455C178.203 265.545 178.072 264.75 177.811 264.068C177.55 263.386 177.166 262.855 176.661 262.474C176.155 262.094 175.53 261.903 174.786 261.903C174.018 261.903 173.379 262.102 172.868 262.5C172.357 262.898 171.97 263.44 171.709 264.128C171.453 264.815 171.325 265.591 171.325 266.455C171.325 267.33 171.456 268.116 171.717 268.815C171.979 269.514 172.365 270.068 172.876 270.477C173.393 270.881 174.03 271.082 174.786 271.082ZM189.555 255.545H192.547L197.107 263.48H197.294L201.854 255.545H204.845L198.513 266.148V273H195.888V266.148L189.555 255.545ZM210.485 273.264C209.258 273.264 208.187 272.983 207.272 272.42C206.357 271.858 205.647 271.071 205.141 270.06C204.636 269.048 204.383 267.866 204.383 266.514C204.383 265.156 204.636 263.969 205.141 262.952C205.647 261.935 206.357 261.145 207.272 260.582C208.187 260.02 209.258 259.739 210.485 259.739C211.712 259.739 212.783 260.02 213.698 260.582C214.613 261.145 215.323 261.935 215.829 262.952C216.335 263.969 216.587 265.156 216.587 266.514C216.587 267.866 216.335 269.048 215.829 270.06C215.323 271.071 214.613 271.858 213.698 272.42C212.783 272.983 211.712 273.264 210.485 273.264ZM210.494 271.125C211.289 271.125 211.948 270.915 212.471 270.494C212.994 270.074 213.38 269.514 213.63 268.815C213.886 268.116 214.013 267.347 214.013 266.506C214.013 265.67 213.886 264.903 213.63 264.205C213.38 263.5 212.994 262.935 212.471 262.509C211.948 262.082 211.289 261.869 210.494 261.869C209.692 261.869 209.028 262.082 208.499 262.509C207.977 262.935 207.587 263.5 207.332 264.205C207.082 264.903 206.957 265.67 206.957 266.506C206.957 267.347 207.082 268.116 207.332 268.815C207.587 269.514 207.977 270.074 208.499 270.494C209.028 270.915 209.692 271.125 210.494 271.125ZM227.724 267.571V259.909H230.281V273H227.776V270.733H227.639C227.338 271.432 226.855 272.014 226.19 272.48C225.531 272.94 224.71 273.17 223.727 273.17C222.886 273.17 222.142 272.986 221.494 272.616C220.852 272.241 220.347 271.688 219.977 270.955C219.614 270.222 219.432 269.315 219.432 268.236V259.909H221.98V267.929C221.98 268.821 222.227 269.531 222.722 270.06C223.216 270.588 223.858 270.852 224.648 270.852C225.125 270.852 225.599 270.733 226.071 270.494C226.548 270.256 226.943 269.895 227.256 269.412C227.574 268.929 227.73 268.315 227.724 267.571ZM233.705 273V259.909H236.168V261.989H236.305C236.543 261.284 236.964 260.73 237.566 260.327C238.174 259.918 238.862 259.713 239.629 259.713C239.788 259.713 239.975 259.719 240.191 259.73C240.413 259.741 240.586 259.756 240.711 259.773V262.21C240.609 262.182 240.427 262.151 240.165 262.116C239.904 262.077 239.643 262.057 239.381 262.057C238.779 262.057 238.242 262.185 237.771 262.44C237.305 262.69 236.935 263.04 236.663 263.489C236.39 263.932 236.254 264.437 236.254 265.006V273H233.705ZM249.472 255.545H252.668L258.225 269.114H258.43L263.987 255.545H267.183V273H264.677V260.369H264.515L259.367 272.974H257.288L252.14 260.361H251.978V273H249.472V255.545ZM274.616 273.29C273.787 273.29 273.037 273.136 272.366 272.83C271.696 272.517 271.165 272.065 270.773 271.474C270.386 270.884 270.193 270.159 270.193 269.301C270.193 268.562 270.335 267.955 270.619 267.477C270.903 267 271.287 266.622 271.77 266.344C272.253 266.065 272.793 265.855 273.389 265.713C273.986 265.571 274.594 265.463 275.213 265.389C275.997 265.298 276.634 265.224 277.122 265.168C277.611 265.105 277.966 265.006 278.188 264.869C278.409 264.733 278.52 264.511 278.52 264.205V264.145C278.52 263.401 278.31 262.824 277.889 262.415C277.474 262.006 276.855 261.801 276.031 261.801C275.173 261.801 274.497 261.991 274.003 262.372C273.514 262.747 273.176 263.165 272.989 263.625L270.594 263.08C270.878 262.284 271.293 261.642 271.838 261.153C272.389 260.659 273.023 260.301 273.739 260.08C274.455 259.852 275.207 259.739 275.997 259.739C276.52 259.739 277.074 259.801 277.659 259.926C278.25 260.045 278.801 260.267 279.312 260.591C279.83 260.915 280.253 261.378 280.582 261.98C280.912 262.577 281.077 263.352 281.077 264.307V273H278.588V271.21H278.486C278.321 271.54 278.074 271.864 277.744 272.182C277.415 272.5 276.991 272.764 276.474 272.974C275.957 273.185 275.338 273.29 274.616 273.29ZM275.17 271.244C275.875 271.244 276.477 271.105 276.977 270.827C277.483 270.548 277.866 270.185 278.128 269.736C278.395 269.281 278.528 268.795 278.528 268.278V266.591C278.438 266.682 278.261 266.767 278 266.847C277.744 266.92 277.452 266.986 277.122 267.043C276.793 267.094 276.472 267.142 276.159 267.188C275.847 267.227 275.585 267.261 275.375 267.29C274.881 267.352 274.429 267.457 274.02 267.605C273.616 267.753 273.293 267.966 273.048 268.244C272.81 268.517 272.69 268.881 272.69 269.335C272.69 269.966 272.923 270.443 273.389 270.767C273.855 271.085 274.449 271.244 275.17 271.244ZM294.281 263.105L291.971 263.514C291.874 263.219 291.721 262.937 291.511 262.67C291.306 262.403 291.028 262.185 290.675 262.014C290.323 261.844 289.883 261.759 289.354 261.759C288.633 261.759 288.031 261.92 287.548 262.244C287.065 262.562 286.823 262.974 286.823 263.48C286.823 263.918 286.985 264.27 287.309 264.537C287.633 264.804 288.156 265.023 288.877 265.193L290.957 265.67C292.161 265.949 293.059 266.378 293.65 266.957C294.241 267.537 294.536 268.29 294.536 269.216C294.536 270 294.309 270.699 293.854 271.312C293.406 271.92 292.778 272.398 291.971 272.744C291.17 273.091 290.241 273.264 289.184 273.264C287.718 273.264 286.522 272.952 285.596 272.327C284.67 271.696 284.102 270.801 283.891 269.642L286.354 269.267C286.508 269.909 286.823 270.395 287.3 270.724C287.778 271.048 288.4 271.21 289.167 271.21C290.002 271.21 290.67 271.037 291.17 270.69C291.67 270.338 291.92 269.909 291.92 269.403C291.92 268.994 291.766 268.651 291.46 268.372C291.158 268.094 290.695 267.884 290.07 267.741L287.854 267.256C286.633 266.977 285.729 266.534 285.144 265.926C284.565 265.318 284.275 264.548 284.275 263.616C284.275 262.844 284.491 262.168 284.923 261.588C285.354 261.009 285.951 260.557 286.712 260.233C287.474 259.903 288.346 259.739 289.329 259.739C290.744 259.739 291.857 260.045 292.67 260.659C293.482 261.267 294.019 262.082 294.281 263.105ZM303.449 259.909V261.955H296.298V259.909H303.449ZM298.216 256.773H300.764V269.156C300.764 269.651 300.838 270.023 300.986 270.273C301.134 270.517 301.324 270.685 301.557 270.776C301.795 270.861 302.054 270.903 302.332 270.903C302.537 270.903 302.716 270.889 302.869 270.861C303.023 270.832 303.142 270.81 303.227 270.793L303.688 272.898C303.54 272.955 303.33 273.011 303.057 273.068C302.784 273.131 302.443 273.165 302.034 273.17C301.364 273.182 300.739 273.062 300.159 272.812C299.58 272.562 299.111 272.176 298.753 271.653C298.395 271.131 298.216 270.474 298.216 269.685V256.773ZM311.769 273.264C310.479 273.264 309.369 272.989 308.437 272.438C307.511 271.881 306.795 271.099 306.289 270.094C305.789 269.082 305.539 267.898 305.539 266.54C305.539 265.199 305.789 264.017 306.289 262.994C306.795 261.972 307.499 261.173 308.403 260.599C309.312 260.026 310.374 259.739 311.59 259.739C312.329 259.739 313.045 259.861 313.738 260.105C314.431 260.349 315.053 260.733 315.604 261.256C316.156 261.778 316.59 262.457 316.908 263.293C317.227 264.122 317.386 265.131 317.386 266.318V267.222H306.979V265.312H314.888C314.888 264.642 314.752 264.048 314.479 263.531C314.207 263.009 313.823 262.597 313.329 262.295C312.84 261.994 312.266 261.844 311.607 261.844C310.891 261.844 310.266 262.02 309.732 262.372C309.204 262.719 308.795 263.173 308.505 263.736C308.221 264.293 308.079 264.898 308.079 265.551V267.043C308.079 267.918 308.232 268.662 308.539 269.276C308.852 269.889 309.286 270.358 309.843 270.682C310.4 271 311.05 271.159 311.795 271.159C312.278 271.159 312.718 271.091 313.116 270.955C313.513 270.812 313.857 270.602 314.147 270.324C314.437 270.045 314.658 269.702 314.812 269.293L317.224 269.727C317.031 270.437 316.684 271.06 316.184 271.594C315.69 272.122 315.067 272.534 314.317 272.83C313.573 273.119 312.724 273.264 311.769 273.264ZM320.213 273V259.909H322.676V261.989H322.812C323.051 261.284 323.472 260.73 324.074 260.327C324.682 259.918 325.369 259.713 326.136 259.713C326.295 259.713 326.483 259.719 326.699 259.73C326.92 259.741 327.094 259.756 327.219 259.773V262.21C327.116 262.182 326.935 262.151 326.673 262.116C326.412 262.077 326.151 262.057 325.889 262.057C325.287 262.057 324.75 262.185 324.278 262.44C323.813 262.69 323.443 263.04 323.17 263.489C322.898 263.932 322.761 264.437 322.761 265.006V273H320.213ZM341.631 273H335.98V255.545H341.81C343.52 255.545 344.989 255.895 346.216 256.594C347.443 257.287 348.384 258.284 349.037 259.585C349.696 260.881 350.026 262.435 350.026 264.247C350.026 266.065 349.693 267.628 349.028 268.935C348.369 270.241 347.415 271.247 346.165 271.952C344.915 272.651 343.403 273 341.631 273ZM338.614 270.699H341.486C342.815 270.699 343.92 270.449 344.801 269.949C345.682 269.443 346.341 268.713 346.778 267.759C347.216 266.798 347.435 265.628 347.435 264.247C347.435 262.878 347.216 261.716 346.778 260.761C346.347 259.807 345.702 259.082 344.844 258.588C343.986 258.094 342.92 257.847 341.648 257.847H338.614V270.699ZM356.906 273.29C356.076 273.29 355.326 273.136 354.656 272.83C353.985 272.517 353.454 272.065 353.062 271.474C352.675 270.884 352.482 270.159 352.482 269.301C352.482 268.562 352.624 267.955 352.908 267.477C353.192 267 353.576 266.622 354.059 266.344C354.542 266.065 355.082 265.855 355.678 265.713C356.275 265.571 356.883 265.463 357.502 265.389C358.286 265.298 358.923 265.224 359.411 265.168C359.9 265.105 360.255 265.006 360.477 264.869C360.698 264.733 360.809 264.511 360.809 264.205V264.145C360.809 263.401 360.599 262.824 360.178 262.415C359.763 262.006 359.144 261.801 358.32 261.801C357.462 261.801 356.786 261.991 356.292 262.372C355.803 262.747 355.465 263.165 355.278 263.625L352.883 263.08C353.167 262.284 353.582 261.642 354.127 261.153C354.678 260.659 355.312 260.301 356.028 260.08C356.744 259.852 357.496 259.739 358.286 259.739C358.809 259.739 359.363 259.801 359.948 259.926C360.539 260.045 361.09 260.267 361.602 260.591C362.119 260.915 362.542 261.378 362.871 261.98C363.201 262.577 363.366 263.352 363.366 264.307V273H360.877V271.21H360.775C360.61 271.54 360.363 271.864 360.033 272.182C359.704 272.5 359.281 272.764 358.763 272.974C358.246 273.185 357.627 273.29 356.906 273.29ZM357.46 271.244C358.164 271.244 358.766 271.105 359.266 270.827C359.772 270.548 360.156 270.185 360.417 269.736C360.684 269.281 360.817 268.795 360.817 268.278V266.591C360.727 266.682 360.55 266.767 360.289 266.847C360.033 266.92 359.741 266.986 359.411 267.043C359.082 267.094 358.761 267.142 358.448 267.188C358.136 267.227 357.874 267.261 357.664 267.29C357.17 267.352 356.718 267.457 356.309 267.605C355.906 267.753 355.582 267.966 355.337 268.244C355.099 268.517 354.979 268.881 354.979 269.335C354.979 269.966 355.212 270.443 355.678 270.767C356.144 271.085 356.738 271.244 357.46 271.244ZM372.871 259.909V261.955H365.72V259.909H372.871ZM367.638 256.773H370.186V269.156C370.186 269.651 370.26 270.023 370.408 270.273C370.555 270.517 370.746 270.685 370.979 270.776C371.217 270.861 371.476 270.903 371.754 270.903C371.959 270.903 372.138 270.889 372.291 270.861C372.445 270.832 372.564 270.81 372.649 270.793L373.109 272.898C372.962 272.955 372.751 273.011 372.479 273.068C372.206 273.131 371.865 273.165 371.456 273.17C370.786 273.182 370.161 273.062 369.581 272.812C369.001 272.562 368.533 272.176 368.175 271.653C367.817 271.131 367.638 270.474 367.638 269.685V256.773ZM379.499 273.29C378.67 273.29 377.92 273.136 377.249 272.83C376.579 272.517 376.048 272.065 375.656 271.474C375.269 270.884 375.076 270.159 375.076 269.301C375.076 268.562 375.218 267.955 375.502 267.477C375.786 267 376.17 266.622 376.653 266.344C377.136 266.065 377.675 265.855 378.272 265.713C378.869 265.571 379.477 265.463 380.096 265.389C380.88 265.298 381.516 265.224 382.005 265.168C382.494 265.105 382.849 265.006 383.07 264.869C383.292 264.733 383.403 264.511 383.403 264.205V264.145C383.403 263.401 383.192 262.824 382.772 262.415C382.357 262.006 381.738 261.801 380.914 261.801C380.056 261.801 379.38 261.991 378.886 262.372C378.397 262.747 378.059 263.165 377.871 263.625L375.477 263.08C375.761 262.284 376.175 261.642 376.721 261.153C377.272 260.659 377.906 260.301 378.621 260.08C379.337 259.852 380.09 259.739 380.88 259.739C381.403 259.739 381.957 259.801 382.542 259.926C383.133 260.045 383.684 260.267 384.195 260.591C384.712 260.915 385.136 261.378 385.465 261.98C385.795 262.577 385.96 263.352 385.96 264.307V273H383.471V271.21H383.369C383.204 271.54 382.957 271.864 382.627 272.182C382.298 272.5 381.874 272.764 381.357 272.974C380.84 273.185 380.221 273.29 379.499 273.29ZM380.053 271.244C380.758 271.244 381.36 271.105 381.86 270.827C382.366 270.548 382.749 270.185 383.011 269.736C383.278 269.281 383.411 268.795 383.411 268.278V266.591C383.32 266.682 383.144 266.767 382.883 266.847C382.627 266.92 382.335 266.986 382.005 267.043C381.675 267.094 381.354 267.142 381.042 267.188C380.729 267.227 380.468 267.261 380.258 267.29C379.763 267.352 379.312 267.457 378.903 267.605C378.499 267.753 378.175 267.966 377.931 268.244C377.692 268.517 377.573 268.881 377.573 269.335C377.573 269.966 377.806 270.443 378.272 270.767C378.738 271.085 379.332 271.244 380.053 271.244ZM395.91 273V255.545H398.543V263.131H407.245V255.545H409.887V273H407.245V265.389H398.543V273H395.91ZM419.16 273.264C417.87 273.264 416.759 272.989 415.827 272.438C414.901 271.881 414.185 271.099 413.68 270.094C413.18 269.082 412.93 267.898 412.93 266.54C412.93 265.199 413.18 264.017 413.68 262.994C414.185 261.972 414.89 261.173 415.793 260.599C416.702 260.026 417.765 259.739 418.981 259.739C419.719 259.739 420.435 259.861 421.129 260.105C421.822 260.349 422.444 260.733 422.995 261.256C423.546 261.778 423.981 262.457 424.299 263.293C424.617 264.122 424.776 265.131 424.776 266.318V267.222H414.37V265.312H422.279C422.279 264.642 422.143 264.048 421.87 263.531C421.597 263.009 421.214 262.597 420.719 262.295C420.231 261.994 419.657 261.844 418.998 261.844C418.282 261.844 417.657 262.02 417.123 262.372C416.594 262.719 416.185 263.173 415.896 263.736C415.612 264.293 415.469 264.898 415.469 265.551V267.043C415.469 267.918 415.623 268.662 415.93 269.276C416.242 269.889 416.677 270.358 417.234 270.682C417.79 271 418.441 271.159 419.185 271.159C419.668 271.159 420.109 271.091 420.506 270.955C420.904 270.812 421.248 270.602 421.538 270.324C421.827 270.045 422.049 269.702 422.202 269.293L424.614 269.727C424.421 270.437 424.075 271.06 423.575 271.594C423.08 272.122 422.458 272.534 421.708 272.83C420.964 273.119 420.114 273.264 419.16 273.264ZM427.604 273V259.909H430.067V261.989H430.203C430.442 261.284 430.862 260.73 431.464 260.327C432.072 259.918 432.76 259.713 433.527 259.713C433.686 259.713 433.874 259.719 434.089 259.73C434.311 259.741 434.484 259.756 434.609 259.773V262.21C434.507 262.182 434.325 262.151 434.064 262.116C433.803 262.077 433.541 262.057 433.28 262.057C432.678 262.057 432.141 262.185 431.669 262.44C431.203 262.69 430.834 263.04 430.561 263.489C430.288 263.932 430.152 264.437 430.152 265.006V273H427.604ZM441.988 273.264C440.698 273.264 439.587 272.989 438.656 272.438C437.729 271.881 437.013 271.099 436.508 270.094C436.008 269.082 435.758 267.898 435.758 266.54C435.758 265.199 436.008 264.017 436.508 262.994C437.013 261.972 437.718 261.173 438.621 260.599C439.531 260.026 440.593 259.739 441.809 259.739C442.548 259.739 443.263 259.861 443.957 260.105C444.65 260.349 445.272 260.733 445.823 261.256C446.374 261.778 446.809 262.457 447.127 263.293C447.445 264.122 447.604 265.131 447.604 266.318V267.222H437.198V265.312H445.107C445.107 264.642 444.971 264.048 444.698 263.531C444.425 263.009 444.042 262.597 443.548 262.295C443.059 261.994 442.485 261.844 441.826 261.844C441.11 261.844 440.485 262.02 439.951 262.372C439.423 262.719 439.013 263.173 438.724 263.736C438.44 264.293 438.298 264.898 438.298 265.551V267.043C438.298 267.918 438.451 268.662 438.758 269.276C439.07 269.889 439.505 270.358 440.062 270.682C440.619 271 441.269 271.159 442.013 271.159C442.496 271.159 442.937 271.091 443.335 270.955C443.732 270.812 444.076 270.602 444.366 270.324C444.656 270.045 444.877 269.702 445.031 269.293L447.442 269.727C447.249 270.437 446.903 271.06 446.403 271.594C445.908 272.122 445.286 272.534 444.536 272.83C443.792 273.119 442.942 273.264 441.988 273.264Z" fill="#3E3D53"/>
<path d="M550.335 0H0V23.3803H550.335V0Z" fill="#3E3D53"/>
<path d="M17.3744 16.2858C19.7676 16.2858 21.7077 14.3457 21.7077 11.9525C21.7077 9.55925 19.7676 7.61914 17.3744 7.61914C14.9811 7.61914 13.041 9.55925 13.041 11.9525C13.041 14.3457 14.9811 16.2858 17.3744 16.2858Z" fill="white"/>
<path d="M33.8226 16.2858C36.2159 16.2858 38.156 14.3457 38.156 11.9525C38.156 9.55925 36.2159 7.61914 33.8226 7.61914C31.4294 7.61914 29.4893 9.55925 29.4893 11.9525C29.4893 14.3457 31.4294 16.2858 33.8226 16.2858Z" fill="white"/>
<path d="M50.2709 16.2858C52.6641 16.2858 54.6042 14.3457 54.6042 11.9525C54.6042 9.55925 52.6641 7.61914 50.2709 7.61914C47.8776 7.61914 45.9375 9.55925 45.9375 11.9525C45.9375 14.3457 47.8776 16.2858 50.2709 16.2858Z" fill="white"/>
</g>
<defs>
<clipPath id="clip0_732_18100">
<rect width="747.744" height="500" fill="white"/>
</clipPath>
</defs>
</svg>
