<svg width="20" height="20" viewBox="0 0 20 20" fill="none" xmlns="http://www.w3.org/2000/svg">
<g clip-path="url(#clip0_732_18094)">
<path fill-rule="evenodd" clip-rule="evenodd" d="M10 20C15.5077 20 20 15.5077 20 10C20 4.4923 15.5077 0 10 0C4.4923 0 0 4.4923 0 10C0 15.5077 4.4923 20 10 20Z" fill="#F34235"/>
<path d="M14.3091 6.69488H5.6909C5.64223 6.69488 5.59582 6.71492 5.56234 6.75016C5.52863 6.78566 5.51113 6.83309 5.51367 6.88176L5.96652 15.6196C5.98656 16.0084 6.30707 16.3129 6.69652 16.3129H13.3034C13.6929 16.3129 14.0134 16.0084 14.0334 15.6196L14.4863 6.88176C14.4888 6.83309 14.4713 6.78566 14.4376 6.75016C14.4042 6.71492 14.3578 6.69488 14.3091 6.69488ZM7.18668 8.45641C7.1834 8.3375 7.22676 8.22414 7.30891 8.13742C7.39105 8.0507 7.50187 8.00102 7.62078 7.99746C7.86824 7.99238 8.07363 8.1866 8.08074 8.43207L8.24531 14.5658C8.24887 14.6845 8.20551 14.7981 8.12309 14.8851C8.04094 14.9716 7.92988 15.0212 7.8107 15.0248H7.79754C7.68316 15.0248 7.57488 14.9814 7.49098 14.9018C7.40453 14.8197 7.3548 14.7089 7.35152 14.5902L7.18668 8.45641ZM9.55297 14.5711V8.4366C9.55297 8.18988 9.75355 7.9893 10 7.9893C10.2464 7.9893 10.447 8.18988 10.447 8.4366V14.5711C10.447 14.8181 10.2464 15.0189 10 15.0189C9.75355 15.0189 9.55297 14.8181 9.55297 14.5711ZM12.6485 14.5896C12.6452 14.7088 12.5955 14.8196 12.509 14.9018C12.4251 14.9814 12.3168 15.0248 12.2025 15.0248H12.1885C12.0696 15.0212 11.9588 14.9715 11.8769 14.8848C11.7945 14.7979 11.7511 14.6845 11.7546 14.5653L11.9192 8.43258C11.9263 8.18687 12.1302 7.99137 12.3761 7.99746H12.3792C12.4981 8.00102 12.6089 8.0507 12.6911 8.13742C12.7732 8.22414 12.8166 8.3375 12.8133 8.45641L12.6485 14.5896ZM15.1953 5.32789V5.79852H4.80469V5.32789C4.80469 5.06824 5.0159 4.85703 5.27555 4.85703H8.69336C8.78387 4.85703 8.85996 4.78883 8.86984 4.69879C8.93301 4.12117 9.41883 3.68555 10 3.68555C10.5812 3.68555 11.067 4.12117 11.1302 4.69879C11.14 4.78879 11.2161 4.85703 11.3066 4.85703H14.7245C14.9841 4.85703 15.1953 5.06824 15.1953 5.32789Z" fill="white"/>
</g>
<defs>
<clipPath id="clip0_732_18094">
<rect width="20" height="20" fill="white"/>
</clipPath>
</defs>
</svg>
