<svg width="30" height="30" viewBox="0 0 30 30" fill="none" xmlns="http://www.w3.org/2000/svg">
<g clip-path="url(#clip0_734_20107)">
<path d="M14.6842 11.4224H5.69824V0.347227C5.69824 0.161953 5.84848 0.0117188 6.03375 0.0117188H14.3486C14.5339 0.0117188 14.6841 0.161953 14.6841 0.347227L14.6842 11.4224Z" fill="#EAB14D"/>
<path d="M13.6455 0.0117188V11.4224H14.6846V0.347285C14.6846 0.162012 14.5343 0.0117773 14.349 0.0117773H13.6455V0.0117188Z" fill="#E49542"/>
<path d="M10.76 2.59693H9.62369C9.47445 2.59693 9.35352 2.476 9.35352 2.32676V0.0117188H11.0302V2.32676C11.0302 2.476 10.9092 2.59693 10.76 2.59693Z" fill="#DF6B57"/>
<path d="M25.0011 21.3073H11.2305V7.71896C11.2305 7.42975 11.4649 7.19531 11.7541 7.19531H24.6656C24.8509 7.19531 25.0011 7.34555 25.0011 7.53082V21.3073Z" fill="#F1CB86"/>
<path d="M23.9619 7.19531V21.3073H25.001V7.53082C25.001 7.34555 24.8507 7.19531 24.6654 7.19531H23.9619Z" fill="#ECBE6B"/>
<path d="M18.6838 9.78053H17.5475C17.3983 9.78053 17.2773 9.65959 17.2773 9.51035V7.19531H18.954V9.51035C18.954 9.65959 18.8331 9.78053 18.6838 9.78053Z" fill="#365E7D"/>
<path d="M16.2294 29.9884H0.429023C0.19207 29.9884 0 29.7964 0 29.5594V19.23C0 19.0447 0.150234 18.8945 0.335508 18.8945H15.8726C16.0696 18.8945 16.2294 19.0543 16.2294 19.2512V29.9884Z" fill="#EAB14D"/>
<path d="M15.1904 18.8945V29.9884H16.2295V19.2512C16.2295 19.0543 16.0697 18.8945 15.8728 18.8945H15.1904Z" fill="#E49542"/>
<path d="M8.68285 21.4797H7.54654C7.39731 21.4797 7.27637 21.3588 7.27637 21.2096V18.8945H8.95303V21.2096C8.95303 21.3588 8.83209 21.4797 8.68285 21.4797Z" fill="#365E7D"/>
<path d="M29.5711 29.988H16.2295V21.3086H29.6646C29.8499 21.3086 30.0001 21.4588 30.0001 21.6441V29.5589C30.0001 29.7959 29.8081 29.988 29.5711 29.988Z" fill="#EAB14D"/>
<path d="M28.9609 21.3086V29.988H29.571C29.8079 29.988 30 29.796 30 29.559V21.6442C30 21.4588 29.8497 21.3087 29.6645 21.3087H28.9609V21.3086Z" fill="#E49542"/>
<path d="M23.6829 23.8938H22.5465C22.3973 23.8938 22.2764 23.7729 22.2764 23.6236V21.3086H23.953V23.6236C23.953 23.7729 23.8321 23.8938 23.6829 23.8938Z" fill="#DF6B57"/>
<path d="M11.231 18.894H2.24512V11.7574C2.24512 11.5721 2.39535 11.4219 2.58062 11.4219H11.231V18.894Z" fill="#F1CB86"/>
<path d="M10.1914 11.4219H11.2304V18.894H10.1914V11.4219Z" fill="#ECBE6B"/>
<path d="M7.3059 14.0071H6.16959C6.02035 14.0071 5.89941 13.8862 5.89941 13.7369V11.4219H7.57607V13.7369C7.57607 13.8862 7.45514 14.0071 7.3059 14.0071Z" fill="#DF6B57"/>
</g>
<defs>
<clipPath id="clip0_734_20107">
<rect width="30" height="30" fill="white"/>
</clipPath>
</defs>
</svg>
