<svg width="30" height="30" viewBox="0 0 30 30" fill="none" xmlns="http://www.w3.org/2000/svg">
<path d="M22.464 17.5727L15.9868 4.61819C15.9524 4.54948 15.8959 4.49439 15.8263 4.46183C15.7568 4.42927 15.6782 4.42116 15.6035 4.43881C15.5287 4.45646 15.4621 4.49884 15.4145 4.55907C15.3668 4.6193 15.3409 4.69387 15.3409 4.77068V15.8195C15.3409 15.8855 15.3601 15.9501 15.3961 16.0054C15.4321 16.0607 15.4833 16.1044 15.5437 16.1311C15.8311 16.2561 16.0668 16.4763 16.2109 16.7546C16.355 17.033 16.3989 17.3525 16.3351 17.6594C16.2713 17.9662 16.1037 18.2418 15.8605 18.4396C15.6173 18.6374 15.3135 18.7453 15 18.7453C14.6866 18.7453 14.3827 18.6374 14.1395 18.4396C13.8963 18.2418 13.7288 17.9662 13.6649 17.6594C13.6011 17.3525 13.645 17.033 13.7891 16.7546C13.9333 16.4763 14.1689 16.2561 14.4564 16.1311C14.5167 16.1044 14.5679 16.0607 14.6039 16.0054C14.6399 15.9501 14.6591 15.8855 14.6591 15.8195V4.77068C14.6591 4.69387 14.6332 4.6193 14.5855 4.55907C14.5379 4.49884 14.4713 4.45646 14.3965 4.43881C14.3218 4.42116 14.2433 4.42927 14.1737 4.46183C14.1041 4.49439 14.0476 4.54948 14.0132 4.61819L7.53597 17.5727C7.51232 17.6201 7.5 17.6723 7.5 17.7252C7.5 17.7782 7.51232 17.8304 7.53597 17.8777L10.6042 24.0141C10.6325 24.0707 10.676 24.1183 10.7299 24.1516C10.7837 24.1849 10.8458 24.2025 10.9091 24.2025H19.0909C19.1542 24.2025 19.2163 24.1849 19.2702 24.1516C19.324 24.1183 19.3675 24.0707 19.3959 24.0141L22.464 17.8777C22.4877 17.8304 22.5 17.7782 22.5 17.7252C22.5 17.6723 22.4877 17.6201 22.464 17.5727Z" fill="#FFBA00"/>
<path d="M18.8783 2.0451H24.8862C24.9766 2.0451 25.0633 2.00918 25.1272 1.94525C25.1912 1.88132 25.2271 1.79461 25.2271 1.70419C25.2271 1.61378 25.1912 1.52706 25.1272 1.46313C25.0633 1.3992 24.9766 1.36328 24.8862 1.36328H16.0225C15.9321 1.36328 15.8454 1.3992 15.7815 1.46313C15.7176 1.52706 15.6816 1.61378 15.6816 1.70419C15.6816 1.70869 15.684 1.71244 15.6842 1.71691L15.6831 1.72052C15.679 1.7651 15.6836 1.81005 15.6969 1.85283C15.7101 1.8956 15.7316 1.93534 15.7602 1.96978C15.7888 2.00422 15.8239 2.03269 15.8636 2.05355C15.9032 2.07441 15.9465 2.08726 15.9911 2.09136C18.6155 2.32604 21.0562 3.53763 22.8298 5.48624C24.6034 7.43485 25.5806 9.97841 25.568 12.6133C25.568 12.7037 25.6039 12.7904 25.6679 12.8543C25.7318 12.9183 25.8185 12.9542 25.9089 12.9542C25.9993 12.9542 26.086 12.9183 26.15 12.8543C26.2139 12.7904 26.2498 12.7037 26.2498 12.6133C26.2603 10.3067 25.5576 8.05334 24.2381 6.16153C22.9185 4.26973 21.0465 2.83198 18.8783 2.0451Z" fill="#2D64BC"/>
<path d="M13.9774 1.36328H5.11375C5.02334 1.36328 4.93663 1.3992 4.87269 1.46313C4.80876 1.52706 4.77284 1.61378 4.77284 1.70419C4.77284 1.79461 4.80876 1.88132 4.87269 1.94525C4.93663 2.00918 5.02334 2.0451 5.11375 2.0451H11.1217C8.95347 2.83198 7.08146 4.26973 5.76188 6.16153C4.4423 8.05334 3.73965 10.3067 3.75012 12.6133C3.75012 12.7037 3.78603 12.7904 3.84997 12.8543C3.9139 12.9183 4.00061 12.9542 4.09102 12.9542C4.18144 12.9542 4.26815 12.9183 4.33208 12.8543C4.39602 12.7904 4.43193 12.7037 4.43193 12.6133C4.41933 9.97841 5.39658 7.43485 7.17018 5.48624C8.94378 3.53763 11.3844 2.32604 14.0089 2.09136C14.0534 2.08726 14.0968 2.07441 14.1364 2.05355C14.176 2.03269 14.2111 2.00422 14.2397 1.96978C14.2683 1.93534 14.2898 1.8956 14.3031 1.85283C14.3163 1.81005 14.321 1.7651 14.3168 1.72052L14.3157 1.71694C14.3159 1.71244 14.3183 1.70869 14.3183 1.70419C14.3183 1.61378 14.2824 1.52706 14.2184 1.46313C14.1545 1.3992 14.0678 1.36328 13.9774 1.36328Z" fill="#2D64BC"/>
<path d="M19.7731 25.5664H10.2276C10.0393 25.5664 9.88672 25.719 9.88672 25.9073V29.3164C9.88672 29.5047 10.0393 29.6573 10.2276 29.6573H19.7731C19.9614 29.6573 20.114 29.5047 20.114 29.3164V25.9073C20.114 25.719 19.9614 25.5664 19.7731 25.5664Z" fill="#FFBA00"/>
<path d="M20.7961 23.5234H9.20517C9.01689 23.5234 8.86426 23.6761 8.86426 23.8643V25.9098C8.86426 26.0981 9.01689 26.2507 9.20517 26.2507H20.7961C20.9844 26.2507 21.137 26.0981 21.137 25.9098V23.8643C21.137 23.6761 20.9844 23.5234 20.7961 23.5234Z" fill="#FF8E00"/>
<path d="M16.0231 0.339844H13.9776C13.7893 0.339844 13.6367 0.492474 13.6367 0.680753V2.72621C13.6367 2.91449 13.7893 3.06712 13.9776 3.06712H16.0231C16.2114 3.06712 16.364 2.91449 16.364 2.72621V0.680753C16.364 0.492474 16.2114 0.339844 16.0231 0.339844Z" fill="#6499F3"/>
<path d="M5.1139 12.2734H3.06845C2.88017 12.2734 2.72754 12.4261 2.72754 12.6143V14.6598C2.72754 14.8481 2.88017 15.0007 3.06845 15.0007H5.1139C5.30218 15.0007 5.45481 14.8481 5.45481 14.6598V12.6143C5.45481 12.4261 5.30218 12.2734 5.1139 12.2734Z" fill="#6499F3"/>
<path d="M26.9323 12.2734H24.8868C24.6985 12.2734 24.5459 12.4261 24.5459 12.6143V14.6598C24.5459 14.8481 24.6985 15.0007 24.8868 15.0007H26.9323C27.1205 15.0007 27.2732 14.8481 27.2732 14.6598V12.6143C27.2732 12.4261 27.1205 12.2734 26.9323 12.2734Z" fill="#6499F3"/>
<path d="M25.9095 3.06712C26.6627 3.06712 27.2732 2.4566 27.2732 1.70348C27.2732 0.950365 26.6627 0.339844 25.9095 0.339844C25.1564 0.339844 24.5459 0.950365 24.5459 1.70348C24.5459 2.4566 25.1564 3.06712 25.9095 3.06712Z" fill="#6499F3"/>
<path d="M4.09118 3.06712C4.84429 3.06712 5.45481 2.4566 5.45481 1.70348C5.45481 0.950365 4.84429 0.339844 4.09118 0.339844C3.33806 0.339844 2.72754 0.950365 2.72754 1.70348C2.72754 2.4566 3.33806 3.06712 4.09118 3.06712Z" fill="#6499F3"/>
</svg>
