<svg width="36" height="36" viewBox="0 0 36 36" fill="none" xmlns="http://www.w3.org/2000/svg">
<g clip-path="url(#clip0_734_20077)">
<path d="M18 0C8.03415 0 0 8.03415 0 18C0 27.9659 8.03415 36 18 36C27.9659 36 36 27.9659 36 18C36 8.03415 27.9659 0 18 0ZM25.9902 18.8341L14.0049 25.8585C13.8732 25.9463 13.6537 25.9902 13.522 25.9902C13.3902 25.9902 13.1707 25.9463 13.039 25.8585C12.7317 25.639 12.5561 25.3756 12.5561 25.0244V11.0195H12.5122C12.5122 10.6683 12.7317 10.3171 12.9951 10.1854C13.2585 10.0537 13.6976 9.96585 14.0049 10.1854L25.9902 17.1659C26.2976 17.3854 26.4732 17.6488 26.4732 18C26.4732 18.3512 26.2537 18.7024 25.9902 18.8341Z" fill="#22A0B1"/>
</g>
<defs>
<clipPath id="clip0_734_20077">
<rect width="36" height="36" fill="white"/>
</clipPath>
</defs>
</svg>
