<svg width="36" height="36" viewBox="0 0 36 36" fill="none" xmlns="http://www.w3.org/2000/svg">
<path d="M30.8415 5.42225V30.5827C30.8415 32.9563 28.914 34.8781 26.5461 34.8781H6.27586C3.90232 34.8781 1.98047 32.9563 1.98047 30.5827V5.42225C1.98047 3.04864 3.90232 1.12109 6.27586 1.12109H26.5461C28.914 1.12109 30.8415 3.04864 30.8415 5.42225Z" fill="#CCE0F1"/>
<path d="M11.4942 5.65388V8.39923C11.4942 8.85113 11.1282 9.21718 10.6763 9.21718H7.51905C7.06715 9.21718 6.70117 8.85113 6.70117 8.39923V5.65388C6.70117 5.20198 7.06715 4.83594 7.51905 4.83594H10.6763C11.1282 4.83594 11.4942 5.20205 11.4942 5.65388Z" fill="#36474F"/>
<path d="M17.2397 5.98295C17.2397 6.21737 17.0479 6.40925 16.8134 6.40925H13.3775C13.143 6.40925 12.9512 6.21737 12.9512 5.98295C12.9512 5.74845 13.143 5.55664 13.3775 5.55664H16.8134C17.0479 5.55664 17.2397 5.74845 17.2397 5.98295Z" fill="#6D7183"/>
<path d="M19.6747 5.98295C19.6747 6.21737 19.4828 6.40925 19.2484 6.40925H18.0357C17.8012 6.40925 17.6094 6.21737 17.6094 5.98295C17.6094 5.74845 17.8012 5.55664 18.0357 5.55664H19.2484C19.4828 5.55664 19.6747 5.74845 19.6747 5.98295Z" fill="#6D7183"/>
<path d="M23.0214 5.98295C23.0214 6.21737 22.8295 6.40925 22.5951 6.40925H20.5015C20.267 6.40925 20.0752 6.21737 20.0752 5.98295C20.0752 5.74845 20.267 5.55664 20.5015 5.55664H22.5951C22.8295 5.55664 23.0214 5.74845 23.0214 5.98295Z" fill="#6D7183"/>
<path d="M26.7982 5.98295C26.7982 6.21737 26.6063 6.40925 26.3719 6.40925H23.8169C23.5824 6.40925 23.3906 6.21737 23.3906 5.98295C23.3906 5.74845 23.5824 5.55664 23.8169 5.55664H26.3719C26.6063 5.55664 26.7982 5.74845 26.7982 5.98295Z" fill="#6D7183"/>
<path d="M22.3867 8.06693C22.3867 8.30135 22.1948 8.49323 21.9604 8.49323H13.3775C13.143 8.49323 12.9512 8.30135 12.9512 8.06693C12.9512 7.83244 13.143 7.64062 13.3775 7.64062H21.9604C22.1948 7.64062 22.3867 7.83244 22.3867 8.06693Z" fill="#6D7183"/>
<path d="M24.8211 8.06693C24.8211 8.30135 24.6293 8.49323 24.3948 8.49323H23.1822C22.9477 8.49323 22.7559 8.30135 22.7559 8.06693C22.7559 7.83244 22.9477 7.64062 23.1822 7.64062H24.3948C24.6293 7.64062 24.8211 7.83244 24.8211 8.06693Z" fill="#6D7183"/>
<path d="M11.4942 12.3687V15.1141C11.4942 15.566 11.1282 15.932 10.6763 15.932H7.51905C7.06715 15.932 6.70117 15.566 6.70117 15.1141V12.3687C6.70117 11.9168 7.06715 11.5508 7.51905 11.5508H10.6763C11.1282 11.5508 11.4942 11.9168 11.4942 12.3687Z" fill="#3EB655"/>
<path d="M17.2397 12.6997C17.2397 12.9342 17.0479 13.126 16.8134 13.126H13.3775C13.143 13.126 12.9512 12.9342 12.9512 12.6997C12.9512 12.4653 13.143 12.2734 13.3775 12.2734H16.8134C17.0479 12.2734 17.2397 12.4653 17.2397 12.6997Z" fill="#6D7183"/>
<path d="M19.6747 12.6997C19.6747 12.9342 19.4828 13.126 19.2484 13.126H18.0357C17.8012 13.126 17.6094 12.9342 17.6094 12.6997C17.6094 12.4653 17.8012 12.2734 18.0357 12.2734H19.2484C19.4828 12.2734 19.6747 12.4653 19.6747 12.6997Z" fill="#6D7183"/>
<path d="M23.0214 12.6997C23.0214 12.9342 22.8295 13.126 22.5951 13.126H20.5015C20.267 13.126 20.0752 12.9342 20.0752 12.6997C20.0752 12.4653 20.267 12.2734 20.5015 12.2734H22.5951C22.8295 12.2734 23.0214 12.4653 23.0214 12.6997Z" fill="#6D7183"/>
<path d="M26.7982 12.6997C26.7982 12.9342 26.6063 13.126 26.3719 13.126H23.8169C23.5824 13.126 23.3906 12.9342 23.3906 12.6997C23.3906 12.4653 23.5824 12.2734 23.8169 12.2734H26.3719C26.6063 12.2734 26.7982 12.4653 26.7982 12.6997Z" fill="#6D7183"/>
<path d="M22.3867 14.7837C22.3867 15.0181 22.1948 15.21 21.9604 15.21H13.3775C13.143 15.21 12.9512 15.0181 12.9512 14.7837C12.9512 14.5492 13.143 14.3574 13.3775 14.3574H21.9604C22.1948 14.3574 22.3867 14.5492 22.3867 14.7837Z" fill="#6D7183"/>
<path d="M24.8211 14.7837C24.8211 15.0181 24.6293 15.21 24.3948 15.21H23.1822C22.9477 15.21 22.7559 15.0181 22.7559 14.7837C22.7559 14.5492 22.9477 14.3574 23.1822 14.3574H24.3948C24.6293 14.3574 24.8211 14.5492 24.8211 14.7837Z" fill="#6D7183"/>
<path d="M11.4942 19.0836V21.8289C11.4942 22.2808 11.1282 22.6469 10.6763 22.6469H7.51905C7.06715 22.6469 6.70117 22.2808 6.70117 21.8289V19.0836C6.70117 18.6317 7.06715 18.2656 7.51905 18.2656H10.6763C11.1282 18.2656 11.4942 18.6317 11.4942 19.0836Z" fill="#D81A60"/>
<path d="M17.2397 19.4146C17.2397 19.649 17.0479 19.8409 16.8134 19.8409H13.3775C13.143 19.8409 12.9512 19.649 12.9512 19.4146C12.9512 19.1801 13.143 18.9883 13.3775 18.9883H16.8134C17.0479 18.9883 17.2397 19.1802 17.2397 19.4146Z" fill="#6D7183"/>
<path d="M19.6747 19.4146C19.6747 19.649 19.4828 19.8409 19.2484 19.8409H18.0357C17.8012 19.8409 17.6094 19.649 17.6094 19.4146C17.6094 19.1801 17.8012 18.9883 18.0357 18.9883H19.2484C19.4828 18.9883 19.6747 19.1802 19.6747 19.4146Z" fill="#6D7183"/>
<path d="M23.0214 19.4146C23.0214 19.649 22.8295 19.8409 22.5951 19.8409H20.5015C20.267 19.8409 20.0752 19.649 20.0752 19.4146C20.0752 19.1801 20.267 18.9883 20.5015 18.9883H22.5951C22.8295 18.9883 23.0214 19.1802 23.0214 19.4146Z" fill="#6D7183"/>
<path d="M26.7982 19.4146C26.7982 19.649 26.6063 19.8409 26.3719 19.8409H23.8169C23.5824 19.8409 23.3906 19.649 23.3906 19.4146C23.3906 19.1801 23.5824 18.9883 23.8169 18.9883H26.3719C26.6063 18.9883 26.7982 19.1802 26.7982 19.4146Z" fill="#6D7183"/>
<path d="M22.3867 21.4986C22.3867 21.733 22.1948 21.9249 21.9604 21.9249H13.3775C13.143 21.9249 12.9512 21.733 12.9512 21.4986C12.9512 21.2641 13.143 21.0723 13.3775 21.0723H21.9604C22.1948 21.0723 22.3867 21.2641 22.3867 21.4986Z" fill="#6D7183"/>
<path d="M24.8211 21.4986C24.8211 21.733 24.6293 21.9249 24.3948 21.9249H23.1822C22.9477 21.9249 22.7559 21.733 22.7559 21.4986C22.7559 21.2641 22.9477 21.0723 23.1822 21.0723H24.3948C24.6293 21.0723 24.8211 21.2641 24.8211 21.4986Z" fill="#6D7183"/>
<path d="M11.4942 25.7984V28.5438C11.4942 28.9957 11.1282 29.3617 10.6763 29.3617H7.51905C7.06715 29.3617 6.70117 28.9957 6.70117 28.5438V25.7984C6.70117 25.3465 7.06715 24.9805 7.51905 24.9805H10.6763C11.1282 24.9805 11.4942 25.3466 11.4942 25.7984Z" fill="#246ABF"/>
<path d="M17.2397 26.1294C17.2397 26.3639 17.0479 26.5557 16.8134 26.5557H13.3775C13.143 26.5557 12.9512 26.3639 12.9512 26.1294C12.9512 25.8949 13.143 25.7031 13.3775 25.7031H16.8134C17.0479 25.7031 17.2397 25.8949 17.2397 26.1294Z" fill="#6D7183"/>
<path d="M19.6747 26.1294C19.6747 26.3639 19.4828 26.5557 19.2484 26.5557H18.0357C17.8012 26.5557 17.6094 26.3639 17.6094 26.1294C17.6094 25.8949 17.8012 25.7031 18.0357 25.7031H19.2484C19.4828 25.7031 19.6747 25.8949 19.6747 26.1294Z" fill="#6D7183"/>
<path d="M23.0214 26.1294C23.0214 26.3639 22.8295 26.5557 22.5951 26.5557H20.5015C20.267 26.5557 20.0752 26.3639 20.0752 26.1294C20.0752 25.8949 20.267 25.7031 20.5015 25.7031H22.5951C22.8295 25.7031 23.0214 25.8949 23.0214 26.1294Z" fill="#6D7183"/>
<path d="M26.7982 26.1294C26.7982 26.3639 26.6063 26.5557 26.3719 26.5557H23.8169C23.5824 26.5557 23.3906 26.3639 23.3906 26.1294C23.3906 25.8949 23.5824 25.7031 23.8169 25.7031H26.3719C26.6063 25.7031 26.7982 25.8949 26.7982 26.1294Z" fill="#6D7183"/>
<path d="M22.3867 28.2134C22.3867 28.4478 22.1948 28.6397 21.9604 28.6397H13.3775C13.143 28.6397 12.9512 28.4478 12.9512 28.2134C12.9512 27.9789 13.143 27.7871 13.3775 27.7871H21.9604C22.1948 27.7871 22.3867 27.9789 22.3867 28.2134Z" fill="#6D7183"/>
<path d="M24.8211 28.2134C24.8211 28.4478 24.6293 28.6397 24.3948 28.6397H23.1822C22.9477 28.6397 22.7559 28.4478 22.7559 28.2134C22.7559 27.9789 22.9477 27.7871 23.1822 27.7871H24.3948C24.6293 27.7871 24.8211 27.9789 24.8211 28.2134Z" fill="#6D7183"/>
<path opacity="0.1" d="M29.7333 15.2673V29.0844C29.7333 32.286 27.1335 34.8782 23.9396 34.8782H18.6009C15.2527 32.9186 13 29.2927 13 25.1422C13 18.9163 18.0609 13.8555 24.2868 13.8555C26.2617 13.8555 28.121 14.3647 29.7333 15.2673Z" fill="#3E3D53"/>
<path d="M34.0189 25.1422C34.0189 30.5194 29.6599 34.8782 24.2827 34.8782C18.9055 34.8782 14.5391 30.5195 14.5391 25.1422C14.5391 19.7573 18.9056 15.3984 24.2827 15.3984C29.6598 15.3984 34.0189 19.7573 34.0189 25.1422Z" fill="#FAA629"/>
<path d="M31.6684 25.1409C31.6684 29.2207 28.3611 32.5279 24.2814 32.5279C20.2017 32.5279 16.8887 29.2208 16.8887 25.1409C16.8887 21.0553 20.2016 17.748 24.2814 17.748C28.3612 17.748 31.6684 21.0553 31.6684 25.1409Z" fill="#F2D85D"/>
<path opacity="0.1" d="M29.8533 20.2901C28.5495 19.1252 26.8369 18.423 24.9545 18.423C20.8811 18.423 17.5638 21.7327 17.5638 25.8138C17.5638 27.6807 18.2581 29.3934 19.4076 30.6896C17.8647 29.3396 16.8926 27.3567 16.8926 25.1426C16.8926 21.0539 20.2021 17.752 24.2832 17.752C26.5129 17.752 28.5031 18.7317 29.8533 20.2901Z" fill="#3E3D53"/>
<path d="M25.162 24.3711H23.3954C22.8401 24.3711 22.3888 23.9195 22.3888 23.3567C22.3888 22.8014 22.8401 22.3498 23.3954 22.3498H26.9409C27.3673 22.3498 27.7124 22.0044 27.7124 21.5783C27.7124 21.1522 27.3674 20.8068 26.9409 20.8068H25.2216V19.955C25.2216 19.529 24.8766 19.1836 24.4501 19.1836C24.0237 19.1836 23.6786 19.529 23.6786 19.955V20.8068H23.3953C21.9895 20.8068 20.8458 21.9508 20.8458 23.3641C20.8458 24.7699 21.9895 25.914 23.3953 25.914H25.162C25.7172 25.914 26.1692 26.3656 26.1692 26.9205C26.1692 27.4758 25.7172 27.9274 25.162 27.9274H21.6172C21.1908 27.9274 20.8457 28.2728 20.8457 28.699C20.8457 29.125 21.1907 29.4705 21.6172 29.4705H23.6787V30.3222C23.6787 30.7483 24.0237 31.0938 24.4502 31.0938C24.8766 31.0938 25.2217 30.7483 25.2217 30.3222V29.4645C26.5994 29.432 27.7124 28.3061 27.7124 26.9207C27.7123 25.5147 26.568 24.3711 25.162 24.3711Z" fill="#DF7F19"/>
</svg>
