<svg width="24" height="24" viewBox="0 0 24 24" fill="none" xmlns="http://www.w3.org/2000/svg">
<g clip-path="url(#clip0_734_19734)">
<path d="M20.9536 9.29688H12.0004L11.3945 16.6484L12.0004 24H20.9536C22.6336 24 24.0004 22.6332 24.0004 20.9531V12.3438C24.0004 10.6637 22.6336 9.29688 20.9536 9.29688Z" fill="#0E3DD6"/>
<path d="M3.04688 9.29688C1.36683 9.29688 0 10.6637 0 12.3438V20.9531C0 22.6332 1.36683 24 3.04688 24H12V9.29688H3.04688Z" fill="#0E3DD6"/>
<path d="M4.85938 17.7321H5.42661L6.22442 20.2121H7.70164L6.77642 17.3361C7.30123 16.9641 7.64267 16.365 7.64267 15.6903C7.64267 14.5644 6.6927 13.6484 5.52505 13.6484H3.45312V20.2121H4.85938V17.7321ZM4.85938 15.0547H5.52509C5.91073 15.0547 6.23647 15.3458 6.23647 15.6903C6.23647 16.0348 5.91073 16.3259 5.52509 16.3259H4.85938V15.0547Z" fill="white"/>
<path d="M12.0002 15.0547V13.6484H8.7334V20.2109H10.1396V17.5749H11.3569V16.1686H10.1396V15.0547H12.0002Z" fill="#FFFBF5"/>
<path d="M13.2275 13.6484H14.6338V20.2109H13.2275V13.6484Z" fill="white"/>
<path d="M15.8486 20.2152V13.6484H17.6134C19.2794 13.6484 20.3988 14.9671 20.3988 16.9297C20.3988 18.7967 19.2505 20.1718 17.6684 20.1995C17.2527 20.2068 15.8486 20.2152 15.8486 20.2152ZM17.2549 15.0547V18.7987C17.3922 18.7972 17.529 18.7955 17.6439 18.7935C18.3152 18.7817 18.9925 18.2009 18.9925 16.9297C18.9925 16.4899 18.8931 15.0547 17.6134 15.0547H17.2549Z" fill="white"/>
<path d="M12 0L11.5312 0.706406L12 1.40625C14.8777 1.40625 17.4133 2.89702 18.8763 5.1465L20.0559 4.38192C18.342 1.74652 15.3713 0 12 0Z" fill="#FD0202"/>
<path d="M12.0002 0C8.62893 0 5.65827 1.74647 3.94434 4.38192L5.12404 5.1465C6.58696 2.89702 9.12266 1.40625 12.0002 1.40625V0Z" fill="#FD0202"/>
<path d="M16.1247 6.92661L17.3043 6.16203C16.176 4.42709 14.2204 3.27734 12.001 3.27734L11.5322 3.99936L12.001 4.68359C13.7267 4.68359 15.2474 5.57759 16.1247 6.92661Z" fill="#FD0202"/>
<path d="M6.69727 6.16208L7.87692 6.92666C8.75428 5.57759 10.2749 4.68359 12.0006 4.68359V3.27734C9.78122 3.27734 7.82559 4.42709 6.69727 6.16208Z" fill="#FD1F02"/>
<path d="M14.822 9.38056C14.822 7.82455 13.5561 6.55859 12 6.55859L11.5312 9.38056L12 12.2025C13.5561 12.2025 14.822 10.9366 14.822 9.38056Z" fill="#FD0202"/>
<path d="M9.17773 9.38056C9.17773 10.9366 10.4436 12.2025 11.9997 12.2025V6.55859C10.4436 6.55859 9.17773 7.8245 9.17773 9.38056Z" fill="#FD0202"/>
</g>
<defs>
<clipPath id="clip0_734_19734">
<rect width="24" height="24" fill="white"/>
</clipPath>
</defs>
</svg>
