<svg width="24" height="24" viewBox="0 0 24 24" fill="none" xmlns="http://www.w3.org/2000/svg">
<rect width="24" height="24" rx="5" fill="#3E3D53"/>
<g clip-path="url(#clip0_734_19927)">
<path d="M19.355 7.64501L16.355 4.64501C16.3083 4.59867 16.2529 4.56201 16.192 4.53712C16.131 4.51224 16.0658 4.49963 16 4.50001H15V8.50001C15 8.76523 14.8946 9.01958 14.7071 9.20712C14.5196 9.39465 14.2652 9.50001 14 9.50001H10C9.73478 9.50001 9.48043 9.39465 9.29289 9.20712C9.10536 9.01958 9 8.76523 9 8.50001V4.50001H6C5.60218 4.50001 5.22064 4.65804 4.93934 4.93935C4.65804 5.22065 4.5 5.60218 4.5 6.00001V18C4.5 18.3978 4.65804 18.7794 4.93934 19.0607C5.22064 19.342 5.60218 19.5 6 19.5H7V15C7 14.6022 7.15804 14.2207 7.43934 13.9393C7.72064 13.658 8.10218 13.5 8.5 13.5H15.5C15.8978 13.5 16.2794 13.658 16.5607 13.9393C16.842 14.2207 17 14.6022 17 15V19.5H18C18.3978 19.5 18.7794 19.342 19.0607 19.0607C19.342 18.7794 19.5 18.3978 19.5 18V8.00001C19.5004 7.93421 19.4878 7.86897 19.4629 7.80806C19.438 7.74714 19.4013 7.69173 19.355 7.64501Z" fill="white"/>
<path d="M10 4.5H14V8.5H10V4.5Z" fill="white"/>
<path d="M15.5 14.5H8.5C8.36739 14.5 8.24021 14.5527 8.14645 14.6464C8.05268 14.7402 8 14.8674 8 15V19.5H16V15C16 14.8674 15.9473 14.7402 15.8536 14.6464C15.7598 14.5527 15.6326 14.5 15.5 14.5Z" fill="white"/>
</g>
<defs>
<clipPath id="clip0_734_19927">
<rect width="16" height="16" fill="white" transform="translate(4 4)"/>
</clipPath>
</defs>
</svg>
