<svg width="24" height="24" viewBox="0 0 24 24" fill="none" xmlns="http://www.w3.org/2000/svg">
<g clip-path="url(#clip0_734_19943)">
<path d="M21.7125 24H2.2875C1.02187 24 0 22.9781 0 21.7125V2.2875C0 1.02187 1.02187 0 2.2875 0H21.7172C22.9781 0 24 1.02187 24 2.2875V21.7172C24 22.9781 22.9781 24 21.7125 24Z" fill="#329CAC"/>
<path opacity="0.1" d="M22.125 1.875H1.875V22.125L3.75 24H21.7125C22.9734 24 24 22.9781 24 21.7125V3.75L22.125 1.875Z" fill="black"/>
<path d="M1.85156 1.875H22.1016V22.125H1.85156V1.875Z" fill="#40C3D7"/>
<path d="M19.3031 5.58789H4.69687C4.2 5.58789 3.79688 5.99102 3.79688 6.48789V17.5082C3.79688 18.0051 4.2 18.4082 4.69687 18.4082H19.3031C19.8 18.4082 20.2031 18.0051 20.2031 17.5082V6.48789C20.2031 5.99102 19.8 5.58789 19.3031 5.58789ZM16.95 6.58164C17.1703 6.58164 17.3438 6.75977 17.3438 6.97539C17.3438 7.1957 17.1656 7.36914 16.95 7.36914C16.7297 7.36914 16.5563 7.19102 16.5563 6.97539C16.5563 6.75977 16.7297 6.58164 16.95 6.58164ZM6.63281 6.94258C6.63281 6.79258 6.75469 6.6707 6.90469 6.6707H15.2578C15.4078 6.6707 15.5297 6.79258 15.5297 6.94258V7.0082C15.5297 7.1582 15.4078 7.28008 15.2578 7.28008H6.90469C6.75469 7.28008 6.63281 7.1582 6.63281 7.0082V6.94258ZM5.4 6.58164C5.62031 6.58164 5.79375 6.75977 5.79375 6.97539C5.79375 7.1957 5.61562 7.36914 5.4 7.36914C5.18437 7.36914 5.00625 7.19102 5.00625 6.97539C5.00156 6.75977 5.17969 6.58164 5.4 6.58164ZM18.9984 17.2035H5.00156V8.29258H18.9938V17.2035H18.9984ZM18.6 7.36914C18.3797 7.36914 18.2062 7.19102 18.2062 6.97539C18.2062 6.75508 18.3844 6.58164 18.6 6.58164C18.8203 6.58164 18.9938 6.75977 18.9938 6.97539C18.9984 7.1957 18.8203 7.36914 18.6 7.36914Z" fill="white"/>
<path d="M7.54668 12.0234H7.07324V10.0594H6.58105V9.69375L7.54668 9.60938V12.0234Z" fill="white"/>
<path d="M9.92813 11.1648C9.92813 11.4414 9.85313 11.6617 9.70781 11.8211C9.5625 11.9805 9.36562 12.0602 9.12656 12.0602C8.88281 12.0602 8.68594 11.9805 8.54062 11.8211C8.39531 11.6617 8.32031 11.4414 8.32031 11.1648V10.5086C8.32031 10.232 8.39531 10.0117 8.54062 9.85234C8.68594 9.69297 8.88281 9.61328 9.12188 9.61328C9.36563 9.61328 9.55781 9.69297 9.70312 9.85234C9.84844 10.0117 9.92344 10.232 9.92344 10.5086V11.1648H9.92813ZM9.45 10.4617C9.45 10.3117 9.42187 10.1898 9.36094 10.1055C9.30469 10.0211 9.22031 9.97891 9.11719 9.97891C9.01406 9.97891 8.92969 10.0211 8.87344 10.1055C8.81719 10.1898 8.78906 10.307 8.78906 10.4617V11.2117C8.78906 11.3664 8.81719 11.4883 8.87344 11.568C8.92969 11.6523 9.01406 11.6945 9.11719 11.6945C9.22031 11.6945 9.3 11.6523 9.35625 11.568C9.4125 11.4836 9.44062 11.3664 9.44062 11.2117V10.4617H9.45Z" fill="white"/>
<path d="M11.3816 12.0234H10.9082V10.0594H10.416V9.69375L11.3816 9.60938V12.0234Z" fill="white"/>
<path d="M13.7631 11.1648C13.7631 11.4414 13.6881 11.6617 13.5428 11.8211C13.3975 11.9805 13.2006 12.0602 12.9615 12.0602C12.7178 12.0602 12.5209 11.9805 12.3756 11.8211C12.2303 11.6617 12.1553 11.4414 12.1553 11.1648V10.5086C12.1553 10.232 12.2303 10.0117 12.3756 9.85234C12.5209 9.69297 12.7178 9.61328 12.9568 9.61328C13.2006 9.61328 13.3928 9.69297 13.5381 9.85234C13.6834 10.0117 13.7584 10.232 13.7584 10.5086V11.1648H13.7631ZM13.2896 10.4617C13.2896 10.3117 13.2615 10.1898 13.2006 10.1055C13.1443 10.0211 13.06 9.97891 12.9568 9.97891C12.8537 9.97891 12.7693 10.0211 12.7131 10.1055C12.6568 10.1898 12.6287 10.307 12.6287 10.4617V11.2117C12.6287 11.3664 12.6568 11.4883 12.7131 11.568C12.7693 11.6523 12.8537 11.6945 12.9568 11.6945C13.06 11.6945 13.1396 11.6523 13.1959 11.568C13.2521 11.4836 13.2803 11.3664 13.2803 11.2117V10.4617H13.2896Z" fill="white"/>
<path d="M15.2156 12.0234H14.7422V10.0594H14.25V9.69375L15.2156 9.60938V12.0234Z" fill="white"/>
<path d="M17.602 11.1648C17.602 11.4414 17.527 11.6617 17.3816 11.8211C17.2363 11.9805 17.0395 12.0602 16.8004 12.0602C16.5566 12.0602 16.3598 11.9805 16.2145 11.8211C16.0691 11.6617 15.9941 11.4414 15.9941 11.1648V10.5086C15.9941 10.232 16.0691 10.0117 16.2145 9.85234C16.3598 9.69297 16.5566 9.61328 16.7957 9.61328C17.0395 9.61328 17.2316 9.69297 17.377 9.85234C17.5223 10.0117 17.5973 10.232 17.5973 10.5086V11.1648H17.602ZM17.1238 10.4617C17.1238 10.3117 17.0957 10.1898 17.0348 10.1055C16.9785 10.0211 16.8941 9.97891 16.791 9.97891C16.6879 9.97891 16.6035 10.0211 16.5473 10.1055C16.491 10.1898 16.4629 10.307 16.4629 10.4617V11.2117C16.4629 11.3664 16.491 11.4883 16.5473 11.568C16.6035 11.6523 16.6879 11.6945 16.791 11.6945C16.8941 11.6945 16.9738 11.6523 17.0301 11.568C17.0863 11.4836 17.1145 11.3664 17.1145 11.2117V10.4617H17.1238Z" fill="white"/>
<path d="M8.01113 15.1785C8.01113 15.4551 7.93613 15.6754 7.79082 15.8348C7.64551 15.9941 7.44863 16.0738 7.20957 16.0738C6.96582 16.0738 6.76895 15.9941 6.62363 15.8348C6.47832 15.6754 6.40332 15.4551 6.40332 15.1785V14.5223C6.40332 14.2457 6.47832 14.0254 6.62363 13.866C6.76895 13.7066 6.96582 13.627 7.20488 13.627C7.44863 13.627 7.64082 13.7066 7.78613 13.866C7.93145 14.0254 8.00645 14.2457 8.00645 14.5223V15.1785H8.01113ZM7.53301 14.4754C7.53301 14.3254 7.50488 14.2035 7.44395 14.1191C7.3877 14.0348 7.30332 13.9926 7.2002 13.9926C7.09707 13.9926 7.01269 14.0348 6.95644 14.1191C6.90019 14.2035 6.87207 14.3207 6.87207 14.4754V15.2254C6.87207 15.3801 6.90019 15.502 6.95644 15.5816C7.01269 15.666 7.09707 15.7082 7.2002 15.7082C7.30332 15.7082 7.38301 15.666 7.43926 15.5816C7.49551 15.4973 7.52363 15.3801 7.52363 15.2254V14.4754H7.53301Z" fill="white"/>
<path d="M9.46465 16.0352H8.99121V14.0711H8.49902V13.7055L9.46465 13.6211V16.0352Z" fill="white"/>
<path d="M11.8451 15.1785C11.8451 15.4551 11.7701 15.6754 11.6248 15.8348C11.4795 15.9941 11.2826 16.0738 11.0436 16.0738C10.7998 16.0738 10.6029 15.9941 10.4576 15.8348C10.3123 15.6754 10.2373 15.4551 10.2373 15.1785V14.5223C10.2373 14.2457 10.3123 14.0254 10.4576 13.866C10.6029 13.7066 10.7998 13.627 11.0389 13.627C11.2826 13.627 11.4748 13.7066 11.6201 13.866C11.7654 14.0254 11.8404 14.2457 11.8404 14.5223V15.1785H11.8451ZM11.3717 14.4754C11.3717 14.3254 11.3436 14.2035 11.2826 14.1191C11.2264 14.0348 11.142 13.9926 11.0389 13.9926C10.9357 13.9926 10.8514 14.0348 10.7951 14.1191C10.7389 14.2035 10.7107 14.3207 10.7107 14.4754V15.2254C10.7107 15.3801 10.7389 15.502 10.7951 15.5816C10.8514 15.666 10.9357 15.7082 11.0389 15.7082C11.142 15.7082 11.2217 15.666 11.2779 15.5816C11.3342 15.4973 11.3623 15.3801 11.3623 15.2254V14.4754H11.3717Z" fill="white"/>
<path d="M13.2986 16.0352H12.8252V14.0711H12.333V13.7055L13.2986 13.6211V16.0352Z" fill="white"/>
<path d="M15.6801 15.1785C15.6801 15.4551 15.6051 15.6754 15.4598 15.8348C15.3145 15.9941 15.1176 16.0738 14.8785 16.0738C14.6348 16.0738 14.4379 15.9941 14.2926 15.8348C14.1473 15.6754 14.0723 15.4551 14.0723 15.1785V14.5223C14.0723 14.2457 14.1473 14.0254 14.2926 13.866C14.4379 13.7066 14.6348 13.627 14.8738 13.627C15.1176 13.627 15.3098 13.7066 15.4551 13.866C15.6004 14.0254 15.6754 14.2457 15.6754 14.5223V15.1785H15.6801ZM15.2066 14.4754C15.2066 14.3254 15.1785 14.2035 15.1176 14.1191C15.0613 14.0348 14.977 13.9926 14.8738 13.9926C14.7707 13.9926 14.6863 14.0348 14.6301 14.1191C14.5738 14.2035 14.5457 14.3207 14.5457 14.4754V15.2254C14.5457 15.3801 14.5738 15.502 14.6301 15.5816C14.6863 15.666 14.7707 15.7082 14.8738 15.7082C14.977 15.7082 15.0566 15.666 15.1129 15.5816C15.1691 15.4973 15.1973 15.3801 15.1973 15.2254V14.4754H15.2066Z" fill="white"/>
<path d="M17.1375 16.0352H16.6641V14.0711H16.1719V13.7055L17.1375 13.6211V16.0352Z" fill="white"/>
</g>
<defs>
<clipPath id="clip0_734_19943">
<rect width="24" height="24" fill="white"/>
</clipPath>
</defs>
</svg>
