<svg width="16" height="16" viewBox="0 0 16 16" fill="none" xmlns="http://www.w3.org/2000/svg">
<g clip-path="url(#clip0_734_20661)">
<path d="M14.8461 3.06055H1.15332V14.7805H14.8461V3.06055Z" fill="#E9EAEB"/>
<path d="M14.8468 3.06055H13.1084V14.7805H14.8468V3.06055Z" fill="#B9BBC1"/>
<path d="M14.894 3.05967H1.10547V1.13573C1.10547 0.982016 1.23006 0.857422 1.38378 0.857422H14.6157C14.7694 0.857422 14.894 0.982016 14.894 1.13573V3.05967Z" fill="#FDC74F"/>
<path d="M14.6164 0.857422H13.1562V2.30577H14.8947V1.13573C14.8947 0.982047 14.7701 0.857422 14.6164 0.857422Z" fill="#FCA629"/>
<path d="M1.15379 6.5492C0.523602 6.5492 0.0126953 6.03833 0.0126953 5.40814V4.47852H2.29485V5.40814C2.29488 6.03833 1.78398 6.5492 1.15379 6.5492Z" fill="#E60D28"/>
<path d="M3.43602 6.5492C2.80583 6.5492 2.29492 6.03833 2.29492 5.40814V4.47852H4.57708V5.40814C4.57711 6.03833 4.0662 6.5492 3.43602 6.5492Z" fill="#F2F2F2"/>
<path d="M5.71824 6.5492C5.08805 6.5492 4.57715 6.03833 4.57715 5.40814V4.47852H6.8593V5.40814C6.85934 6.03833 6.34843 6.5492 5.71824 6.5492Z" fill="#E60D28"/>
<path d="M8.00047 6.5492C7.37028 6.5492 6.85938 6.03833 6.85938 5.40814V4.47852H9.14153V5.40814C9.14153 6.03833 8.63066 6.5492 8.00047 6.5492Z" fill="#F2F2F2"/>
<path d="M10.2817 6.5492C9.65153 6.5492 9.14062 6.03833 9.14062 5.40814V4.47852H11.4228V5.40814C11.4228 6.03833 10.9119 6.5492 10.2817 6.5492Z" fill="#E60D28"/>
<path d="M12.5639 6.5492C11.9338 6.5492 11.4229 6.03833 11.4229 5.40814V4.47852H13.705V5.40814C13.705 6.03833 13.1941 6.5492 12.5639 6.5492Z" fill="#F2F2F2"/>
<path d="M14.8462 6.5492C14.216 6.5492 13.7051 6.03833 13.7051 5.40814V4.47852H15.9872V5.40814C15.9873 6.03833 15.4764 6.5492 14.8462 6.5492Z" fill="#E60D28"/>
<path d="M2.29485 4.47864H0.0126953L1.10485 2.30664H3.07498L2.29485 4.47864Z" fill="#FC502A"/>
<path d="M4.57708 4.47864H2.29492L3.07505 2.30664H5.04514L4.57708 4.47864Z" fill="white"/>
<path d="M6.8593 4.47864H4.57715L5.04521 2.30664H7.01534L6.8593 4.47864Z" fill="#FC502A"/>
<path d="M9.14153 4.47864H6.85938L7.01541 2.30664H8.98553L9.14153 4.47864Z" fill="white"/>
<path d="M11.4235 4.47864H9.14135L8.98535 2.30664H10.9555L11.4235 4.47864Z" fill="#FC502A"/>
<path d="M13.7053 4.47864H11.4231L10.9551 2.30664H12.9252L13.7053 4.47864Z" fill="white"/>
<path d="M15.9871 4.47864H13.7049L12.9248 2.30664H14.8949L15.9871 4.47864Z" fill="#FC502A"/>
<path d="M15.4788 13.709H0.521156C0.233344 13.709 0 13.9423 0 14.2301V14.9939C0 15.0755 0.0661563 15.1416 0.147719 15.1416H15.8523C15.9338 15.1416 16 15.0754 16 14.9939V14.2301C16 13.9423 15.7667 13.709 15.4788 13.709Z" fill="#8B8996"/>
<path d="M15.4785 13.709H14.2559V15.1416H15.8519C15.9335 15.1416 15.9996 15.0755 15.9996 14.9939V14.2301C15.9996 13.9423 15.7663 13.709 15.4785 13.709Z" fill="#706F7F"/>
<path d="M13.4979 12.1774H6.46938C6.35469 12.1774 6.26172 12.0844 6.26172 11.9697V8.10219C6.26172 7.9875 6.35469 7.89453 6.46938 7.89453H13.4979C13.6126 7.89453 13.7056 7.9875 13.7056 8.10219V11.9697C13.7056 12.0844 13.6126 12.1774 13.4979 12.1774Z" fill="#00C6C8"/>
<path d="M13.4981 7.89453H11.9619V12.1774H13.4981C13.6128 12.1774 13.7057 12.0844 13.7057 11.9697V8.10219C13.7057 7.9875 13.6128 7.89453 13.4981 7.89453Z" fill="#0FB0C0"/>
<path d="M5.27413 13.7091H2.06738V8.10219C2.06738 7.9875 2.16035 7.89453 2.27504 7.89453H5.06648C5.18116 7.89453 5.27413 7.9875 5.27413 8.10219V13.7091Z" fill="#00C6C8"/>
<path d="M5.06643 7.89453H3.53027V13.7091H5.27405V8.10219C5.27409 7.9875 5.18112 7.89453 5.06643 7.89453Z" fill="#0FB0C0"/>
<path d="M4.37816 11.1792C4.5115 11.1792 4.61959 11.0711 4.61959 10.9377V10.5032C4.61959 10.3698 4.5115 10.2617 4.37816 10.2617C4.24481 10.2617 4.13672 10.3698 4.13672 10.5032V10.9377C4.13669 11.0711 4.24481 11.1792 4.37816 11.1792Z" fill="white"/>
</g>
<defs>
<clipPath id="clip0_734_20661">
<rect width="16" height="16" fill="white"/>
</clipPath>
</defs>
</svg>
