<svg width="30" height="30" viewBox="0 0 30 30" fill="none" xmlns="http://www.w3.org/2000/svg">
<g clip-path="url(#clip0_734_20069)">
<path d="M17.5 11.25H2.5C1.80964 11.25 1.25 11.8096 1.25 12.5V27.5C1.25 28.1904 1.80964 28.75 2.5 28.75H17.5C18.1904 28.75 18.75 28.1904 18.75 27.5V12.5C18.75 11.8096 18.1904 11.25 17.5 11.25Z" fill="#D3DBEF"/>
<path d="M17.5 11.25H10V16.875C10.001 17.7035 10.3305 18.4978 10.9164 19.0836C11.5022 19.6695 12.2965 19.999 13.125 20H18.75V12.5C18.75 12.1685 18.6183 11.8505 18.3839 11.6161C18.1495 11.3817 17.8315 11.25 17.5 11.25Z" fill="#BFCAE2"/>
<path d="M27.5 1.25H12.5C11.8096 1.25 11.25 1.80964 11.25 2.5V17.5C11.25 18.1904 11.8096 18.75 12.5 18.75H27.5C28.1904 18.75 28.75 18.1904 28.75 17.5V2.5C28.75 1.80964 28.1904 1.25 27.5 1.25Z" fill="#4AC6B7"/>
<path d="M25.4541 9.90234H14.4727V10.8398H25.4541V9.90234Z" fill="white" stroke="white"/>
<path d="M27.5 1.25H26.25C26.5815 1.25 26.8995 1.3817 27.1339 1.61612C27.3683 1.85054 27.5 2.16848 27.5 2.5V17.5C27.5 17.8315 27.3683 18.1495 27.1339 18.3839C26.8995 18.6183 26.5815 18.75 26.25 18.75H27.5C27.8315 18.75 28.1495 18.6183 28.3839 18.3839C28.6183 18.1495 28.75 17.8315 28.75 17.5V2.5C28.75 2.16848 28.6183 1.85054 28.3839 1.61612C28.1495 1.3817 27.8315 1.25 27.5 1.25Z" fill="#37B7A4"/>
<path d="M27.5 0.625H12.5C12.0029 0.625546 11.5263 0.823265 11.1748 1.17478C10.8233 1.52629 10.6255 2.00289 10.625 2.5V10.625H2.5C2.00289 10.6255 1.52629 10.8233 1.17478 11.1748C0.823265 11.5263 0.625546 12.0029 0.625 12.5V27.5C0.625546 27.9971 0.823265 28.4737 1.17478 28.8252C1.52629 29.1767 2.00289 29.3745 2.5 29.375H17.5C17.9971 29.3745 18.4737 29.1767 18.8252 28.8252C19.1767 28.4737 19.3745 27.9971 19.375 27.5V19.375H27.5C27.9971 19.3745 28.4737 19.1767 28.8252 18.8252C29.1767 18.4737 29.3745 17.9971 29.375 17.5V2.5C29.3745 2.00289 29.1767 1.52629 28.8252 1.17478C28.4737 0.823265 27.9971 0.625546 27.5 0.625ZM18.125 27.5C18.1248 27.6657 18.0589 27.8245 17.9417 27.9417C17.8245 28.0589 17.6657 28.1248 17.5 28.125H2.5C2.33431 28.1248 2.17546 28.0589 2.0583 27.9417C1.94113 27.8245 1.87522 27.6657 1.875 27.5V12.5C1.87522 12.3343 1.94113 12.1755 2.0583 12.0583C2.17546 11.9411 2.33431 11.8752 2.5 11.875H10.625V17.5C10.6255 17.9971 10.8233 18.4737 11.1748 18.8252C11.5263 19.1767 12.0029 19.3745 12.5 19.375H18.125V27.5ZM28.125 17.5C28.1248 17.6657 28.0589 17.8245 27.9417 17.9417C27.8245 18.0589 27.6657 18.1248 27.5 18.125H12.5C12.3343 18.1248 12.1755 18.0589 12.0583 17.9417C11.9411 17.8245 11.8752 17.6657 11.875 17.5V2.5C11.8752 2.33431 11.9411 2.17546 12.0583 2.0583C12.1755 1.94113 12.3343 1.87522 12.5 1.875H27.5C27.6657 1.87522 27.8245 1.94113 27.9417 2.0583C28.0589 2.17546 28.1248 2.33431 28.125 2.5V17.5Z" fill="#3E3D53"/>
</g>
<defs>
<clipPath id="clip0_734_20069">
<rect width="30" height="30" fill="white"/>
</clipPath>
</defs>
</svg>
