<svg width="36" height="36" viewBox="0 0 36 36" fill="none" xmlns="http://www.w3.org/2000/svg">
<path d="M30.6002 36H5.4002C4.73742 36 4.2002 35.4628 4.2002 34.8V1.2C4.2002 0.537225 4.73742 0 5.4002 0H25.2002L31.8002 6.6V34.8C31.8002 35.4628 31.263 36 30.6002 36Z" fill="#78B9EB"/>
<path d="M25.2002 0V5.4C25.2002 6.06277 25.7374 6.6 26.4002 6.6H31.8002L25.2002 0Z" fill="#679FC9"/>
<path d="M7.7998 3.59961H8.9998V4.79961H7.7998V3.59961Z" fill="white"/>
<path d="M10.2002 3.59961H22.2002V4.79961H10.2002V3.59961Z" fill="white"/>
<path d="M7.7998 6H22.1998V7.2H7.7998V6Z" fill="white"/>
<path d="M8.3998 9.59961H27.5998C27.9312 9.59961 28.1998 9.86826 28.1998 10.1996V14.9996C28.1998 15.331 27.9312 15.5996 27.5998 15.5996H8.3998C8.06845 15.5996 7.7998 15.331 7.7998 14.9996V10.1996C7.7998 9.86826 8.06845 9.59961 8.3998 9.59961Z" fill="#FBB040"/>
<path d="M8.3998 16.8008H13.1998C13.5312 16.8008 13.7998 17.0694 13.7998 17.4008V22.2008C13.7998 22.5321 13.5312 22.8008 13.1998 22.8008H8.3998C8.06845 22.8008 7.7998 22.5321 7.7998 22.2008V17.4008C7.7998 17.0694 8.06845 16.8008 8.3998 16.8008Z" fill="#FFEB99"/>
<path d="M15.6 16.8008H20.4C20.7314 16.8008 21 17.0694 21 17.4008V22.2008C21 22.5321 20.7314 22.8008 20.4 22.8008H15.6C15.2686 22.8008 15 22.5321 15 22.2008V17.4008C15 17.0694 15.2686 16.8008 15.6 16.8008Z" fill="#FFE477"/>
<path d="M22.8002 16.8008H27.6002C27.9315 16.8008 28.2002 17.0694 28.2002 17.4008V22.2008C28.2002 22.5321 27.9315 22.8008 27.6002 22.8008H22.8002C22.4688 22.8008 22.2002 22.5321 22.2002 22.2008V17.4008C22.2002 17.0694 22.4688 16.8008 22.8002 16.8008Z" fill="#FFDA44"/>
<path d="M7.7998 24H8.9998V25.2H7.7998V24Z" fill="white"/>
<path d="M10.2002 24H13.8002V25.2H10.2002V24Z" fill="white"/>
<path d="M15 24H18.6V25.2H15V24Z" fill="white"/>
<path d="M19.7998 24H20.9998V25.2H19.7998V24Z" fill="white"/>
<path d="M22.2002 24H23.4002V25.2H22.2002V24Z" fill="white"/>
<path d="M24.5996 24H28.1996V25.2H24.5996V24Z" fill="white"/>
<path d="M7.7998 26.4004H13.7998V27.6004H7.7998V26.4004Z" fill="white"/>
<path d="M15 26.4004H21V27.6004H15V26.4004Z" fill="white"/>
<path d="M22.2002 26.4004H28.2002V27.6004H22.2002V26.4004Z" fill="white"/>
<path d="M7.7998 28.8008H13.7998V30.0008H7.7998V28.8008Z" fill="white"/>
<path d="M15 28.8008H21V30.0008H15V28.8008Z" fill="white"/>
<path d="M22.2002 28.8008H28.2002V30.0008H22.2002V28.8008Z" fill="white"/>
<path d="M7.7998 31.1992H13.7998V32.3992H7.7998V31.1992Z" fill="white"/>
<path d="M15 31.1992H21V32.3992H15V31.1992Z" fill="white"/>
<path d="M22.2002 31.1992H28.2002V32.3992H22.2002V31.1992Z" fill="white"/>
</svg>
