<svg width="24" height="24" viewBox="0 0 24 24" fill="none" xmlns="http://www.w3.org/2000/svg">
<g clip-path="url(#clip0_734_19641)">
<path d="M16.7802 24H7.21919C6.35706 24 5.6582 23.3011 5.6582 22.439V1.56098C5.65825 0.698859 6.35711 0 7.21919 0H16.7801C17.6423 0 18.3411 0.698859 18.3411 1.56098V22.439C18.3412 23.3011 17.6423 24 16.7802 24Z" fill="#FF9E8F"/>
<path d="M16.78 0H15.5117C16.3738 0 17.0727 0.698859 17.0727 1.56098V22.439C17.0727 23.3011 16.3738 24 15.5117 24H16.78C17.6421 24 18.341 23.3011 18.341 22.439V1.56098C18.341 0.698859 17.6421 0 16.78 0Z" fill="#D06251"/>
<path d="M11.0244 5.95077V2.53616C11.0244 1.99733 11.4612 1.56055 12 1.56055C12.5389 1.56055 12.9756 1.99733 12.9756 2.53616V5.95081L11.0244 5.95077Z" fill="white"/>
<path d="M11.0244 12.3912V5.95217C11.0244 5.41334 11.4612 4.97656 12 4.97656C12.5389 4.97656 12.9756 5.41334 12.9756 5.95217V12.3912C12.9756 12.93 12.5389 13.3668 12 13.3668C11.4612 13.3668 11.0244 12.93 11.0244 12.3912Z" fill="#2985EF"/>
<path d="M15.1907 22.4399L15.7274 22.27L16.2465 19.6696V18.6838V17.6981L15.7274 15.0977L15.1907 14.9277H15.0236H7.70658C7.43719 14.9277 7.21875 15.1461 7.21875 15.4155V21.9521C7.21875 22.2215 7.43714 22.4399 7.70658 22.4399H15.0236H15.1907V22.4399Z" fill="#A2E62E"/>
<path d="M16.2927 14.9277H15.0244C15.2938 14.9277 15.5122 15.1461 15.5122 15.4155V21.9521C15.5122 22.2215 15.2938 22.4399 15.0244 22.4399H16.2927C16.5621 22.4399 16.7805 22.2215 16.7805 21.9521V15.4156C16.7805 15.1461 16.5621 14.9277 16.2927 14.9277Z" fill="#97D729"/>
<path d="M13.8367 21.2301C12.4325 21.2301 11.29 20.0877 11.29 18.6834C11.29 17.2792 12.4325 16.1367 13.8367 16.1367C14.347 16.1367 14.8395 16.2872 15.2608 16.5719C15.4217 16.6806 15.464 16.8991 15.3554 17.06C15.2467 17.2208 15.0282 17.2632 14.8673 17.1545C14.5626 16.9486 14.2062 16.8398 13.8368 16.8398C12.8202 16.8398 11.9932 17.6669 11.9932 18.6834C11.9932 19.7 12.8202 20.527 13.8368 20.527C14.2226 20.527 14.5493 20.4103 14.8077 20.1802C14.858 20.1353 14.906 20.0858 14.9502 20.033C15.075 19.8842 15.2968 19.8647 15.4455 19.9894C15.5943 20.1142 15.6138 20.3359 15.4891 20.4847C15.423 20.5636 15.351 20.6378 15.2753 20.7052C14.8898 21.0486 14.3923 21.2301 13.8367 21.2301Z" fill="#EAF6FF"/>
<path d="M9.56074 18.4008C8.93655 18.4008 8.42871 17.8929 8.42871 17.2687C8.42871 16.6446 8.93655 16.1367 9.56074 16.1367C10.1849 16.1367 10.6928 16.6446 10.6928 17.2687C10.6928 17.8929 10.185 18.4008 9.56074 18.4008ZM9.56074 16.8398C9.32426 16.8398 9.13184 17.0322 9.13184 17.2687C9.13184 17.5052 9.32426 17.6976 9.56074 17.6976C9.79723 17.6976 9.98965 17.5052 9.98965 17.2687C9.98965 17.0322 9.79727 16.8398 9.56074 16.8398Z" fill="#EAF6FF"/>
<path d="M21.1338 13.5613C21.0438 13.5613 20.9539 13.527 20.8852 13.4583C20.7479 13.3211 20.7479 13.0984 20.8852 12.9612C21.7479 12.0985 22.223 10.9496 22.223 9.72597C22.223 8.50235 21.7479 7.35344 20.8852 6.49075C20.7479 6.35346 20.7479 6.13085 20.8852 5.9936C21.0225 5.85635 21.2451 5.85625 21.3824 5.9936C22.3778 6.98904 22.9261 8.31457 22.9261 9.72602C22.9261 11.1374 22.3779 12.463 21.3824 13.4584C21.3138 13.527 21.2238 13.5613 21.1338 13.5613Z" fill="#FD8087"/>
<path d="M20.0303 12.4573C19.9403 12.4573 19.8504 12.423 19.7817 12.3543C19.6444 12.217 19.6444 11.9944 19.7817 11.8571C20.35 11.2888 20.663 10.5319 20.663 9.72568C20.663 8.91952 20.35 8.16258 19.7817 7.59427C19.6444 7.45697 19.6444 7.23436 19.7817 7.09711C19.919 6.95982 20.1416 6.95982 20.2789 7.09711C20.98 7.79822 21.3661 8.73174 21.3661 9.72572C21.3661 10.7197 20.98 11.6532 20.2789 12.3543C20.2102 12.4229 20.1202 12.4573 20.0303 12.4573Z" fill="#FD8087"/>
<path d="M2.86536 13.5614C2.7754 13.5614 2.6854 13.5271 2.61678 13.4584C0.558731 11.4003 0.558731 8.05164 2.61678 5.9936C2.75407 5.8563 2.97668 5.8563 3.11393 5.9936C3.25123 6.13089 3.25123 6.3535 3.11393 6.49075C1.33001 8.27468 1.33001 11.1773 3.11393 12.9612C3.25123 13.0985 3.25123 13.3211 3.11393 13.4583C3.04531 13.5271 2.95536 13.5614 2.86536 13.5614Z" fill="#FD8087"/>
<path d="M3.96866 12.4573C3.8787 12.4573 3.7887 12.423 3.72008 12.3544C3.01897 11.6532 2.63281 10.7197 2.63281 9.72574C2.63281 8.73176 3.01897 7.79824 3.72008 7.09713C3.85737 6.95983 4.07998 6.95979 4.21723 7.09713C4.35453 7.23443 4.35453 7.45704 4.21723 7.59429C3.64892 8.1626 3.33594 8.91954 3.33594 9.72569C3.33594 10.5318 3.64892 11.2888 4.21723 11.8571C4.35453 11.9944 4.35453 12.2171 4.21723 12.3543C4.14861 12.423 4.05861 12.4573 3.96866 12.4573Z" fill="#FD8087"/>
</g>
<defs>
<clipPath id="clip0_734_19641">
<rect width="24" height="24" fill="white"/>
</clipPath>
</defs>
</svg>
