<svg width="30" height="30" viewBox="0 0 30 30" fill="none" xmlns="http://www.w3.org/2000/svg">
<g clip-path="url(#clip0_734_20095)">
<path d="M24.8438 5.625H1.40625C1.14737 5.625 0.9375 5.83487 0.9375 6.09375V24.8438C0.9375 25.1026 1.14737 25.3125 1.40625 25.3125H24.8438C25.1026 25.3125 25.3125 25.1026 25.3125 24.8438V6.09375C25.3125 5.83487 25.1026 5.625 24.8438 5.625Z" fill="#F2D9BB"/>
<path d="M25.2281 5.82656L21.9469 1.13906C21.8578 1.0125 21.7172 0.9375 21.5625 0.9375H4.68748C4.53279 0.9375 4.39217 1.0125 4.30311 1.13906L1.02186 5.82656C0.923419 5.97188 0.909357 6.15469 0.989044 6.31406C1.06873 6.46875 1.22811 6.56719 1.40623 6.56719H24.8437C25.0172 6.56719 25.1765 6.46875 25.2609 6.31406C25.3406 6.15938 25.3312 5.97188 25.2281 5.82656Z" fill="#28345A"/>
<path d="M16.4062 5.625H9.84375C9.58487 5.625 9.375 5.83487 9.375 6.09375V10.7812C9.375 11.0401 9.58487 11.25 9.84375 11.25H16.4062C16.6651 11.25 16.875 11.0401 16.875 10.7812V6.09375C16.875 5.83487 16.6651 5.625 16.4062 5.625Z" fill="#DA4956"/>
<path d="M9.84375 20.625H4.21875C3.96094 20.625 3.75 20.4141 3.75 20.1562C3.75 19.8984 3.96094 19.6875 4.21875 19.6875H9.84375C10.1016 19.6875 10.3125 19.8984 10.3125 20.1562C10.3125 20.4141 10.1016 20.625 9.84375 20.625Z" fill="#F2B05C"/>
<path d="M7.03125 18.75H4.21875C3.96094 18.75 3.75 18.5391 3.75 18.2812C3.75 18.0234 3.96094 17.8125 4.21875 17.8125H7.03125C7.28906 17.8125 7.5 18.0234 7.5 18.2812C7.5 18.5391 7.28906 18.75 7.03125 18.75Z" fill="#F2B05C"/>
<path d="M9.84375 22.5H4.21875C3.96094 22.5 3.75 22.2891 3.75 22.0312C3.75 21.7734 3.96094 21.5625 4.21875 21.5625H9.84375C10.1016 21.5625 10.3125 21.7734 10.3125 22.0312C10.3125 22.2891 10.1016 22.5 9.84375 22.5Z" fill="#F2B05C"/>
<path d="M21.5625 29.0625C25.7046 29.0625 29.0625 25.7046 29.0625 21.5625C29.0625 17.4204 25.7046 14.0625 21.5625 14.0625C17.4204 14.0625 14.0625 17.4204 14.0625 21.5625C14.0625 25.7046 17.4204 29.0625 21.5625 29.0625Z" fill="#DA4956"/>
<path d="M16.8558 5.95781L15.4495 1.27031C15.3886 1.07344 15.2058 0.9375 14.9995 0.9375H11.2495C11.0433 0.9375 10.8605 1.07344 10.7995 1.27031L9.39327 5.95781C9.35108 6.09844 9.37921 6.25312 9.46827 6.37031C9.55733 6.4875 9.69796 6.55781 9.84327 6.55781H16.4058C16.5558 6.55781 16.6917 6.4875 16.7808 6.37031C16.8698 6.25312 16.898 6.09844 16.8558 5.95781Z" fill="#F17456"/>
<path d="M24.8013 22.7719C24.7263 22.6078 24.5575 22.5 24.3747 22.5H22.9684V17.8125C22.9684 17.5547 22.7575 17.3438 22.4997 17.3438H20.6247C20.3669 17.3438 20.1559 17.5547 20.1559 17.8125V22.5H18.7497C18.5669 22.5 18.3981 22.6078 18.3231 22.7719C18.2481 22.9359 18.2716 23.1328 18.3934 23.2734L21.2059 26.5547C21.295 26.6578 21.4263 26.7188 21.5622 26.7188C21.6981 26.7188 21.8294 26.6578 21.9184 26.5547L24.7309 23.2734C24.8481 23.1328 24.8763 22.9406 24.8013 22.7719Z" fill="white"/>
</g>
<defs>
<clipPath id="clip0_734_20095">
<rect width="30" height="30" fill="white"/>
</clipPath>
</defs>
</svg>
