<svg width="36" height="36" viewBox="0 0 36 36" fill="none" xmlns="http://www.w3.org/2000/svg">
<g clip-path="url(#clip0_734_19920)">
<path d="M10.5469 36H25.4531C31.278 36 36 31.278 36 25.4531V10.5469C36 4.722 31.278 0 25.4531 0H10.5469C4.722 0 0 4.722 0 10.5469V25.4531C0 31.278 4.722 36 10.5469 36Z" fill="#2492FF"/>
<path d="M23.0999 16.086L19.7579 12.7441V21.8502C19.7579 22.8213 18.9711 23.608 18.0001 23.608C17.0291 23.608 16.2423 22.8213 16.2423 21.8502V12.7441L12.9004 16.086C12.2141 16.7723 11.1011 16.7723 10.4141 16.086C9.72785 15.3998 9.72785 14.2867 10.4141 13.5998L16.757 7.25688C17.4432 6.57062 18.5563 6.57062 19.2432 7.25688L25.5861 13.5998C26.2724 14.286 26.2724 15.3991 25.5861 16.086C24.8999 16.7723 23.7868 16.7723 23.0999 16.086Z" fill="white"/>
<path d="M8.15625 19.0605C7.18523 19.0605 6.39844 19.8473 6.39844 20.8184V25.7402C6.39844 27.6816 7.97273 29.2559 9.91406 29.2559H26.0859C28.0273 29.2559 29.6016 27.6816 29.6016 25.7402V20.8184C29.6016 19.8473 28.8148 19.0605 27.8438 19.0605C26.8727 19.0605 26.0859 19.8473 26.0859 20.8184V24.8613C26.0859 25.3465 25.6922 25.7402 25.207 25.7402H10.793C10.3078 25.7402 9.91406 25.3465 9.91406 24.8613V20.8184C9.91406 19.8473 9.12727 19.0605 8.15625 19.0605Z" fill="white"/>
</g>
<defs>
<clipPath id="clip0_734_19920">
<rect width="36" height="36" fill="white"/>
</clipPath>
</defs>
</svg>
