<svg width="16" height="16" viewBox="0 0 16 16" fill="none" xmlns="http://www.w3.org/2000/svg">
<g clip-path="url(#clip0_734_20687)">
<path d="M15.6164 5.11271L8.14969 0.0460195C8.05929 -0.0153242 7.94063 -0.0153555 7.85023 0.0460195L0.383539 5.11271C0.310414 5.1623 0.266602 5.24493 0.266602 5.33333V15.7333C0.266602 15.8806 0.386008 16 0.533258 16H15.4666C15.6139 16 15.7333 15.8806 15.7333 15.7333V5.33333C15.7333 5.24493 15.6895 5.1623 15.6164 5.11271Z" fill="#F07B52"/>
<path d="M1.06663 15.7334V5.33336C1.06663 5.24496 1.11045 5.16233 1.18357 5.11271L8.39995 0.215863L8.14966 0.0460195C8.05926 -0.0153242 7.9406 -0.0153555 7.8502 0.0460195L0.383539 5.11271C0.310414 5.16233 0.266602 5.24499 0.266602 5.33336V15.7334C0.266602 15.8806 0.386008 16 0.533258 16H1.33326C1.18601 16 1.06663 15.8807 1.06663 15.7334Z" fill="#E5563C"/>
<path d="M12.8003 6.40039H3.20025C3.05297 6.40039 2.93359 6.5198 2.93359 6.66705V15.7337C2.93359 15.881 3.053 16.0004 3.20025 16.0004H12.8003C12.9475 16.0004 13.0669 15.881 13.0669 15.7337V6.66708C13.0669 6.5198 12.9475 6.40039 12.8003 6.40039Z" fill="#74757B"/>
<path d="M3.20025 6.40039C3.05297 6.40039 2.93359 6.5198 2.93359 6.66705V15.7337C2.93359 15.881 3.053 16.0004 3.20025 16.0004H3.73359V6.40039H3.20025Z" fill="#606268"/>
<path d="M13.3337 5.33398H2.66705C2.51977 5.33398 2.40039 5.45339 2.40039 5.60064V6.6673C2.40039 6.81458 2.5198 6.93395 2.66705 6.93395H13.3337C13.481 6.93395 13.6004 6.81455 13.6004 6.6673V5.60064C13.6004 5.45339 13.481 5.33398 13.3337 5.33398Z" fill="#C3C4C6"/>
<path d="M13.3337 6.39947H2.66705C2.51977 6.39947 2.40039 6.28006 2.40039 6.13281V6.66616C2.40039 6.81344 2.5198 6.93281 2.66705 6.93281H13.3337C13.481 6.93281 13.6004 6.81341 13.6004 6.66616V6.13281C13.6004 6.28013 13.481 6.39947 13.3337 6.39947Z" fill="#AFB0B4"/>
<path d="M9.06699 2.4005H6.93365C6.78637 2.4005 6.66699 2.28109 6.66699 2.13384C6.66699 1.98656 6.7864 1.86719 6.93365 1.86719H9.06699C9.21427 1.86719 9.33365 1.98659 9.33365 2.13384C9.33365 2.28112 9.21424 2.4005 9.06699 2.4005Z" fill="#E5563C"/>
<path d="M9.06699 3.46691H6.93365C6.78637 3.46691 6.66699 3.3475 6.66699 3.20025C6.66699 3.053 6.7864 2.93359 6.93365 2.93359H9.06699C9.21427 2.93359 9.33365 3.053 9.33365 3.20025C9.33365 3.3475 9.21424 3.46691 9.06699 3.46691Z" fill="#E5563C"/>
<path d="M9.06699 4.53331H6.93365C6.78637 4.53331 6.66699 4.41391 6.66699 4.26666C6.66699 4.11937 6.7864 4 6.93365 4H9.06699C9.21427 4 9.33365 4.11941 9.33365 4.26666C9.33365 4.41391 9.21424 4.53331 9.06699 4.53331Z" fill="#E5563C"/>
<path d="M6.40025 8.5332H3.20025C3.05297 8.5332 2.93359 8.65261 2.93359 8.79986V11.9999C2.93359 12.1471 3.053 12.2665 3.20025 12.2665L4.80025 12.5332L6.40025 12.2665C6.54753 12.2665 6.66691 12.1471 6.66691 11.9999V8.79986C6.66694 8.65261 6.54756 8.5332 6.40025 8.5332Z" fill="#FDDD85"/>
<path d="M6.40025 12.2656H3.20025C3.05297 12.2656 2.93359 12.385 2.93359 12.5323V15.7323C2.93359 15.8796 3.053 15.9989 3.20025 15.9989H6.40025C6.54753 15.9989 6.66691 15.8795 6.66691 15.7323V12.5323C6.66694 12.385 6.54756 12.2656 6.40025 12.2656Z" fill="#FDDD85"/>
<path d="M3.46694 15.7342V12.5342C3.46694 12.387 3.58634 12.2676 3.73359 12.2676H3.20025C3.05297 12.2676 2.93359 12.387 2.93359 12.5342V15.7342C2.93359 15.8815 3.053 16.0009 3.20025 16.0009H3.73359C3.58631 16.0009 3.46694 15.8815 3.46694 15.7342Z" fill="#FDD042"/>
<path d="M5.33326 12.2676H4.2666V13.6009C4.2666 13.7482 4.38601 13.8675 4.53326 13.8675H5.0666C5.21388 13.8675 5.33326 13.7481 5.33326 13.6009V12.2676Z" fill="#F2C127"/>
<path d="M5.33331 15.4669H4.26666C4.11937 15.4669 4 15.3475 4 15.2002C4 15.053 4.11941 14.9336 4.26666 14.9336H5.33331C5.48059 14.9336 5.59997 15.053 5.59997 15.2002C5.59997 15.3475 5.48059 15.4669 5.33331 15.4669Z" fill="#74757B"/>
<path d="M3.46694 11.9999V8.79986C3.46694 8.65258 3.58634 8.5332 3.73359 8.5332H3.20025C3.05297 8.5332 2.93359 8.65261 2.93359 8.79986V11.9999C2.93359 12.1471 3.053 12.2665 3.20025 12.2665H3.73359C3.58631 12.2665 3.46694 12.1472 3.46694 11.9999Z" fill="#FDD042"/>
<path d="M5.33326 8.5332H4.2666V9.86655C4.2666 10.0138 4.38601 10.1332 4.53326 10.1332H5.0666C5.21388 10.1332 5.33326 10.0138 5.33326 9.86655V8.5332Z" fill="#F2C127"/>
<path d="M5.33331 11.7325H4.26666C4.11937 11.7325 4 11.6131 4 11.4659C4 11.3186 4.11941 11.1992 4.26666 11.1992H5.33331C5.48059 11.1992 5.59997 11.3186 5.59997 11.4659C5.59997 11.6131 5.48059 11.7325 5.33331 11.7325Z" fill="#74757B"/>
<path d="M10.1336 12.2676H6.93365C6.78637 12.2676 6.66699 12.387 6.66699 12.5342V15.7342C6.66699 15.8815 6.7864 16.0009 6.93365 16.0009H10.1336C10.2809 16.0009 10.4003 15.8815 10.4003 15.7342V12.5342C10.4003 12.387 10.2809 12.2676 10.1336 12.2676Z" fill="#FDDD85"/>
<path d="M7.20034 15.7342V12.5342C7.20034 12.387 7.31974 12.2676 7.46699 12.2676H6.93365C6.78637 12.2676 6.66699 12.387 6.66699 12.5342V15.7342C6.66699 15.8815 6.7864 16.0009 6.93365 16.0009H7.46699C7.31974 16.0009 7.20034 15.8815 7.20034 15.7342Z" fill="#FDD042"/>
<path d="M9.06669 12.2676H8V13.6009C8 13.7482 8.11941 13.8675 8.26666 13.8675H8.8C8.94728 13.8675 9.06666 13.7481 9.06666 13.6009V12.2676H9.06669Z" fill="#F2C127"/>
<path d="M9.06674 15.4669H8.00005C7.85277 15.4669 7.7334 15.3475 7.7334 15.2002C7.7334 15.053 7.8528 14.9336 8.00005 14.9336H9.06671C9.21399 14.9336 9.33337 15.053 9.33337 15.2002C9.33337 15.3475 9.21399 15.4669 9.06674 15.4669Z" fill="#74757B"/>
</g>
<defs>
<clipPath id="clip0_734_20687">
<rect width="16" height="16" fill="white"/>
</clipPath>
</defs>
</svg>
