<svg width="24" height="24" viewBox="0 0 24 24" fill="none" xmlns="http://www.w3.org/2000/svg">
<g clip-path="url(#clip0_734_19590)">
<path d="M11.9999 4.34155C11.1798 4.34155 10.5127 3.67442 10.5127 2.85439C10.5127 2.03436 11.1798 1.36719 11.9999 1.36719C12.8199 1.36719 13.487 2.03431 13.487 2.85434C13.487 3.67438 12.8199 4.34155 11.9999 4.34155ZM11.9999 2.09155C11.5792 2.09155 11.237 2.43378 11.237 2.85439C11.237 3.275 11.5792 3.61723 11.9999 3.61723C12.4205 3.61723 12.7627 3.275 12.7627 2.85439C12.7627 2.43378 12.4205 2.09155 11.9999 2.09155Z" fill="#537983"/>
<path d="M16.0523 14.3828H7.94766C7.6733 14.3828 7.42247 14.5378 7.2998 14.7832L6.75 15.8828L12 16.6328L17.25 15.8828L16.7002 14.7832C16.5775 14.5378 16.3267 14.3828 16.0523 14.3828Z" fill="#62DBFB"/>
<path d="M16.7002 14.7832C16.5775 14.5378 16.3267 14.3828 16.0524 14.3828H15.1831C15.4575 14.3828 15.7083 14.5378 15.831 14.7832L16.3808 15.8828L11.5654 16.5707L12.0001 16.6328L17.2501 15.8828L16.7002 14.7832Z" fill="#01D0FB"/>
<path d="M23.5171 15.8828H0.482906C0.216187 15.8828 0 16.099 0 16.3657V22.1499C0 22.4166 0.216187 22.6328 0.482906 22.6328H23.5171C23.7838 22.6328 24 22.4166 24 22.1499V16.3657C24 16.099 23.7838 15.8828 23.5171 15.8828ZM13.5 21.1328C13.0454 21.1328 12.6286 20.971 12.304 20.7019C12.1283 20.5562 11.8717 20.5562 11.696 20.7019C11.3714 20.971 10.9546 21.1328 10.5 21.1328C9.42042 21.1328 8.55398 20.2204 8.62959 19.1247C8.69339 18.2005 9.44184 17.4517 10.366 17.3875C10.8734 17.3523 11.3415 17.519 11.6979 17.8154C11.8718 17.9599 12.1282 17.9599 12.302 17.8154C12.6585 17.519 13.1266 17.3523 13.6339 17.3875C14.5581 17.4517 15.3066 18.2005 15.3704 19.1247C15.446 20.2204 14.5796 21.1328 13.5 21.1328Z" fill="#CBE5E8"/>
<path d="M23.5171 15.8828H23.2756V21.4255C23.2756 21.6923 23.0595 21.9085 22.7927 21.9085H0V22.1499C0 22.4166 0.216187 22.6328 0.482906 22.6328H23.5171C23.7838 22.6328 24 22.4166 24 22.1499V16.3657C24 16.099 23.7838 15.8828 23.5171 15.8828Z" fill="#A8D3D8"/>
<path d="M15.2792 9.13286H8.71992C8.3858 9.13286 8.1406 8.81884 8.22164 8.49466L9.27732 4.27188C9.33446 4.04322 9.53991 3.88281 9.7756 3.88281H14.2236C14.4593 3.88281 14.6647 4.04322 14.7218 4.27188L15.7775 8.49466C15.8586 8.81884 15.6134 9.13286 15.2792 9.13286Z" fill="#678D98"/>
<path d="M15.7776 8.49466L14.7219 4.27188C14.6648 4.04322 14.4593 3.88281 14.2236 3.88281H13.9365L14.9084 7.7703C14.9894 8.09448 14.7442 8.4085 14.4101 8.4085H8.24321L8.22164 8.49466C8.1406 8.81884 8.3858 9.13286 8.71993 9.13286H15.2793C15.6135 9.13286 15.8586 8.81884 15.7776 8.49466Z" fill="#537983"/>
<path d="M14.6519 12.1841C14.5592 12.1841 14.4665 12.1487 14.3957 12.078C13.0748 10.7571 10.9255 10.7571 9.60463 12.078C9.46321 12.2194 9.2339 12.2194 9.09243 12.078C8.95096 11.9365 8.95096 11.7072 9.09243 11.5657C10.6957 9.96246 13.3046 9.96246 14.9079 11.5657C15.0494 11.7072 15.0494 11.9365 14.9079 12.078C14.8372 12.1487 14.7445 12.1841 14.6519 12.1841Z" fill="#6CF5C2"/>
<path d="M10.4091 13.2447C10.3164 13.2447 10.2237 13.2094 10.153 13.1387C10.0115 12.9972 10.0115 12.7679 10.153 12.6264C10.6463 12.1331 11.3023 11.8613 12 11.8613C12.6978 11.8613 13.3537 12.1331 13.8471 12.6265C13.9885 12.7679 13.9885 12.9972 13.8471 13.1387C13.7057 13.2801 13.4763 13.28 13.3349 13.1386C12.9783 12.782 12.5043 12.5857 12 12.5857C11.4958 12.5857 11.0217 12.782 10.6651 13.1387C10.5944 13.2094 10.5017 13.2447 10.4091 13.2447Z" fill="#6CF5C2"/>
<path d="M11.8946 7.99636C11.4499 7.99636 11.4142 7.98445 11.3668 7.9687C11.2511 7.93003 11.1611 7.83853 11.1258 7.72378C11.0662 7.53005 11.1603 7.40691 11.3026 7.22053C11.4142 7.07447 11.6218 6.8025 11.97 6.30511C12.0808 6.14672 12.1264 6.03572 12.1447 5.96705L12.1493 5.931C12.1405 5.82745 12.0534 5.7458 11.9476 5.7458C11.851 5.7458 11.7674 5.81428 11.7489 5.90864C11.7103 6.10491 11.5199 6.2325 11.3237 6.19425C11.1274 6.15572 10.9996 5.96536 11.0381 5.76909C11.1232 5.33592 11.5056 5.02148 11.9476 5.02148C12.4586 5.02148 12.8744 5.43727 12.8744 5.94834C12.8744 5.96367 12.8734 5.979 12.8715 5.99419L12.8606 6.07955C12.8591 6.09169 12.857 6.10364 12.8542 6.11555C12.81 6.30628 12.7149 6.50419 12.5635 6.72047C12.4057 6.94594 12.2759 7.12636 12.1703 7.2705C12.3102 7.26961 12.4588 7.26825 12.6013 7.26642C12.6028 7.26637 12.6044 7.26638 12.6059 7.26638C12.8038 7.26638 12.9655 7.42552 12.968 7.62403C12.9705 7.82405 12.8104 7.9882 12.6104 7.99069C12.2959 7.99462 12.0651 7.99636 11.8946 7.99636Z" fill="#7CA1B1"/>
<path d="M19.006 7.37752C18.8645 7.23614 18.6353 7.23614 18.4938 7.37752L18.362 7.50923V4.63364C18.362 4.43358 18.1999 4.27148 17.9999 4.27148C17.7999 4.27148 17.6377 4.43362 17.6377 4.63364V7.50923L17.506 7.37752C17.3645 7.23614 17.1353 7.23614 16.9938 7.37752C16.8523 7.51898 16.8523 7.74825 16.9938 7.88977L17.7438 8.63977C17.8145 8.71045 17.9072 8.74584 17.9999 8.74584C18.0926 8.74584 18.1853 8.71045 18.256 8.63977L19.006 7.88977C19.1474 7.7483 19.1474 7.51898 19.006 7.37752Z" fill="#FD8087"/>
<path d="M6.49375 7.37752L6.36203 7.50923V4.63364C6.36203 4.43358 6.19989 4.27148 5.99988 4.27148C5.79986 4.27148 5.63772 4.43362 5.63772 4.63364V7.50928L5.506 7.37756C5.36458 7.23619 5.13527 7.23619 4.9938 7.37756C4.85233 7.51903 4.85233 7.7483 4.9938 7.88981L5.7438 8.63981C5.81453 8.7105 5.9072 8.74589 5.99988 8.74589C6.09255 8.74589 6.18527 8.7105 6.25595 8.63981L7.00595 7.88981C7.14742 7.74834 7.14742 7.51908 7.00595 7.37756C6.86448 7.23614 6.63517 7.23614 6.49375 7.37752Z" fill="#FD8087"/>
<path d="M1.49985 17.7458C1.69986 17.7458 1.86201 17.5837 1.86201 17.3836C1.86201 17.1836 1.69986 17.0215 1.49985 17.0215C1.29984 17.0215 1.1377 17.1836 1.1377 17.3836C1.1377 17.5837 1.29984 17.7458 1.49985 17.7458Z" fill="#A8D3D8"/>
<path d="M1.49985 21.4958C1.69986 21.4958 1.86201 21.3337 1.86201 21.1336C1.86201 20.9336 1.69986 20.7715 1.49985 20.7715C1.29984 20.7715 1.1377 20.9336 1.1377 21.1336C1.1377 21.3337 1.29984 21.4958 1.49985 21.4958Z" fill="#A8D3D8"/>
<path d="M22.4999 17.7458C22.6999 17.7458 22.862 17.5837 22.862 17.3836C22.862 17.1836 22.6999 17.0215 22.4999 17.0215C22.2998 17.0215 22.1377 17.1836 22.1377 17.3836C22.1377 17.5837 22.2998 17.7458 22.4999 17.7458Z" fill="#A8D3D8"/>
<path d="M22.4999 21.4958C22.6999 21.4958 22.862 21.3337 22.862 21.1336C22.862 20.9336 22.6999 20.7715 22.4999 20.7715C22.2998 20.7715 22.1377 20.9336 22.1377 21.1336C22.1377 21.3337 22.2998 21.4958 22.4999 21.4958Z" fill="#A8D3D8"/>
</g>
<defs>
<clipPath id="clip0_734_19590">
<rect width="24" height="24" fill="white"/>
</clipPath>
</defs>
</svg>
