<svg width="814" height="545" viewBox="0 0 814 545" fill="none" xmlns="http://www.w3.org/2000/svg">
<g clip-path="url(#clip0_732_17045)">
<path d="M158.051 194.733C158.28 194.915 158.501 195.107 158.715 195.311C159.78 196.314 160.621 197.53 161.182 198.88C161.744 200.23 162.014 201.684 161.974 203.146C161.935 204.608 161.587 206.045 160.954 207.363C160.32 208.681 159.415 209.85 158.298 210.794C158.038 211.013 157.766 211.218 157.485 211.408L159.053 264.353C159.097 266.086 158.582 267.787 157.583 269.205C156.584 270.622 155.155 271.679 153.508 272.22L153.412 272.24L110.424 276.818C109.255 276.943 108.073 276.834 106.946 276.499C105.82 276.164 104.771 275.609 103.86 274.867C102.949 274.124 102.194 273.208 101.639 272.172C101.084 271.136 100.739 270.001 100.626 268.831C100.512 267.661 100.631 266.48 100.976 265.357C101.321 264.233 101.886 263.189 102.637 262.285C103.387 261.381 104.31 260.634 105.351 260.088C106.392 259.543 107.531 259.209 108.701 259.105L139.346 256.407L144.645 210.556C144.299 210.249 143.974 209.918 143.674 209.566C142.012 207.599 141.141 205.085 141.228 202.512C141.316 199.939 142.357 197.49 144.149 195.642C145.941 193.793 148.356 192.676 150.925 192.508C153.494 192.34 156.034 193.133 158.051 194.733Z" fill="#FFB8B8"/>
<path d="M644.526 378.801H131.688C127.313 378.796 123.119 377.056 120.026 373.963C116.932 370.869 115.192 366.675 115.188 362.301V54.147C115.191 50.9421 116.466 47.8695 118.732 45.6033C120.998 43.3371 124.071 42.0623 127.275 42.0586H648.729C651.989 42.0623 655.115 43.3591 657.42 45.6645C659.726 47.9699 661.022 51.0957 661.026 54.356V362.301C661.021 366.675 659.281 370.869 656.188 373.963C653.094 377.056 648.901 378.796 644.526 378.801Z" fill="#F2F2F2"/>
<path d="M147.688 362.3H628.526C632.769 362.3 636.839 360.614 639.84 357.614C642.84 354.613 644.526 350.543 644.526 346.3V84.752C644.526 80.5085 642.84 76.4388 639.84 73.4382C636.839 70.4377 632.769 68.752 628.526 68.752H147.688C143.444 68.752 139.374 70.4377 136.374 73.4382C133.373 76.4388 131.688 80.5085 131.688 84.752V346.3C131.688 350.543 133.373 354.613 136.374 357.614C139.374 360.614 143.444 362.3 147.688 362.3Z" fill="white"/>
<rect x="537.5" y="90.5" width="99" height="246" stroke="#D6D6D6"/>
<path d="M636 91H538V336H636V91Z" fill="white"/>
<path d="M621.104 123H570.144V129H621.104V123Z" fill="#E6E6E6"/>
<path d="M621.104 153H570.144V159H621.104V153Z" fill="#3E3D53"/>
<path d="M621.104 183H570.144V189H621.104V183Z" fill="#E6E6E6"/>
<path d="M621.104 213H570.144V219H621.104V213Z" fill="#3E3D53"/>
<path d="M621.104 243H570.144V249H621.104V243Z" fill="#E6E6E6"/>
<path d="M621.104 273H570.144V279H621.104V273Z" fill="#3E3D53"/>
<path d="M621.104 303H570.144V309H621.104V303Z" fill="#E6E6E6"/>
<path d="M558.976 120H548.976V130H558.976V120Z" fill="#E6E6E6"/>
<path d="M558.976 150H548.976V160H558.976V150Z" fill="#3E3D53"/>
<path d="M558.976 180H548.976V190H558.976V180Z" fill="#E6E6E6"/>
<path d="M558.976 210H548.976V220H558.976V210Z" fill="#3E3D53"/>
<path d="M558.976 240H548.976V250H558.976V240Z" fill="#E6E6E6"/>
<path d="M558.976 270H548.976V280H558.976V270Z" fill="#3E3D53"/>
<path d="M558.976 300H548.976V310H558.976V300Z" fill="#E6E6E6"/>
<rect x="139.5" y="90.5" width="99" height="246" stroke="#D6D6D6"/>
<path d="M238 91H140V336H238V91Z" fill="white"/>
<path d="M176 114H155C152.239 114 150 116.239 150 119V138C150 140.761 152.239 143 155 143H176C178.761 143 181 140.761 181 138V119C181 116.239 178.761 114 176 114Z" fill="#E6E6E6"/>
<path d="M176 202H155C152.239 202 150 204.239 150 207V226C150 228.761 152.239 231 155 231H176C178.761 231 181 228.761 181 226V207C181 204.239 178.761 202 176 202Z" fill="#E6E6E6"/>
<path d="M176 287H155C152.239 287 150 289.239 150 292V311C150 313.761 152.239 316 155 316H176C178.761 316 181 313.761 181 311V292C181 289.239 178.761 287 176 287Z" fill="#E6E6E6"/>
<path d="M176 156H155C152.239 156 150 158.239 150 161V180C150 182.761 152.239 185 155 185H176C178.761 185 181 182.761 181 180V161C181 158.239 178.761 156 176 156Z" fill="#3E3D53"/>
<path d="M176 244H155C152.239 244 150 246.239 150 249V268C150 270.761 152.239 273 155 273H176C178.761 273 181 270.761 181 268V249C181 246.239 178.761 244 176 244Z" fill="#3E3D53"/>
<path d="M221 114H200C197.239 114 195 116.239 195 119V138C195 140.761 197.239 143 200 143H221C223.761 143 226 140.761 226 138V119C226 116.239 223.761 114 221 114Z" fill="#3E3D53"/>
<path d="M221 202H200C197.239 202 195 204.239 195 207V226C195 228.761 197.239 231 200 231H221C223.761 231 226 228.761 226 226V207C226 204.239 223.761 202 221 202Z" fill="#3E3D53"/>
<path d="M221 287H200C197.239 287 195 289.239 195 292V311C195 313.761 197.239 316 200 316H221C223.761 316 226 313.761 226 311V292C226 289.239 223.761 287 221 287Z" fill="#3E3D53"/>
<path d="M221 156H200C197.239 156 195 158.239 195 161V180C195 182.761 197.239 185 200 185H221C223.761 185 226 182.761 226 180V161C226 158.239 223.761 156 221 156Z" fill="#E6E6E6"/>
<path d="M221 244H200C197.239 244 195 246.239 195 249V268C195 270.761 197.239 273 200 273H221C223.761 273 226 270.761 226 268V249C226 246.239 223.761 244 221 244Z" fill="#E6E6E6"/>
<rect x="247" y="94" width="5" height="5" fill="#F1F1F1"/>
<rect x="254.771" y="94" width="5" height="5" fill="#F1F1F1"/>
<rect x="262.543" y="94" width="5" height="5" fill="#F1F1F1"/>
<rect x="270.314" y="94" width="5" height="5" fill="#F1F1F1"/>
<rect x="278.086" y="94" width="5" height="5" fill="#F1F1F1"/>
<rect x="285.857" y="94" width="5" height="5" fill="#F1F1F1"/>
<rect x="293.629" y="94" width="5" height="5" fill="#F1F1F1"/>
<rect x="301.4" y="94" width="5" height="5" fill="#F1F1F1"/>
<rect x="309.172" y="94" width="5" height="5" fill="#F1F1F1"/>
<rect x="316.942" y="94" width="5" height="5" fill="#F1F1F1"/>
<rect x="324.714" y="94" width="5" height="5" fill="#F1F1F1"/>
<rect x="332.485" y="94" width="5" height="5" fill="#F1F1F1"/>
<rect x="340.257" y="94" width="5" height="5" fill="#F1F1F1"/>
<rect x="348.028" y="94" width="5" height="5" fill="#F1F1F1"/>
<rect x="355.8" y="94" width="5" height="5" fill="#F1F1F1"/>
<rect x="363.571" y="94" width="5" height="5" fill="#F1F1F1"/>
<rect x="371.343" y="94" width="5" height="5" fill="#F1F1F1"/>
<rect x="379.114" y="94" width="5" height="5" fill="#F1F1F1"/>
<rect x="386.886" y="94" width="5" height="5" fill="#F1F1F1"/>
<rect x="394.657" y="94" width="5" height="5" fill="#F1F1F1"/>
<rect x="402.429" y="94" width="5" height="5" fill="#F1F1F1"/>
<rect x="410.2" y="94" width="5" height="5" fill="#F1F1F1"/>
<rect x="417.972" y="94" width="5" height="5" fill="#F1F1F1"/>
<rect x="425.743" y="94" width="5" height="5" fill="#F1F1F1"/>
<rect x="433.515" y="94" width="5" height="5" fill="#F1F1F1"/>
<rect x="441.286" y="94" width="5" height="5" fill="#F1F1F1"/>
<rect x="449.057" y="94" width="5" height="5" fill="#F1F1F1"/>
<rect x="456.828" y="94" width="5" height="5" fill="#F1F1F1"/>
<rect x="464.6" y="94" width="5" height="5" fill="#F1F1F1"/>
<rect x="472.371" y="94" width="5" height="5" fill="#F1F1F1"/>
<rect x="480.143" y="94" width="5" height="5" fill="#F1F1F1"/>
<rect x="487.914" y="94" width="5" height="5" fill="#F1F1F1"/>
<rect x="495.686" y="94" width="5" height="5" fill="#F1F1F1"/>
<rect x="503.457" y="94" width="5" height="5" fill="#F1F1F1"/>
<rect x="511.229" y="94" width="5" height="5" fill="#F1F1F1"/>
<rect x="519" y="94" width="5" height="5" fill="#F1F1F1"/>
<rect x="247" y="103.6" width="5" height="5" fill="#F1F1F1"/>
<rect x="254.771" y="103.6" width="5" height="5" fill="#F1F1F1"/>
<rect x="262.543" y="103.6" width="5" height="5" fill="#F1F1F1"/>
<rect x="270.314" y="103.6" width="5" height="5" fill="#F1F1F1"/>
<rect x="278.086" y="103.6" width="5" height="5" fill="#F1F1F1"/>
<rect x="285.857" y="103.6" width="5" height="5" fill="#F1F1F1"/>
<rect x="293.629" y="103.6" width="5" height="5" fill="#F1F1F1"/>
<rect x="301.4" y="103.6" width="5" height="5" fill="#F1F1F1"/>
<rect x="309.172" y="103.6" width="5" height="5" fill="#F1F1F1"/>
<rect x="316.942" y="103.6" width="5" height="5" fill="#F1F1F1"/>
<rect x="324.714" y="103.6" width="5" height="5" fill="#F1F1F1"/>
<rect x="332.485" y="103.6" width="5" height="5" fill="#F1F1F1"/>
<rect x="340.257" y="103.6" width="5" height="5" fill="#F1F1F1"/>
<rect x="348.028" y="103.6" width="5" height="5" fill="#F1F1F1"/>
<rect x="355.8" y="103.6" width="5" height="5" fill="#F1F1F1"/>
<rect x="363.571" y="103.6" width="5" height="5" fill="#F1F1F1"/>
<rect x="371.343" y="103.6" width="5" height="5" fill="#F1F1F1"/>
<rect x="379.114" y="103.6" width="5" height="5" fill="#F1F1F1"/>
<rect x="386.886" y="103.6" width="5" height="5" fill="#F1F1F1"/>
<rect x="394.657" y="103.6" width="5" height="5" fill="#F1F1F1"/>
<rect x="402.429" y="103.6" width="5" height="5" fill="#F1F1F1"/>
<rect x="410.2" y="103.6" width="5" height="5" fill="#F1F1F1"/>
<rect x="417.972" y="103.6" width="5" height="5" fill="#F1F1F1"/>
<rect x="425.743" y="103.6" width="5" height="5" fill="#F1F1F1"/>
<rect x="433.515" y="103.6" width="5" height="5" fill="#F1F1F1"/>
<rect x="441.286" y="103.6" width="5" height="5" fill="#F1F1F1"/>
<rect x="449.057" y="103.6" width="5" height="5" fill="#F1F1F1"/>
<rect x="456.828" y="103.6" width="5" height="5" fill="#F1F1F1"/>
<rect x="464.6" y="103.6" width="5" height="5" fill="#F1F1F1"/>
<rect x="472.371" y="103.6" width="5" height="5" fill="#F1F1F1"/>
<rect x="480.143" y="103.6" width="5" height="5" fill="#F1F1F1"/>
<rect x="487.914" y="103.6" width="5" height="5" fill="#F1F1F1"/>
<rect x="495.686" y="103.6" width="5" height="5" fill="#F1F1F1"/>
<rect x="503.457" y="103.6" width="5" height="5" fill="#F1F1F1"/>
<rect x="511.229" y="103.6" width="5" height="5" fill="#F1F1F1"/>
<rect x="519" y="103.6" width="5" height="5" fill="#F1F1F1"/>
<rect x="247" y="113.199" width="5" height="5" fill="#F1F1F1"/>
<rect x="254.771" y="113.199" width="5" height="5" fill="#F1F1F1"/>
<rect x="262.543" y="113.199" width="5" height="5" fill="#F1F1F1"/>
<rect x="270.314" y="113.199" width="5" height="5" fill="#F1F1F1"/>
<rect x="278.086" y="113.199" width="5" height="5" fill="#F1F1F1"/>
<rect x="285.857" y="113.199" width="5" height="5" fill="#F1F1F1"/>
<rect x="293.629" y="113.199" width="5" height="5" fill="#F1F1F1"/>
<rect x="301.4" y="113.199" width="5" height="5" fill="#F1F1F1"/>
<rect x="309.172" y="113.199" width="5" height="5" fill="#F1F1F1"/>
<rect x="316.942" y="113.199" width="5" height="5" fill="#F1F1F1"/>
<rect x="324.714" y="113.199" width="5" height="5" fill="#F1F1F1"/>
<rect x="332.485" y="113.199" width="5" height="5" fill="#F1F1F1"/>
<rect x="340.257" y="113.199" width="5" height="5" fill="#F1F1F1"/>
<rect x="348.028" y="113.199" width="5" height="5" fill="#F1F1F1"/>
<rect x="355.8" y="113.199" width="5" height="5" fill="#F1F1F1"/>
<rect x="363.571" y="113.199" width="5" height="5" fill="#F1F1F1"/>
<rect x="371.343" y="113.199" width="5" height="5" fill="#F1F1F1"/>
<rect x="379.114" y="113.199" width="5" height="5" fill="#F1F1F1"/>
<rect x="386.886" y="113.199" width="5" height="5" fill="#F1F1F1"/>
<rect x="394.657" y="113.199" width="5" height="5" fill="#F1F1F1"/>
<rect x="402.429" y="113.199" width="5" height="5" fill="#F1F1F1"/>
<rect x="410.2" y="113.199" width="5" height="5" fill="#F1F1F1"/>
<rect x="417.972" y="113.199" width="5" height="5" fill="#F1F1F1"/>
<rect x="425.743" y="113.199" width="5" height="5" fill="#F1F1F1"/>
<rect x="433.515" y="113.199" width="5" height="5" fill="#F1F1F1"/>
<rect x="441.286" y="113.199" width="5" height="5" fill="#F1F1F1"/>
<rect x="449.057" y="113.199" width="5" height="5" fill="#F1F1F1"/>
<rect x="456.828" y="113.199" width="5" height="5" fill="#F1F1F1"/>
<rect x="464.6" y="113.199" width="5" height="5" fill="#F1F1F1"/>
<rect x="472.371" y="113.199" width="5" height="5" fill="#F1F1F1"/>
<rect x="480.143" y="113.199" width="5" height="5" fill="#F1F1F1"/>
<rect x="487.914" y="113.199" width="5" height="5" fill="#F1F1F1"/>
<rect x="495.686" y="113.199" width="5" height="5" fill="#F1F1F1"/>
<rect x="503.457" y="113.199" width="5" height="5" fill="#F1F1F1"/>
<rect x="511.229" y="113.199" width="5" height="5" fill="#F1F1F1"/>
<rect x="519" y="113.199" width="5" height="5" fill="#F1F1F1"/>
<rect x="247" y="122.801" width="5" height="5" fill="#F1F1F1"/>
<rect x="254.771" y="122.801" width="5" height="5" fill="#F1F1F1"/>
<rect x="262.543" y="122.801" width="5" height="5" fill="#F1F1F1"/>
<rect x="270.314" y="122.801" width="5" height="5" fill="#F1F1F1"/>
<rect x="278.086" y="122.801" width="5" height="5" fill="#F1F1F1"/>
<rect x="285.857" y="122.801" width="5" height="5" fill="#F1F1F1"/>
<rect x="293.629" y="122.801" width="5" height="5" fill="#F1F1F1"/>
<rect x="301.4" y="122.801" width="5" height="5" fill="#F1F1F1"/>
<rect x="309.172" y="122.801" width="5" height="5" fill="#F1F1F1"/>
<rect x="316.942" y="122.801" width="5" height="5" fill="#F1F1F1"/>
<rect x="324.714" y="122.801" width="5" height="5" fill="#F1F1F1"/>
<rect x="332.485" y="122.801" width="5" height="5" fill="#F1F1F1"/>
<rect x="340.257" y="122.801" width="5" height="5" fill="#F1F1F1"/>
<rect x="348.028" y="122.801" width="5" height="5" fill="#F1F1F1"/>
<rect x="355.8" y="122.801" width="5" height="5" fill="#F1F1F1"/>
<rect x="363.571" y="122.801" width="5" height="5" fill="#F1F1F1"/>
<rect x="371.343" y="122.801" width="5" height="5" fill="#F1F1F1"/>
<rect x="379.114" y="122.801" width="5" height="5" fill="#F1F1F1"/>
<rect x="386.886" y="122.801" width="5" height="5" fill="#F1F1F1"/>
<rect x="394.657" y="122.801" width="5" height="5" fill="#F1F1F1"/>
<rect x="402.429" y="122.801" width="5" height="5" fill="#F1F1F1"/>
<rect x="410.2" y="122.801" width="5" height="5" fill="#F1F1F1"/>
<rect x="417.972" y="122.801" width="5" height="5" fill="#F1F1F1"/>
<rect x="425.743" y="122.801" width="5" height="5" fill="#F1F1F1"/>
<rect x="433.515" y="122.801" width="5" height="5" fill="#F1F1F1"/>
<rect x="441.286" y="122.801" width="5" height="5" fill="#F1F1F1"/>
<rect x="449.057" y="122.801" width="5" height="5" fill="#F1F1F1"/>
<rect x="456.828" y="122.801" width="5" height="5" fill="#F1F1F1"/>
<rect x="464.6" y="122.801" width="5" height="5" fill="#F1F1F1"/>
<rect x="472.371" y="122.801" width="5" height="5" fill="#F1F1F1"/>
<rect x="480.143" y="122.801" width="5" height="5" fill="#F1F1F1"/>
<rect x="487.914" y="122.801" width="5" height="5" fill="#F1F1F1"/>
<rect x="495.686" y="122.801" width="5" height="5" fill="#F1F1F1"/>
<rect x="503.457" y="122.801" width="5" height="5" fill="#F1F1F1"/>
<rect x="511.229" y="122.801" width="5" height="5" fill="#F1F1F1"/>
<rect x="519" y="122.801" width="5" height="5" fill="#F1F1F1"/>
<rect x="247" y="132.4" width="5" height="5" fill="#F1F1F1"/>
<rect x="254.771" y="132.4" width="5" height="5" fill="#F1F1F1"/>
<rect x="262.543" y="132.4" width="5" height="5" fill="#F1F1F1"/>
<rect x="270.314" y="132.4" width="5" height="5" fill="#F1F1F1"/>
<rect x="278.086" y="132.4" width="5" height="5" fill="#F1F1F1"/>
<rect x="285.857" y="132.4" width="5" height="5" fill="#F1F1F1"/>
<rect x="293.629" y="132.4" width="5" height="5" fill="#F1F1F1"/>
<rect x="301.4" y="132.4" width="5" height="5" fill="#F1F1F1"/>
<rect x="309.172" y="132.4" width="5" height="5" fill="#F1F1F1"/>
<rect x="316.942" y="132.4" width="5" height="5" fill="#F1F1F1"/>
<rect x="324.714" y="132.4" width="5" height="5" fill="#F1F1F1"/>
<rect x="332.485" y="132.4" width="5" height="5" fill="#F1F1F1"/>
<rect x="340.257" y="132.4" width="5" height="5" fill="#F1F1F1"/>
<rect x="348.028" y="132.4" width="5" height="5" fill="#F1F1F1"/>
<rect x="355.8" y="132.4" width="5" height="5" fill="#F1F1F1"/>
<rect x="363.571" y="132.4" width="5" height="5" fill="#F1F1F1"/>
<rect x="371.343" y="132.4" width="5" height="5" fill="#F1F1F1"/>
<rect x="379.114" y="132.4" width="5" height="5" fill="#F1F1F1"/>
<rect x="386.886" y="132.4" width="5" height="5" fill="#F1F1F1"/>
<rect x="394.657" y="132.4" width="5" height="5" fill="#F1F1F1"/>
<rect x="402.429" y="132.4" width="5" height="5" fill="#F1F1F1"/>
<rect x="410.2" y="132.4" width="5" height="5" fill="#F1F1F1"/>
<rect x="417.972" y="132.4" width="5" height="5" fill="#F1F1F1"/>
<rect x="425.743" y="132.4" width="5" height="5" fill="#F1F1F1"/>
<rect x="433.515" y="132.4" width="5" height="5" fill="#F1F1F1"/>
<rect x="441.286" y="132.4" width="5" height="5" fill="#F1F1F1"/>
<rect x="449.057" y="132.4" width="5" height="5" fill="#F1F1F1"/>
<rect x="456.828" y="132.4" width="5" height="5" fill="#F1F1F1"/>
<rect x="464.6" y="132.4" width="5" height="5" fill="#F1F1F1"/>
<rect x="472.371" y="132.4" width="5" height="5" fill="#F1F1F1"/>
<rect x="480.143" y="132.4" width="5" height="5" fill="#F1F1F1"/>
<rect x="487.914" y="132.4" width="5" height="5" fill="#F1F1F1"/>
<rect x="495.686" y="132.4" width="5" height="5" fill="#F1F1F1"/>
<rect x="503.457" y="132.4" width="5" height="5" fill="#F1F1F1"/>
<rect x="511.229" y="132.4" width="5" height="5" fill="#F1F1F1"/>
<rect x="519" y="132.4" width="5" height="5" fill="#F1F1F1"/>
<rect x="247" y="142" width="5" height="5" fill="#F1F1F1"/>
<rect x="254.771" y="142" width="5" height="5" fill="#F1F1F1"/>
<rect x="262.543" y="142" width="5" height="5" fill="#F1F1F1"/>
<rect x="270.314" y="142" width="5" height="5" fill="#F1F1F1"/>
<rect x="278.086" y="142" width="5" height="5" fill="#F1F1F1"/>
<rect x="285.857" y="142" width="5" height="5" fill="#F1F1F1"/>
<rect x="293.629" y="142" width="5" height="5" fill="#F1F1F1"/>
<rect x="301.4" y="142" width="5" height="5" fill="#F1F1F1"/>
<rect x="309.172" y="142" width="5" height="5" fill="#F1F1F1"/>
<rect x="316.942" y="142" width="5" height="5" fill="#F1F1F1"/>
<rect x="324.714" y="142" width="5" height="5" fill="#F1F1F1"/>
<rect x="332.485" y="142" width="5" height="5" fill="#F1F1F1"/>
<rect x="340.257" y="142" width="5" height="5" fill="#F1F1F1"/>
<rect x="348.028" y="142" width="5" height="5" fill="#F1F1F1"/>
<rect x="355.8" y="142" width="5" height="5" fill="#F1F1F1"/>
<rect x="363.571" y="142" width="5" height="5" fill="#F1F1F1"/>
<rect x="371.343" y="142" width="5" height="5" fill="#F1F1F1"/>
<rect x="379.114" y="142" width="5" height="5" fill="#F1F1F1"/>
<rect x="386.886" y="142" width="5" height="5" fill="#F1F1F1"/>
<rect x="394.657" y="142" width="5" height="5" fill="#F1F1F1"/>
<rect x="402.429" y="142" width="5" height="5" fill="#F1F1F1"/>
<rect x="410.2" y="142" width="5" height="5" fill="#F1F1F1"/>
<rect x="417.972" y="142" width="5" height="5" fill="#F1F1F1"/>
<rect x="425.743" y="142" width="5" height="5" fill="#F1F1F1"/>
<rect x="433.515" y="142" width="5" height="5" fill="#F1F1F1"/>
<rect x="441.286" y="142" width="5" height="5" fill="#F1F1F1"/>
<rect x="449.057" y="142" width="5" height="5" fill="#F1F1F1"/>
<rect x="456.828" y="142" width="5" height="5" fill="#F1F1F1"/>
<rect x="464.6" y="142" width="5" height="5" fill="#F1F1F1"/>
<rect x="472.371" y="142" width="5" height="5" fill="#F1F1F1"/>
<rect x="480.143" y="142" width="5" height="5" fill="#F1F1F1"/>
<rect x="487.914" y="142" width="5" height="5" fill="#F1F1F1"/>
<rect x="495.686" y="142" width="5" height="5" fill="#F1F1F1"/>
<rect x="503.457" y="142" width="5" height="5" fill="#F1F1F1"/>
<rect x="511.229" y="142" width="5" height="5" fill="#F1F1F1"/>
<rect x="519" y="142" width="5" height="5" fill="#F1F1F1"/>
<rect x="247" y="151.6" width="5" height="5" fill="#F1F1F1"/>
<rect x="254.771" y="151.6" width="5" height="5" fill="#F1F1F1"/>
<rect x="262.543" y="151.6" width="5" height="5" fill="#F1F1F1"/>
<rect x="270.314" y="151.6" width="5" height="5" fill="#F1F1F1"/>
<rect x="278.086" y="151.6" width="5" height="5" fill="#F1F1F1"/>
<rect x="285.857" y="151.6" width="5" height="5" fill="#F1F1F1"/>
<rect x="293.629" y="151.6" width="5" height="5" fill="#F1F1F1"/>
<rect x="301.4" y="151.6" width="5" height="5" fill="#F1F1F1"/>
<rect x="309.172" y="151.6" width="5" height="5" fill="#F1F1F1"/>
<rect x="316.942" y="151.6" width="5" height="5" fill="#F1F1F1"/>
<rect x="324.714" y="151.6" width="5" height="5" fill="#F1F1F1"/>
<rect x="332.485" y="151.6" width="5" height="5" fill="#F1F1F1"/>
<rect x="340.257" y="151.6" width="5" height="5" fill="#F1F1F1"/>
<rect x="348.028" y="151.6" width="5" height="5" fill="#F1F1F1"/>
<rect x="355.8" y="151.6" width="5" height="5" fill="#F1F1F1"/>
<rect x="363.571" y="151.6" width="5" height="5" fill="#F1F1F1"/>
<rect x="371.343" y="151.6" width="5" height="5" fill="#F1F1F1"/>
<rect x="379.114" y="151.6" width="5" height="5" fill="#F1F1F1"/>
<rect x="386.886" y="151.6" width="5" height="5" fill="#F1F1F1"/>
<rect x="394.657" y="151.6" width="5" height="5" fill="#F1F1F1"/>
<rect x="402.429" y="151.6" width="5" height="5" fill="#F1F1F1"/>
<rect x="410.2" y="151.6" width="5" height="5" fill="#F1F1F1"/>
<rect x="417.972" y="151.6" width="5" height="5" fill="#F1F1F1"/>
<rect x="425.743" y="151.6" width="5" height="5" fill="#F1F1F1"/>
<rect x="433.515" y="151.6" width="5" height="5" fill="#F1F1F1"/>
<rect x="441.286" y="151.6" width="5" height="5" fill="#F1F1F1"/>
<rect x="449.057" y="151.6" width="5" height="5" fill="#F1F1F1"/>
<rect x="456.828" y="151.6" width="5" height="5" fill="#F1F1F1"/>
<rect x="464.6" y="151.6" width="5" height="5" fill="#F1F1F1"/>
<rect x="472.371" y="151.6" width="5" height="5" fill="#F1F1F1"/>
<rect x="480.143" y="151.6" width="5" height="5" fill="#F1F1F1"/>
<rect x="487.914" y="151.6" width="5" height="5" fill="#F1F1F1"/>
<rect x="495.686" y="151.6" width="5" height="5" fill="#F1F1F1"/>
<rect x="503.457" y="151.6" width="5" height="5" fill="#F1F1F1"/>
<rect x="511.229" y="151.6" width="5" height="5" fill="#F1F1F1"/>
<rect x="519" y="151.6" width="5" height="5" fill="#F1F1F1"/>
<rect x="247" y="161.199" width="5" height="5" fill="#F1F1F1"/>
<rect x="254.771" y="161.199" width="5" height="5" fill="#F1F1F1"/>
<rect x="262.543" y="161.199" width="5" height="5" fill="#F1F1F1"/>
<rect x="270.314" y="161.199" width="5" height="5" fill="#F1F1F1"/>
<rect x="278.086" y="161.199" width="5" height="5" fill="#F1F1F1"/>
<rect x="285.857" y="161.199" width="5" height="5" fill="#F1F1F1"/>
<rect x="293.629" y="161.199" width="5" height="5" fill="#F1F1F1"/>
<rect x="301.4" y="161.199" width="5" height="5" fill="#F1F1F1"/>
<rect x="309.172" y="161.199" width="5" height="5" fill="#F1F1F1"/>
<rect x="316.942" y="161.199" width="5" height="5" fill="#F1F1F1"/>
<rect x="324.714" y="161.199" width="5" height="5" fill="#F1F1F1"/>
<rect x="332.485" y="161.199" width="5" height="5" fill="#F1F1F1"/>
<rect x="340.257" y="161.199" width="5" height="5" fill="#F1F1F1"/>
<rect x="348.028" y="161.199" width="5" height="5" fill="#F1F1F1"/>
<rect x="355.8" y="161.199" width="5" height="5" fill="#F1F1F1"/>
<rect x="363.571" y="161.199" width="5" height="5" fill="#F1F1F1"/>
<rect x="371.343" y="161.199" width="5" height="5" fill="#F1F1F1"/>
<rect x="379.114" y="161.199" width="5" height="5" fill="#F1F1F1"/>
<rect x="386.886" y="161.199" width="5" height="5" fill="#F1F1F1"/>
<rect x="394.657" y="161.199" width="5" height="5" fill="#F1F1F1"/>
<rect x="402.429" y="161.199" width="5" height="5" fill="#F1F1F1"/>
<rect x="410.2" y="161.199" width="5" height="5" fill="#F1F1F1"/>
<rect x="417.972" y="161.199" width="5" height="5" fill="#F1F1F1"/>
<rect x="425.743" y="161.199" width="5" height="5" fill="#F1F1F1"/>
<rect x="433.515" y="161.199" width="5" height="5" fill="#F1F1F1"/>
<rect x="441.286" y="161.199" width="5" height="5" fill="#F1F1F1"/>
<rect x="449.057" y="161.199" width="5" height="5" fill="#F1F1F1"/>
<rect x="456.828" y="161.199" width="5" height="5" fill="#F1F1F1"/>
<rect x="464.6" y="161.199" width="5" height="5" fill="#F1F1F1"/>
<rect x="472.371" y="161.199" width="5" height="5" fill="#F1F1F1"/>
<rect x="480.143" y="161.199" width="5" height="5" fill="#F1F1F1"/>
<rect x="487.914" y="161.199" width="5" height="5" fill="#F1F1F1"/>
<rect x="495.686" y="161.199" width="5" height="5" fill="#F1F1F1"/>
<rect x="503.457" y="161.199" width="5" height="5" fill="#F1F1F1"/>
<rect x="511.229" y="161.199" width="5" height="5" fill="#F1F1F1"/>
<rect x="519" y="161.199" width="5" height="5" fill="#F1F1F1"/>
<rect x="247" y="170.801" width="5" height="5" fill="#F1F1F1"/>
<rect x="254.771" y="170.801" width="5" height="5" fill="#F1F1F1"/>
<rect x="262.543" y="170.801" width="5" height="5" fill="#F1F1F1"/>
<rect x="270.314" y="170.801" width="5" height="5" fill="#F1F1F1"/>
<rect x="278.086" y="170.801" width="5" height="5" fill="#F1F1F1"/>
<rect x="285.857" y="170.801" width="5" height="5" fill="#F1F1F1"/>
<rect x="293.629" y="170.801" width="5" height="5" fill="#F1F1F1"/>
<rect x="301.4" y="170.801" width="5" height="5" fill="#F1F1F1"/>
<rect x="309.172" y="170.801" width="5" height="5" fill="#F1F1F1"/>
<rect x="316.942" y="170.801" width="5" height="5" fill="#F1F1F1"/>
<rect x="324.714" y="170.801" width="5" height="5" fill="#F1F1F1"/>
<rect x="332.485" y="170.801" width="5" height="5" fill="#F1F1F1"/>
<rect x="340.257" y="170.801" width="5" height="5" fill="#F1F1F1"/>
<rect x="348.028" y="170.801" width="5" height="5" fill="#F1F1F1"/>
<rect x="355.8" y="170.801" width="5" height="5" fill="#F1F1F1"/>
<rect x="363.571" y="170.801" width="5" height="5" fill="#F1F1F1"/>
<rect x="371.343" y="170.801" width="5" height="5" fill="#F1F1F1"/>
<rect x="379.114" y="170.801" width="5" height="5" fill="#F1F1F1"/>
<rect x="386.886" y="170.801" width="5" height="5" fill="#F1F1F1"/>
<rect x="394.657" y="170.801" width="5" height="5" fill="#F1F1F1"/>
<rect x="402.429" y="170.801" width="5" height="5" fill="#F1F1F1"/>
<rect x="410.2" y="170.801" width="5" height="5" fill="#F1F1F1"/>
<rect x="417.972" y="170.801" width="5" height="5" fill="#F1F1F1"/>
<rect x="425.743" y="170.801" width="5" height="5" fill="#F1F1F1"/>
<rect x="433.515" y="170.801" width="5" height="5" fill="#F1F1F1"/>
<rect x="441.286" y="170.801" width="5" height="5" fill="#F1F1F1"/>
<rect x="449.057" y="170.801" width="5" height="5" fill="#F1F1F1"/>
<rect x="456.828" y="170.801" width="5" height="5" fill="#F1F1F1"/>
<rect x="464.6" y="170.801" width="5" height="5" fill="#F1F1F1"/>
<rect x="472.371" y="170.801" width="5" height="5" fill="#F1F1F1"/>
<rect x="480.143" y="170.801" width="5" height="5" fill="#F1F1F1"/>
<rect x="487.914" y="170.801" width="5" height="5" fill="#F1F1F1"/>
<rect x="495.686" y="170.801" width="5" height="5" fill="#F1F1F1"/>
<rect x="503.457" y="170.801" width="5" height="5" fill="#F1F1F1"/>
<rect x="511.229" y="170.801" width="5" height="5" fill="#F1F1F1"/>
<rect x="519" y="170.801" width="5" height="5" fill="#F1F1F1"/>
<rect x="247" y="180.4" width="5" height="5" fill="#F1F1F1"/>
<rect x="254.771" y="180.4" width="5" height="5" fill="#F1F1F1"/>
<rect x="262.543" y="180.4" width="5" height="5" fill="#F1F1F1"/>
<rect x="270.314" y="180.4" width="5" height="5" fill="#F1F1F1"/>
<rect x="278.086" y="180.4" width="5" height="5" fill="#F1F1F1"/>
<rect x="285.857" y="180.4" width="5" height="5" fill="#F1F1F1"/>
<rect x="293.629" y="180.4" width="5" height="5" fill="#F1F1F1"/>
<rect x="301.4" y="180.4" width="5" height="5" fill="#F1F1F1"/>
<rect x="309.172" y="180.4" width="5" height="5" fill="#F1F1F1"/>
<rect x="316.942" y="180.4" width="5" height="5" fill="#F1F1F1"/>
<rect x="324.714" y="180.4" width="5" height="5" fill="#F1F1F1"/>
<rect x="332.485" y="180.4" width="5" height="5" fill="#F1F1F1"/>
<rect x="340.257" y="180.4" width="5" height="5" fill="#F1F1F1"/>
<rect x="348.028" y="180.4" width="5" height="5" fill="#F1F1F1"/>
<rect x="355.8" y="180.4" width="5" height="5" fill="#F1F1F1"/>
<rect x="363.571" y="180.4" width="5" height="5" fill="#F1F1F1"/>
<rect x="371.343" y="180.4" width="5" height="5" fill="#F1F1F1"/>
<rect x="379.114" y="180.4" width="5" height="5" fill="#F1F1F1"/>
<rect x="386.886" y="180.4" width="5" height="5" fill="#F1F1F1"/>
<rect x="394.657" y="180.4" width="5" height="5" fill="#F1F1F1"/>
<rect x="402.429" y="180.4" width="5" height="5" fill="#F1F1F1"/>
<rect x="410.2" y="180.4" width="5" height="5" fill="#F1F1F1"/>
<rect x="417.972" y="180.4" width="5" height="5" fill="#F1F1F1"/>
<rect x="425.743" y="180.4" width="5" height="5" fill="#F1F1F1"/>
<rect x="433.515" y="180.4" width="5" height="5" fill="#F1F1F1"/>
<rect x="441.286" y="180.4" width="5" height="5" fill="#F1F1F1"/>
<rect x="449.057" y="180.4" width="5" height="5" fill="#F1F1F1"/>
<rect x="456.828" y="180.4" width="5" height="5" fill="#F1F1F1"/>
<rect x="464.6" y="180.4" width="5" height="5" fill="#F1F1F1"/>
<rect x="472.371" y="180.4" width="5" height="5" fill="#F1F1F1"/>
<rect x="480.143" y="180.4" width="5" height="5" fill="#F1F1F1"/>
<rect x="487.914" y="180.4" width="5" height="5" fill="#F1F1F1"/>
<rect x="495.686" y="180.4" width="5" height="5" fill="#F1F1F1"/>
<rect x="503.457" y="180.4" width="5" height="5" fill="#F1F1F1"/>
<rect x="511.229" y="180.4" width="5" height="5" fill="#F1F1F1"/>
<rect x="519" y="180.4" width="5" height="5" fill="#F1F1F1"/>
<rect x="247" y="190" width="5" height="5" fill="#F1F1F1"/>
<rect x="254.771" y="190" width="5" height="5" fill="#F1F1F1"/>
<rect x="262.543" y="190" width="5" height="5" fill="#F1F1F1"/>
<rect x="270.314" y="190" width="5" height="5" fill="#F1F1F1"/>
<rect x="278.086" y="190" width="5" height="5" fill="#F1F1F1"/>
<rect x="285.857" y="190" width="5" height="5" fill="#F1F1F1"/>
<rect x="293.629" y="190" width="5" height="5" fill="#F1F1F1"/>
<rect x="301.4" y="190" width="5" height="5" fill="#F1F1F1"/>
<rect x="309.172" y="190" width="5" height="5" fill="#F1F1F1"/>
<rect x="316.942" y="190" width="5" height="5" fill="#F1F1F1"/>
<rect x="324.714" y="190" width="5" height="5" fill="#F1F1F1"/>
<rect x="332.485" y="190" width="5" height="5" fill="#F1F1F1"/>
<rect x="340.257" y="190" width="5" height="5" fill="#F1F1F1"/>
<rect x="348.028" y="190" width="5" height="5" fill="#F1F1F1"/>
<rect x="355.8" y="190" width="5" height="5" fill="#F1F1F1"/>
<rect x="363.571" y="190" width="5" height="5" fill="#F1F1F1"/>
<rect x="371.343" y="190" width="5" height="5" fill="#F1F1F1"/>
<rect x="379.114" y="190" width="5" height="5" fill="#F1F1F1"/>
<rect x="386.886" y="190" width="5" height="5" fill="#F1F1F1"/>
<rect x="394.657" y="190" width="5" height="5" fill="#F1F1F1"/>
<rect x="402.429" y="190" width="5" height="5" fill="#F1F1F1"/>
<rect x="410.2" y="190" width="5" height="5" fill="#F1F1F1"/>
<rect x="417.972" y="190" width="5" height="5" fill="#F1F1F1"/>
<rect x="425.743" y="190" width="5" height="5" fill="#F1F1F1"/>
<rect x="433.515" y="190" width="5" height="5" fill="#F1F1F1"/>
<rect x="441.286" y="190" width="5" height="5" fill="#F1F1F1"/>
<rect x="449.057" y="190" width="5" height="5" fill="#F1F1F1"/>
<rect x="456.828" y="190" width="5" height="5" fill="#F1F1F1"/>
<rect x="464.6" y="190" width="5" height="5" fill="#F1F1F1"/>
<rect x="472.371" y="190" width="5" height="5" fill="#F1F1F1"/>
<rect x="480.143" y="190" width="5" height="5" fill="#F1F1F1"/>
<rect x="487.914" y="190" width="5" height="5" fill="#F1F1F1"/>
<rect x="495.686" y="190" width="5" height="5" fill="#F1F1F1"/>
<rect x="503.457" y="190" width="5" height="5" fill="#F1F1F1"/>
<rect x="511.229" y="190" width="5" height="5" fill="#F1F1F1"/>
<rect x="519" y="190" width="5" height="5" fill="#F1F1F1"/>
<rect x="247" y="199.6" width="5" height="5" fill="#F1F1F1"/>
<rect x="254.771" y="199.6" width="5" height="5" fill="#F1F1F1"/>
<rect x="262.543" y="199.6" width="5" height="5" fill="#F1F1F1"/>
<rect x="270.314" y="199.6" width="5" height="5" fill="#F1F1F1"/>
<rect x="278.086" y="199.6" width="5" height="5" fill="#F1F1F1"/>
<rect x="285.857" y="199.6" width="5" height="5" fill="#F1F1F1"/>
<rect x="293.629" y="199.6" width="5" height="5" fill="#F1F1F1"/>
<rect x="301.4" y="199.6" width="5" height="5" fill="#F1F1F1"/>
<rect x="309.172" y="199.6" width="5" height="5" fill="#F1F1F1"/>
<rect x="316.942" y="199.6" width="5" height="5" fill="#F1F1F1"/>
<rect x="324.714" y="199.6" width="5" height="5" fill="#F1F1F1"/>
<rect x="332.485" y="199.6" width="5" height="5" fill="#F1F1F1"/>
<rect x="340.257" y="199.6" width="5" height="5" fill="#F1F1F1"/>
<rect x="348.028" y="199.6" width="5" height="5" fill="#F1F1F1"/>
<rect x="355.8" y="199.6" width="5" height="5" fill="#F1F1F1"/>
<rect x="363.571" y="199.6" width="5" height="5" fill="#F1F1F1"/>
<rect x="371.343" y="199.6" width="5" height="5" fill="#F1F1F1"/>
<rect x="379.114" y="199.6" width="5" height="5" fill="#F1F1F1"/>
<rect x="386.886" y="199.6" width="5" height="5" fill="#F1F1F1"/>
<rect x="394.657" y="199.6" width="5" height="5" fill="#F1F1F1"/>
<rect x="402.429" y="199.6" width="5" height="5" fill="#F1F1F1"/>
<rect x="410.2" y="199.6" width="5" height="5" fill="#F1F1F1"/>
<rect x="417.972" y="199.6" width="5" height="5" fill="#F1F1F1"/>
<rect x="425.743" y="199.6" width="5" height="5" fill="#F1F1F1"/>
<rect x="433.515" y="199.6" width="5" height="5" fill="#F1F1F1"/>
<rect x="441.286" y="199.6" width="5" height="5" fill="#F1F1F1"/>
<rect x="449.057" y="199.6" width="5" height="5" fill="#F1F1F1"/>
<rect x="456.828" y="199.6" width="5" height="5" fill="#F1F1F1"/>
<rect x="464.6" y="199.6" width="5" height="5" fill="#F1F1F1"/>
<rect x="472.371" y="199.6" width="5" height="5" fill="#F1F1F1"/>
<rect x="480.143" y="199.6" width="5" height="5" fill="#F1F1F1"/>
<rect x="487.914" y="199.6" width="5" height="5" fill="#F1F1F1"/>
<rect x="495.686" y="199.6" width="5" height="5" fill="#F1F1F1"/>
<rect x="503.457" y="199.6" width="5" height="5" fill="#F1F1F1"/>
<rect x="511.229" y="199.6" width="5" height="5" fill="#F1F1F1"/>
<rect x="519" y="199.6" width="5" height="5" fill="#F1F1F1"/>
<rect x="247" y="209.199" width="5" height="5" fill="#F1F1F1"/>
<rect x="254.771" y="209.199" width="5" height="5" fill="#F1F1F1"/>
<rect x="262.543" y="209.199" width="5" height="5" fill="#F1F1F1"/>
<rect x="270.314" y="209.199" width="5" height="5" fill="#F1F1F1"/>
<rect x="278.086" y="209.199" width="5" height="5" fill="#F1F1F1"/>
<rect x="285.857" y="209.199" width="5" height="5" fill="#F1F1F1"/>
<rect x="293.629" y="209.199" width="5" height="5" fill="#F1F1F1"/>
<rect x="301.4" y="209.199" width="5" height="5" fill="#F1F1F1"/>
<rect x="309.172" y="209.199" width="5" height="5" fill="#F1F1F1"/>
<rect x="316.942" y="209.199" width="5" height="5" fill="#F1F1F1"/>
<rect x="324.714" y="209.199" width="5" height="5" fill="#F1F1F1"/>
<rect x="332.485" y="209.199" width="5" height="5" fill="#F1F1F1"/>
<rect x="340.257" y="209.199" width="5" height="5" fill="#F1F1F1"/>
<rect x="348.028" y="209.199" width="5" height="5" fill="#F1F1F1"/>
<rect x="355.8" y="209.199" width="5" height="5" fill="#F1F1F1"/>
<rect x="363.571" y="209.199" width="5" height="5" fill="#F1F1F1"/>
<rect x="371.343" y="209.199" width="5" height="5" fill="#F1F1F1"/>
<rect x="379.114" y="209.199" width="5" height="5" fill="#F1F1F1"/>
<rect x="386.886" y="209.199" width="5" height="5" fill="#F1F1F1"/>
<rect x="394.657" y="209.199" width="5" height="5" fill="#F1F1F1"/>
<rect x="402.429" y="209.199" width="5" height="5" fill="#F1F1F1"/>
<rect x="410.2" y="209.199" width="5" height="5" fill="#F1F1F1"/>
<rect x="417.972" y="209.199" width="5" height="5" fill="#F1F1F1"/>
<rect x="425.743" y="209.199" width="5" height="5" fill="#F1F1F1"/>
<rect x="433.515" y="209.199" width="5" height="5" fill="#F1F1F1"/>
<rect x="441.286" y="209.199" width="5" height="5" fill="#F1F1F1"/>
<rect x="449.057" y="209.199" width="5" height="5" fill="#F1F1F1"/>
<rect x="456.828" y="209.199" width="5" height="5" fill="#F1F1F1"/>
<rect x="464.6" y="209.199" width="5" height="5" fill="#F1F1F1"/>
<rect x="472.371" y="209.199" width="5" height="5" fill="#F1F1F1"/>
<rect x="480.143" y="209.199" width="5" height="5" fill="#F1F1F1"/>
<rect x="487.914" y="209.199" width="5" height="5" fill="#F1F1F1"/>
<rect x="495.686" y="209.199" width="5" height="5" fill="#F1F1F1"/>
<rect x="503.457" y="209.199" width="5" height="5" fill="#F1F1F1"/>
<rect x="511.229" y="209.199" width="5" height="5" fill="#F1F1F1"/>
<rect x="519" y="209.199" width="5" height="5" fill="#F1F1F1"/>
<rect x="247" y="218.801" width="5" height="5" fill="#F1F1F1"/>
<rect x="254.771" y="218.801" width="5" height="5" fill="#F1F1F1"/>
<rect x="262.543" y="218.801" width="5" height="5" fill="#F1F1F1"/>
<rect x="270.314" y="218.801" width="5" height="5" fill="#F1F1F1"/>
<rect x="278.086" y="218.801" width="5" height="5" fill="#F1F1F1"/>
<rect x="285.857" y="218.801" width="5" height="5" fill="#F1F1F1"/>
<rect x="293.629" y="218.801" width="5" height="5" fill="#F1F1F1"/>
<rect x="301.4" y="218.801" width="5" height="5" fill="#F1F1F1"/>
<rect x="309.172" y="218.801" width="5" height="5" fill="#F1F1F1"/>
<rect x="316.942" y="218.801" width="5" height="5" fill="#F1F1F1"/>
<rect x="324.714" y="218.801" width="5" height="5" fill="#F1F1F1"/>
<rect x="332.485" y="218.801" width="5" height="5" fill="#F1F1F1"/>
<rect x="340.257" y="218.801" width="5" height="5" fill="#F1F1F1"/>
<rect x="348.028" y="218.801" width="5" height="5" fill="#F1F1F1"/>
<rect x="355.8" y="218.801" width="5" height="5" fill="#F1F1F1"/>
<rect x="363.571" y="218.801" width="5" height="5" fill="#F1F1F1"/>
<rect x="371.343" y="218.801" width="5" height="5" fill="#F1F1F1"/>
<rect x="379.114" y="218.801" width="5" height="5" fill="#F1F1F1"/>
<rect x="386.886" y="218.801" width="5" height="5" fill="#F1F1F1"/>
<rect x="394.657" y="218.801" width="5" height="5" fill="#F1F1F1"/>
<rect x="402.429" y="218.801" width="5" height="5" fill="#F1F1F1"/>
<rect x="410.2" y="218.801" width="5" height="5" fill="#F1F1F1"/>
<rect x="417.972" y="218.801" width="5" height="5" fill="#F1F1F1"/>
<rect x="425.743" y="218.801" width="5" height="5" fill="#F1F1F1"/>
<rect x="433.515" y="218.801" width="5" height="5" fill="#F1F1F1"/>
<rect x="441.286" y="218.801" width="5" height="5" fill="#F1F1F1"/>
<rect x="449.057" y="218.801" width="5" height="5" fill="#F1F1F1"/>
<rect x="456.828" y="218.801" width="5" height="5" fill="#F1F1F1"/>
<rect x="464.6" y="218.801" width="5" height="5" fill="#F1F1F1"/>
<rect x="472.371" y="218.801" width="5" height="5" fill="#F1F1F1"/>
<rect x="480.143" y="218.801" width="5" height="5" fill="#F1F1F1"/>
<rect x="487.914" y="218.801" width="5" height="5" fill="#F1F1F1"/>
<rect x="495.686" y="218.801" width="5" height="5" fill="#F1F1F1"/>
<rect x="503.457" y="218.801" width="5" height="5" fill="#F1F1F1"/>
<rect x="511.229" y="218.801" width="5" height="5" fill="#F1F1F1"/>
<rect x="519" y="218.801" width="5" height="5" fill="#F1F1F1"/>
<rect x="247" y="228.4" width="5" height="5" fill="#F1F1F1"/>
<rect x="254.771" y="228.4" width="5" height="5" fill="#F1F1F1"/>
<rect x="262.543" y="228.4" width="5" height="5" fill="#F1F1F1"/>
<rect x="270.314" y="228.4" width="5" height="5" fill="#F1F1F1"/>
<rect x="278.086" y="228.4" width="5" height="5" fill="#F1F1F1"/>
<rect x="285.857" y="228.4" width="5" height="5" fill="#F1F1F1"/>
<rect x="293.629" y="228.4" width="5" height="5" fill="#F1F1F1"/>
<rect x="301.4" y="228.4" width="5" height="5" fill="#F1F1F1"/>
<rect x="309.172" y="228.4" width="5" height="5" fill="#F1F1F1"/>
<rect x="316.942" y="228.4" width="5" height="5" fill="#F1F1F1"/>
<rect x="324.714" y="228.4" width="5" height="5" fill="#F1F1F1"/>
<rect x="332.485" y="228.4" width="5" height="5" fill="#F1F1F1"/>
<rect x="340.257" y="228.4" width="5" height="5" fill="#F1F1F1"/>
<rect x="348.028" y="228.4" width="5" height="5" fill="#F1F1F1"/>
<rect x="355.8" y="228.4" width="5" height="5" fill="#F1F1F1"/>
<rect x="363.571" y="228.4" width="5" height="5" fill="#F1F1F1"/>
<rect x="371.343" y="228.4" width="5" height="5" fill="#F1F1F1"/>
<rect x="379.114" y="228.4" width="5" height="5" fill="#F1F1F1"/>
<rect x="386.886" y="228.4" width="5" height="5" fill="#F1F1F1"/>
<rect x="394.657" y="228.4" width="5" height="5" fill="#F1F1F1"/>
<rect x="402.429" y="228.4" width="5" height="5" fill="#F1F1F1"/>
<rect x="410.2" y="228.4" width="5" height="5" fill="#F1F1F1"/>
<rect x="417.972" y="228.4" width="5" height="5" fill="#F1F1F1"/>
<rect x="425.743" y="228.4" width="5" height="5" fill="#F1F1F1"/>
<rect x="433.515" y="228.4" width="5" height="5" fill="#F1F1F1"/>
<rect x="441.286" y="228.4" width="5" height="5" fill="#F1F1F1"/>
<rect x="449.057" y="228.4" width="5" height="5" fill="#F1F1F1"/>
<rect x="456.828" y="228.4" width="5" height="5" fill="#F1F1F1"/>
<rect x="464.6" y="228.4" width="5" height="5" fill="#F1F1F1"/>
<rect x="472.371" y="228.4" width="5" height="5" fill="#F1F1F1"/>
<rect x="480.143" y="228.4" width="5" height="5" fill="#F1F1F1"/>
<rect x="487.914" y="228.4" width="5" height="5" fill="#F1F1F1"/>
<rect x="495.686" y="228.4" width="5" height="5" fill="#F1F1F1"/>
<rect x="503.457" y="228.4" width="5" height="5" fill="#F1F1F1"/>
<rect x="511.229" y="228.4" width="5" height="5" fill="#F1F1F1"/>
<rect x="519" y="228.4" width="5" height="5" fill="#F1F1F1"/>
<rect x="247" y="238" width="5" height="5" fill="#F1F1F1"/>
<rect x="254.771" y="238" width="5" height="5" fill="#F1F1F1"/>
<rect x="262.543" y="238" width="5" height="5" fill="#F1F1F1"/>
<rect x="270.314" y="238" width="5" height="5" fill="#F1F1F1"/>
<rect x="278.086" y="238" width="5" height="5" fill="#F1F1F1"/>
<rect x="285.857" y="238" width="5" height="5" fill="#F1F1F1"/>
<rect x="293.629" y="238" width="5" height="5" fill="#F1F1F1"/>
<rect x="301.4" y="238" width="5" height="5" fill="#F1F1F1"/>
<rect x="309.172" y="238" width="5" height="5" fill="#F1F1F1"/>
<rect x="316.942" y="238" width="5" height="5" fill="#F1F1F1"/>
<rect x="324.714" y="238" width="5" height="5" fill="#F1F1F1"/>
<rect x="332.485" y="238" width="5" height="5" fill="#F1F1F1"/>
<rect x="340.257" y="238" width="5" height="5" fill="#F1F1F1"/>
<rect x="348.028" y="238" width="5" height="5" fill="#F1F1F1"/>
<rect x="355.8" y="238" width="5" height="5" fill="#F1F1F1"/>
<rect x="363.571" y="238" width="5" height="5" fill="#F1F1F1"/>
<rect x="371.343" y="238" width="5" height="5" fill="#F1F1F1"/>
<rect x="379.114" y="238" width="5" height="5" fill="#F1F1F1"/>
<rect x="386.886" y="238" width="5" height="5" fill="#F1F1F1"/>
<rect x="394.657" y="238" width="5" height="5" fill="#F1F1F1"/>
<rect x="402.429" y="238" width="5" height="5" fill="#F1F1F1"/>
<rect x="410.2" y="238" width="5" height="5" fill="#F1F1F1"/>
<rect x="417.972" y="238" width="5" height="5" fill="#F1F1F1"/>
<rect x="425.743" y="238" width="5" height="5" fill="#F1F1F1"/>
<rect x="433.515" y="238" width="5" height="5" fill="#F1F1F1"/>
<rect x="441.286" y="238" width="5" height="5" fill="#F1F1F1"/>
<rect x="449.057" y="238" width="5" height="5" fill="#F1F1F1"/>
<rect x="456.828" y="238" width="5" height="5" fill="#F1F1F1"/>
<rect x="464.6" y="238" width="5" height="5" fill="#F1F1F1"/>
<rect x="472.371" y="238" width="5" height="5" fill="#F1F1F1"/>
<rect x="480.143" y="238" width="5" height="5" fill="#F1F1F1"/>
<rect x="487.914" y="238" width="5" height="5" fill="#F1F1F1"/>
<rect x="495.686" y="238" width="5" height="5" fill="#F1F1F1"/>
<rect x="503.457" y="238" width="5" height="5" fill="#F1F1F1"/>
<rect x="511.229" y="238" width="5" height="5" fill="#F1F1F1"/>
<rect x="519" y="238" width="5" height="5" fill="#F1F1F1"/>
<rect x="247" y="247.6" width="5" height="5" fill="#F1F1F1"/>
<rect x="254.771" y="247.6" width="5" height="5" fill="#F1F1F1"/>
<rect x="262.543" y="247.6" width="5" height="5" fill="#F1F1F1"/>
<rect x="270.314" y="247.6" width="5" height="5" fill="#F1F1F1"/>
<rect x="278.086" y="247.6" width="5" height="5" fill="#F1F1F1"/>
<rect x="285.857" y="247.6" width="5" height="5" fill="#F1F1F1"/>
<rect x="293.629" y="247.6" width="5" height="5" fill="#F1F1F1"/>
<rect x="301.4" y="247.6" width="5" height="5" fill="#F1F1F1"/>
<rect x="309.172" y="247.6" width="5" height="5" fill="#F1F1F1"/>
<rect x="316.942" y="247.6" width="5" height="5" fill="#F1F1F1"/>
<rect x="324.714" y="247.6" width="5" height="5" fill="#F1F1F1"/>
<rect x="332.485" y="247.6" width="5" height="5" fill="#F1F1F1"/>
<rect x="340.257" y="247.6" width="5" height="5" fill="#F1F1F1"/>
<rect x="348.028" y="247.6" width="5" height="5" fill="#F1F1F1"/>
<rect x="355.8" y="247.6" width="5" height="5" fill="#F1F1F1"/>
<rect x="363.571" y="247.6" width="5" height="5" fill="#F1F1F1"/>
<rect x="371.343" y="247.6" width="5" height="5" fill="#F1F1F1"/>
<rect x="379.114" y="247.6" width="5" height="5" fill="#F1F1F1"/>
<rect x="386.886" y="247.6" width="5" height="5" fill="#F1F1F1"/>
<rect x="394.657" y="247.6" width="5" height="5" fill="#F1F1F1"/>
<rect x="402.429" y="247.6" width="5" height="5" fill="#F1F1F1"/>
<rect x="410.2" y="247.6" width="5" height="5" fill="#F1F1F1"/>
<rect x="417.972" y="247.6" width="5" height="5" fill="#F1F1F1"/>
<rect x="425.743" y="247.6" width="5" height="5" fill="#F1F1F1"/>
<rect x="433.515" y="247.6" width="5" height="5" fill="#F1F1F1"/>
<rect x="441.286" y="247.6" width="5" height="5" fill="#F1F1F1"/>
<rect x="449.057" y="247.6" width="5" height="5" fill="#F1F1F1"/>
<rect x="456.828" y="247.6" width="5" height="5" fill="#F1F1F1"/>
<rect x="464.6" y="247.6" width="5" height="5" fill="#F1F1F1"/>
<rect x="472.371" y="247.6" width="5" height="5" fill="#F1F1F1"/>
<rect x="480.143" y="247.6" width="5" height="5" fill="#F1F1F1"/>
<rect x="487.914" y="247.6" width="5" height="5" fill="#F1F1F1"/>
<rect x="495.686" y="247.6" width="5" height="5" fill="#F1F1F1"/>
<rect x="503.457" y="247.6" width="5" height="5" fill="#F1F1F1"/>
<rect x="511.229" y="247.6" width="5" height="5" fill="#F1F1F1"/>
<rect x="519" y="247.6" width="5" height="5" fill="#F1F1F1"/>
<rect x="247" y="257.199" width="5" height="5" fill="#F1F1F1"/>
<rect x="254.771" y="257.199" width="5" height="5" fill="#F1F1F1"/>
<rect x="262.543" y="257.199" width="5" height="5" fill="#F1F1F1"/>
<rect x="270.314" y="257.199" width="5" height="5" fill="#F1F1F1"/>
<rect x="278.086" y="257.199" width="5" height="5" fill="#F1F1F1"/>
<rect x="285.857" y="257.199" width="5" height="5" fill="#F1F1F1"/>
<rect x="293.629" y="257.199" width="5" height="5" fill="#F1F1F1"/>
<rect x="301.4" y="257.199" width="5" height="5" fill="#F1F1F1"/>
<rect x="309.172" y="257.199" width="5" height="5" fill="#F1F1F1"/>
<rect x="316.942" y="257.199" width="5" height="5" fill="#F1F1F1"/>
<rect x="324.714" y="257.199" width="5" height="5" fill="#F1F1F1"/>
<rect x="332.485" y="257.199" width="5" height="5" fill="#F1F1F1"/>
<rect x="340.257" y="257.199" width="5" height="5" fill="#F1F1F1"/>
<rect x="348.028" y="257.199" width="5" height="5" fill="#F1F1F1"/>
<rect x="355.8" y="257.199" width="5" height="5" fill="#F1F1F1"/>
<rect x="363.571" y="257.199" width="5" height="5" fill="#F1F1F1"/>
<rect x="371.343" y="257.199" width="5" height="5" fill="#F1F1F1"/>
<rect x="379.114" y="257.199" width="5" height="5" fill="#F1F1F1"/>
<rect x="386.886" y="257.199" width="5" height="5" fill="#F1F1F1"/>
<rect x="394.657" y="257.199" width="5" height="5" fill="#F1F1F1"/>
<rect x="402.429" y="257.199" width="5" height="5" fill="#F1F1F1"/>
<rect x="410.2" y="257.199" width="5" height="5" fill="#F1F1F1"/>
<rect x="417.972" y="257.199" width="5" height="5" fill="#F1F1F1"/>
<rect x="425.743" y="257.199" width="5" height="5" fill="#F1F1F1"/>
<rect x="433.515" y="257.199" width="5" height="5" fill="#F1F1F1"/>
<rect x="441.286" y="257.199" width="5" height="5" fill="#F1F1F1"/>
<rect x="449.057" y="257.199" width="5" height="5" fill="#F1F1F1"/>
<rect x="456.828" y="257.199" width="5" height="5" fill="#F1F1F1"/>
<rect x="464.6" y="257.199" width="5" height="5" fill="#F1F1F1"/>
<rect x="472.371" y="257.199" width="5" height="5" fill="#F1F1F1"/>
<rect x="480.143" y="257.199" width="5" height="5" fill="#F1F1F1"/>
<rect x="487.914" y="257.199" width="5" height="5" fill="#F1F1F1"/>
<rect x="495.686" y="257.199" width="5" height="5" fill="#F1F1F1"/>
<rect x="503.457" y="257.199" width="5" height="5" fill="#F1F1F1"/>
<rect x="511.229" y="257.199" width="5" height="5" fill="#F1F1F1"/>
<rect x="519" y="257.199" width="5" height="5" fill="#F1F1F1"/>
<rect x="247" y="266.801" width="5" height="5" fill="#F1F1F1"/>
<rect x="254.771" y="266.801" width="5" height="5" fill="#F1F1F1"/>
<rect x="262.543" y="266.801" width="5" height="5" fill="#F1F1F1"/>
<rect x="270.314" y="266.801" width="5" height="5" fill="#F1F1F1"/>
<rect x="278.086" y="266.801" width="5" height="5" fill="#F1F1F1"/>
<rect x="285.857" y="266.801" width="5" height="5" fill="#F1F1F1"/>
<rect x="293.629" y="266.801" width="5" height="5" fill="#F1F1F1"/>
<rect x="301.4" y="266.801" width="5" height="5" fill="#F1F1F1"/>
<rect x="309.172" y="266.801" width="5" height="5" fill="#F1F1F1"/>
<rect x="316.942" y="266.801" width="5" height="5" fill="#F1F1F1"/>
<rect x="324.714" y="266.801" width="5" height="5" fill="#F1F1F1"/>
<rect x="332.485" y="266.801" width="5" height="5" fill="#F1F1F1"/>
<rect x="340.257" y="266.801" width="5" height="5" fill="#F1F1F1"/>
<rect x="348.028" y="266.801" width="5" height="5" fill="#F1F1F1"/>
<rect x="355.8" y="266.801" width="5" height="5" fill="#F1F1F1"/>
<rect x="363.571" y="266.801" width="5" height="5" fill="#F1F1F1"/>
<rect x="371.343" y="266.801" width="5" height="5" fill="#F1F1F1"/>
<rect x="379.114" y="266.801" width="5" height="5" fill="#F1F1F1"/>
<rect x="386.886" y="266.801" width="5" height="5" fill="#F1F1F1"/>
<rect x="394.657" y="266.801" width="5" height="5" fill="#F1F1F1"/>
<rect x="402.429" y="266.801" width="5" height="5" fill="#F1F1F1"/>
<rect x="410.2" y="266.801" width="5" height="5" fill="#F1F1F1"/>
<rect x="417.972" y="266.801" width="5" height="5" fill="#F1F1F1"/>
<rect x="425.743" y="266.801" width="5" height="5" fill="#F1F1F1"/>
<rect x="433.515" y="266.801" width="5" height="5" fill="#F1F1F1"/>
<rect x="441.286" y="266.801" width="5" height="5" fill="#F1F1F1"/>
<rect x="449.057" y="266.801" width="5" height="5" fill="#F1F1F1"/>
<rect x="456.828" y="266.801" width="5" height="5" fill="#F1F1F1"/>
<rect x="464.6" y="266.801" width="5" height="5" fill="#F1F1F1"/>
<rect x="472.371" y="266.801" width="5" height="5" fill="#F1F1F1"/>
<rect x="480.143" y="266.801" width="5" height="5" fill="#F1F1F1"/>
<rect x="487.914" y="266.801" width="5" height="5" fill="#F1F1F1"/>
<rect x="495.686" y="266.801" width="5" height="5" fill="#F1F1F1"/>
<rect x="503.457" y="266.801" width="5" height="5" fill="#F1F1F1"/>
<rect x="511.229" y="266.801" width="5" height="5" fill="#F1F1F1"/>
<rect x="519" y="266.801" width="5" height="5" fill="#F1F1F1"/>
<rect x="247" y="276.4" width="5" height="5" fill="#F1F1F1"/>
<rect x="254.771" y="276.4" width="5" height="5" fill="#F1F1F1"/>
<rect x="262.543" y="276.4" width="5" height="5" fill="#F1F1F1"/>
<rect x="270.314" y="276.4" width="5" height="5" fill="#F1F1F1"/>
<rect x="278.086" y="276.4" width="5" height="5" fill="#F1F1F1"/>
<rect x="285.857" y="276.4" width="5" height="5" fill="#F1F1F1"/>
<rect x="293.629" y="276.4" width="5" height="5" fill="#F1F1F1"/>
<rect x="301.4" y="276.4" width="5" height="5" fill="#F1F1F1"/>
<rect x="309.172" y="276.4" width="5" height="5" fill="#F1F1F1"/>
<rect x="316.942" y="276.4" width="5" height="5" fill="#F1F1F1"/>
<rect x="324.714" y="276.4" width="5" height="5" fill="#F1F1F1"/>
<rect x="332.485" y="276.4" width="5" height="5" fill="#F1F1F1"/>
<rect x="340.257" y="276.4" width="5" height="5" fill="#F1F1F1"/>
<rect x="348.028" y="276.4" width="5" height="5" fill="#F1F1F1"/>
<rect x="355.8" y="276.4" width="5" height="5" fill="#F1F1F1"/>
<rect x="363.571" y="276.4" width="5" height="5" fill="#F1F1F1"/>
<rect x="371.343" y="276.4" width="5" height="5" fill="#F1F1F1"/>
<rect x="379.114" y="276.4" width="5" height="5" fill="#F1F1F1"/>
<rect x="386.886" y="276.4" width="5" height="5" fill="#F1F1F1"/>
<rect x="394.657" y="276.4" width="5" height="5" fill="#F1F1F1"/>
<rect x="402.429" y="276.4" width="5" height="5" fill="#F1F1F1"/>
<rect x="410.2" y="276.4" width="5" height="5" fill="#F1F1F1"/>
<rect x="417.972" y="276.4" width="5" height="5" fill="#F1F1F1"/>
<rect x="425.743" y="276.4" width="5" height="5" fill="#F1F1F1"/>
<rect x="433.515" y="276.4" width="5" height="5" fill="#F1F1F1"/>
<rect x="441.286" y="276.4" width="5" height="5" fill="#F1F1F1"/>
<rect x="449.057" y="276.4" width="5" height="5" fill="#F1F1F1"/>
<rect x="456.828" y="276.4" width="5" height="5" fill="#F1F1F1"/>
<rect x="464.6" y="276.4" width="5" height="5" fill="#F1F1F1"/>
<rect x="472.371" y="276.4" width="5" height="5" fill="#F1F1F1"/>
<rect x="480.143" y="276.4" width="5" height="5" fill="#F1F1F1"/>
<rect x="487.914" y="276.4" width="5" height="5" fill="#F1F1F1"/>
<rect x="495.686" y="276.4" width="5" height="5" fill="#F1F1F1"/>
<rect x="503.457" y="276.4" width="5" height="5" fill="#F1F1F1"/>
<rect x="511.229" y="276.4" width="5" height="5" fill="#F1F1F1"/>
<rect x="519" y="276.4" width="5" height="5" fill="#F1F1F1"/>
<rect x="247" y="286" width="5" height="5" fill="#F1F1F1"/>
<rect x="254.771" y="286" width="5" height="5" fill="#F1F1F1"/>
<rect x="262.543" y="286" width="5" height="5" fill="#F1F1F1"/>
<rect x="270.314" y="286" width="5" height="5" fill="#F1F1F1"/>
<rect x="278.086" y="286" width="5" height="5" fill="#F1F1F1"/>
<rect x="285.857" y="286" width="5" height="5" fill="#F1F1F1"/>
<rect x="293.629" y="286" width="5" height="5" fill="#F1F1F1"/>
<rect x="301.4" y="286" width="5" height="5" fill="#F1F1F1"/>
<rect x="309.172" y="286" width="5" height="5" fill="#F1F1F1"/>
<rect x="316.942" y="286" width="5" height="5" fill="#F1F1F1"/>
<rect x="324.714" y="286" width="5" height="5" fill="#F1F1F1"/>
<rect x="332.485" y="286" width="5" height="5" fill="#F1F1F1"/>
<rect x="340.257" y="286" width="5" height="5" fill="#F1F1F1"/>
<rect x="348.028" y="286" width="5" height="5" fill="#F1F1F1"/>
<rect x="355.8" y="286" width="5" height="5" fill="#F1F1F1"/>
<rect x="363.571" y="286" width="5" height="5" fill="#F1F1F1"/>
<rect x="371.343" y="286" width="5" height="5" fill="#F1F1F1"/>
<rect x="379.114" y="286" width="5" height="5" fill="#F1F1F1"/>
<rect x="386.886" y="286" width="5" height="5" fill="#F1F1F1"/>
<rect x="394.657" y="286" width="5" height="5" fill="#F1F1F1"/>
<rect x="402.429" y="286" width="5" height="5" fill="#F1F1F1"/>
<rect x="410.2" y="286" width="5" height="5" fill="#F1F1F1"/>
<rect x="417.972" y="286" width="5" height="5" fill="#F1F1F1"/>
<rect x="425.743" y="286" width="5" height="5" fill="#F1F1F1"/>
<rect x="433.515" y="286" width="5" height="5" fill="#F1F1F1"/>
<rect x="441.286" y="286" width="5" height="5" fill="#F1F1F1"/>
<rect x="449.057" y="286" width="5" height="5" fill="#F1F1F1"/>
<rect x="456.828" y="286" width="5" height="5" fill="#F1F1F1"/>
<rect x="464.6" y="286" width="5" height="5" fill="#F1F1F1"/>
<rect x="472.371" y="286" width="5" height="5" fill="#F1F1F1"/>
<rect x="480.143" y="286" width="5" height="5" fill="#F1F1F1"/>
<rect x="487.914" y="286" width="5" height="5" fill="#F1F1F1"/>
<rect x="495.686" y="286" width="5" height="5" fill="#F1F1F1"/>
<rect x="503.457" y="286" width="5" height="5" fill="#F1F1F1"/>
<rect x="511.229" y="286" width="5" height="5" fill="#F1F1F1"/>
<rect x="519" y="286" width="5" height="5" fill="#F1F1F1"/>
<rect x="247" y="295.6" width="5" height="5" fill="#F1F1F1"/>
<rect x="254.771" y="295.6" width="5" height="5" fill="#F1F1F1"/>
<rect x="262.543" y="295.6" width="5" height="5" fill="#F1F1F1"/>
<rect x="270.314" y="295.6" width="5" height="5" fill="#F1F1F1"/>
<rect x="278.086" y="295.6" width="5" height="5" fill="#F1F1F1"/>
<rect x="285.857" y="295.6" width="5" height="5" fill="#F1F1F1"/>
<rect x="293.629" y="295.6" width="5" height="5" fill="#F1F1F1"/>
<rect x="301.4" y="295.6" width="5" height="5" fill="#F1F1F1"/>
<rect x="309.172" y="295.6" width="5" height="5" fill="#F1F1F1"/>
<rect x="316.942" y="295.6" width="5" height="5" fill="#F1F1F1"/>
<rect x="324.714" y="295.6" width="5" height="5" fill="#F1F1F1"/>
<rect x="332.485" y="295.6" width="5" height="5" fill="#F1F1F1"/>
<rect x="340.257" y="295.6" width="5" height="5" fill="#F1F1F1"/>
<rect x="348.028" y="295.6" width="5" height="5" fill="#F1F1F1"/>
<rect x="355.8" y="295.6" width="5" height="5" fill="#F1F1F1"/>
<rect x="363.571" y="295.6" width="5" height="5" fill="#F1F1F1"/>
<rect x="371.343" y="295.6" width="5" height="5" fill="#F1F1F1"/>
<rect x="379.114" y="295.6" width="5" height="5" fill="#F1F1F1"/>
<rect x="386.886" y="295.6" width="5" height="5" fill="#F1F1F1"/>
<rect x="394.657" y="295.6" width="5" height="5" fill="#F1F1F1"/>
<rect x="402.429" y="295.6" width="5" height="5" fill="#F1F1F1"/>
<rect x="410.2" y="295.6" width="5" height="5" fill="#F1F1F1"/>
<rect x="417.972" y="295.6" width="5" height="5" fill="#F1F1F1"/>
<rect x="425.743" y="295.6" width="5" height="5" fill="#F1F1F1"/>
<rect x="433.515" y="295.6" width="5" height="5" fill="#F1F1F1"/>
<rect x="441.286" y="295.6" width="5" height="5" fill="#F1F1F1"/>
<rect x="449.057" y="295.6" width="5" height="5" fill="#F1F1F1"/>
<rect x="456.828" y="295.6" width="5" height="5" fill="#F1F1F1"/>
<rect x="464.6" y="295.6" width="5" height="5" fill="#F1F1F1"/>
<rect x="472.371" y="295.6" width="5" height="5" fill="#F1F1F1"/>
<rect x="480.143" y="295.6" width="5" height="5" fill="#F1F1F1"/>
<rect x="487.914" y="295.6" width="5" height="5" fill="#F1F1F1"/>
<rect x="495.686" y="295.6" width="5" height="5" fill="#F1F1F1"/>
<rect x="503.457" y="295.6" width="5" height="5" fill="#F1F1F1"/>
<rect x="511.229" y="295.6" width="5" height="5" fill="#F1F1F1"/>
<rect x="519" y="295.6" width="5" height="5" fill="#F1F1F1"/>
<rect x="247" y="305.199" width="5" height="5" fill="#F1F1F1"/>
<rect x="254.771" y="305.199" width="5" height="5" fill="#F1F1F1"/>
<rect x="262.543" y="305.199" width="5" height="5" fill="#F1F1F1"/>
<rect x="270.314" y="305.199" width="5" height="5" fill="#F1F1F1"/>
<rect x="278.086" y="305.199" width="5" height="5" fill="#F1F1F1"/>
<rect x="285.857" y="305.199" width="5" height="5" fill="#F1F1F1"/>
<rect x="293.629" y="305.199" width="5" height="5" fill="#F1F1F1"/>
<rect x="301.4" y="305.199" width="5" height="5" fill="#F1F1F1"/>
<rect x="309.172" y="305.199" width="5" height="5" fill="#F1F1F1"/>
<rect x="316.942" y="305.199" width="5" height="5" fill="#F1F1F1"/>
<rect x="324.714" y="305.199" width="5" height="5" fill="#F1F1F1"/>
<rect x="332.485" y="305.199" width="5" height="5" fill="#F1F1F1"/>
<rect x="340.257" y="305.199" width="5" height="5" fill="#F1F1F1"/>
<rect x="348.028" y="305.199" width="5" height="5" fill="#F1F1F1"/>
<rect x="355.8" y="305.199" width="5" height="5" fill="#F1F1F1"/>
<rect x="363.571" y="305.199" width="5" height="5" fill="#F1F1F1"/>
<rect x="371.343" y="305.199" width="5" height="5" fill="#F1F1F1"/>
<rect x="379.114" y="305.199" width="5" height="5" fill="#F1F1F1"/>
<rect x="386.886" y="305.199" width="5" height="5" fill="#F1F1F1"/>
<rect x="394.657" y="305.199" width="5" height="5" fill="#F1F1F1"/>
<rect x="402.429" y="305.199" width="5" height="5" fill="#F1F1F1"/>
<rect x="410.2" y="305.199" width="5" height="5" fill="#F1F1F1"/>
<rect x="417.972" y="305.199" width="5" height="5" fill="#F1F1F1"/>
<rect x="425.743" y="305.199" width="5" height="5" fill="#F1F1F1"/>
<rect x="433.515" y="305.199" width="5" height="5" fill="#F1F1F1"/>
<rect x="441.286" y="305.199" width="5" height="5" fill="#F1F1F1"/>
<rect x="449.057" y="305.199" width="5" height="5" fill="#F1F1F1"/>
<rect x="456.828" y="305.199" width="5" height="5" fill="#F1F1F1"/>
<rect x="464.6" y="305.199" width="5" height="5" fill="#F1F1F1"/>
<rect x="472.371" y="305.199" width="5" height="5" fill="#F1F1F1"/>
<rect x="480.143" y="305.199" width="5" height="5" fill="#F1F1F1"/>
<rect x="487.914" y="305.199" width="5" height="5" fill="#F1F1F1"/>
<rect x="495.686" y="305.199" width="5" height="5" fill="#F1F1F1"/>
<rect x="503.457" y="305.199" width="5" height="5" fill="#F1F1F1"/>
<rect x="511.229" y="305.199" width="5" height="5" fill="#F1F1F1"/>
<rect x="519" y="305.199" width="5" height="5" fill="#F1F1F1"/>
<rect x="247" y="314.801" width="5" height="5" fill="#F1F1F1"/>
<rect x="254.771" y="314.801" width="5" height="5" fill="#F1F1F1"/>
<rect x="262.543" y="314.801" width="5" height="5" fill="#F1F1F1"/>
<rect x="270.314" y="314.801" width="5" height="5" fill="#F1F1F1"/>
<rect x="278.086" y="314.801" width="5" height="5" fill="#F1F1F1"/>
<rect x="285.857" y="314.801" width="5" height="5" fill="#F1F1F1"/>
<rect x="293.629" y="314.801" width="5" height="5" fill="#F1F1F1"/>
<rect x="301.4" y="314.801" width="5" height="5" fill="#F1F1F1"/>
<rect x="309.172" y="314.801" width="5" height="5" fill="#F1F1F1"/>
<rect x="316.942" y="314.801" width="5" height="5" fill="#F1F1F1"/>
<rect x="324.714" y="314.801" width="5" height="5" fill="#F1F1F1"/>
<rect x="332.485" y="314.801" width="5" height="5" fill="#F1F1F1"/>
<rect x="340.257" y="314.801" width="5" height="5" fill="#F1F1F1"/>
<rect x="348.028" y="314.801" width="5" height="5" fill="#F1F1F1"/>
<rect x="355.8" y="314.801" width="5" height="5" fill="#F1F1F1"/>
<rect x="363.571" y="314.801" width="5" height="5" fill="#F1F1F1"/>
<rect x="371.343" y="314.801" width="5" height="5" fill="#F1F1F1"/>
<rect x="379.114" y="314.801" width="5" height="5" fill="#F1F1F1"/>
<rect x="386.886" y="314.801" width="5" height="5" fill="#F1F1F1"/>
<rect x="394.657" y="314.801" width="5" height="5" fill="#F1F1F1"/>
<rect x="402.429" y="314.801" width="5" height="5" fill="#F1F1F1"/>
<rect x="410.2" y="314.801" width="5" height="5" fill="#F1F1F1"/>
<rect x="417.972" y="314.801" width="5" height="5" fill="#F1F1F1"/>
<rect x="425.743" y="314.801" width="5" height="5" fill="#F1F1F1"/>
<rect x="433.515" y="314.801" width="5" height="5" fill="#F1F1F1"/>
<rect x="441.286" y="314.801" width="5" height="5" fill="#F1F1F1"/>
<rect x="449.057" y="314.801" width="5" height="5" fill="#F1F1F1"/>
<rect x="456.828" y="314.801" width="5" height="5" fill="#F1F1F1"/>
<rect x="464.6" y="314.801" width="5" height="5" fill="#F1F1F1"/>
<rect x="472.371" y="314.801" width="5" height="5" fill="#F1F1F1"/>
<rect x="480.143" y="314.801" width="5" height="5" fill="#F1F1F1"/>
<rect x="487.914" y="314.801" width="5" height="5" fill="#F1F1F1"/>
<rect x="495.686" y="314.801" width="5" height="5" fill="#F1F1F1"/>
<rect x="503.457" y="314.801" width="5" height="5" fill="#F1F1F1"/>
<rect x="511.229" y="314.801" width="5" height="5" fill="#F1F1F1"/>
<rect x="519" y="314.801" width="5" height="5" fill="#F1F1F1"/>
<rect x="247" y="324.4" width="5" height="5" fill="#F1F1F1"/>
<rect x="254.771" y="324.4" width="5" height="5" fill="#F1F1F1"/>
<rect x="262.543" y="324.4" width="5" height="5" fill="#F1F1F1"/>
<rect x="270.314" y="324.4" width="5" height="5" fill="#F1F1F1"/>
<rect x="278.086" y="324.4" width="5" height="5" fill="#F1F1F1"/>
<rect x="285.857" y="324.4" width="5" height="5" fill="#F1F1F1"/>
<rect x="293.629" y="324.4" width="5" height="5" fill="#F1F1F1"/>
<rect x="301.4" y="324.4" width="5" height="5" fill="#F1F1F1"/>
<rect x="309.172" y="324.4" width="5" height="5" fill="#F1F1F1"/>
<rect x="316.942" y="324.4" width="5" height="5" fill="#F1F1F1"/>
<rect x="324.714" y="324.4" width="5" height="5" fill="#F1F1F1"/>
<rect x="332.485" y="324.4" width="5" height="5" fill="#F1F1F1"/>
<rect x="340.257" y="324.4" width="5" height="5" fill="#F1F1F1"/>
<rect x="348.028" y="324.4" width="5" height="5" fill="#F1F1F1"/>
<rect x="355.8" y="324.4" width="5" height="5" fill="#F1F1F1"/>
<rect x="363.571" y="324.4" width="5" height="5" fill="#F1F1F1"/>
<rect x="371.343" y="324.4" width="5" height="5" fill="#F1F1F1"/>
<rect x="379.114" y="324.4" width="5" height="5" fill="#F1F1F1"/>
<rect x="386.886" y="324.4" width="5" height="5" fill="#F1F1F1"/>
<rect x="394.657" y="324.4" width="5" height="5" fill="#F1F1F1"/>
<rect x="402.429" y="324.4" width="5" height="5" fill="#F1F1F1"/>
<rect x="410.2" y="324.4" width="5" height="5" fill="#F1F1F1"/>
<rect x="417.972" y="324.4" width="5" height="5" fill="#F1F1F1"/>
<rect x="425.743" y="324.4" width="5" height="5" fill="#F1F1F1"/>
<rect x="433.515" y="324.4" width="5" height="5" fill="#F1F1F1"/>
<rect x="441.286" y="324.4" width="5" height="5" fill="#F1F1F1"/>
<rect x="449.057" y="324.4" width="5" height="5" fill="#F1F1F1"/>
<rect x="456.828" y="324.4" width="5" height="5" fill="#F1F1F1"/>
<rect x="464.6" y="324.4" width="5" height="5" fill="#F1F1F1"/>
<rect x="472.371" y="324.4" width="5" height="5" fill="#F1F1F1"/>
<rect x="480.143" y="324.4" width="5" height="5" fill="#F1F1F1"/>
<rect x="487.914" y="324.4" width="5" height="5" fill="#F1F1F1"/>
<rect x="495.686" y="324.4" width="5" height="5" fill="#F1F1F1"/>
<rect x="503.457" y="324.4" width="5" height="5" fill="#F1F1F1"/>
<rect x="511.229" y="324.4" width="5" height="5" fill="#F1F1F1"/>
<rect x="519" y="324.4" width="5" height="5" fill="#F1F1F1"/>
<rect x="247" y="334" width="5" height="5" fill="#F1F1F1"/>
<rect x="254.771" y="334" width="5" height="5" fill="#F1F1F1"/>
<rect x="262.543" y="334" width="5" height="5" fill="#F1F1F1"/>
<rect x="270.314" y="334" width="5" height="5" fill="#F1F1F1"/>
<rect x="278.086" y="334" width="5" height="5" fill="#F1F1F1"/>
<rect x="285.857" y="334" width="5" height="5" fill="#F1F1F1"/>
<rect x="293.629" y="334" width="5" height="5" fill="#F1F1F1"/>
<rect x="301.4" y="334" width="5" height="5" fill="#F1F1F1"/>
<rect x="309.172" y="334" width="5" height="5" fill="#F1F1F1"/>
<rect x="316.942" y="334" width="5" height="5" fill="#F1F1F1"/>
<rect x="324.714" y="334" width="5" height="5" fill="#F1F1F1"/>
<rect x="332.485" y="334" width="5" height="5" fill="#F1F1F1"/>
<rect x="340.257" y="334" width="5" height="5" fill="#F1F1F1"/>
<rect x="348.028" y="334" width="5" height="5" fill="#F1F1F1"/>
<rect x="355.8" y="334" width="5" height="5" fill="#F1F1F1"/>
<rect x="363.571" y="334" width="5" height="5" fill="#F1F1F1"/>
<rect x="371.343" y="334" width="5" height="5" fill="#F1F1F1"/>
<rect x="379.114" y="334" width="5" height="5" fill="#F1F1F1"/>
<rect x="386.886" y="334" width="5" height="5" fill="#F1F1F1"/>
<rect x="394.657" y="334" width="5" height="5" fill="#F1F1F1"/>
<rect x="402.429" y="334" width="5" height="5" fill="#F1F1F1"/>
<rect x="410.2" y="334" width="5" height="5" fill="#F1F1F1"/>
<rect x="417.972" y="334" width="5" height="5" fill="#F1F1F1"/>
<rect x="425.743" y="334" width="5" height="5" fill="#F1F1F1"/>
<rect x="433.515" y="334" width="5" height="5" fill="#F1F1F1"/>
<rect x="441.286" y="334" width="5" height="5" fill="#F1F1F1"/>
<rect x="449.057" y="334" width="5" height="5" fill="#F1F1F1"/>
<rect x="456.828" y="334" width="5" height="5" fill="#F1F1F1"/>
<rect x="464.6" y="334" width="5" height="5" fill="#F1F1F1"/>
<rect x="472.371" y="334" width="5" height="5" fill="#F1F1F1"/>
<rect x="480.143" y="334" width="5" height="5" fill="#F1F1F1"/>
<rect x="487.914" y="334" width="5" height="5" fill="#F1F1F1"/>
<rect x="495.686" y="334" width="5" height="5" fill="#F1F1F1"/>
<rect x="503.457" y="334" width="5" height="5" fill="#F1F1F1"/>
<rect x="511.229" y="334" width="5" height="5" fill="#F1F1F1"/>
<rect x="519" y="334" width="5" height="5" fill="#F1F1F1"/>
<path d="M660.796 53.2021H114.956V44.8017C114.962 40.4126 116.709 36.2053 119.814 33.1027C122.919 30.0001 127.127 28.2556 131.516 28.252H644.236C648.625 28.2556 652.834 30 655.938 33.1026C659.043 36.2052 660.79 40.4126 660.796 44.8017V53.2021Z" fill="#3E3D53"/>
<path d="M145.051 45.0356C147.417 45.0356 149.334 43.1178 149.334 40.7522C149.334 38.3865 147.417 36.4688 145.051 36.4688C142.685 36.4688 140.768 38.3865 140.768 40.7522C140.768 43.1178 142.685 45.0356 145.051 45.0356Z" fill="white"/>
<path d="M161.31 45.0356C163.675 45.0356 165.593 43.1178 165.593 40.7522C165.593 38.3865 163.675 36.4688 161.31 36.4688C158.944 36.4688 157.026 38.3865 157.026 40.7522C157.026 43.1178 158.944 45.0356 161.31 45.0356Z" fill="white"/>
<path d="M177.569 45.0356C179.934 45.0356 181.852 43.1178 181.852 40.7522C181.852 38.3865 179.934 36.4688 177.569 36.4688C175.203 36.4688 173.285 38.3865 173.285 40.7522C173.285 43.1178 175.203 45.0356 177.569 45.0356Z" fill="white"/>
<path d="M290.61 271.578C291.715 271.578 292.61 270.683 292.61 269.578C292.61 268.474 291.715 267.578 290.61 267.578C289.506 267.578 288.61 268.474 288.61 269.578C288.61 270.683 289.506 271.578 290.61 271.578Z" fill="#CCCCCC"/>
<path d="M706.825 532.15L694.565 532.149L688.733 484.861L706.827 484.862L706.825 532.15Z" fill="#FFB8B8"/>
<path d="M709.951 544.034L670.421 544.033V543.533C670.421 541.512 670.819 539.511 671.592 537.645C672.365 535.778 673.499 534.082 674.927 532.653C676.356 531.224 678.052 530.091 679.919 529.318C681.786 528.544 683.787 528.146 685.807 528.146H685.808L709.952 528.148L709.951 544.034Z" fill="#3E3D53"/>
<path d="M756.825 532.15L744.565 532.149L738.733 484.861L756.827 484.862L756.825 532.15Z" fill="#FFB8B8"/>
<path d="M759.951 544.034L720.421 544.033V543.533C720.421 541.512 720.819 539.511 721.592 537.645C722.365 535.778 723.499 534.082 724.927 532.653C726.356 531.224 728.052 530.091 729.919 529.318C731.786 528.544 733.787 528.146 735.807 528.146H735.808L759.952 528.148L759.951 544.034Z" fill="#3E3D53"/>
<path d="M753.149 511.65L741.795 508.196C740.949 507.94 740.197 507.439 739.634 506.758C739.07 506.076 738.721 505.243 738.629 504.363L728.043 404.037C728.035 403.916 727.981 403.802 727.892 403.719C727.803 403.636 727.686 403.59 727.565 403.59C727.443 403.578 727.322 403.614 727.226 403.691C727.131 403.767 727.069 403.878 727.054 403.999L709.323 501.198C709.215 501.788 708.991 502.35 708.663 502.852C708.335 503.354 707.91 503.785 707.413 504.12C706.916 504.456 706.357 504.688 705.769 504.805C705.181 504.921 704.576 504.919 703.988 504.798L689.477 501.809C688.413 501.586 687.465 500.987 686.807 500.121C686.149 499.256 685.825 498.182 685.895 497.097L696.681 337.784L769.819 329.893L758.951 507.619C758.88 508.762 758.377 509.835 757.544 510.62C756.712 511.405 755.611 511.844 754.466 511.847C754.02 511.847 753.576 511.78 753.149 511.65Z" fill="#3E3D53"/>
<path d="M753.081 199.048C766.645 199.048 777.642 188.051 777.642 174.487C777.642 160.922 766.645 149.926 753.081 149.926C739.516 149.926 728.52 160.922 728.52 174.487C728.52 188.051 739.516 199.048 753.081 199.048Z" fill="#FFB8B8"/>
<path d="M696.568 338.719L712.427 238.868C713.27 233.559 715.234 228.49 718.188 224C721.143 219.509 725.02 215.699 729.561 212.823C734.103 209.947 739.205 208.071 744.528 207.32C749.85 206.57 755.272 206.961 760.432 208.468C769.453 211.078 777.178 216.956 782.097 224.956C787.016 232.956 788.776 242.503 787.033 251.731L770.442 340.902L696.568 338.719Z" fill="#009CDF"/>
<path d="M759.861 356.585C761.087 355.775 762.122 354.706 762.891 353.453C763.659 352.2 764.144 350.793 764.311 349.333C764.477 347.872 764.322 346.393 763.855 344.999C763.388 343.605 762.621 342.33 761.608 341.265L778.004 309.514L759.539 311.484L746.8 341.334C745.123 343.154 744.172 345.526 744.127 348.001C744.082 350.475 744.946 352.881 746.556 354.761C748.166 356.64 750.41 357.865 752.862 358.201C755.314 358.537 757.804 357.962 759.861 356.585Z" fill="#FFB8B8"/>
<path d="M763.372 335.666C762.465 335.538 761.619 335.137 760.946 334.515L754.672 328.719C753.995 328.089 753.527 327.267 753.331 326.363C753.136 325.459 753.223 324.517 753.581 323.664L766.118 293.946L764.34 235.226C764.595 233.339 765.22 231.52 766.179 229.874C767.138 228.228 768.412 226.788 769.928 225.634C771.444 224.481 773.173 223.638 775.015 223.153C776.857 222.668 778.777 222.551 780.664 222.809C782.551 223.066 784.37 223.693 786.015 224.654C787.659 225.614 789.099 226.889 790.251 228.407C791.403 229.924 792.244 231.653 792.727 233.496C793.21 235.338 793.326 237.258 793.067 239.145L796.108 276.057C797.032 287.26 793.856 298.418 787.17 307.454L767.618 333.886C767.242 334.394 766.763 334.818 766.212 335.128C765.662 335.439 765.052 335.631 764.423 335.69C764.073 335.724 763.72 335.715 763.372 335.666Z" fill="#009CDF"/>
<path d="M611.641 161.105C611.909 162.551 612.49 163.92 613.344 165.116C614.198 166.313 615.304 167.308 616.584 168.031C617.864 168.753 619.287 169.187 620.753 169.3C622.219 169.414 623.692 169.204 625.068 168.687L647.913 196.165L653.298 178.393L630.778 155.024C629.756 152.77 627.942 150.969 625.681 149.963C623.419 148.957 620.867 148.815 618.508 149.565C616.15 150.314 614.148 151.903 612.882 154.03C611.616 156.157 611.175 158.674 611.641 161.105Z" fill="#FFB8B8"/>
<path d="M629.537 172.495C630.008 171.71 630.708 171.087 631.543 170.71L639.326 167.193C640.17 166.814 641.11 166.704 642.018 166.876C642.927 167.049 643.76 167.496 644.406 168.158L666.884 191.29L721.65 212.547C723.289 213.518 724.721 214.803 725.863 216.328C727.005 217.852 727.835 219.587 728.307 221.433C728.778 223.279 728.88 225.2 728.609 227.086C728.337 228.971 727.696 230.785 726.723 232.423C725.75 234.061 724.464 235.491 722.938 236.631C721.411 237.771 719.675 238.6 717.829 239.069C715.983 239.538 714.062 239.638 712.176 239.364C710.291 239.09 708.478 238.448 706.841 237.473L671.665 225.881C660.988 222.365 651.952 215.089 646.237 205.409L629.52 177.099C629.199 176.554 628.996 175.948 628.924 175.32C628.853 174.692 628.914 174.056 629.105 173.453C629.21 173.118 629.355 172.797 629.537 172.495Z" fill="#009CDF"/>
<path opacity="0.1" d="M773.002 259.652L772.002 291.652L753.58 323.663L768.962 287.99L773.002 259.652Z" fill="#3E3D53"/>
<path d="M750.266 179.102C748.723 179.302 747.16 178.936 745.867 178.071C744.574 177.206 743.639 175.902 743.235 174.399C742.846 172.67 741.993 171.08 740.769 169.799C739.544 168.517 737.994 167.593 736.285 167.126C731.779 166.096 726.272 168.217 722.971 164.804C722.264 164.024 721.753 163.088 721.479 162.072C721.205 161.057 721.176 159.99 721.396 158.961C722.004 155.644 724.377 153.138 726.959 151.134C732.393 146.935 738.969 144.478 745.825 144.083C749.374 143.98 752.925 144.157 756.446 144.611C760.133 144.844 763.779 145.51 767.31 146.597C771.332 148.115 774.907 150.622 777.703 153.887C780.5 157.152 782.429 161.069 783.311 165.277C784.118 169.498 783.994 173.843 782.948 178.011C781.902 182.179 779.959 186.068 777.254 189.407C774.016 193.439 769.842 196.618 765.094 198.666C763.963 199.2 762.667 199.266 761.487 198.849C758.53 197.673 759.013 194.01 760.362 191.566C761.805 188.952 764.025 186.42 762.865 183.238C762.283 181.762 761.166 180.56 759.737 179.872C756.798 178.372 753.509 178.727 750.349 179.092L750.266 179.102Z" fill="#2F2E41"/>
<path d="M813.272 545.473H621.271C621.006 545.473 620.752 545.367 620.564 545.18C620.377 544.992 620.271 544.738 620.271 544.473C620.271 544.207 620.377 543.953 620.564 543.766C620.752 543.578 621.006 543.473 621.271 543.473H813.272C813.537 543.473 813.791 543.578 813.979 543.766C814.166 543.953 814.272 544.207 814.272 544.473C814.272 544.738 814.166 544.992 813.979 545.18C813.791 545.367 813.537 545.473 813.272 545.473Z" fill="#CCCCCC"/>
<path d="M101.165 233.853C113.962 233.853 124.336 223.479 124.336 210.681C124.336 197.884 113.962 187.51 101.165 187.51C88.3675 187.51 77.9932 197.884 77.9932 210.681C77.9932 223.479 88.3675 233.853 101.165 233.853Z" fill="#FFB8B8"/>
<path d="M139.328 533.174H150.895L156.397 488.561H139.326L139.328 533.174Z" fill="#A0616A"/>
<path d="M136.378 529.397L159.156 529.396C161.062 529.396 162.951 529.772 164.712 530.501C166.473 531.231 168.073 532.3 169.421 533.648C170.769 534.996 171.839 536.596 172.568 538.357C173.298 540.118 173.673 542.006 173.673 543.912V544.384L136.379 544.385L136.378 529.397Z" fill="#3E3D53"/>
<path d="M24.3662 517.183L34.3042 523.1L61.8572 487.583L47.1892 478.85L24.3662 517.183Z" fill="#A0616A"/>
<path d="M23.7633 512.428L43.3349 524.081C44.9729 525.056 46.4034 526.345 47.5434 527.872C48.6835 529.4 49.5114 531.138 49.9799 532.986C50.4485 534.833 50.5485 536.755 50.2742 538.642C50 540.528 49.3568 542.342 48.3815 543.98L48.1402 544.385L16.0957 525.306L23.7633 512.428Z" fill="#3E3D53"/>
<path d="M153.624 517.417H140.673C139.624 517.419 138.612 517.032 137.832 516.33C137.052 515.629 136.56 514.663 136.451 513.62L123.394 390.883C123.361 390.574 123.227 390.284 123.013 390.059C122.8 389.834 122.518 389.685 122.211 389.635C121.904 389.586 121.59 389.639 121.316 389.786C121.042 389.934 120.825 390.167 120.697 390.45L97.1413 442.609L55.4377 510.611C54.898 511.483 54.0623 512.131 53.0836 512.437C52.105 512.743 51.049 512.686 50.1088 512.277L33.4486 504.947C32.8977 504.704 32.4047 504.348 32.0022 503.9C31.5997 503.453 31.297 502.925 31.114 502.351C30.9311 501.778 30.8721 501.172 30.941 500.574C31.0099 499.976 31.2052 499.4 31.5138 498.883L69.8509 434.691L81.6085 380.606C77.9106 357.151 93.7635 322.28 93.9243 321.93L94.0028 321.759L137.67 304.691L137.889 304.959C155.111 361.473 165.604 422.292 157.856 513.527C157.76 514.586 157.274 515.571 156.492 516.29C155.709 517.009 154.687 517.411 153.624 517.417Z" fill="#3E3D53"/>
<path d="M92.2428 327.474L92.0394 327.047C91.9422 326.842 82.2324 306.363 74.7474 284.475C73.3089 280.242 72.7651 275.757 73.1504 271.303C73.5358 266.85 74.8419 262.524 76.986 258.602C79.158 254.638 82.1294 251.169 85.7121 248.414C89.2947 245.659 93.4105 243.679 97.7986 242.597C105.417 240.771 113.437 241.743 120.399 245.335C127.36 248.927 132.8 254.901 135.726 262.167C141.664 277.014 139.771 292.862 137.991 305.324L137.955 305.574L137.728 305.683L92.2428 327.474Z" fill="#009CDF"/>
<path d="M129.26 197.594H92.4658V181.555C100.542 178.347 108.444 175.619 113.221 181.555C117.475 181.555 121.554 183.245 124.562 186.253C127.57 189.261 129.26 193.34 129.26 197.594Z" fill="#2F2E41"/>
<path d="M90.4291 178.725C68.4331 178.725 62.2764 206.296 62.2764 221.85C62.2764 230.525 66.1994 233.627 72.3639 234.677L74.541 223.066L79.64 235.177C81.3716 235.185 83.1908 235.152 85.0767 235.117L86.8056 231.557L90.6609 235.053C106.102 235.076 118.581 237.327 118.581 221.85C118.581 206.296 113.182 178.725 90.4291 178.725Z" fill="#2F2E41"/>
<path d="M193 545.473H1C0.734784 545.473 0.480429 545.367 0.292892 545.18C0.105356 544.992 0 544.738 0 544.473C0 544.207 0.105356 543.953 0.292892 543.766C0.480429 543.578 0.734784 543.473 1 543.473H193C193.265 543.473 193.52 543.578 193.707 543.766C193.895 543.953 194 544.207 194 544.473C194 544.738 193.895 544.992 193.707 545.18C193.52 545.367 193.265 545.473 193 545.473Z" fill="#CCCCCC"/>
<path d="M188.2 209.581C188.34 209.837 188.469 210.101 188.587 210.372C189.179 211.709 189.482 213.156 189.476 214.618C189.469 216.081 189.154 217.525 188.551 218.857C187.947 220.189 187.069 221.379 185.973 222.348C184.878 223.317 183.59 224.043 182.195 224.48C181.87 224.58 181.54 224.664 181.207 224.73L162.107 274.134C161.476 275.749 160.341 277.117 158.87 278.036C157.399 278.954 155.672 279.374 153.944 279.233L153.848 279.215L112.451 266.753C111.326 266.414 110.279 265.856 109.37 265.11C108.462 264.364 107.71 263.446 107.158 262.408C106.607 261.37 106.267 260.233 106.157 259.062C106.047 257.892 106.171 256.712 106.52 255.589C106.869 254.467 107.437 253.425 108.191 252.523C108.945 251.622 109.87 250.878 110.913 250.336C111.956 249.794 113.097 249.464 114.268 249.365C115.439 249.266 116.618 249.401 117.737 249.76L147.028 259.164L169.704 218.962C169.504 218.545 169.333 218.114 169.193 217.673C168.425 215.215 168.597 212.56 169.677 210.223C170.756 207.886 172.666 206.033 175.034 205.025C177.403 204.016 180.062 203.924 182.495 204.766C184.928 205.608 186.961 207.324 188.2 209.581Z" fill="#FFB8B8"/>
</g>
<defs>
<clipPath id="clip0_732_17045">
<rect width="814" height="545" fill="white"/>
</clipPath>
</defs>
</svg>
