<svg width="30" height="30" viewBox="0 0 30 30" fill="none" xmlns="http://www.w3.org/2000/svg">
<g clip-path="url(#clip0_14_1679)">
<path d="M29.5509 7.2583H0.967734C0.433301 7.2583 0 7.69154 0 8.22603V24.6776L0.967734 25.1769H28.5831C29.1176 25.1769 29.5509 24.7436 29.5509 24.2092V7.2583Z" fill="#EAF6FF"/>
<path d="M29.0323 7.2583V22.7422C29.0323 23.8111 28.1657 24.6776 27.0968 24.6776H0C0 25.2121 0.433301 25.6454 0.967734 25.6454H29.0323C29.5668 25.6454 30 25.2121 30 24.6776V8.22603C30 7.69154 29.5667 7.2583 29.0323 7.2583Z" fill="#C4E2FF"/>
<path d="M29.0323 4.35498H0.967734C0.433301 4.35498 0 4.78822 0 5.32271V8.22592H29.0323L29.5573 6.16963L29.0323 4.35498Z" fill="#60B7FF"/>
<path d="M16.9638 6.76852H1.47996C1.21248 6.76852 0.996094 6.55207 0.996094 6.28465C0.996094 6.01717 1.21254 5.80078 1.47996 5.80078H16.9638C17.2313 5.80078 17.4477 6.01723 17.4477 6.28465C17.4477 6.55207 17.2313 6.76852 16.9638 6.76852Z" fill="white"/>
<path d="M23.16 6.76852H21.7814C21.7575 6.76852 21.7383 6.55207 21.7383 6.28465C21.7383 6.01717 21.7576 5.80078 21.7814 5.80078H23.16C23.1839 5.80078 23.2031 6.01723 23.2031 6.28465C23.2031 6.55207 23.1839 6.76852 23.16 6.76852Z" fill="white"/>
<path d="M25.7968 6.76852H24.4181C24.3943 6.76852 24.375 6.55207 24.375 6.28465C24.375 6.01717 24.3943 5.80078 24.4181 5.80078H25.7968C25.8206 5.80078 25.8398 6.01723 25.8398 6.28465C25.8398 6.55207 25.8206 6.76852 25.7968 6.76852Z" fill="white"/>
<path d="M28.2577 6.76852H26.879C26.8552 6.76852 26.8359 6.55207 26.8359 6.28465C26.8359 6.01717 26.8552 5.80078 26.879 5.80078H28.2577C28.2815 5.80078 28.3008 6.01723 28.3008 6.28465C28.3008 6.55207 28.2815 6.76852 28.2577 6.76852Z" fill="white"/>
<path d="M13.5502 16.9355H9.67918C9.4117 16.9355 9.19531 16.7191 9.19531 16.4516C9.19531 16.1842 9.41176 15.9678 9.67918 15.9678H13.5502C13.8177 15.9678 14.034 16.1842 14.034 16.4516C14.034 16.7191 13.8176 16.9355 13.5502 16.9355Z" fill="#678D98"/>
<path d="M13.5502 19.8388H9.67918C9.4117 19.8388 9.19531 19.6224 9.19531 19.355C9.19531 19.0875 9.41176 18.8711 9.67918 18.8711H13.5502C13.8177 18.8711 14.034 19.0875 14.034 19.355C14.034 19.6224 13.8176 19.8388 13.5502 19.8388Z" fill="#678D98"/>
<path d="M13.5502 22.7421H9.67918C9.4117 22.7421 9.19531 22.5257 9.19531 22.2583C9.19531 21.9909 9.41176 21.7744 9.67918 21.7744H13.5502C13.8177 21.7744 14.034 21.9909 14.034 22.2583C14.034 22.5257 13.8176 22.7421 13.5502 22.7421Z" fill="#678D98"/>
<path d="M20.3236 16.9355H16.4526C16.1851 16.9355 15.9688 16.7191 15.9688 16.4516C15.9688 16.1842 16.1852 15.9678 16.4526 15.9678H20.3236C20.5911 15.9678 20.8075 16.1842 20.8075 16.4516C20.8075 16.7191 20.591 16.9355 20.3236 16.9355Z" fill="#678D98"/>
<path d="M20.3236 19.8388H16.4526C16.1851 19.8388 15.9688 19.6224 15.9688 19.355C15.9688 19.0875 16.1852 18.8711 16.4526 18.8711H20.3236C20.5911 18.8711 20.8075 19.0875 20.8075 19.355C20.8075 19.6224 20.591 19.8388 20.3236 19.8388Z" fill="#678D98"/>
<path d="M20.3236 22.7421H16.4526C16.1851 22.7421 15.9688 22.5257 15.9688 22.2583C15.9688 21.9909 16.1852 21.7744 16.4526 21.7744H20.3236C20.5911 21.7744 20.8075 21.9909 20.8075 22.2583C20.8075 22.5257 20.591 22.7421 20.3236 22.7421Z" fill="#678D98"/>
<path d="M27.0971 16.9355H23.2261C22.9586 16.9355 22.7422 16.7191 22.7422 16.4516C22.7422 16.1842 22.9586 15.9678 23.2261 15.9678H27.0971C27.3645 15.9678 27.5809 16.1842 27.5809 16.4516C27.5809 16.7191 27.3645 16.9355 27.0971 16.9355Z" fill="#678D98"/>
<path d="M27.0971 19.8388H23.2261C22.9586 19.8388 22.7422 19.6224 22.7422 19.355C22.7422 19.0875 22.9586 18.8711 23.2261 18.8711H27.0971C27.3645 18.8711 27.5809 19.0875 27.5809 19.355C27.5809 19.6224 27.3645 19.8388 27.0971 19.8388Z" fill="#678D98"/>
<path d="M27.0971 22.7421H23.2261C22.9586 22.7421 22.7422 22.5257 22.7422 22.2583C22.7422 21.9909 22.9586 21.7744 23.2261 21.7744H27.0971C27.3645 21.7744 27.5809 21.9909 27.5809 22.2583C27.5809 22.5257 27.3645 22.7421 27.0971 22.7421Z" fill="#678D98"/>
<path d="M6.77283 16.9355H2.90184C2.63436 16.9355 2.41797 16.7191 2.41797 16.4516C2.41797 16.1842 2.63441 15.9678 2.90184 15.9678H6.77283C7.04031 15.9678 7.2567 16.1842 7.2567 16.4516C7.2567 16.7191 7.04025 16.9355 6.77283 16.9355Z" fill="#678D98"/>
<path d="M6.77283 19.8388H2.90184C2.63436 19.8388 2.41797 19.6224 2.41797 19.355C2.41797 19.0875 2.63441 18.8711 2.90184 18.8711H6.77283C7.04031 18.8711 7.2567 19.0875 7.2567 19.355C7.2567 19.6224 7.04025 19.8388 6.77283 19.8388Z" fill="#678D98"/>
<path d="M6.77283 22.7421H2.90184C2.63436 22.7421 2.41797 22.5257 2.41797 22.2583C2.41797 21.9909 2.63441 21.7744 2.90184 21.7744H6.77283C7.04031 21.7744 7.2567 21.9909 7.2567 22.2583C7.2567 22.5257 7.04025 22.7421 6.77283 22.7421Z" fill="#678D98"/>
<path d="M29.0312 4.35498V8.22598H29.999V5.32271C29.999 4.78822 29.5657 4.35498 29.0312 4.35498Z" fill="#C4E2FF"/>
<path d="M13.5502 13.5485H9.67918C9.41193 13.5485 9.19531 13.3319 9.19531 13.0646V11.613C9.19531 11.3458 9.41193 11.1292 9.67918 11.1292H13.0662C13.3335 11.1292 13.5501 11.3458 13.5501 11.613L13.5502 13.5485Z" fill="#DFBDF0"/>
<path d="M20.3236 13.5485H16.4526C16.1854 13.5485 15.9688 13.3319 15.9688 13.0646V11.613C15.9688 11.3458 16.1854 11.1292 16.4526 11.1292H19.8397C20.1069 11.1292 20.3236 11.3458 20.3236 11.613L20.3236 13.5485Z" fill="#98DB7C"/>
<path d="M27.0971 13.5485H23.2261C22.9588 13.5485 22.7422 13.3319 22.7422 13.0646V11.613C22.7422 11.3458 22.9588 11.1292 23.2261 11.1292H26.6131C26.8804 11.1292 27.097 11.3458 27.097 11.613V13.5485H27.0971Z" fill="#7AD7EE"/>
<path d="M13.5501 11.1292H13.0662V11.613C13.0662 12.4147 12.4163 13.0646 11.6146 13.0646H9.19531V13.5485C9.19531 13.8157 9.41193 14.0324 9.67918 14.0324H13.5502C13.8174 14.0324 14.034 13.8157 14.034 13.5485V11.613C14.034 11.3458 13.8174 11.1292 13.5501 11.1292Z" fill="#CBB0F2"/>
<path d="M6.77283 13.5485H2.90184C2.63459 13.5485 2.41797 13.3319 2.41797 13.0646V11.613C2.41797 11.3458 2.63459 11.1292 2.90184 11.1292H6.28891C6.55615 11.1292 6.77277 11.3458 6.77277 11.613L6.77283 13.5485Z" fill="#FFD05B"/>
<path d="M6.77283 11.1292H6.28896V11.613C6.28896 12.4147 5.63904 13.0646 4.83736 13.0646H2.41797V13.5485C2.41797 13.8157 2.63459 14.0324 2.90184 14.0324H6.77283C7.04008 14.0324 7.2567 13.8157 7.2567 13.5485V11.613C7.2567 11.3458 7.04008 11.1292 6.77283 11.1292Z" fill="#FFC244"/>
<path d="M27.097 11.1292H26.6131V11.613C26.6131 12.4147 25.9632 13.0646 25.1615 13.0646H22.7422V13.5485C22.7422 13.8157 22.9588 14.0324 23.2261 14.0324H27.0971C27.3643 14.0324 27.5809 13.8157 27.5809 13.5485V11.613C27.5809 11.3458 27.3642 11.1292 27.097 11.1292Z" fill="#4BC3EF"/>
<path d="M20.3236 11.1292H19.8397V11.613C19.8397 12.4147 19.1898 13.0646 18.3881 13.0646H15.9688V13.5485C15.9688 13.8157 16.1854 14.0324 16.4526 14.0324H20.3236C20.5909 14.0324 20.8075 13.8157 20.8075 13.5485V11.613C20.8074 11.3458 20.5908 11.1292 20.3236 11.1292Z" fill="#77CC7D"/>
</g>
<defs>
<clipPath id="clip0_14_1679">
<rect width="30" height="30" fill="white"/>
</clipPath>
</defs>
</svg>
