<svg width="24" height="24" viewBox="0 0 24 24" fill="none" xmlns="http://www.w3.org/2000/svg">
<path d="M12.4122 0C11.2098 0 10.3088 0.900916 10.3088 2.10341C10.3088 2.50423 10.4093 2.90506 10.7097 3.30589L11.6106 2.40498V2.10468C11.6106 1.60332 12.0114 1.20376 12.5115 1.20376C13.0116 1.20376 13.4124 1.60459 13.4124 2.10468C13.4124 2.60475 13.0116 3.00559 12.5115 3.00559H12.2112L11.3103 3.80724C12.3117 4.40785 13.6147 4.20808 14.2153 3.20664C14.8159 2.2052 14.6161 0.902187 13.6147 0.301582C13.3144 0.101801 12.9136 0.0012718 12.4122 0.0012718V0Z" fill="#AECBFA"/>
<path d="M11.6105 6.11031C11.6105 5.40917 11.4107 4.70803 11.0099 4.10742L9.80738 5.3099C9.90792 5.61024 10.0072 5.81124 10.0072 6.11158C10.0072 6.61292 9.80738 7.01246 9.50577 7.31407L10.1064 8.91735C11.1079 8.31675 11.6092 7.2148 11.6092 6.11286L11.6105 6.11031Z" fill="#5E97F6"/>
<path d="M8.40518 7.81316C7.50423 7.81316 6.70255 7.11201 6.70255 6.2098C6.70255 5.30765 7.40369 4.50725 8.30591 4.50725C8.60618 4.50725 9.00705 4.60778 9.30732 4.80759L10.5098 3.7056C9.80866 3.10499 9.10752 2.80469 8.30591 2.80469C6.50282 2.80469 5 4.30748 5 6.11061C5 7.91369 6.40229 9.41644 8.30591 9.41644C8.50564 9.41644 8.80725 9.41644 9.00705 9.31591L8.40645 7.81316H8.40518Z" fill="#5E97F6"/>
<path d="M12.5127 9.11475C11.8116 9.11475 11.1105 9.21528 10.4093 9.41501L11.3102 11.619C11.7111 11.619 12.1119 11.5184 12.5127 11.5184C15.3173 11.5184 17.5211 13.8229 17.5211 16.5269C17.5211 19.2309 15.2167 21.5354 12.5127 21.5354C9.80873 21.5354 7.50423 19.2309 7.50423 16.5269C7.50423 14.6233 8.50571 12.9207 10.2083 12.119L9.30739 9.91508C5.60067 11.7194 4.09912 16.2266 5.90094 19.8327C7.70403 23.5395 12.2112 25.041 15.8173 23.2379C19.524 21.4348 21.0256 16.9277 19.2225 13.3215C17.9208 10.8173 15.316 9.11475 12.5114 9.11475H12.5127Z" fill="#4285F4"/>
</svg>
