<svg width="24" height="24" viewBox="0 0 24 24" fill="none" xmlns="http://www.w3.org/2000/svg">
<g clip-path="url(#clip0_759_46132)">
<path d="M11.3433 16.0008H12.6567V12.4187H15.9602V11.1451H12.6567V7.56299H11.3433V11.1451H8.07959V12.4187H11.3433V16.0008Z" fill="#E8762D"/>
<path d="M5.25375 21.175H6.36817V17.9909H9.31345V16.9959H6.36817V13.772H5.25375V16.9959H2.30847V17.9909H5.25375V21.175Z" fill="#C72037"/>
<path d="M17.6318 9.67227H18.7463V6.48819H21.7313V5.53296H18.7463V2.30908H17.6318V5.53296H14.6866V6.48819H17.6318V9.67227Z" fill="#5B879B"/>
<path d="M11.5423 23.6822H12.4975V21.4136H14.5274V20.5777H12.4975V18.3091H11.5423V20.5777H9.55225V21.4136H11.5423V23.6822Z" fill="#5C6692"/>
<path d="M5.29355 9.67227H6.32837V6.44839H9.31345V5.53296H6.32837V2.30908H5.29355V5.53296H2.30847V6.44839H5.29355V9.67227Z" fill="#EB9129"/>
<path d="M21.0149 14.4486H21.9701V12.2197H24V11.3441H21.9701V9.11523H21.0149V11.3441H19.0249V12.2197H21.0149V14.4486Z" fill="#5C6692"/>
<path fill-rule="evenodd" clip-rule="evenodd" d="M17.6318 21.175H18.7463V17.9909H21.7313V16.9959H18.7463V13.772H17.6318V16.9959H14.6866V17.9909H17.6318V21.175Z" fill="#1F457E"/>
<path d="M14.3682 2.86665V2.19003H12.3781V0.000976562H11.6617V2.19003H9.67164V2.86665H11.6617V5.0557H12.3781V2.86665H14.3682ZM1.99005 14.2895H2.70647V12.1005H4.69652V11.4239H2.70647V9.27461H1.99005V11.4239H0V12.1403L1.99005 12.1005V14.2895Z" fill="#7199A6"/>
</g>
<defs>
<clipPath id="clip0_759_46132">
<rect width="24" height="23.6832" fill="white"/>
</clipPath>
</defs>
</svg>
